<?xml version="1.0" encoding="UTF-8"?>
<svg width="15px" height="15px" viewBox="0 0 15 15" version="1.1" xmlns="http://www.w3.org/2000/svg" xmlns:xlink="http://www.w3.org/1999/xlink">
    <!-- Generator: Sketch 50.2 (55047) - http://www.bohemiancoding.com/sketch -->
    <title>Combined Shape</title>
    <desc>Created with Sketch.</desc>
    <defs></defs>
    <g id="Page-1" stroke="none" stroke-width="1" fill="none" fill-rule="evenodd">
        <g id="Desktop-HD" transform="translate(-18.000000, -218.000000)" fill="#4F4F4F">
            <g id="Dashboard-widgets" transform="translate(0.000000, -209.000000)">
                <g id="Dashboard">
                    <g id="Last-modified" transform="translate(12.000000, 423.000000)">
                        <path d="M9.42611856,12.5543031 C9.41369372,13.4201959 9.37742658,14.1274601 9.31311223,14.188136 C9.06260738,14.1326721 6.79174757,11.9017119 6.79174757,11.67713 C6.79174757,11.4346724 9.05649216,9.24212205 9.31311223,9.16612408 C9.36561484,9.23484837 9.40241612,9.89918223 9.4197633,10.7236341 L12.6282556,10.7236341 L12.6282556,7.49854451 C11.801269,7.48501192 11.1376413,7.44904399 11.0789522,7.38683551 C11.1344161,7.13633066 13.3653763,4.86547085 13.5899582,4.86547085 C13.8324158,4.86547085 16.0249662,7.13021544 16.1009641,7.38683551 C16.029906,7.44112106 15.3220989,7.47862076 14.4589247,7.4951864 L14.4589247,10.7236341 L17.760153,10.7236341 C17.7775002,9.89918223 17.8143015,9.23484837 17.8668041,9.16612408 C18.1234242,9.24212205 20.3881687,11.4346724 20.3881687,11.67713 C20.3881687,11.9017119 18.1173089,14.1326721 17.8668041,14.188136 C17.8024897,14.1274601 17.7662226,13.4201959 17.7537978,12.5543031 L14.4589247,12.5543031 L14.4589247,15.8590737 C15.3220989,15.8756393 16.029906,15.913139 16.1009641,15.9674246 C16.0249662,16.2240446 13.8324158,18.4887892 13.5899582,18.4887892 C13.3653763,18.4887892 11.1344161,16.2179294 11.0789522,15.9674246 C11.1376413,15.9052161 11.801269,15.8692482 12.6282556,15.8557156 L12.6282556,12.5543031 L9.42611856,12.5543031 Z" id="Combined-Shape"></path>
                    </g>
                </g>
            </g>
        </g>
    </g>
</svg>