<svg xmlns="http://www.w3.org/2000/svg" width="43" height="40" viewBox="0 0 43 40">
  <g fill="none" fill-rule="evenodd">
    <path fill="#123E7A" d="M11,0 L43,0 L43,14 C43,19.5228475 38.5228475,24 33,24 L1,24 L1,10 C1,4.4771525 5.4771525,2.79088747e-15 11,1.77635684e-15 Z"/>
    <g transform="translate(18 5)">
      <rect width="8" height="11" x="1" y="1" fill="#123E7A" stroke="#FFFFFF" stroke-width="2" rx="2"/>
      <path fill="#FFFFFF" d="M1.59276284,0.0120167754 L5.52739978,2.3921865 C6.47285075,2.97229112 7.0767377,3.23443714 7.10108808,4.51647445 L7.10108808,12.9940803 C7.12543846,14.2761176 6.42087421,15.109827 5.52739978,14.8562223 L1.39646375,12.8730114 C0.502989324,12.6194067 0.0335715733,11.8608471 0.00195966249,10.9909175 L0.00195966249,1.50288985 C-0.0296522483,0.632960204 0.583455478,0.0120167754 1.59276284,0.0120167754 Z"/>
      <rect width="4" height="5" x="8" y="4" fill="#123E7A"/>
      <path fill="#FFFFFF" d="M9.72371204,6.57984248 L9.72371204,3.96209712 C9.72371204,3.68595474 9.94756966,3.46209712 10.223712,3.46209712 L11.8111927,3.46209712 C12.0873351,3.46209712 12.3111927,3.68595474 12.3111927,3.96209712 L12.3111927,6.57984248 L12.8662898,6.57984248 C12.9931157,6.57984248 13.1152026,6.62803804 13.2078292,6.71467013 C13.4095083,6.90329713 13.4200891,7.21970276 13.2314621,7.42138187 L11.4020464,9.37738468 C11.3944343,9.38552349 11.3865523,9.39340554 11.3784135,9.40101762 C11.1767344,9.58964463 10.8603287,9.5790638 10.6717017,9.37738468 L8.84228602,7.42138187 C8.75565393,7.32875525 8.70745836,7.20666838 8.70745836,7.07984248 C8.70745836,6.8037001 8.93131599,6.57984248 9.20745836,6.57984248 L9.72371204,6.57984248 Z" transform="matrix(0 1 1 0 4.538 -4.538)"/>
    </g>
    <path fill="#123E7A" d="M0.946,37 L0.946,29.311 L2.662,29.311 L2.662,35.471 L5.94,35.471 L5.94,37 L0.946,37 Z M8.272,34.041 C8.272,34.5250024 8.40949862,34.9191651 8.6845,35.2235 C8.95950137,35.5278349 9.31149785,35.68 9.7405,35.68 C10.1695021,35.68 10.5214986,35.5278349 10.7965,35.2235 C11.0715014,34.9191651 11.209,34.5250024 11.209,34.041 C11.209,33.5569976 11.0715014,33.1610015 10.7965,32.853 C10.5214986,32.5449985 10.1695021,32.391 9.7405,32.391 C9.31149785,32.391 8.95950137,32.5449985 8.6845,32.853 C8.40949862,33.1610015 8.272,33.5569976 8.272,34.041 Z M12.87,34.041 C12.87,34.8990043 12.573003,35.6213304 11.979,36.208 C11.384997,36.7946696 10.6388378,37.088 9.7405,37.088 C8.84216217,37.088 8.09600297,36.7946696 7.502,36.208 C6.90799703,35.6213304 6.611,34.8990043 6.611,34.041 C6.611,33.1829957 6.90799703,32.4588363 7.502,31.8685 C8.09600297,31.2781637 8.84216217,30.983 9.7405,30.983 C10.6388378,30.983 11.384997,31.2781637 11.979,31.8685 C12.573003,32.4588363 12.87,33.1829957 12.87,34.041 Z M18.238,33.92 C18.238,33.443331 18.1060013,33.0693347 17.842,32.798 C17.5779987,32.5266653 17.2516686,32.391 16.863,32.391 C16.4743314,32.391 16.1388347,32.5266653 15.8565,32.798 C15.5741653,33.0693347 15.433,33.4396643 15.433,33.909 C15.433,34.3783357 15.5704986,34.7578319 15.8455,35.0475 C16.1205014,35.3371681 16.455998,35.482 16.852,35.482 C17.248002,35.482 17.5779987,35.3390014 17.842,35.053 C18.1060013,34.7669986 18.238,34.3893357 18.238,33.92 Z M18.469,35.999 C17.9483307,36.5783362 17.3011705,36.868 16.5275,36.868 C15.7538295,36.868 15.1011693,36.605836 14.5695,36.0815 C14.0378307,35.557164 13.772,34.8568377 13.772,33.9805 C13.772,33.1041623 14.0451639,32.3855028 14.5915,31.8245 C15.1378361,31.2634972 15.7629965,30.983 16.467,30.983 C17.1710035,30.983 17.7539977,31.2726638 18.216,31.852 L18.216,31.071 L19.866,31.071 L19.866,36.23 C19.866,36.7580026 19.7743342,37.2273313 19.591,37.638 C19.4076657,38.0486687 19.1620015,38.3713322 18.854,38.606 C18.2453303,39.0900024 17.5266708,39.332 16.698,39.332 C16.2579978,39.332 15.8088356,39.2605007 15.3505,39.1175 C14.8921644,38.9744993 14.4906684,38.7710013 14.146,38.507 L14.784,37.264 C15.3266694,37.6746687 15.900497,37.88 16.5055,37.88 C17.110503,37.88 17.5889982,37.7296682 17.941,37.429 C18.2930018,37.1283318 18.469,36.6516699 18.469,35.999 Z M25.652,34.041 C25.652,34.5250024 25.7894986,34.9191651 26.0645,35.2235 C26.3395014,35.5278349 26.6914979,35.68 27.1205,35.68 C27.5495021,35.68 27.9014986,35.5278349 28.1765,35.2235 C28.4515014,34.9191651 28.589,34.5250024 28.589,34.041 C28.589,33.5569976 28.4515014,33.1610015 28.1765,32.853 C27.9014986,32.5449985 27.5495021,32.391 27.1205,32.391 C26.6914979,32.391 26.3395014,32.5449985 26.0645,32.853 C25.7894986,33.1610015 25.652,33.5569976 25.652,34.041 Z M30.25,34.041 C30.25,34.8990043 29.953003,35.6213304 29.359,36.208 C28.764997,36.7946696 28.0188378,37.088 27.1205,37.088 C26.2221622,37.088 25.476003,36.7946696 24.882,36.208 C24.287997,35.6213304 23.991,34.8990043 23.991,34.041 C23.991,33.1829957 24.287997,32.4588363 24.882,31.8685 C25.476003,31.2781637 26.2221622,30.983 27.1205,30.983 C28.0188378,30.983 28.764997,31.2781637 29.359,31.8685 C29.953003,32.4588363 30.25,33.1829957 30.25,34.041 Z M35.288,34.272 L35.288,31.082 L36.949,31.082 L36.949,37 L35.288,37 L35.288,36.219 C34.8773313,36.7983362 34.3475032,37.088 33.6985,37.088 C33.0494968,37.088 32.5050022,36.884502 32.065,36.4775 C31.6249978,36.070498 31.405,35.4673373 31.405,34.668 L31.405,31.082 L33.066,31.082 L33.066,34.305 C33.066,35.2143379 33.3996633,35.669 34.067,35.669 C34.3970016,35.669 34.6829988,35.5498345 34.925,35.3115 C35.1670012,35.0731655 35.288,34.7266689 35.288,34.272 Z M40.48,32.27 L40.48,34.921 C40.48,35.1483345 40.5386661,35.326166 40.656,35.4545 C40.7733339,35.582834 40.9126659,35.647 41.074,35.647 C41.3820015,35.647 41.6423323,35.5076681 41.855,35.229 L42.471,36.384 C41.9576641,36.8533357 41.4168362,37.088 40.8485,37.088 C40.2801638,37.088 39.7998353,36.9010019 39.4075,36.527 C39.0151647,36.1529981 38.819,35.6433366 38.819,34.998 L38.819,32.27 L38.126,32.27 L38.126,31.082 L38.819,31.082 L38.819,29.311 L40.48,29.311 L40.48,31.082 L41.91,31.082 L41.91,32.27 L40.48,32.27 Z"/>
  </g>
</svg>
