<?xml version="1.0" encoding="UTF-8"?>
<svg width="151px" height="17px" viewBox="0 0 151 17" version="1.1" xmlns="http://www.w3.org/2000/svg" xmlns:xlink="http://www.w3.org/1999/xlink">
    <!-- Generator: Sketch 52.3 (67297) - http://www.bohemiancoding.com/sketch -->
    <title>LOGOBE</title>
    <desc>Created with Sketch.</desc>
    <g id="Page-1" stroke="none" stroke-width="1" fill="none" fill-rule="evenodd">
        <g id="LOGOBE">
            <g id="Group-12" transform="translate(21.871701, 0.300000)" fill="#FFFFFF">
                <g id="Group-2-Copy" transform="translate(0.110837, 0.000000)">
                    <g id="I" transform="translate(16.711962, 0.143962)">
                        <polygon id="Combined-Shape" points="0.0229088405 0.0101980084 5.92859584 0.0101980084 5.92859584 15.5106357 0.0229088405 15.5106357"></polygon>
                    </g>
                    <g id="T" transform="translate(24.045482, 0.113990)">
                        <polygon id="Combined-Shape" points="10.3858633 4.49845057 10.3858633 15.540608 4.48017634 15.540608 4.4623536 4.49845057 5.68434189e-14 4.49845057 5.68434189e-14 0.0401703295 4.07288758 0.0401703295 14.8660397 0.0401703295 14.8660397 4.49845057"></polygon>
                    </g>
                    <g id="E" transform="translate(40.007330, 0.056058)">
                        <polygon id="Combined-Shape" points="5.93194674 6.18641101 14.5113574 6.18641101 14.5113574 9.77070263 5.93194674 9.77070263 5.93194674 11.3835883 14.8922994 11.3835883 14.8922994 15.6173925 5.93194674 15.6173925 5.93194674 15.620002 0.0262597475 15.620002 0.0262597475 4.56430963 0.0262597475 0.100564633 4.09914733 0.100564633 14.8922994 0.100564633 14.8922994 4.56430963 5.93194674 4.56430963"></polygon>
                    </g>
                    <g id="T" transform="translate(56.021698, 0.056058)">
                        <polygon id="Combined-Shape" points="10.3858633 4.55520334 10.3858633 15.5888384 4.48017634 15.5888384 4.46300469 4.55520334 0 4.55520334 0 0.100363995 4.07288758 0.100363995 14.8660397 0.100363995 14.8660397 4.55520334"></polygon>
                    </g>
                    <g id="R" transform="translate(71.983546, 0.056058)" fill-rule="nonzero">
                        <path d="M13.0595675,9.64046851 L15.7068769,15.595968 L9.80118995,15.595968 L7.64676736,10.2106 L7.67014089,10.2076703 L5.93194674,10.2076703 L5.93194674,15.5985739 L0.0262597475,15.5985739 L0.0262597475,7.56961497 L0.0262597475,0.100426675 L12.7068769,0.100426675 C14.3637312,0.100426675 15.7068769,1.48307671 15.7068769,3.18866197 L15.7068769,5.15404848 C15.7068769,7.10535796 14.6325506,8.79836501 13.0595675,9.64046851 Z M5.93524197,4.05936443 L5.93524197,7.05394075 L9.43771872,7.05394075 C9.99000347,7.05394075 10.4377187,6.59305741 10.4377187,6.02452899 L10.4377187,5.0887762 C10.4377187,4.52024778 9.99000347,4.05936443 9.43771872,4.05936443 L5.93524197,4.05936443 Z" id="Combined-Shape"></path>
                    </g>
                    <g id="I" transform="translate(89.624747, 0.056058)">
                        <polygon id="Combined-Shape" points="0.0262597475 0.100426675 5.93194674 0.100426675 5.93194674 15.5985739 0.0262597475 15.5985739"></polygon>
                    </g>
                    <g id="K" transform="translate(97.491017, 0.056058)">
                        <polygon id="Combined-Shape" points="5.93194674 9.780669 5.93194674 15.5985739 0.0262597475 15.5985739 0.0262597475 0.100426675 5.93194674 0.100426675 5.93194674 5.85903824 9.88336113 0.100426675 15.70491 0.100426675 11.7726991 5.87433179 15.7068769 15.595968 9.80118995 15.595968 7.44783913 9.780669"></polygon>
                    </g>
                    <g id="S" transform="translate(0.104442, 0.056066)">
                        <path d="M14.9527018,6.48464875 L14.9527018,8.36761054 C14.9527018,12.3473095 11.818695,15.5734929 7.95270178,15.5734929 L0.0866621,15.5734929 L0.0866621,11.2044524 L8.49371474,11.2044524 C8.95077961,11.2044524 9.31244108,10.8311095 9.31244108,10.3705679 L9.31244108,9.53668348 C9.31244108,9.53668348 2.43259925,9.53668348 0.0866621,9.53668348 L0.0866621,7.34962066 C0.0866621,3.36992173 3.22066885,0.143738309 7.0866621,0.143738309 L14.9527018,0.143738309 L14.9527018,4.55071883 L6.7240926,4.55071883 C6.20909062,4.55071883 5.78870471,4.98364379 5.78870471,5.51768379 L5.78870471,6.48464875 L14.9527018,6.48464875 Z" id="Combined-Shape" transform="translate(7.519682, 7.858616) rotate(180.000000) translate(-7.519682, -7.858616) "></path>
                    </g>
                    <g id="S-Copy" transform="translate(113.858114, 0.189204)">
                        <path d="M14.9406714,6.35151102 L14.9406714,8.23447281 C14.9406714,12.2141717 11.8066646,15.4403552 7.94067138,15.4403552 L0.0746317,15.4403552 L0.0746317,11.0713146 L8.48168434,11.0713146 C8.93874921,11.0713146 9.30041068,10.6979718 9.30041068,10.2374302 L9.30041068,9.40354574 C9.30041068,9.40354574 2.42056884,9.40354574 0.0746317,9.40354574 L0.0746317,7.21648292 C0.0746317,3.23678399 3.20863845,0.0106005735 7.0746317,0.0106005735 L14.9406714,0.0106005735 L14.9406714,4.41758109 L6.7120622,4.41758109 C6.19706021,4.41758109 5.77667431,4.85050605 5.77667431,5.38454605 L5.77667431,6.35151102 L14.9406714,6.35151102 Z" id="Combined-Shape" transform="translate(7.507652, 7.725478) rotate(180.000000) translate(-7.507652, -7.725478) "></path>
                    </g>
                </g>
            </g>
            <g id="Group" transform="translate(0.000000, 0.500000)">
                <path d="M14.9190978,1.24995361e-05 L15.4929092,1.24995361e-05 C15.4929092,3.98770909 15.7373409,9.28329578 13.3559562,12.029919 C10.6252114,15.1794846 4.9751511,15.5 0.573811451,15.5 L0,15.5 C-4.93907005e-16,11.3099122 0.0709415867,5.66148112 2.67119125,2.87176989 C5.38328726,-0.0379371231 10.7125643,1.24995361e-05 14.9190978,1.24995361e-05 Z" id="Rectangle" fill="#123E7A"></path>
                <path d="M0.513245033,14.9798658 L6.75359672,14.9798658 C11.0054578,14.9798658 14.986755,10.9317456 14.986755,6.62281257 L14.986755,0.520134231 L8.74640328,0.520134231 C4.49454222,0.520134231 0.513245033,4.56825441 0.513245033,8.87718743 L0.513245033,14.9798658 Z M8.74640328,0 L15.5,0 L15.5,6.62281257 C15.5,11.2190078 11.2889152,15.5 6.75359672,15.5 L0,15.5 L0,8.87718743 C-5.55416326e-16,4.28099221 4.21108481,0 8.74640328,0 Z" id="Rectangle" fill="#FFFFFF" fill-rule="nonzero"></path>
                <path d="M9.54538773,6 C9.63557127,10.9690025 10.0133392,12.6829448 9,13.5 C8.33333333,14.6886666 5.33333333,15.3553333 0,15.5 C9.48807404e-06,10.8619099 0.399527308,8.0075567 1.19855346,6.93694024 L1.19855346,7.5 C3.5,5.5 4.0257698,6 9.54538773,6 Z" id="Rectangle" fill-opacity="0.53" fill="#008CFF"></path>
                <path d="M0.493527508,15.0029335 L5.23139156,15.0029335 C7.68450102,15.0029335 9.50647248,13.3390183 9.50647248,10.8683181 L9.50647248,5.99706648 L4.76860841,5.99706648 C2.31549896,5.99706648 0.493527508,7.99996476 0.493527508,10.4706649 L0.493527508,15.0029335 Z M4.76860841,5.5 L10,5.5 L10,10.8683181 C10,13.6135406 7.95706873,15.5 5.23139156,15.5 L0,15.5 L0,10.4706649 C-3.33799181e-16,7.72544252 2.04293125,5.5 4.76860841,5.5 Z" id="Rectangle" fill="#FFFFFF" fill-rule="nonzero"></path>
                <path d="M1.15622298,11.1258529 C1.45335593,10.8336176 2.30095539,10.5 4.88006673,10.5 C4.88006621,11.7771922 4.88006621,13.0010429 4.88006673,14.1715521 C4.65759722,14.4014986 4.44651493,14.6402633 4.24744268,14.8871417 C3.90118843,15.3165472 2.4853742,15.53125 0,15.53125 C0,13.2877484 0.238949774,11.9555761 0.716849323,11.5347333 C0.867438621,11.4021245 1.01395204,11.2657788 1.15622298,11.1258529 Z" id="Rectangle" fill="#0089FA"></path>
                <path d="M4.52830191,10.9716981 L2.12264152,10.9716981 C1.21085065,10.9716981 0.471698115,11.7108506 0.471698115,12.6226415 L0.471698115,15.0283019 L2.8773585,15.0283019 C3.78914936,15.0283019 4.52830191,14.2891494 4.52830191,13.3773585 L4.52830191,10.9716981 Z M2.12264152,10.5 L5,10.5 L5,13.3773585 C5,14.549661 4.04966104,15.5 2.8773585,15.5 L0,15.5 L4.18952086e-17,12.6226415 C-1.04738021e-16,11.450339 0.950338979,10.5 2.12264152,10.5 Z" id="Rectangle" fill="#FFFFFF" fill-rule="nonzero"></path>
                <path d="M4.8,10.7 L15,0.5" id="Line-8" stroke="#FFFFFF" stroke-width="0.6" stroke-linecap="round" stroke-linejoin="round"></path>
            </g>
        </g>
    </g>
</svg>