<svg xmlns="http://www.w3.org/2000/svg" width="37" height="36" viewBox="0 0 37 36" xmlns:xlink="http://www.w3.org/1999/xlink">
  <defs>
    <path id="b" d="M22.4635671,9.2150567 L22.4635671,18.737282 L13.7750472,18.737282 L13.7750472,9.2150567 L7.87926587,9.2150567 L17.9641551,0 L28.0490442,9.2150567 L22.4635671,9.2150567 Z"/>
    <filter id="a" width="133.7%" height="136.3%" x="-12.9%" y="-13.9%" filterUnits="objectBoundingBox">
      <feOffset dx=".8" dy=".8" in="SourceAlpha" result="shadowOffsetOuter1"/>
      <feGaussianBlur stdDeviation="1" in="shadowOffsetOuter1" result="shadowBlurOuter1"/>
      <feColorMatrix values="0 0 0 0 0 0 0 0 0 0 0 0 0 0 0 0 0 0 0.5 0" in="shadowBlurOuter1"/>
    </filter>
    <path id="d" d="M3.249,27.0793355 L3.249,32.3983355 L2.187,32.3983355 L2.187,27.0793355 L0.279,27.0793355 L0.279,26.1073355 L5.157,26.1073355 L5.157,27.0793355 L3.249,27.0793355 Z M10.62,27.5923355 C10.1939979,27.1483333 9.66900312,26.9263355 9.045,26.9263355 C8.42099688,26.9263355 7.89450215,27.1483333 7.4655,27.5923355 C7.03649786,28.0363377 6.822,28.5748324 6.822,29.2078355 C6.822,29.8408387 7.03649786,30.3793333 7.4655,30.8233355 C7.89450215,31.2673377 8.42099688,31.4893355 9.045,31.4893355 C9.66900312,31.4893355 10.1954979,31.2673377 10.6245,30.8233355 C11.0535021,30.3793333 11.268,29.8408387 11.268,29.2078355 C11.268,28.5748324 11.0520022,28.0363377 10.62,27.5923355 Z M11.403,31.5343355 C10.7669968,32.1523386 9.98100468,32.4613355 9.045,32.4613355 C8.10899532,32.4613355 7.32300318,32.1508386 6.687,31.5298355 C6.05099682,30.9088324 5.733,30.1348402 5.733,29.2078355 C5.733,28.2808309 6.05099682,27.5068386 6.687,26.8858355 C7.32300318,26.2648324 8.10899532,25.9543355 9.045,25.9543355 C9.98100468,25.9543355 10.7669968,26.2648324 11.403,26.8858355 C12.0390032,27.5068386 12.357,28.2808309 12.357,29.2078355 C12.357,30.1348402 12.0390032,30.9103324 11.403,31.5343355 Z M18.54,27.0793355 L18.54,32.3983355 L17.478,32.3983355 L17.478,27.0793355 L15.57,27.0793355 L15.57,26.1073355 L20.448,26.1073355 L20.448,27.0793355 L18.54,27.0793355 Z M25.911,27.5923355 C25.4849979,27.1483333 24.9600031,26.9263355 24.336,26.9263355 C23.7119969,26.9263355 23.1855021,27.1483333 22.7565,27.5923355 C22.3274979,28.0363377 22.113,28.5748324 22.113,29.2078355 C22.113,29.8408387 22.3274979,30.3793333 22.7565,30.8233355 C23.1855021,31.2673377 23.7119969,31.4893355 24.336,31.4893355 C24.9600031,31.4893355 25.4864979,31.2673377 25.9155,30.8233355 C26.3445021,30.3793333 26.559,29.8408387 26.559,29.2078355 C26.559,28.5748324 26.3430022,28.0363377 25.911,27.5923355 Z M26.694,31.5343355 C26.0579968,32.1523386 25.2720047,32.4613355 24.336,32.4613355 C23.3999953,32.4613355 22.6140032,32.1508386 21.978,31.5298355 C21.3419968,30.9088324 21.024,30.1348402 21.024,29.2078355 C21.024,28.2808309 21.3419968,27.5068386 21.978,26.8858355 C22.6140032,26.2648324 23.3999953,25.9543355 24.336,25.9543355 C25.2720047,25.9543355 26.0579968,26.2648324 26.694,26.8858355 C27.3300032,27.5068386 27.648,28.2808309 27.648,29.2078355 C27.648,30.1348402 27.3300032,30.9103324 26.694,31.5343355 Z M31.149,26.1073355 C32.1030048,26.1073355 32.7989978,26.2903337 33.237,26.6563355 C33.6750022,27.0223374 33.894,27.5863317 33.894,28.3483355 C33.894,29.1103393 33.6705022,29.6683338 33.2235,30.0223355 C32.7764978,30.3763373 32.0910046,30.5533355 31.167,30.5533355 L30.051,30.5533355 L30.051,32.3983355 L28.989,32.3983355 L28.989,26.1073355 L31.149,26.1073355 Z M31.284,29.5903355 C31.8720029,29.5903355 32.2724989,29.4778367 32.4855,29.2528355 C32.6985011,29.0278344 32.805,28.6978377 32.805,28.2628355 C32.805,27.8278334 32.6700013,27.5203364 32.4,27.3403355 C32.1299987,27.1603346 31.7070029,27.0703355 31.131,27.0703355 L30.051,27.0703355 L30.051,29.5903355 L31.284,29.5903355 Z"/>
    <filter id="c" width="119.3%" height="199.9%" x="-8.2%" y="-42.3%" filterUnits="objectBoundingBox">
      <feOffset dx=".5" dy=".5" in="SourceAlpha" result="shadowOffsetOuter1"/>
      <feGaussianBlur stdDeviation="1" in="shadowOffsetOuter1" result="shadowBlurOuter1"/>
      <feColorMatrix values="0 0 0 0 0 0 0 0 0 0 0 0 0 0 0 0 0 0 0.5 0" in="shadowBlurOuter1"/>
    </filter>
  </defs>
  <g fill="none" fill-rule="evenodd" transform="translate(1 1)">
    <use fill="black" filter="url(#a)" xlink:href="#b"/>
    <use fill="#258AFB" xlink:href="#b"/>
    <g>
      <use fill="black" filter="url(#c)" xlink:href="#d"/>
      <use fill="#008CFF" xlink:href="#d"/>
    </g>
  </g>
</svg>
