<svg xmlns="http://www.w3.org/2000/svg" width="811" height="75" viewBox="0 0 811 75">
  <defs>
    <filter id="a" width="102%" height="155.2%" x="-1%" y="-20.7%" filterUnits="objectBoundingBox">
      <feOffset dy="2" in="SourceAlpha" result="shadowOffsetOuter1"/>
      <feGaussianBlur stdDeviation="2" in="shadowOffsetOuter1" result="shadowBlurOuter1"/>
      <feColorMatrix values="0 0 0 0 0 0 0 0 0 0 0 0 0 0 0 0 0 0 0.5 0" in="shadowBlurOuter1" result="shadowMatrixOuter1"/>
      <feMerge>
        <feMergeNode in="shadowMatrixOuter1"/>
        <feMergeNode in="SourceGraphic"/>
      </feMerge>
    </filter>
  </defs>
  <g fill="none" fill-rule="evenodd" transform="translate(1.074 1.647)">
    <g stroke-width="2" transform="translate(7 32)" stroke-linecap="square">
      <path stroke="#1C649E" d="M65.8127541,1.24935478 L396.925684,39.3525188"/>
      <path stroke="#175A90" d="M0.0200450695,1.2880322 L396.925684,39.3525188"/>
      <path stroke="#3686C6" d="M132.390164,1.27324518 L396.925684,39.3525188"/>
      <path stroke="#3F91D2" d="M198.397981,1.23726552 L396.925684,39.3525188"/>
      <path stroke="#489BDE" d="M265.356302,1.22275671 L396.925684,39.3525188"/>
      <path stroke="#54A8ED" d="M332.047414,1.3943554 L396.925684,39.3525188"/>
      <g transform="rotate(180 397.714 19.84)">
        <path stroke="#1C649E" d="M67.5023787,0.417657599 L397.158609,38.3266675" transform="matrix(1 0 0 -1 0 38.744)"/>
        <path stroke="#165A91" d="M0.502378724,0.417657599 L397.158609,38.3266675" transform="matrix(1 0 0 -1 0 38.744)"/>
        <path stroke="#3686C6" d="M133.502379,0.417657599 L397.158609,38.3266675" transform="matrix(1 0 0 -1 0 38.744)"/>
        <path stroke="#54A8ED" d="M198.963724,0.417657599 L397.158609,38.3261952" transform="matrix(1 0 0 -1 0 38.744)"/>
        <path stroke="#54A8ED" d="M265.438198,0.417657599 L397.092577,38.3577025" transform="matrix(1 0 0 -1 0 38.775)"/>
        <path stroke="#54A8ED" d="M332.502379,0.417657599 L397.158609,38.3266675" transform="matrix(1 0 0 -1 0 38.744)"/>
      </g>
    </g>
    <g stroke="#5FB6FD" filter="url(#a)" transform="translate(7)" stroke-linecap="square">
      <path stroke-width="2" d="M331.151827,20.5063193 L331.151827,2.62918247"/>
      <path stroke-width="2" d="M397.133231,267.261924 L396.633724,-262.822488" transform="matrix(0 1 1 0 394.664 -394.664)"/>
      <path stroke-width="2" d="M197.860913 19.856349L197.860913 2.3071515M264.834673 19.856349L264.834673 2.3071515M463.12953 20.5063193L463.12953 2.95712178M530.10329 20.5063193L530.10329 2.95712178M596.420445 19.856349L596.420445 2.95712178M663.080994 19.2753756L663.080994 3.65608981M.378215083 20.1990371L130.181968 2.10380008M66.4966383 20.044706L131.050859 2.55026576"/>
      <path stroke-width="2" d="M663.216312,20.1813341 L795.043605,2.55904042" transform="matrix(-1 0 0 1 1458.26 0)"/>
      <path stroke-width="2" d="M663.587585,20.1813763 L729.249485,3.35251882" transform="matrix(-1 0 0 1 1393.175 0)"/>
      <path stroke-width="2" d="M132.200364,19.856349 L132.200364,1.98216636"/>
      <path stroke-width="3" d="M398.142759,417.62791 L398.142759,-364.373546" transform="matrix(0 1 1 0 371.8 -371.8)"/>
    </g>
    <g fill="#123E7A" stroke="#5FB6FD" stroke-width="2" transform="translate(0 20.181)">
      <ellipse cx="470.786" cy="6.5" rx="6.566" ry="6.5"/>
      <ellipse cx="537.103" cy="6.5" rx="6.566" ry="6.5"/>
      <ellipse cx="603.42" cy="6.5" rx="6.566" ry="6.5"/>
      <ellipse cx="669.738" cy="6.5" rx="6.566" ry="6.5"/>
      <ellipse cx="736.055" cy="6.5" rx="6.566" ry="6.5"/>
      <ellipse cx="802.372" cy="6.5" rx="6.566" ry="6.5"/>
      <ellipse cx="6.566" cy="6.5" rx="6.566" ry="6.5"/>
      <ellipse cx="72.883" cy="6.5" rx="6.566" ry="6.5"/>
      <ellipse cx="139.2" cy="6.5" rx="6.566" ry="6.5"/>
      <ellipse cx="205.518" cy="6.5" rx="6.566" ry="6.5"/>
      <ellipse cx="271.835" cy="6.5" rx="6.566" ry="6.5"/>
      <ellipse cx="338.152" cy="6.5" rx="6.566" ry="6.5"/>
      <ellipse cx="404.469" cy="6.5" rx="6.566" ry="6.5"/>
    </g>
  </g>
</svg>
