<svg xmlns="http://www.w3.org/2000/svg" width="40" height="43" viewBox="0 0 40 43">
  <g fill="none" fill-rule="evenodd" transform="translate(0 -4)">
    <path fill="#D8D8D8" fill-rule="nonzero" d="M19.8061046,9 L18.702336,14 L5,14 L5,42 L29,42 L29,26.0455372 L34,24.9329579 L34,44 C34,45.6568542 32.6568542,47 31,47 L3,47 C1.34314575,47 -9.09494702e-13,45.6568542 -9.09494702e-13,44 L-9.09494702e-13,12 C-9.09494702e-13,10.3431458 1.34314575,9 3,9 L19.8061046,9 Z"/>
    <path fill="#FFFFFF" d="M29.9712902,2.50726159 L37.1783653,15.8572842 L31.2824708,15.7311601 L31.6437939,28.59611 L27.5153221,28.5652701 L27.000676,15.7311601 L21.1783653,15.8572842 L28.2065941,2.51622162 C28.4640085,2.0275947 29.0687945,1.84015993 29.5574214,2.09757434 C29.7329668,2.19005368 29.8770331,2.3326644 29.9712902,2.50726159 Z" transform="rotate(-135 29.178 15.29)"/>
  </g>
</svg>
