<?xml version="1.0" encoding="UTF-8"?>
<svg width="942px" height="153px" viewBox="0 0 942 153" version="1.1" xmlns="http://www.w3.org/2000/svg" xmlns:xlink="http://www.w3.org/1999/xlink">
    <!-- Generator: Sketch 52.3 (67297) - http://www.bohemiancoding.com/sketch -->
    <title>Header</title>
    <desc>Created with Sketch.</desc>
    <g id="Page-1" stroke="none" stroke-width="1" fill="none" fill-rule="evenodd">
        <g id="Artboard" transform="translate(-526.000000, -3917.000000)">
            <g id="Header" transform="translate(528.000000, 3920.000000)">
                <g id="LOGO">
                    <g id="Group-12" transform="translate(190.000000, 0.000000)">
                        <path d="M48.6470809,143.476345 L40.8520371,143.476345 L36.6592485,135.638836 L12.2702102,135.638836 L8.07742149,143.476345 L0.28237777,143.476345 L20.0652539,106.960679 L28.8642047,106.960679 L48.6470809,143.476345 Z M33.1160468,129.166954 L24.494256,113.016936 L15.8134118,129.166954 L33.1160468,129.166954 Z M111.066484,113.432561 L80.4177893,113.432561 L80.4177893,121.27007 L101.736053,121.27007 L101.736053,127.741953 L80.4177893,127.741953 L80.4177893,143.476345 L73.331386,143.476345 L73.331386,106.960679 L111.066484,106.960679 L111.066484,113.432561 Z M157.836746,143.476345 L118.743421,143.476345 L118.743421,106.960679 L156.478519,106.960679 L156.478519,113.432561 L125.829824,113.432561 L125.829824,121.27007 L147.148088,121.27007 L147.148088,127.741953 L125.829824,127.741953 L125.829824,137.004463 L157.836746,137.004463 L157.836746,143.476345 Z M221.023843,106.960679 L208.681691,143.476345 L200.178007,143.476345 L191.497162,112.957561 L182.816318,143.476345 L174.312634,143.476345 L161.970482,106.960679 L169.824579,106.960679 L178.564476,137.301338 L187.24532,106.960679 L195.749004,106.960679 L204.429849,137.301338 L213.169746,106.960679 L221.023843,106.960679 Z M279.014244,115.985689 C274.289952,113.491924 269.152361,112.24506 263.601317,112.24506 C255.53065,112.24506 251.495378,113.689839 251.495378,116.57944 C251.495378,118.281534 253.011065,119.389857 256.042486,119.904444 C260.176242,120.260696 264.309936,120.636734 268.443692,121.03257 C274.388427,121.626324 278.620542,122.695064 281.140165,124.238824 C283.935372,125.940917 285.332954,128.533603 285.332954,132.016957 C285.332954,135.935731 283.590897,138.96383 280.106731,141.101343 C276.622566,143.238856 271.573554,144.307596 264.959544,144.307596 C255.629066,144.307596 248.168733,142.170115 242.57832,137.895089 L246.416789,132.848208 C251.416665,136.371147 257.558153,138.132589 264.841437,138.132589 C268.935824,138.132589 272.10499,137.608115 274.349029,136.55915 C276.593068,135.510185 277.71507,134.114885 277.71507,132.373208 C277.71507,130.433613 276.337172,129.068 273.581335,128.276328 C272.04594,127.840909 269.664145,127.544036 266.435878,127.385702 C261.396633,127.148201 258.306204,126.970077 257.1645,126.851326 C252.676422,126.415907 249.369467,125.446124 247.243536,123.941948 C245.117604,122.437772 244.054654,120.240917 244.054654,117.351316 C244.054654,113.867961 245.757342,111.107048 249.16277,109.068494 C252.568197,107.02994 257.34163,106.010678 263.48321,106.010678 C271.671984,106.010678 278.305578,107.791912 283.384193,111.354434 L279.014244,115.985689 Z M331.276469,113.432561 L313.914781,113.432561 L313.914781,143.476345 L306.828377,143.476345 L306.828377,113.432561 L289.466689,113.432561 L289.466689,106.960679 L331.276469,106.960679 L331.276469,113.432561 Z M378.046731,143.476345 L338.953406,143.476345 L338.953406,106.960679 L376.688504,106.960679 L376.688504,113.432561 L346.039809,113.432561 L346.039809,121.27007 L367.358073,121.27007 L367.358073,127.741953 L346.039809,127.741953 L346.039809,137.004463 L378.046731,137.004463 L378.046731,143.476345 Z M416.549523,106.960679 C420.407695,106.960679 423.478439,108.009628 425.761847,110.107557 C428.045256,112.205487 429.186942,115.015879 429.186942,118.538817 C429.186942,122.22009 427.996045,125.060169 425.614214,127.059139 C423.232383,129.05811 419.817165,130.05758 415.368456,130.05758 L394.286406,130.05758 L394.286406,143.476345 L387.200002,143.476345 L387.200002,106.960679 L416.549523,106.960679 Z M415.486563,123.585698 C419.777795,123.585698 421.923379,121.943004 421.923379,118.657567 C421.923379,115.174212 419.640005,113.432561 415.073189,113.432561 L394.286406,113.432561 L394.286406,123.585698 L415.486563,123.585698 Z M469.461335,115.985689 C464.737042,113.491924 459.599451,112.24506 454.048408,112.24506 C445.977741,112.24506 441.942469,113.689839 441.942469,116.57944 C441.942469,118.281534 443.458156,119.389857 446.489577,119.904444 C450.623333,120.260696 454.757027,120.636734 458.890783,121.03257 C464.835518,121.626324 469.067633,122.695064 471.587256,124.238824 C474.382462,125.940917 475.780045,128.533603 475.780045,132.016957 C475.780045,135.935731 474.037988,138.96383 470.553822,141.101343 C467.069656,143.238856 462.020645,144.307596 455.406635,144.307596 C446.076157,144.307596 438.615824,142.170115 433.025411,137.895089 L436.863879,132.848208 C441.863756,136.371147 448.005244,138.132589 455.288528,138.132589 C459.382915,138.132589 462.552081,137.608115 464.796119,136.55915 C467.040158,135.510185 468.162161,134.114885 468.162161,132.373208 C468.162161,130.433613 466.784263,129.068 464.028426,128.276328 C462.493031,127.840909 460.111236,127.544036 456.882969,127.385702 C451.843724,127.148201 448.753295,126.970077 447.611591,126.851326 C443.123513,126.415907 439.816558,125.446124 437.690627,123.941948 C435.564695,122.437772 434.501745,120.240917 434.501745,117.351316 C434.501745,113.867961 436.204433,111.107048 439.609861,109.068494 C443.015288,107.02994 447.788721,106.010678 453.930301,106.010678 C462.119075,106.010678 468.752669,107.791912 473.831284,111.354434 L469.461335,115.985689 Z M545.285851,143.476345 L537.490807,143.476345 L533.298019,135.638836 L508.908981,135.638836 L504.716192,143.476345 L496.921148,143.476345 L516.704024,106.960679 L525.502975,106.960679 L545.285851,143.476345 Z M529.754817,129.166954 L521.133026,113.016936 L512.452182,129.166954 L529.754817,129.166954 Z M594.477301,143.476345 L587.390898,143.476345 L587.390898,127.741953 L559.340551,127.741953 L559.340551,143.476345 L552.254148,143.476345 L552.254148,106.960679 L559.340551,106.960679 L559.340551,121.27007 L587.390898,121.27007 L587.390898,106.960679 L594.477301,106.960679 L594.477301,143.476345 Z M645.971833,143.476345 L606.878507,143.476345 L606.878507,106.960679 L644.613605,106.960679 L644.613605,113.432561 L613.964911,113.432561 L613.964911,121.27007 L635.283174,121.27007 L635.283174,127.741953 L613.964911,127.741953 L613.964911,137.004463 L645.971833,137.004463 L645.971833,143.476345 Z M698.056897,143.476345 L690.261854,143.476345 L686.069065,135.638836 L661.680027,135.638836 L657.487238,143.476345 L649.692194,143.476345 L669.47507,106.960679 L678.274021,106.960679 L698.056897,143.476345 Z M682.525863,129.166954 L673.904073,113.016936 L665.223228,129.166954 L682.525863,129.166954 Z M728.528432,106.960679 C734.906227,106.960679 740.024134,108.642956 743.882306,112.00756 C747.740478,115.372164 749.669535,119.686709 749.669535,124.951324 C749.669535,129.740937 747.642057,134.332563 743.587039,138.72634 C742.445335,139.993014 740.634384,141.081546 738.15413,141.991969 C735.437662,142.981558 732.622813,143.476345 729.709499,143.476345 L705.025194,143.476345 L705.025194,106.960679 L728.528432,106.960679 Z M730.181926,137.004463 C733.646407,137.004463 736.490782,135.915931 738.715137,133.738834 C740.939491,131.561738 742.051652,128.790929 742.051652,125.426325 C742.051652,121.824219 740.870596,118.924766 738.50845,116.727877 C736.146304,114.530989 732.996823,113.432561 729.059912,113.432561 L712.111597,113.432561 L712.111597,137.004463 L730.181926,137.004463 Z" id="a-few-steps-ahead" fill="#008CFF"></path>
                        <g id="Group-2-Copy" transform="translate(9.634999, -0.000001)" fill="#123E7A">
                            <g id="I" transform="translate(95.745054, 0.801215)">
                                <polygon id="Combined-Shape" points="0.131247796 0.0567564402 33.9657146 0.0567564402 33.9657146 86.3235676 0.131247796 86.3235676"></polygon>
                            </g>
                            <g id="T" transform="translate(137.759767, 0.634406)">
                                <path d="M59.5019933,25.0358728 L59.5019933,86.4903769 L25.6675265,86.4903769 L25.5654176,25.0358728 L5.68434189e-14,25.0358728 L5.68434189e-14,0.223565702 L23.334115,0.223565702 L85.1695198,0.223565702 L85.1695198,25.0358728 L59.5019933,25.0358728 Z" id="Combined-Shape"></path>
                            </g>
                            <g id="E" transform="translate(229.207320, 0.311987)">
                                <path d="M33.9849124,34.4301214 L83.1374981,34.4301214 L83.1374981,54.3782942 L33.9849124,54.3782942 L33.9849124,63.3547185 L85.3199654,63.3547185 L85.3199654,86.9177166 L33.9849124,86.9177166 L33.9849124,86.9322398 L0.150445589,86.9322398 L0.150445589,25.4024077 L0.150445589,0.559686788 L23.4845606,0.559686788 L85.3199654,0.559686788 L85.3199654,25.4024077 L33.9849124,25.4024077 L33.9849124,34.4301214 Z" id="Combined-Shape"></path>
                            </g>
                            <g id="T" transform="translate(320.955764, 0.311987)">
                                <path d="M59.5019933,25.3517271 L59.5019933,86.7588006 L25.6675265,86.7588006 L25.5691479,25.3517271 L0,25.3517271 L0,0.558570152 L23.334115,0.558570152 L85.1695198,0.558570152 L85.1695198,25.3517271 L59.5019933,25.3517271 Z" id="Combined-Shape"></path>
                            </g>
                            <g id="R" transform="translate(412.403317, 0.311987)">
                                <path d="M76.2408385,56.758536 L89.9867884,86.7984798 L56.1523216,86.7984798 L43.8093479,56.8265183 L43.943258,56.8102129 L33.9849124,56.8102129 L33.9849124,86.8129832 L0.150445589,86.8129832 L0.150445589,42.128265 L0.150445589,0.55891899 L86.9867884,0.55891899 C88.6436427,0.55891899 89.9867884,1.90206474 89.9867884,3.55891899 L89.9867884,41.8102129 C89.9867884,49.6721638 83.9383233,56.12142 76.2408385,56.758536 Z M34.0037912,22.5921637 L34.0037912,39.2583092 L58.7990797,39.2583092 C59.3513645,39.2583092 59.7990797,38.810594 59.7990797,38.2583092 L59.7990797,23.5921637 C59.7990797,23.0398789 59.3513645,22.5921637 58.7990797,22.5921637 L34.0037912,22.5921637 Z" id="Combined-Shape"></path>
                            </g>
                            <g id="I" transform="translate(513.472102, 0.311987)">
                                <polygon id="Combined-Shape" points="0.150445589 0.55891899 33.9849124 0.55891899 33.9849124 86.8129832 0.150445589 86.8129832"></polygon>
                            </g>
                            <g id="K" transform="translate(558.539010, 0.311987)">
                                <path d="M33.9849124,54.4337614 L33.9849124,86.8129832 L0.150445589,86.8129832 L0.150445589,0.55891899 L33.9849124,0.55891899 L33.9849124,32.6081467 L56.6230913,0.55891899 L89.9755194,0.55891899 L67.4473599,32.6932621 L89.9867884,86.7984798 L56.1523216,86.7984798 L42.6696616,54.4337614 L33.9849124,54.4337614 Z" id="Combined-Shape"></path>
                            </g>
                            <g id="S" transform="translate(0.598360, 0.312029)">
                                <path d="M85.666019,36.0899499 L85.666019,53.6733991 C85.666019,71.8987958 70.8914158,86.6733991 52.666019,86.6733991 L0.496499203,86.6733991 L0.496499203,62.3577505 L48.7079471,62.3577505 C51.2802082,62.3577505 53.3522148,60.2799323 53.3522148,57.7168137 L53.3522148,53.0758769 C53.3522148,53.0758769 13.9366853,53.0758769 0.496499203,53.0758769 L0.496499203,33.7999706 C0.496499203,15.5745739 15.2711025,0.799970602 33.4964992,0.799970602 L85.666019,0.799970602 L85.666019,25.326772 L38.1606001,25.326772 C35.4016442,25.326772 33.1642602,27.5669032 33.1642602,30.3302451 L33.1642602,36.0899499 L85.666019,36.0899499 Z" id="Combined-Shape" transform="translate(43.081259, 43.736685) scale(-1, -1) translate(-43.081259, -43.736685) "></path>
                            </g>
                            <g id="S-Copy" transform="translate(652.308286, 1.053002)">
                                <path d="M85.5970998,35.3489767 L85.5970998,52.932426 C85.5970998,71.1578227 70.8224965,85.932426 52.5970998,85.932426 L0.427579962,85.932426 L0.427579962,61.6167773 L48.6390279,61.6167773 C51.2112889,61.6167773 53.2832956,59.5389592 53.2832956,56.9758406 L53.2832956,52.3349038 C53.2832956,52.3349038 13.8677661,52.3349038 0.427579962,52.3349038 L0.427579962,33.0589975 C0.427579962,14.8336007 15.2021832,0.0589974853 33.42758,0.0589974853 L85.5970998,0.0589974853 L85.5970998,24.5857989 L37.7396087,24.5857989 C35.1673477,24.5857989 33.095341,26.6643845 33.095341,29.2284497 L33.095341,35.3489767 L85.5970998,35.3489767 Z" id="Combined-Shape" transform="translate(43.012340, 42.995712) scale(-1, -1) translate(-43.012340, -42.995712) "></path>
                            </g>
                        </g>
                    </g>
                    <g id="Group" transform="translate(0.000000, 1.000000)" fill-rule="nonzero">
                        <path d="M84,0 L148,0 L148,64 C148,108.18278 112.18278,144 68,144 L4,144 L4,80 C4,35.81722 39.81722,8.11624501e-15 84,0 Z" id="Rectangle" fill="#123E7A"></path>
                        <path d="M2.5,146.5 L60,146.5 C80.7106781,146.5 97.5,129.710678 97.5,109 L97.5,50.5 L40,50.5 C19.2893219,50.5 2.5,67.2893219 2.5,88 L2.5,146.5 Z" id="Rectangle" stroke="#FFFFFF" stroke-width="5" fill-opacity="0.53" fill="#008CFF" transform="translate(50.000000, 98.500000) rotate(-360.000000) translate(-50.000000, -98.500000) "></path>
                        <path d="M21,98 L49,98 L49,126 C49,137.045695 40.045695,146 29,146 L1,146 L1,118 C1,106.954305 9.954305,98 21,98 Z" id="Rectangle" stroke="#FFFFFF" stroke-width="5" fill="#0089FA"></path>
                        <path d="M49.4304348,98.5695652 L148,0" id="Line" stroke="#FFFFFF" stroke-width="5" stroke-linecap="square"></path>
                    </g>
                </g>
            </g>
        </g>
    </g>
</svg>