<svg xmlns="http://www.w3.org/2000/svg" width="44" height="28" viewBox="0 0 44 28">
  <g fill="none" fill-rule="evenodd" opacity=".4">
    <rect width="21" height="28" fill="#D8D8D8" rx="2"/>
    <path fill="#979797" fill-rule="nonzero" d="M2,1 C1.44771525,1 1,1.44771525 1,2 L1,26 C1,26.5522847 1.44771525,27 2,27 L19,27 C19.5522847,27 20,26.5522847 20,26 L20,2 C20,1.44771525 19.5522847,1 19,1 L2,1 Z M2,0 L19,0 C20.1045695,-2.02906125e-16 21,0.8954305 21,2 L21,26 C21,27.1045695 20.1045695,28 19,28 L2,28 C0.8954305,28 1.3527075e-16,27.1045695 0,26 L0,2 C-1.3527075e-16,0.8954305 0.8954305,2.02906125e-16 2,0 Z"/>
    <polygon fill="#979797" fill-rule="nonzero" points="3 6 3 5 13 5 13 6"/>
    <polygon fill="#979797" fill-rule="nonzero" points="3 10 3 9 9 9 9 10"/>
    <polygon fill="#979797" fill-rule="nonzero" points="3 14 3 13 13 13 13 14"/>
    <polygon fill="#979797" fill-rule="nonzero" points="3 18 3 17 10 17 10 18"/>
    <polygon fill="#979797" fill-rule="nonzero" points="3 22 3 21 10 21 10 22"/>
    <path fill="#D8D8D8" d="M35,10.5 L44,10.5 L44,15.5 L35,15.5 L35,18 L27,13 L35,8 L35,10.5 Z" transform="rotate(-180 35.5 13)"/>
    <path fill="#979797" fill-rule="nonzero" d="M34,14.5 L43,14.5 L43,11.5 L34,11.5 L34,9.80424764 L28.8867962,13 L34,16.1957524 L34,14.5 Z M35,10.5 L44,10.5 L44,15.5 L35,15.5 L35,18 L27,13 L35,8 L35,10.5 Z" transform="rotate(-180 35.5 13)"/>
  </g>
</svg>
