<svg xmlns="http://www.w3.org/2000/svg" width="81" height="85" viewBox="0 0 81 85">
  <g fill="none" fill-rule="evenodd">
    <path fill="#DBECFE" fill-rule="nonzero" d="M77.7318426,41.7547273 L80.6060708,41.7547273 C80.7243467,40.5663487 80.784829,39.3620521 80.784829,38.1443827 C80.784829,17.1510843 62.8072482,0.132653316 40.6307784,0.132653316 C18.4543085,0.132653316 0.476727708,17.1510843 0.476727708,38.1443827 C0.476727708,39.3620521 0.537210055,40.5663487 0.655485976,41.7547273 L3.52971414,41.7547273 C3.40234275,40.5676786 3.33709395,39.363244 3.33709395,38.1443827 C3.33709395,18.6465379 20.0340452,2.84041171 40.6307784,2.84041171 C61.2275115,2.84041171 77.9244628,18.6465379 77.9244628,38.1443827 C77.9244628,39.363244 77.859214,40.5676786 77.7318426,41.7547273 Z"/>
    <rect width="22.451" height="38.712" x=".477" y="31.341" fill="#DBECFE" rx="11.226"/>
    <rect width="4.965" height="25.272" x="15.288" y="38.089" fill="#173B6D" rx="2.482"/>
    <rect width="22.451" height="38.712" x="58.161" y="31.023" fill="#DBECFE" rx="11.226"/>
    <rect width="4.965" height="25.272" x="61.51" y="38.089" fill="#173B6D" rx="2.482"/>
    <rect width="4.965" height="25.272" x="15.288" y="38.089" fill="#6B92C9" rx="2.482"/>
    <rect width="4.965" height="25.272" x="61.51" y="38.089" fill="#6B92C9" rx="2.482"/>
    <rect width="10.566" height="6.001" x="34.516" y="78.685" fill="#DBECFE" rx="3.001"/>
    <path fill="#DBECFE" d="M13.2193028,68.0220301 C10.4882401,67.3770263 8.60148838,67.5600903 8.47153648,69.0884553 C8.45244588,69.31298 8.47153648,69.648073 8.47153648,69.8755474 C8.47153648,76.872773 17.7144119,83.4555924 28.9963056,83.4555924 C30.9619578,83.4555924 32.8627655,83.2833999 34.6616545,82.9620091 C35.5306546,82.8067529 35.9563288,82.4695998 36.0194197,81.9963178 C35.8263077,82.0271814 35.6108562,82.050551 35.3721081,82.0660349 C34.6657347,82.1118465 33.94865,82.1353314 33.2227213,82.1353314 C23.2680699,82.1353314 14.879401,76.8086427 13.0662722,70.9627359 C13.0549808,70.92633 13.1017181,69.0285625 13.2193028,68.0220301 Z"/>
  </g>
</svg>
