<svg xmlns="http://www.w3.org/2000/svg" width="55" height="81" viewBox="0 0 55 81" xmlns:xlink="http://www.w3.org/1999/xlink">
  <defs>
    <rect id="a" width="19.631" height="20.199" x="24.527" y="11.542"/>
    <filter id="b" width="105.1%" height="105%" x="-2.5%" y="-2.5%" filterUnits="objectBoundingBox">
      <feOffset dx="1" dy="1" in="SourceAlpha" result="shadowOffsetInner1"/>
      <feComposite in="shadowOffsetInner1" in2="SourceAlpha" operator="arithmetic" k2="-1" k3="1" result="shadowInnerInner1"/>
      <feColorMatrix values="0 0 0 0 0.82745098 0 0 0 0 0.894117647 0 0 0 0 0.976470588 0 0 0 1 0" in="shadowInnerInner1"/>
    </filter>
    <rect id="d" width="30.298" height="20.199" x="20.199" y="49.054"/>
    <filter id="c" width="103.3%" height="105%" x="-1.7%" y="-2.5%" filterUnits="objectBoundingBox">
      <feOffset dx="1" dy="1" in="SourceAlpha" result="shadowOffsetInner1"/>
      <feComposite in="shadowOffsetInner1" in2="SourceAlpha" operator="arithmetic" k2="-1" k3="1" result="shadowInnerInner1"/>
      <feColorMatrix values="0 0 0 0 0.839215686 0 0 0 0 0.905882353 0 0 0 0 0.984313725 0 0 0 1 0" in="shadowInnerInner1"/>
    </filter>
    <rect id="f" width="30.298" height="20.199" x="20.199" y="34.627"/>
    <filter id="e" width="103.3%" height="105%" x="-1.7%" y="-2.5%" filterUnits="objectBoundingBox">
      <feOffset dx="1" dy="1" in="SourceAlpha" result="shadowOffsetInner1"/>
      <feComposite in="shadowOffsetInner1" in2="SourceAlpha" operator="arithmetic" k2="-1" k3="1" result="shadowInnerInner1"/>
      <feColorMatrix values="0 0 0 0 0.839215686 0 0 0 0 0.905882353 0 0 0 0 0.984313725 0 0 0 1 0" in="shadowInnerInner1"/>
    </filter>
  </defs>
  <g fill="none" fill-rule="evenodd">
    <path fill="#D6E7FB" d="M5,0 L49.825416,0 C52.5868397,-5.07265313e-16 54.825416,2.23857625 54.825416,5 L54.825416,75.7953499 C54.825416,78.5567736 52.5868397,80.7953499 49.825416,80.7953499 L5,80.7953499 L5,80.7953499 C2.23857625,80.7953499 7.69608782e-15,78.5567736 0,75.7953499 L0,5 L0,5 C-3.38176876e-16,2.23857625 2.23857625,5.07265313e-16 5,0 L5,0 Z M6.77109642,5.77109642 C6.21881167,5.77109642 5.77109642,6.21881167 5.77109642,6.77109642 L5.77109642,67.803098 C5.77109642,68.3553828 6.21881167,68.803098 6.77109642,68.803098 L49.12955,68.803098 C49.6818348,68.803098 50.12955,68.3553828 50.12955,67.803098 L50.12955,6.77109642 C50.12955,6.21881167 49.6818348,5.77109642 49.12955,5.77109642 L6.77109642,5.77109642 Z"/>
    <circle cx="27.413" cy="75.024" r="2.486" stroke="#6B92C9" stroke-width=".8"/>
    <use fill="#D6E7FB" xlink:href="#a"/>
    <use fill="black" filter="url(#b)" xlink:href="#a"/>
    <rect width="6.406" height="1.443" x="44.091" y="11.542" fill="#D3E4F9"/>
    <rect width="6.406" height="1.443" x="44.091" y="18.756" fill="#D3E4F9"/>
    <rect width="6.406" height="1.443" x="44.091" y="30.298" fill="#D3E4F9"/>
    <rect width="6.406" height="1.443" x="44.091" y="24.527" fill="#D3E4F9"/>
    <use fill="black" filter="url(#c)" xlink:href="#d"/>
    <g fill="black">
      <use filter="url(#e)" xlink:href="#f"/>
    </g>
  </g>
</svg>
