<svg xmlns="http://www.w3.org/2000/svg" width="80" height="80" viewBox="0 0 80 80">
  <g fill="none" transform="translate(1 2)">
    <path fill="#5FB6FD" d="M38.754,77.723 C16.9659985,77.723 -0.695,60.0136011 -0.695,38.17 C-0.695,16.3263989 16.9659985,-1.383 38.754,-1.383 C60.5420015,-1.383 78.203,16.3263989 78.203,38.17 C78.203,60.0136011 60.5420015,77.723 38.754,77.723 Z M38.754,74.723 C58.8833065,74.723 75.203,58.358582 75.203,38.17 C75.203,17.981418 58.8833065,1.617 38.754,1.617 C18.6246935,1.617 2.305,17.981418 2.305,38.17 C2.305,58.358582 18.6246935,74.723 38.754,74.723 Z"/>
    <path fill="#5FB6FD" d="M28.2564103,20.321 L49.7435897,20.321 C54.7141525,20.321 58.7435897,24.3504373 58.7435897,29.321 L58.7435897,38.4363846 C58.7435897,43.3432222 54.7658119,47.321 49.8589744,47.321 C49.0405214,48.6291675 49.80845,51.3969383 52.1627602,55.6243122 C46.754014,53.2755143 44.0496409,50.5077435 44.0496409,47.321 L28.2564103,47.321 C23.2858475,47.321 19.2564103,43.2915627 19.2564103,38.321 L19.2564103,29.321 C19.2564103,24.3504373 23.2858475,20.321 28.2564103,20.321 Z"/>
    <path fill="#123E7A" d="M27.9066667,42.041 C27.6266653,41.7476652 27.4866667,41.3943354 27.4866667,40.981 C27.4866667,40.5676646 27.6299986,40.2176681 27.9166667,39.931 C28.2033348,39.6443319 28.5533313,39.501 28.9666667,39.501 C29.3800021,39.501 29.7333319,39.6443319 30.0266667,39.931 C30.3200015,40.2176681 30.4666667,40.5676646 30.4666667,40.981 C30.4666667,41.3943354 30.3200015,41.7476652 30.0266667,42.041 C29.7333319,42.3343348 29.3800021,42.481 28.9666667,42.481 C28.5533313,42.481 28.2000015,42.3343348 27.9066667,42.041 Z M32.0866667,42.041 C31.8066653,41.7476652 31.6666667,41.3943354 31.6666667,40.981 C31.6666667,40.5676646 31.8099986,40.2176681 32.0966667,39.931 C32.3833348,39.6443319 32.7333313,39.501 33.1466667,39.501 C33.5600021,39.501 33.9133319,39.6443319 34.2066667,39.931 C34.5000015,40.2176681 34.6466667,40.5676646 34.6466667,40.981 C34.6466667,41.3943354 34.5000015,41.7476652 34.2066667,42.041 C33.9133319,42.3343348 33.5600021,42.481 33.1466667,42.481 C32.7333313,42.481 32.3800015,42.3343348 32.0866667,42.041 Z M36.2666667,42.041 C35.9866653,41.7476652 35.8466667,41.3943354 35.8466667,40.981 C35.8466667,40.5676646 35.9899986,40.2176681 36.2766667,39.931 C36.5633348,39.6443319 36.9133313,39.501 37.3266667,39.501 C37.7400021,39.501 38.0933319,39.6443319 38.3866667,39.931 C38.6800015,40.2176681 38.8266667,40.5676646 38.8266667,40.981 C38.8266667,41.3943354 38.6800015,41.7476652 38.3866667,42.041 C38.0933319,42.3343348 37.7400021,42.481 37.3266667,42.481 C36.9133313,42.481 36.5600015,42.3343348 36.2666667,42.041 Z"/>
  </g>
</svg>
