<svg xmlns="http://www.w3.org/2000/svg" width="81" height="80" viewBox="0 0 81 80">
  <g fill="none" fill-rule="evenodd" transform="translate(2.31 1.553)">
    <ellipse cx="38.441" cy="38.053" fill="#123E7A" stroke="#5FB6FD" stroke-width="3" rx="38.441" ry="38.053"/>
    <g transform="translate(5 2)">
      <path fill="#5FB6FD" d="M58.8368557 57.8555993C58.7232088 60.49454 56.5602666 62.6110555 53.8881867 62.6359823 53.8726401 62.6361273 53.8570929 62.6361998 53.8415456 62.6361998L34.8458718 62.6361998 34.8458718 62.6361998C33.3894928 62.6361998 32.0780226 62.0133821 31.1639817 61.0190966 30.6715239 57.4548305 30.3354981 53.813313 30.1688498 50.1772728 30.35881 50.1297724 30.5601274 50.0903335 30.7728019 50.058956 31.5742703 49.4572344 32.505978 50.8543492 33.9801527 51.4411834 35.460968 52.0306611 38.3594965 52.112583 38.6400261 47.0724071 38.3187239 42.6703965 35.6714531 42.4296181 33.8849098 43.2589444 32.3441611 43.9741711 31.6937413 45.5711872 30.7728019 44.9669085 30.4872311 44.9669085 30.2454753 44.8892473 30.0475346 44.7339248 30.0533308 41.2963651 30.2185958 37.9013082 30.5545085 34.6201934 31.4413723 33.2537939 32.9776873 32.3469289 34.7283207 32.3387941 34.8032411 32.338446 34.8781598 32.3397818 34.9530201 32.3428007 37.4723707 32.4443958 39.9124408 32.4951933 42.2732304 32.4951933 42.877509 31.5742539 41.280493 30.9238341 40.5652663 29.3830854 39.73594 27.5965421 39.9767184 24.9492713 44.3787289 24.6279691 49.4189048 24.9084987 49.3369829 27.8070272 48.7475052 29.2878425 48.160671 30.7620172 46.7635562 31.693725 47.3652778 32.4951933 49.1829224 32.4951933 51.1288931 32.4019586 53.2031902 32.2154891L53.2031902 32.2154891C55.9535234 31.9682471 58.3835382 33.9974035 58.6307801 36.7477367 58.6427683 36.8810935 58.6493948 37.014878 58.6506438 37.1487668L58.7144559 43.9892339C58.5278 44.1318565 58.3181751 44.2477975 58.0855812 44.3370569 57.2383147 44.9731626 56.2533665 43.4962127 54.6949533 42.8758452 53.1295201 42.2526831 50.0653615 42.1660799 49.7688017 47.4942656 50.108464 52.1478195 52.9070073 52.4023566 54.7956387 51.5256403 56.4244301 50.7695435 57.1120168 49.0812695 58.0855812 49.7200783 58.3463 49.6750607 58.5738719 49.6886526 58.7682971 49.7608538L58.8366898 57.0923478C58.828883 57.1951918 58.8242556 57.2983156 58.8228257 57.4015721 58.8207078 57.5545221 58.8254803 57.705963 58.8368557 57.8555993zM31.735561 1.44731467C30.577457.604777269 29.0676405.263324232 27.5702975.640564437L27.5702975.640564437 14.0969208 4.03504355.281602873 22.2399845.281602873 26.7257424C.281602873 26.7941205.283005544 26.8624914.28581 26.930812.399066852 29.6899123 2.72757232 31.8347921 5.48667253 31.7215352L5.48667253 31.7215352C7.69844083 31.6307455 10.5685236 31.5394378 14.0969208 31.4476121 14.6986425 32.2490804 13.3015277 33.1807882 12.7146935 34.6549629 12.1252158 36.1357782 12.0432939 39.0343067 17.0834698 39.3148363 21.4854803 38.9935341 21.7262587 36.3462633 20.8969324 34.55972 20.1817057 33.0189713 18.5846897 32.3685515 19.1889683 31.4476121 21.678094 31.4476121 24.2553542 31.5040826 26.9207488 31.6170237L26.9207488 31.6170237C28.6270073 31.6893232 30.1753281 30.89638 31.1329572 29.6216268 31.5093674 27.1232119 31.8138219 24.5571845 32.0321861 21.9552875 31.8625026 20.878653 31.6120923 19.9029229 31.2809552 19.0280974 30.3600158 18.4238188 29.1180376 19.9686343 27.5772889 20.683861 25.7907456 21.5131873 23.1434748 21.2724089 22.8221726 16.8703983 23.1027022 11.8302225 26.0012307 11.9121444 27.482046 12.501622 28.9562207 13.0884563 30.4794868 14.5707015 31.2809552 13.9689798 31.8347676 11.3428638 32.1048912 9.15300315 32.091326 7.39939775L32.0913261 7.39939775C32.0883926 7.02017856 32.1277535 6.65049337 32.2049996 6.29482027 32.0937901 4.66595946 31.9384436 3.04757961 31.735561 1.44731467z"/>
      <circle cx="33.5" cy="36.5" r="33.5" stroke="#123E7A" stroke-width="7"/>
    </g>
  </g>
</svg>
