<svg xmlns="http://www.w3.org/2000/svg" width="81" height="80" viewBox="0 0 81 80">
  <g fill="none" transform="translate(1 1)">
    <path fill="#5FB6FD" d="M39.251,78.481 C17.195582,78.481 -0.69,60.7759441 -0.69,38.928 C-0.69,17.0800559 17.195582,-0.625 39.251,-0.625 C61.306418,-0.625 79.192,17.0800559 79.192,38.928 C79.192,60.7759441 61.306418,78.481 39.251,78.481 Z M39.251,75.481 C59.6563382,75.481 76.192,59.112239 76.192,38.928 C76.192,18.743761 59.6563382,2.375 39.251,2.375 C18.8456618,2.375 2.31,18.743761 2.31,38.928 C2.31,59.112239 18.8456618,75.481 39.251,75.481 Z"/>
    <path fill="#65B0F9" d="M47.6507699,54.2002298 C46.8174324,53.3335588 46.4007699,52.2835693 46.4007699,51.0502298 C46.4007699,49.8168903 46.8257657,48.775234 47.6757699,47.9252298 C48.5257742,47.0752255 49.5674304,46.6502298 50.8007699,46.6502298 C52.0341094,46.6502298 53.0757657,47.0752255 53.9257699,47.9252298 C54.7757742,48.775234 55.2007699,49.8168903 55.2007699,51.0502298 C55.2007699,52.2835693 54.7757742,53.3252255 53.9257699,54.1752298 C53.0757657,55.025234 52.0341094,55.4502298 50.8007699,55.4502298 C49.5674304,55.4502298 48.5174409,55.0335673 47.6507699,54.2002298 Z M37.3507699,54.2002298 C36.5174324,53.3335588 36.1007699,52.2835693 36.1007699,51.0502298 C36.1007699,49.8168903 36.5257657,48.775234 37.3757699,47.9252298 C38.2257742,47.0752255 39.2674304,46.6502298 40.5007699,46.6502298 C41.7341094,46.6502298 42.7757657,47.0752255 43.6257699,47.9252298 C44.4757742,48.775234 44.9007699,49.8168903 44.9007699,51.0502298 C44.9007699,52.2835693 44.4757742,53.3252255 43.6257699,54.1752298 C42.7757657,55.025234 41.7341094,55.4502298 40.5007699,55.4502298 C39.2674304,55.4502298 38.2174409,55.0335673 37.3507699,54.2002298 Z M27.1007699,54.2002298 C26.2674324,53.3335588 25.8507699,52.2835693 25.8507699,51.0502298 C25.8507699,49.8168903 26.2757657,48.775234 27.1257699,47.9252298 C27.9757742,47.0752255 29.0174304,46.6502298 30.2507699,46.6502298 C31.4841094,46.6502298 32.5257657,47.0752255 33.3757699,47.9252298 C34.2257742,48.775234 34.6507699,49.8168903 34.6507699,51.0502298 C34.6507699,52.2835693 34.2257742,53.3252255 33.3757699,54.1752298 C32.5257657,55.025234 31.4841094,55.4502298 30.2507699,55.4502298 C29.0174304,55.4502298 27.9674409,55.0335673 27.1007699,54.2002298 Z"/>
  </g>
</svg>
