<svg xmlns="http://www.w3.org/2000/svg" width="81" height="80" viewBox="0 0 81 80">
  <g fill="none">
    <path fill="#5FB6FD" d="M40.251,79.481 C18.195582,79.481 0.31,61.7759441 0.31,39.928 C0.31,18.0800559 18.195582,0.375 40.251,0.375 C62.306418,0.375 80.192,18.0800559 80.192,39.928 C80.192,61.7759441 62.306418,79.481 40.251,79.481 Z M40.251,76.481 C60.6563382,76.481 77.192,60.112239 77.192,39.928 C77.192,19.743761 60.6563382,3.375 40.251,3.375 C19.8456618,3.375 3.31,19.743761 3.31,39.928 C3.31,60.112239 19.8456618,76.481 40.251,76.481 Z"/>
    <path fill="#FFFFFF" d="M48.6507699,55.2002298 C47.8174324,54.3335588 47.4007699,53.2835693 47.4007699,52.0502298 C47.4007699,50.8168903 47.8257657,49.775234 48.6757699,48.9252298 C49.5257742,48.0752255 50.5674304,47.6502298 51.8007699,47.6502298 C53.0341094,47.6502298 54.0757657,48.0752255 54.9257699,48.9252298 C55.7757742,49.775234 56.2007699,50.8168903 56.2007699,52.0502298 C56.2007699,53.2835693 55.7757742,54.3252255 54.9257699,55.1752298 C54.0757657,56.025234 53.0341094,56.4502298 51.8007699,56.4502298 C50.5674304,56.4502298 49.5174409,56.0335673 48.6507699,55.2002298 Z M38.3507699,55.2002298 C37.5174324,54.3335588 37.1007699,53.2835693 37.1007699,52.0502298 C37.1007699,50.8168903 37.5257657,49.775234 38.3757699,48.9252298 C39.2257742,48.0752255 40.2674304,47.6502298 41.5007699,47.6502298 C42.7341094,47.6502298 43.7757657,48.0752255 44.6257699,48.9252298 C45.4757742,49.775234 45.9007699,50.8168903 45.9007699,52.0502298 C45.9007699,53.2835693 45.4757742,54.3252255 44.6257699,55.1752298 C43.7757657,56.025234 42.7341094,56.4502298 41.5007699,56.4502298 C40.2674304,56.4502298 39.2174409,56.0335673 38.3507699,55.2002298 Z M28.1007699,55.2002298 C27.2674324,54.3335588 26.8507699,53.2835693 26.8507699,52.0502298 C26.8507699,50.8168903 27.2757657,49.775234 28.1257699,48.9252298 C28.9757742,48.0752255 30.0174304,47.6502298 31.2507699,47.6502298 C32.4841094,47.6502298 33.5257657,48.0752255 34.3757699,48.9252298 C35.2257742,49.775234 35.6507699,50.8168903 35.6507699,52.0502298 C35.6507699,53.2835693 35.2257742,54.3252255 34.3757699,55.1752298 C33.5257657,56.025234 32.4841094,56.4502298 31.2507699,56.4502298 C30.0174304,56.4502298 28.9674409,56.0335673 28.1007699,55.2002298 Z"/>
  </g>
</svg>
