<svg xmlns="http://www.w3.org/2000/svg" width="80" height="80" viewBox="0 0 80 80">
  <g fill="none" fill-rule="evenodd" transform="translate(2 1)">
    <ellipse cx="38.254" cy="38.849" fill="#123E7A" stroke="#5FB6FD" stroke-width="3" rx="37.949" ry="38.053"/>
    <path fill="#67AAF4" d="M23.6411537,28.2411265 L24.750602,28.2411265 L25.4718504,28.8591935 L25.582822,30.0393244 L24.3622683,29.870773 L23.6411537,29.3649833 L23.6411537,28.2411265 Z M44.6332596,22.6912703 L43.7493687,23.5867759 L43.7493687,24.5662181 L43.5835137,25.097772 L43.5559381,27.3365358 L43.8598049,27.8401559 L44.7989807,28.3439117 L45.0752719,27.7841529 L44.0532355,26.4970332 L43.9702411,25.3776513 L44.2189567,25.2097779 L44.1636717,23.7546493 L44.7714052,23.3068965 L44.6332596,22.6912703 Z M43.0034897,17.5983878 L43.7216593,17.5704541 L44.2465322,18.0742098 L46.5393207,18.1860802 L46.6221813,18.7177697 L46.1801689,19.2213898 L45.9868722,18.633833 L45.1305569,18.4938933 L44.9924113,18.7737727 L44.550399,18.6617667 L44.1912472,18.3539536 L43.334932,18.3260199 L43.0034897,17.5983878 Z M35.8338406,20.6873665 L36.5383563,20.7993725 L37.1598776,20.0987249 L37.5605266,20.1547279 L37.7538234,20.4770502 L37.7538234,20.9676527 L37.2704477,21.3600805 L36.8697987,21.2339721 L36.9803687,21.5702612 L37.0770171,22.1308336 L36.1929924,22.9156891 L36.096344,23.84062 L35.75098,23.84062 L35.7371922,22.0887974 L35.5990466,21.6963697 L35.8338406,20.6873665 Z M24.9171263,36.8952844 L24.9725452,36.3614253 L24.5287926,36.1365997 L23.724282,36.558046 L23.3637916,37.5415562 L24.1958778,37.5696255 L24.9171263,36.8952844 Z M26.6368515,34.7035739 L26.0821273,34.5350225 L25.4718504,34.8722609 L25.4995599,36.4457688 L25.8046314,36.558046 L25.915603,37.1201099 L25.6105315,37.7944511 L25.2221978,38.7778257 L25.6659504,39.0587899 L26.054284,39.592649 L26.8586608,39.1712027 L27.4135188,38.6092743 L26.6645609,37.2043178 L26.4426177,36.2490125 L26.3594894,35.4341893 L26.6368515,34.7035739 Z M18.4264253,26.6676186 L18.4264253,25.2626621 L19.6468453,23.9701184 L20.5344842,22.3404719 L23.0864295,20.9917896 L24.1404589,19.6992459 L27.080604,17.9571866 L28.0792146,16.4960915 L28.6339388,16.8331943 L29.4106061,16.1588531 L32.0179703,16.2712659 L33.8486671,16.2712659 L35.069087,16.8331943 L34.9026965,17.5638096 L34.1260291,18.0133252 L33.8486671,18.7439406 L32.9056092,19.5306945 L32.1289419,19.4744203 L30.908522,20.5421384 L30.7975504,21.3851666 L29.8543587,21.4413052 L29.5215777,22.3966105 L28.4119955,23.1833645 L27.6908809,23.5206028 L26.9696324,23.1833645 L26.4703271,23.9701184 L26.1929651,25.3750749 L25.6382409,24.194944 L25.0835168,24.9254238 L25.4718504,25.6560391 L25.1944884,26.2742417 L24.5287926,25.5436263 L23.5856009,25.7684519 L23.25282,25.2065235 L22.4761526,25.7684519 L21.6439325,25.8245905 L20.9782368,25.3750749 L19.8132357,26.6113444 L19.0367022,26.9485828 L18.4264253,26.6676186 Z M40.7492535,65.8371714 C47.0806586,65.239309 52.7673844,62.376783 57.0180385,58.0532975 C60.013067,55.0067616 62.2951465,51.2348988 63.587718,47.0196225 L62.7885619,46.283312 L61.5550235,47.7114561 L61.3788611,48.5444498 L60.967637,49.2882184 L60.9090054,50.1212122 L60.1160069,50.9542059 L59.3523242,51.9657854 L58.9117843,53.1558152 L59.0293151,54.1970912 L58.5887753,54.7624096 L58.0601542,54.6731845 L57.7370113,53.9591124 L57.2377061,52.8583077 L57.2964715,51.5195242 L56.4447075,51.2517133 L56.0336173,50.8054521 L55.5049963,50.7460591 L55.1818534,51.0137345 L54.9176098,50.5079447 L54.3007736,50.5079447 L53.6546217,50.8352843 L53.0966849,50.5079447 L52.3330022,51.2815454 L51.5694533,51.2517133 L51.393157,50.9542059 L51.0408322,51.2517133 L49.6016818,51.1923203 L48.837999,50.8352843 L48.1332156,50.1807408 L47.7807569,50.5079447 L47.2226862,50.4485517 L47.3109013,51.2517133 L47.6045945,51.3112419 L47.7514411,51.5790528 L48.2212968,52.9773649 L49.1904577,53.2153438 L49.4255194,52.7393861 L50.3946803,52.2931249 L50.8057705,51.9954819 L51.7162999,52.6500254 L52.1568398,52.8881398 L51.8631465,53.6020763 L51.1876788,54.43507 L50.1009871,55.3574244 L49.0142953,56.1904182 L48.1037659,57.0234119 L47.3695328,57.1721656 L46.5472185,57.2316942 L45.8424351,58.0349914 L45.5487418,57.8565412 L44.9612215,57.8267091 L44.8731403,57.053244 L44.6382125,56.5177577 L44.256438,55.8333821 L44.1683568,55.0896135 L43.9039794,55.3574244 L43.3459087,55.5657068 L43.199062,54.43507 L42.7585222,53.5425477 L42.1711357,52.9773649 L41.5837492,52.3525179 L40.6733537,52.2931249 L40.6439041,52.8881398 L40.8495161,53.2450403 L41.6719643,54.1078661 L42.5235944,55.2383672 L42.9935839,56.5474542 L43.3753583,57.1424691 L44.5501313,58.1837451 L45.3136802,59.0167388 L46.2242095,58.6003098 L47.3109013,58.5704777 L47.5751449,58.0646879 L48.2212968,58.1242165 L47.9276035,58.8679851 L47.1640547,59.8497325 L46.1066787,60.772087 L45.636823,61.4861591 L44.4032846,62.1405669 L43.3459087,62.854639 L42.7585222,63.4199574 L42.6998906,64.5504586 L41.9068921,65.2942272 L40.7492535,65.8371714 Z M15.3595129,25.3922962 L15.5554869,25.6050533 L15.6246936,26.7134516 L15.7909502,26.9799065 L15.8324474,27.6815034 L16.4834183,27.6815034 L16.6773844,26.9659397 L16.8574288,26.3485507 L16.9266354,25.5348123 L18.4778284,23.4584978 L18.5193256,22.1677169 L19.8074797,20.2316134 L20.5830761,19.0670765 L20.7491989,19.8107095 L20.4583167,20.4420653 L20.0844402,20.9330746 L20.3059818,21.2417013 L20.6660706,20.9751108 L20.7769083,20.3297881 L21.5247953,19.5862907 L22.5081456,18.996971 L23.9070036,18.3936845 L23.8792942,17.3835966 L24.7657284,16.6539305 L26.6493007,15.713948 L26.732429,15.4614599 L26.0260392,15.7700866 L25.0566105,16.0366771 L24.4194274,16.5276864 L23.2699543,17.3975635 L22.1441748,17.5680133 C26.6123547,14.0813183 32.2026998,12.0083938 38.2681212,12.0082582 L38.2681212,12.0085294 L38.2689244,12.0085294 L38.2689244,12.0082582 C43.7533846,12.0082582 48.8495112,13.702993 53.0787474,16.6053855 L52.8788914,18.6174253 L50.9016157,19.5076424 L50.0230794,18.7915363 L48.321024,19.5145581 L49.4739774,20.6826205 L49.3093272,22.9074175 L50.1878635,23.0742061 L49.3642106,23.964152 L50.4073972,24.6315775 L49.5289947,25.79964 L49.968196,26.8007783 L50.8467323,27.5238 L50.791715,28.441544 L48.9250093,26.8007783 L48.7053418,25.7439082 L47.7170386,25.9664286 L47.771922,26.6895859 L49.2544437,28.024437 L49.2544437,28.6918625 L47.8816889,28.5249383 L47.3876042,29.24796 L47.1130532,30.2492339 L45.5756481,30.9166595 L44.5873449,31.1946404 L41.841969,33.7531502 L40.6890156,33.5307654 L40.194797,33.0857247 L40.194797,32.1959143 L42.8852895,31.8622016 L41.6773188,30.5272149 L40.6339983,29.4704804 L36.8455696,29.359288 L35.6924823,30.3048301 L34.7590626,30.9722557 L33.3314243,32.8633399 L30.7508325,33.808882 L30.5861822,36.1448713 L31.0802669,36.5897765 L32.3980045,35.9779472 L32.8373396,36.4229879 L32.6725555,38.0359555 L33.7158759,38.2027441 L34.4845116,36.4785841 L35.4728148,36.4229879 L35.4728148,35.7555624 L34.9237128,35.2549254 L34.9237128,34.3649795 L35.8571326,33.808882 L36.5710187,32.6408195 L37.6690887,32.5852233 L37.5593219,33.5307654 L37.0102199,33.808882 L36.5710187,34.6430961 L36.5710187,35.922351 L37.2847709,35.7555624 L38.2181907,35.4774458 L38.7672926,35.6999662 L38.822176,36.4785841 L37.2847709,36.5341803 L36.8455696,37.5353186 L35.9121499,37.8134352 L35.9121499,38.7589773 L34.5942784,38.9814976 L33.7707594,39.0370938 L32.6725555,39.3152104 L31.6293689,38.9259015 L31.7391357,38.1471479 L32.0558532,37.8276732 L32.0974843,37.3877853 L31.8331068,36.9118276 L31.2457204,37.5663711 L31.0988737,38.5481185 L30.3646406,38.5481185 L29.9241008,38.845626 L29.5716421,38.845626 L28.7493278,39.5596981 L27.5451052,39.6786197 L26.9577187,40.3628597 L25.6948645,39.7084518 L25.3130901,39.7678448 L25.4304871,40.0951843 L26.4290977,41.195989 L26.3997819,42.2967936 L26.1354044,42.6835262 L25.1074781,42.6239976 L23.9327051,41.6422501 L23.6683276,41.4339678 L23.2865532,41.6719466 L23.198472,43.2785411 L22.9047788,44.0223097 L22.9635442,44.7660783 L24.2851638,45.6586006 L25.3130901,45.6882971 L25.9297924,45.4503182 L26.3410165,44.7957748 L27.4277082,43.962781 L28.2500225,43.6355771 L30.6876496,43.6652736 L31.2457204,44.9445285 L31.8331068,45.6289041 L32.978564,46.1940868 L32.978564,47.265195 L33.4777354,47.1461378 L33.6245821,46.4023692 L33.9477249,46.4320657 L33.9477249,46.1048617 L33.4777354,45.6882971 L32.7435023,45.1528108 L32.3029625,45.1528108 L32.0387189,44.1412313 L31.9506377,43.6355771 L32.5966557,43.6355771 L32.7141866,44.0818383 L33.2134918,44.5874924 L34.4175806,45.6586006 L34.7994889,46.1345582 L34.8875701,46.6701801 L35.3281099,46.997384 L35.4455069,47.7708491 L36.1211085,48.0386601 L36.2972709,46.997384 L36.7671265,46.4320657 L37.2664318,46.4915943 L37.5013596,46.9676875 L38.1769612,47.681624 L38.7055822,48.4552247 L39.3222845,48.4849212 L39.7335086,48.2469424 L40.4089762,48.5444498 L41.172659,48.4552247 L41.7305958,48.6635071 L42.0537387,49.2286898 L41.7305958,49.5857259 L41.5544334,50.3890231 L40.9375973,50.9245094 L38.8524288,50.984038 L37.5013596,50.8948129 L36.708495,50.6566984 L35.6218032,49.9129298 L35.0931821,49.9427619 L34.358949,51.1624882 L33.9477249,51.1923203 L32.6554211,50.4485517 L32.2148813,50.359191 L32.1561159,49.7940082 L30.5702527,49.2286898 L30.423406,47.8602099 L29.6009579,46.997384 L25.7829457,46.9378554 L25.4599367,46.7891017 L24.5494074,46.7594052 L24.2851638,46.5511229 L23.521481,46.1048617 L23.198472,46.1345582 L22.7872479,47.0866092 L21.9942494,47.5627024 L21.2307005,48.0683566 L20.643314,48.0089636 L19.7329185,48.8716538 L19.5566223,50.031987 L19.5860719,53.6616049 L19.8209997,54.3161484 L20.7313952,54.9408598 L21.3775471,55.9821358 L22.2293111,56.8152651 L23.2572374,57.5887302 L24.3144795,58.2432737 L25.5480179,58.5704777 L26.4584134,58.5109491 L26.9284029,58.5407812 L27.8094827,59.0167388 L28.3675534,59.6117537 L29.2191834,59.463 L29.8946511,59.6117537 L30.3939564,60.2067686 L30.423406,61.6646093 L31.0401083,62.2299277 L31.3632512,62.3191528 L31.9506377,63.4793504 L32.5085745,63.8959151 L33.1254106,64.4017048 L33.6540317,64.6992123 L33.830328,65.5773609 C28.2868346,64.626666 23.3267118,61.926047 19.5191409,58.0530263 C14.720188,53.1716804 11.7515303,46.4285401 11.7513964,38.9817688 L11.7516641,38.9817688 L11.7516641,38.9809552 L11.7513964,38.9809552 C11.7513964,34.0261139 13.066189,29.3830181 15.3595129,25.3922962 Z M38.2753497,11.8239772 C53.0472898,11.8239772 65.0267346,24.0049677 65.0267346,39.0254322 C65.0267346,54.0458967 53.0472898,66.2270228 38.2753497,66.2270228 C23.5035435,66.2270228 11.5240987,54.0458967 11.5240987,39.0254322 C11.5240987,24.0049677 23.5035435,11.8239772 38.2753497,11.8239772 Z"/>
  </g>
</svg>
