<svg xmlns="http://www.w3.org/2000/svg" width="80" height="80" viewBox="0 0 80 80">
  <g fill="none" fill-rule="evenodd" transform="translate(1.394 1.112)">
    <ellipse cx="38.852" cy="38.888" fill="#123E7A" stroke="#5FB6FD" stroke-width="3" rx="37.949" ry="38.053"/>
    <polygon fill="#67AAF4" points="31.907 30.501 37.326 39.019 33.38 38.947 33.103 47.536 30.713 47.536 30.515 38.947 26.618 39.019"/>
    <polygon fill="#67AAF4" points="45.727 30.501 51.146 39.019 47.201 38.947 46.924 47.536 44.534 47.536 44.335 38.947 40.439 39.019" transform="matrix(1 0 0 -1 0 78.037)"/>
    <path fill="#67AAF4" d="M21.7281506 48.9763667L55.9229602 48.9763667 55.9229602 48.9763667C58.1094113 48.9763667 59.88188 50.7488354 59.88188 52.9352865L59.88188 52.9352865C59.88188 55.1217375 58.1094113 56.8942063 55.9229602 56.8942063L21.7281506 56.8942063 21.7281506 56.8942063C19.5416995 56.8942063 17.7692308 55.1217375 17.7692308 52.9352865L17.7692308 52.9352865 17.7692308 52.9352865C17.7692308 50.7488354 19.5416995 48.9763667 21.7281506 48.9763667L21.7281506 48.9763667zM26.0983983 49.9883016C24.4708235 49.9883016 23.1514134 51.3077116 23.1514134 52.9352865L23.1514134 52.9352865 23.1514134 52.9352865C23.1514134 54.5628613 24.4708235 55.8822714 26.0983983 55.8822714L51.5527125 55.8822714C53.1802873 55.8822714 54.4996974 54.5628613 54.4996974 52.9352865L54.4996974 52.9352865C54.4996974 51.3077116 53.1802873 49.9883016 51.5527125 49.9883016L51.5527125 49.9883016 26.0983983 49.9883016zM21.7281506 21L55.9229602 21 55.9229602 21C58.1094113 21 59.88188 22.7724688 59.88188 24.9589198L59.88188 24.9589198C59.88188 27.1453708 58.1094113 28.9178396 55.9229602 28.9178396L21.7281506 28.9178396 21.7281506 28.9178396C19.5416995 28.9178396 17.7692308 27.1453708 17.7692308 24.9589198 17.7692308 22.7724688 19.5416995 21 21.7281506 21L21.7281506 21zM26.0983983 22.0119349C24.4708235 22.0119349 23.1514134 23.331345 23.1514134 24.9589198L23.1514134 24.9589198 23.1514134 24.9589198C23.1514134 26.5864946 24.4708235 27.9059047 26.0983983 27.9059047L51.5527125 27.9059047C53.1802873 27.9059047 54.4996974 26.5864946 54.4996974 24.9589198L54.4996974 24.9589198C54.4996974 23.331345 53.1802873 22.0119349 51.5527125 22.0119349L51.5527125 22.0119349 26.0983983 22.0119349z"/>
  </g>
</svg>
