<svg xmlns="http://www.w3.org/2000/svg" width="81" height="80" viewBox="0 0 81 80">
  <g fill="none" fill-rule="evenodd" transform="translate(2 2)">
    <ellipse cx="38.441" cy="38.053" fill="#123E7A" stroke="#5FB6FD" stroke-width="3" rx="38.441" ry="38.053"/>
    <g transform="translate(19 14)">
      <path fill="#65B0F9" d="M10.0559039,11.0984011 C13.7118833,7.98764615 16.1018162,6.07540115 17.2257027,5.36166611 C18.6583603,4.45184299 18.6783945,3.99243359 20.5,3.97586319 C22.3216055,3.95929279 22.3404143,4.40673013 23.7718845,5.31057682 C24.898822,6.02213801 27.2933249,7.95159371 30.9553932,11.0989439 L30.9553932,11.0989439 C31.6185205,11.668866 32,12.4997375 32,13.3741224 L32,40 L32,40 C32,41.6568542 30.6568542,43 29,43 L12,43 L12,43 C10.3431458,43 9,41.6568542 9,40 L9,13.3832404 L9.00000002,13.3832404 C9.00000002,12.5036624 9.38600582,11.6683958 10.0559039,11.0984011 Z" transform="rotate(29 20.5 23.488)"/>
      <circle cx="27" cy="12" r="2" fill="#123E7A"/>
    </g>
  </g>
</svg>
