<svg xmlns="http://www.w3.org/2000/svg" width="80" height="80" viewBox="0 0 80 80">
  <g fill="none" fill-rule="evenodd" transform="translate(2 2)">
    <ellipse cx="38.167" cy="38.322" fill="#123E7A" stroke="#5FB6FD" stroke-width="3" rx="37.949" ry="38.053"/>
    <path fill="#5FB6FD" fill-rule="nonzero" d="M38.5,7.5 C21.8712726,7.5 8.39102564,21.1553151 8.39102564,38 C8.39102564,54.8446849 21.8712726,68.5 38.5,68.5 C55.1287274,68.5 68.6089744,54.8446849 68.6089744,38 L38.5,38 L38.5,7.5 Z"/>
    <path fill="#123E7A" d="M38.5,63.5 C52.4027065,63.5 63.6730769,52.0832611 63.6730769,38 C63.6730769,23.9167389 52.4027065,12.5 38.5,12.5 C24.5972935,12.5 13.3269231,23.9167389 13.3269231,38 C13.3269231,52.0832611 24.5972935,63.5 38.5,63.5 Z"/>
    <rect width="14.207" height="3.598" x="35.603" y="39.678" fill="#5FB6FD"/>
    <polygon fill="#5FB6FD" points="39.154 22.128 39.154 42.598 35.603 42.598 35.603 22.128"/>
    <polygon fill="#5FB6FD" points="66.141 33 68.609 38 63.673 38"/>
    <polygon fill="#123E7A" points="36.032 7.5 38.5 12.5 33.564 12.5" transform="rotate(-90 36.032 10)"/>
  </g>
</svg>
