<svg xmlns="http://www.w3.org/2000/svg" width="18" height="19" viewBox="0 0 18 19" xmlns:xlink="http://www.w3.org/1999/xlink">
  <defs>
    <path id="b" d="M218.585439,7.55205697 L222.922983,2.76244881 C223.479074,2.14840132 223.432091,1.19981666 222.818044,0.643725679 C222.203996,0.0876346947 221.255411,0.134617725 220.69932,0.748665214 L216.561751,5.31745737 L212.424182,0.748665214 C211.868091,0.134617725 210.919506,0.0876346947 210.305458,0.643725679 C209.691411,1.19981666 209.644428,2.14840132 210.200519,2.76244881 L214.538063,7.55205697 L210.200519,12.3416651 C209.644428,12.9557126 209.691411,13.9042973 210.305458,14.4603883 C210.919506,15.0164792 211.868091,14.9694962 212.424182,14.3554487 L216.561751,9.78665656 L220.69932,14.3554487 C221.255411,14.9694962 222.203996,15.0164792 222.818044,14.4603883 C223.432091,13.9042973 223.479074,12.9557126 222.922983,12.3416651 L218.585439,7.55205697 Z"/>
    <filter id="a" width="144.4%" height="141.1%" x="-22.2%" y="-20.6%" filterUnits="objectBoundingBox">
      <feMorphology radius="1" operator="dilate" in="SourceAlpha" result="shadowSpreadOuter1"/>
      <feOffset in="shadowSpreadOuter1" result="shadowOffsetOuter1"/>
      <feColorMatrix values="0 0 0 0 1 0 0 0 0 1 0 0 0 0 1 0 0 0 0.5 0" in="shadowOffsetOuter1"/>
    </filter>
  </defs>
  <g fill="none" transform="translate(-207.827 1.819)">
    <use fill="black" filter="url(#a)" xlink:href="#b"/>
    <use fill="#E9271D" fill-rule="evenodd" xlink:href="#b"/>
  </g>
</svg>
