<svg xmlns="http://www.w3.org/2000/svg" width="48" height="49" viewBox="0 0 48 49" xmlns:xlink="http://www.w3.org/1999/xlink">
  <defs>
    <rect id="a" width="26" height="13" x="4127" y="989"/>
  </defs>
  <g fill="none" fill-rule="evenodd" transform="translate(-4127 -976)">
    <path fill="#FFFFFF" fill-rule="nonzero" d="M4142,979 C4140.89543,979 4140,979.895431 4140,981 L4140,1020 C4140,1021.10457 4140.89543,1022 4142,1022 L4170,1022 C4171.10457,1022 4172,1021.10457 4172,1020 L4172,988.345027 C4164.11603,979 4172,988.345027 4164.11603,979 L4142,979 Z M4142,976 C4151.94839,976 4159.66226,976 4165.14161,976 C4165.56642,976 4175,987.277612 4175,987.651692 C4175,995.801788 4175,1006.58456 4175,1020 C4175,1022.76142 4172.76142,1025 4170,1025 L4142,1025 C4139.23858,1025 4137,1022.76142 4137,1020 L4137,981 C4137,978.238576 4139.23858,976 4142,976 Z"/>
    <path fill="#979797" d="M4165.5,976.24089 L4165.5,984 C4165.5,985.932997 4167.067,987.5 4169,987.5 L4175.0109,987.5 C4165.5,976.24089 4175.0109,987.5 4165.5,976.24089 Z"/>
    <path fill="#FFFFFF" d="M4165.5265,976.055863 L4174.71969,987.486226 C4174.71969,988.404066 4174.71969,989.408658 4174.71969,990.5 L4169,990.5 C4165.41015,990.5 4162.5,987.589851 4162.5,984 L4162.5,976.055863 L4165.5265,976.055863 Z"/>
    <path stroke="#FFFFFF" stroke-width="1.5" d="M4167.25,1003.75 L4160.75,1003.75 L4160.75,1013.75 L4157.23995,1013.75 L4164,1020.9077 L4170.76005,1013.75 L4167.25,1013.75 L4167.25,1003.75 Z"/>
    <use fill="#FFFFFF" xlink:href="#a"/>
    <rect width="25" height="12" x="4127.5" y="989.5" stroke="#FFFFFF"/>
    <path fill="#7199D2" d="M4129.08398,1000 L4129.08398,991.328125 L4132.10742,991.328125 C4133.16211,991.328125 4133.91504,991.504881 4134.36621,991.858398 C4134.81739,992.211916 4135.04297,992.80273 4135.04297,993.630859 C4135.04297,994.568364 4134.74121,995.297849 4134.1377,995.819336 C4133.53418,996.340823 4132.68946,996.601562 4131.60352,996.601562 L4130.85352,996.601562 L4130.85352,1000 L4129.08398,1000 Z M4130.85352,995.412109 L4131.20508,995.412109 C4131.82227,995.412109 4132.30957,995.268556 4132.66699,994.981445 C4133.02442,994.694335 4133.20312,994.30469 4133.20312,993.8125 C4133.20312,992.949214 4132.6543,992.517578 4131.55664,992.517578 L4130.85352,992.517578 L4130.85352,995.412109 Z M4136.44336,1000 L4136.44336,991.328125 L4140.17578,991.328125 C4141.51954,991.328125 4142.54882,991.684567 4143.26367,992.397461 C4143.97852,993.110355 4144.33594,994.138665 4144.33594,995.482422 C4144.33594,996.912117 4143.95704,998.022457 4143.19922,998.813477 C4142.4414,999.604496 4141.38087,1000 4140.01758,1000 L4136.44336,1000 Z M4138.24805,998.769531 L4139.5957,998.769531 C4140.54493,998.769531 4141.25293,998.506839 4141.71973,997.981445 C4142.18653,997.456052 4142.41992,996.658208 4142.41992,995.587891 C4142.41992,994.759761 4142.23242,994.070315 4141.85742,993.519531 C4141.59961,993.140623 4141.28906,992.878907 4140.92578,992.734375 C4140.5625,992.589843 4140.03321,992.517578 4139.33789,992.517578 L4138.24805,992.517578 L4138.24805,998.769531 Z M4145.95898,1000 L4145.95898,991.328125 L4151.41406,991.328125 L4151.41406,992.517578 L4147.76367,992.517578 L4147.76367,995.154297 L4150.76367,995.154297 L4150.76367,996.349609 L4147.76367,996.349609 L4147.76367,1000 L4145.95898,1000 Z"/>
  </g>
</svg>
