<svg xmlns="http://www.w3.org/2000/svg" width="109" height="88" viewBox="0 0 109 88">
  <g fill="none" fill-rule="evenodd">
    <rect width="108.35" height="86.5" y=".646" fill="#123E7A"/>
    <g transform="translate(37.493 24.073)">
      <path fill="#3876CF" d="M24.554709,11.3843341 L24.554709,11.3843341 L24.554709,11.3843341 C29.8316291,11.3843341 34.109418,15.662123 34.109418,20.9390431 L34.109418,26.0213351 C30.924515,27.6455713 27.739612,28.4576893 24.554709,28.4576893 C21.369806,28.4576893 18.184903,27.6455713 15,26.0213351 L15,20.9390431 L15,20.9390431 C15,15.662123 19.2777889,11.3843341 24.554709,11.3843341 Z"/>
      <ellipse cx="24.555" cy="5.286" fill="#3876CF" rx="5.895" ry="5.286"/>
      <path fill="#D8D8D8" d="M9.55470899,11.3843341 L9.55470899,11.3843341 L9.55470899,11.3843341 C14.8316291,11.3843341 19.109418,15.662123 19.109418,20.9390431 L19.109418,26.0213351 C15.924515,27.6455713 12.739612,28.4576893 9.55470899,28.4576893 C6.36980599,28.4576893 3.184903,27.6455713 0,26.0213351 L0,20.9390431 L0,20.9390431 C-6.46236327e-16,15.662123 4.27778893,11.3843341 9.55470899,11.3843341 Z"/>
      <ellipse cx="9.555" cy="5.286" fill="#D8D8D8" rx="5.895" ry="5.286"/>
    </g>
    <path fill="#CDCCCD" d="M27.7954145,68.6723141 C28.5237514,68.6723141 29.1190788,68.3841503 29.5814145,67.8078141 L30.5314145,68.7863141 C29.777744,69.634985 28.8895029,70.0593141 27.8666645,70.0593141 C26.843826,70.0593141 26.0015011,69.7363173 25.3396645,69.0903141 C24.6778278,68.4443109 24.3469145,67.6289024 24.3469145,66.6440641 C24.3469145,65.6592258 24.6841611,64.8374841 25.3586645,64.1788141 C26.0331678,63.5201441 26.8580763,63.1908141 27.8334145,63.1908141 C28.9227532,63.1908141 29.8347441,63.6056433 30.5694145,64.4353141 L29.6479145,65.4803141 C29.1792455,64.8976445 28.5965846,64.6063141 27.8999145,64.6063141 C27.3425783,64.6063141 26.8659998,64.7883956 26.4701645,65.1525641 C26.0743291,65.5167326 25.8764145,66.007561 25.8764145,66.6250641 C25.8764145,67.2425672 26.0632459,67.7381456 26.4369145,68.1118141 C26.810583,68.4854826 27.2634118,68.6723141 27.7954145,68.6723141 Z M36.6399145,66.6298141 C36.6399145,66.0344778 36.4499164,65.5278162 36.0699145,65.1098141 C35.6899126,64.691812 35.2228339,64.4828141 34.6686645,64.4828141 C34.114495,64.4828141 33.6474164,64.691812 33.2674145,65.1098141 C32.8874126,65.5278162 32.6974145,66.0328945 32.6974145,66.6250641 C32.6974145,67.2172337 32.8874126,67.7207287 33.2674145,68.1355641 C33.6474164,68.5503995 34.114495,68.7578141 34.6686645,68.7578141 C35.2228339,68.7578141 35.6899126,68.5503995 36.0699145,68.1355641 C36.4499164,67.7207287 36.6399145,67.218817 36.6399145,66.6298141 Z M37.1434145,69.0713141 C36.4720778,69.7236507 35.645586,70.0498141 34.6639145,70.0498141 C33.6822429,70.0498141 32.8557512,69.7220674 32.1844145,69.0665641 C31.5130778,68.4110608 31.1774145,67.5956523 31.1774145,66.6203141 C31.1774145,65.6449759 31.5130778,64.8295674 32.1844145,64.1740641 C32.8557512,63.5185608 33.6822429,63.1908141 34.6639145,63.1908141 C35.645586,63.1908141 36.4720778,63.5185608 37.1434145,64.1740641 C37.8147512,64.8295674 38.1504145,65.6449759 38.1504145,66.6203141 C38.1504145,67.5956523 37.8147512,68.4126441 37.1434145,69.0713141 Z M45.3514145,65.8033141 L43.5559145,69.4323141 L42.6724145,69.4323141 L40.8864145,65.8033141 L40.8864145,69.9833141 L39.4044145,69.9833141 L39.4044145,63.3428141 L41.4089145,63.3428141 L43.1189145,66.9908141 L44.8384145,63.3428141 L46.8334145,63.3428141 L46.8334145,69.9833141 L45.3514145,69.9833141 L45.3514145,65.8033141 Z M54.4144145,65.8033141 L52.6189145,69.4323141 L51.7354145,69.4323141 L49.9494145,65.8033141 L49.9494145,69.9833141 L48.4674145,69.9833141 L48.4674145,63.3428141 L50.4719145,63.3428141 L52.1819145,66.9908141 L53.9014145,63.3428141 L55.8964145,63.3428141 L55.8964145,69.9833141 L54.4144145,69.9833141 L54.4144145,65.8033141 Z M59.2879145,68.2733141 C59.5349157,68.5773156 59.8674124,68.7293141 60.2854145,68.7293141 C60.7034166,68.7293141 61.0343299,68.5757323 61.2781645,68.2685641 C61.521999,67.9613959 61.6439145,67.5418168 61.6439145,67.0098141 L61.6439145,63.3428141 L63.1259145,63.3428141 L63.1259145,67.0573141 C63.1259145,68.0199856 62.8599171,68.7593949 62.3279145,69.2755641 C61.7959118,69.7917334 61.1150853,70.0498141 60.2854145,70.0498141 C59.4557436,70.0498141 58.7733338,69.79015 58.2381645,69.2708141 C57.7029951,68.7514782 57.4354145,68.0136522 57.4354145,67.0573141 L57.4354145,63.3428141 L58.9174145,63.3428141 L58.9174145,67.0098141 C58.9174145,67.5418168 59.0409132,67.9629792 59.2879145,68.2733141 Z M69.3104145,63.3428141 L70.7924145,63.3428141 L70.7924145,69.9833141 L69.3104145,69.9833141 L66.1469145,65.8223141 L66.1469145,69.9833141 L64.6649145,69.9833141 L64.6649145,63.3428141 L66.0519145,63.3428141 L69.3104145,67.6178141 L69.3104145,63.3428141 Z M72.4264145,63.3428141 L73.9084145,63.3428141 L73.9084145,69.9833141 L72.4264145,69.9833141 L72.4264145,63.3428141 Z M78.3544145,64.6253141 L78.3544145,69.9833141 L76.8724145,69.9833141 L76.8724145,64.6253141 L74.9914145,64.6253141 L74.9914145,63.3428141 L80.2354145,63.3428141 L80.2354145,64.6253141 L78.3544145,64.6253141 Z M82.9923813,69.9833141 L82.9923813,67.1073375 L80.6869613,63.1180797 L82.2641098,63.1180797 L83.9386703,66.0172497 L85.6874496,63.1180797 L86.8192856,63.1180797 L84.4210922,67.0980602 L84.4210922,69.9833141 L82.9923813,69.9833141 Z M30.5019125,80.9833141 L28.8876547,80.9833141 L28.5815024,80.616859 C28.0403213,80.9755848 27.445031,81.154945 26.7956137,81.154945 C26.0565149,81.154945 25.4465357,80.947753 24.9656576,80.5333629 C24.4847796,80.1189728 24.2443441,79.593262 24.2443441,78.9562145 C24.2443441,78.0099207 24.8148951,77.3017572 25.9560141,76.8317028 C25.628213,76.2565046 25.4643149,75.7864572 25.4643149,75.4215465 C25.4643149,75.004064 25.6459943,74.6530746 26.0093588,74.368568 C26.3727232,74.0840614 26.823443,73.9418102 27.3615316,73.9418102 C27.877973,73.9418102 28.3031804,74.0786496 28.6371664,74.3523327 C28.9711525,74.6260157 29.138143,74.9746857 29.138143,75.3983532 C29.138143,76.0570479 28.6325328,76.621414 27.6212973,77.0914684 C28.0140401,77.8181973 28.4779027,78.5047139 29.0128988,79.1510387 C29.3252376,78.6995391 29.4814047,78.0702322 29.4814047,77.2630993 L29.4814047,77.1564098 L30.636434,77.1564098 C30.636434,78.1676453 30.2715288,79.0644463 29.5417074,79.8468395 C29.8447688,80.2395823 30.164834,80.6184034 30.5019125,80.9833141 Z M26.4245199,77.5414196 C25.8585991,77.798094 25.575643,78.1861924 25.575643,78.7057262 C25.575643,79.1417635 25.7171211,79.5113074 26.0000815,79.8143688 C26.2830419,80.1174302 26.6286195,80.2689586 27.0368246,80.2689586 C27.3955504,80.2689586 27.7279852,80.160724 28.0341391,79.9442516 C27.5238826,79.2979268 27.0430118,78.5913095 26.5915121,77.8243786 L26.4245199,77.5414196 Z M27.1899008,76.4513317 C27.724897,76.1668251 27.992391,75.825113 27.992391,75.4261852 C27.992391,75.0117951 27.7882915,74.8046032 27.3800863,74.8046032 C26.9718812,74.8046032 26.7677816,75.0040641 26.7677816,75.4029918 C26.7677816,75.6720362 26.9084866,76.0214793 27.1899008,76.4513317 Z M34.9921469,80.9833141 L34.9921469,74.1180797 L37.3857016,74.1180797 C38.2206667,74.1180797 38.8167301,74.2580116 39.1739096,74.5378795 C39.5310891,74.8177475 39.7096762,75.2854755 39.7096762,75.9410778 C39.7096762,76.683269 39.470787,77.2607779 38.9930014,77.6736217 C38.5152158,78.0864656 37.8464806,78.2928844 36.9867758,78.2928844 L36.3930258,78.2928844 L36.3930258,80.9833141 L34.9921469,80.9833141 Z M36.3930258,77.351234 L36.6713461,77.351234 C37.1599553,77.351234 37.5457343,77.2375877 37.8286947,77.0102916 C38.1116551,76.7829956 38.2531332,76.474527 38.2531332,76.0848766 C38.2531332,75.4014422 37.8186486,75.0597301 36.9496664,75.0597301 L36.3930258,75.0597301 L36.3930258,77.351234 Z M40.0668539,80.9833141 L42.7387289,74.1180797 L44.1674399,74.1180797 L46.8393149,80.9833141 L45.3734945,80.9833141 L44.6591391,79.1510387 L41.8202719,79.1510387 L41.1059164,80.9833141 L40.0668539,80.9833141 Z M42.1728109,78.2372204 L44.3066,78.2372204 L43.2397055,75.5004039 L42.1728109,78.2372204 Z M47.8134359,80.9833141 L47.8134359,74.1180797 L50.3832602,74.1180797 C51.7779611,74.1180797 52.4753012,74.6855382 52.4753012,75.8204723 C52.4753012,76.2441398 52.3570162,76.6299188 52.1204428,76.9778209 C51.8838693,77.3257231 51.5583924,77.592444 51.1440024,77.7779918 L53.3891195,80.9833141 L51.6496176,80.9833141 L49.947225,78.1769176 L49.1586508,78.1769176 L49.1586508,80.9833141 L47.8134359,80.9833141 Z M49.1586508,77.2352672 L49.4879965,77.2352672 C50.5239717,77.2352672 51.0419516,76.8162447 51.0419516,75.9781872 C51.0419516,75.3658794 50.5796352,75.0597301 49.6549887,75.0597301 L49.1586508,75.0597301 L49.1586508,77.2352672 Z M56.0702719,80.9833141 L56.0702719,75.0597301 L53.6117758,75.0597301 L53.6117758,74.1180797 L59.9621176,74.1180797 L59.9621176,75.0597301 L57.5036215,75.0597301 L57.5036215,80.9833141 L56.0702719,80.9833141 Z M60.9223227,80.9833141 L60.9223227,74.1180797 L62.1794027,74.1180797 L65.3615316,78.807777 L65.3615316,74.1180797 L66.5072836,74.1180797 L66.5072836,80.9833141 L65.2270102,80.9833141 L62.0680746,76.2936168 L62.0680746,80.9833141 L60.9223227,80.9833141 Z M68.2235922,80.9833141 L68.2235922,74.1180797 L72.5143637,74.1180797 L72.5143637,75.0597301 L69.6523031,75.0597301 L69.6523031,76.9755016 L71.9994711,76.9755016 L71.9994711,77.8939586 L69.6523031,77.8939586 L69.6523031,80.009193 L72.7323813,80.009193 L72.7323813,80.9833141 L68.2235922,80.9833141 Z M73.9291586,80.9833141 L73.9291586,74.1180797 L76.4989828,74.1180797 C77.8936838,74.1180797 78.5910238,74.6855382 78.5910238,75.8204723 C78.5910238,76.2441398 78.4727389,76.6299188 78.2361654,76.9778209 C77.999592,77.3257231 77.6741151,77.592444 77.259725,77.7779918 L79.5048422,80.9833141 L77.7653402,80.9833141 L76.0629477,78.1769176 L75.2743734,78.1769176 L75.2743734,80.9833141 L73.9291586,80.9833141 Z M75.2743734,77.2352672 L75.6037191,77.2352672 C76.6396944,77.2352672 77.1576742,76.8162447 77.1576742,75.9781872 C77.1576742,75.3658794 76.6953579,75.0597301 75.7707113,75.0597301 L75.2743734,75.0597301 L75.2743734,77.2352672 Z M80.0985922,80.9230114 L80.0985922,79.7447887 C80.8376909,80.0540351 81.4700902,80.2086559 81.995809,80.2086559 C82.3638121,80.2086559 82.6537262,80.1267069 82.86556,79.9628063 C83.0773937,79.7989057 83.183309,79.5762517 83.183309,79.2948375 C83.183309,79.0721802 83.116822,78.8843158 82.9838461,78.7312389 C82.8508702,78.578162 82.5988382,78.3964825 82.2277426,78.186195 L81.7685141,77.931068 C81.1531139,77.5847121 80.7186293,77.2530504 80.4650473,76.9360729 C80.2114653,76.6190954 80.0846762,76.2487785 80.0846762,75.825111 C80.0846762,75.2591902 80.2926412,74.8046049 80.7085775,74.4613414 C81.1245139,74.118078 81.674191,73.9464489 82.3576254,73.9464489 C82.9049914,73.9464489 83.5219286,74.0253055 84.2084555,74.1830211 L84.2084555,75.2823864 C83.5064663,75.019527 82.9513774,74.8880993 82.5431723,74.8880993 C82.227741,74.8880993 81.9749359,74.9584517 81.7847494,75.0991588 C81.5945629,75.2398659 81.4994711,75.4246378 81.4994711,75.6534801 C81.4994711,75.8421204 81.5659581,76.0075647 81.698934,76.149818 C81.8319099,76.2920713 82.0823957,76.4667929 82.4503988,76.6739879 L82.9420981,76.9476696 C83.6038852,77.3187652 84.0600167,77.6604773 84.3105063,77.9728161 C84.5609958,78.2851549 84.6862387,78.6655221 84.6862387,79.1139293 C84.6862387,79.7509768 84.4496688,80.2504021 83.9765219,80.6122204 C83.503375,80.9740386 82.850875,81.154945 82.0190024,81.154945 C81.4685439,81.154945 80.8284136,81.0776345 80.0985922,80.9230114 Z"/>
  </g>
</svg>
