<svg xmlns="http://www.w3.org/2000/svg" width="109" height="88" viewBox="0 0 109 88">
  <g fill="none" fill-rule="evenodd" transform="translate(-.646 .46)">
    <rect width="108.35" height="86.5" x=".646" y=".187" fill="#123E7A"/>
    <path fill="#D8D8D8" d="M50.9551061,41.5188322 L50.3962099,41.5188322 C49.8439251,41.5188322 49.3962099,41.9665475 49.3962099,42.5188322 C49.3962099,42.7746497 49.49425,43.0207396 49.6701612,43.2064755 L54.6015116,48.4132454 C54.9812865,48.814231 55.614218,48.8314257 56.0152036,48.4516508 C56.0283508,48.439199 56.0411573,48.4263925 56.053609,48.4132454 L60.9849594,43.2064755 C61.3647343,42.8054899 61.3475397,42.1725585 60.9465541,41.7927836 C60.7608181,41.6168724 60.5147282,41.5188322 60.2589107,41.5188322 L59.6050598,41.5188322 L59.6050598,35.026607 C59.6050598,34.4743222 59.1573446,34.026607 58.6050598,34.026607 L51.9551061,34.026607 C51.4028213,34.026607 50.9551061,34.4743222 50.9551061,35.026607 L50.9551061,41.5188322 Z M39.7822491,52.24717 C35.0050116,52.24717 31.1322954,48.4135888 31.1322954,43.6846268 C31.1322954,39.4063684 34.3019945,35.8609518 38.4435533,35.2240063 C39.087001,31.1242993 42.668611,27.986631 46.9905439,27.986631 C48.3735637,27.986631 49.6807743,28.3079288 50.8401567,28.8792333 C52.7340575,25.9662574 56.038412,24.0369733 59.797975,24.0369733 C64.5460013,24.0369733 68.5679855,27.1141163 69.9397631,31.3636823 C75.3769602,31.7925277 79.6542463,36.2961645 79.6542463,41.7887196 C79.6542463,47.5647622 74.9240382,52.24717 69.0890309,52.24717 C69.051255,52.24717 69.0135254,52.2469737 68.975843,52.2465822 L39.7822491,52.24717 Z"/>
    <path fill="#3876CF" d="M56.053609,48.4132454 L60.9849594,43.2064755 L60.9849594,43.2064755 C61.3647343,42.8054899 61.3475397,42.1725585 60.9465541,41.7927836 C60.7608181,41.6168724 60.5147282,41.5188322 60.2589107,41.5188322 L50.3962099,41.5188322 L50.3962099,41.5188322 C49.8439251,41.5188322 49.3962099,41.9665475 49.3962099,42.5188322 C49.3962099,42.7746497 49.49425,43.0207396 49.6701612,43.2064755 L54.6015116,48.4132454 L54.6015116,48.4132454 C54.9812865,48.814231 55.614218,48.8314257 56.0152036,48.4516508 C56.0283508,48.439199 56.0411573,48.4263925 56.053609,48.4132454 Z"/>
    <rect width="8.65" height="8.729" x="50.955" y="34.027" fill="#3876CF" rx="1"/>
    <path fill="#CDCCCD" d="M25.7380183,66.8836713 C26.9223575,66.8836713 27.8311818,67.1734184 28.4645183,67.7529213 C29.0978548,68.3324242 29.4145183,69.1383328 29.4145183,70.1706713 C29.4145183,71.2030098 29.1057714,72.0200016 28.4882683,72.6216713 C27.8707652,73.223341 26.9286913,73.5241713 25.6620183,73.5241713 L23.3915183,73.5241713 L23.3915183,66.8836713 L25.7380183,66.8836713 Z M25.8140183,72.2131713 C26.4916883,72.2131713 27.0125998,72.042173 27.3767683,71.7001713 C27.7409368,71.3581696 27.9230183,70.8610079 27.9230183,70.2086713 C27.9230183,69.5563347 27.7409368,69.0544231 27.3767683,68.7029213 C27.0125998,68.3514195 26.4536887,68.1756713 25.7000183,68.1756713 L24.8735183,68.1756713 L24.8735183,72.2131713 L25.8140183,72.2131713 Z M35.7795183,70.1706713 C35.7795183,69.575335 35.5895202,69.0686734 35.2095183,68.6506713 C34.8295164,68.2326692 34.3624377,68.0236713 33.8082683,68.0236713 C33.2540988,68.0236713 32.7870202,68.2326692 32.4070183,68.6506713 C32.0270164,69.0686734 31.8370183,69.5737517 31.8370183,70.1659213 C31.8370183,70.7580909 32.0270164,71.2615859 32.4070183,71.6764213 C32.7870202,72.0912567 33.2540988,72.2986713 33.8082683,72.2986713 C34.3624377,72.2986713 34.8295164,72.0912567 35.2095183,71.6764213 C35.5895202,71.2615859 35.7795183,70.7596742 35.7795183,70.1706713 Z M36.2830183,72.6121713 C35.6116816,73.2645079 34.7851899,73.5906713 33.8035183,73.5906713 C32.8218467,73.5906713 31.995355,73.2629246 31.3240183,72.6074213 C30.6526816,71.951918 30.3170183,71.1365095 30.3170183,70.1611713 C30.3170183,69.1858331 30.6526816,68.3704246 31.3240183,67.7149213 C31.995355,67.059418 32.8218467,66.7316713 33.8035183,66.7316713 C34.7851899,66.7316713 35.6116816,67.059418 36.2830183,67.7149213 C36.954355,68.3704246 37.2900183,69.1858331 37.2900183,70.1611713 C37.2900183,71.1365095 36.954355,71.9535013 36.2830183,72.6121713 Z M40.5105183,70.7026713 L41.6885183,66.8836713 L43.2370183,66.8836713 L44.4055183,70.7026713 L45.7260183,66.8836713 L47.3315183,66.8836713 L45.0135183,73.5241713 L43.9115183,73.5241713 L42.4580183,68.9071713 L41.0140183,73.5241713 L39.9120183,73.5241713 L37.5940183,66.8836713 L39.1995183,66.8836713 L40.5105183,70.7026713 Z M52.7655183,66.8836713 L54.2475183,66.8836713 L54.2475183,73.5241713 L52.7655183,73.5241713 L49.6020183,69.3631713 L49.6020183,73.5241713 L48.1200183,73.5241713 L48.1200183,66.8836713 L49.5070183,66.8836713 L52.7655183,71.1586713 L52.7655183,66.8836713 Z M55.8815183,73.5241713 L55.8815183,66.8836713 L57.3635183,66.8836713 L57.3635183,72.2036713 L60.1945183,72.2036713 L60.1945183,73.5241713 L55.8815183,73.5241713 Z M66.1795183,70.1706713 C66.1795183,69.575335 65.9895202,69.0686734 65.6095183,68.6506713 C65.2295164,68.2326692 64.7624377,68.0236713 64.2082683,68.0236713 C63.6540988,68.0236713 63.1870202,68.2326692 62.8070183,68.6506713 C62.4270164,69.0686734 62.2370183,69.5737517 62.2370183,70.1659213 C62.2370183,70.7580909 62.4270164,71.2615859 62.8070183,71.6764213 C63.1870202,72.0912567 63.6540988,72.2986713 64.2082683,72.2986713 C64.7624377,72.2986713 65.2295164,72.0912567 65.6095183,71.6764213 C65.9895202,71.2615859 66.1795183,70.7596742 66.1795183,70.1706713 Z M66.6830183,72.6121713 C66.0116816,73.2645079 65.1851899,73.5906713 64.2035183,73.5906713 C63.2218467,73.5906713 62.395355,73.2629246 61.7240183,72.6074213 C61.0526816,71.951918 60.7170183,71.1365095 60.7170183,70.1611713 C60.7170183,69.1858331 61.0526816,68.3704246 61.7240183,67.7149213 C62.395355,67.059418 63.2218467,66.7316713 64.2035183,66.7316713 C65.1851899,66.7316713 66.0116816,67.059418 66.6830183,67.7149213 C67.354355,68.3704246 67.6900183,69.1858331 67.6900183,70.1611713 C67.6900183,71.1365095 67.354355,71.9535013 66.6830183,72.6121713 Z M73.4755183,73.5241713 L72.8580183,72.0896713 L70.0745183,72.0896713 L69.4570183,73.5241713 L67.8800183,73.5241713 L70.7490183,66.8836713 L72.1835183,66.8836713 L75.0525183,73.5241713 L73.4755183,73.5241713 Z M71.4710183,68.8596713 L70.6350183,70.7881713 L72.2975183,70.7881713 L71.4710183,68.8596713 Z M78.1685183,66.8836713 C79.3528575,66.8836713 80.2616818,67.1734184 80.8950183,67.7529213 C81.5283548,68.3324242 81.8450183,69.1383328 81.8450183,70.1706713 C81.8450183,71.2030098 81.5362714,72.0200016 80.9187683,72.6216713 C80.3012652,73.223341 79.3591913,73.5241713 78.0925183,73.5241713 L75.8220183,73.5241713 L75.8220183,66.8836713 L78.1685183,66.8836713 Z M78.2445183,72.2131713 C78.9221883,72.2131713 79.4430998,72.042173 79.8072683,71.7001713 C80.1714368,71.3581696 80.3535183,70.8610079 80.3535183,70.2086713 C80.3535183,69.5563347 80.1714368,69.0544231 79.8072683,68.7029213 C79.4430998,68.3514195 78.8841887,68.1756713 78.1305183,68.1756713 L77.3040183,68.1756713 L77.3040183,72.2131713 L78.2445183,72.2131713 Z M85.2175183,68.0331713 C84.9705171,68.0331713 84.775769,68.091754 84.6332683,68.2089213 C84.4907676,68.3260885 84.4195183,68.4812537 84.4195183,68.6744213 C84.4195183,68.8675889 84.5066007,69.0211707 84.6807683,69.1351713 C84.8549358,69.2491719 85.2570985,69.3837539 85.8872683,69.5389213 C86.5174381,69.6940887 87.0066832,69.9268364 87.3550183,70.2371713 C87.7033534,70.5475062 87.8775183,71.000335 87.8775183,71.5956713 C87.8775183,72.1910076 87.6542705,72.6739194 87.2077683,73.0444213 C86.7612661,73.4149231 86.1738553,73.6001713 85.4455183,73.6001713 C84.3941797,73.6001713 83.4473558,73.2106752 82.6050183,72.4316713 L83.4885183,71.3486713 C84.2041885,71.9756744 84.8660152,72.2891713 85.4740183,72.2891713 C85.746353,72.2891713 85.9601008,72.2305885 86.1152683,72.1134213 C86.2704357,71.996254 86.3480183,71.8379223 86.3480183,71.6384213 C86.3480183,71.4389203 86.2656858,71.2805885 86.1010183,71.1634213 C85.9363508,71.046254 85.6101874,70.9275052 85.1225183,70.8071713 C84.3498478,70.6235037 83.7846034,70.3844228 83.4267683,70.0899213 C83.0689332,69.7954198 82.8900183,69.3330911 82.8900183,68.7029213 C82.8900183,68.0727515 83.1164327,67.586673 83.5692683,67.2446713 C84.0221039,66.9026696 84.5873482,66.7316713 85.2650183,66.7316713 C85.7083538,66.7316713 86.1516827,66.8076705 86.5950183,66.9596713 C87.0383538,67.1116721 87.4246833,67.3270032 87.7540183,67.6056713 L87.0035183,68.6886713 C86.4271821,68.2516691 85.8318547,68.0331713 85.2175183,68.0331713 Z"/>
  </g>
</svg>
