<svg xmlns="http://www.w3.org/2000/svg" width="109" height="88" viewBox="0 0 109 88">
  <g fill="none" fill-rule="evenodd" transform="translate(-.5 .435)">
    <rect width="108.35" height="86.5" x=".5" y=".211" fill="#123E7A"/>
    <g transform="translate(36 11)">
      <path fill="#D8D8D8" d="M16.3296061,44.404745 C15.9775177,42.7483815 15.675206,40.8456218 15.4345621,38.7539985 C13.5740024,39.4634826 12.0718471,40.6101811 11.1801148,42.008906 C10.6052699,41.1072343 10.2840915,40.1008309 10.2840915,39.0393048 C10.2840915,36.4735432 12.1604575,34.2298154 14.9598724,33.0086373 C14.8556778,31.0537145 14.8002547,29.0039787 14.8002547,26.8916129 C14.8002547,13.4020473 17.0604655,2.46659378 19.8485769,2.46659378 C22.6366882,2.46659378 24.896899,13.4020473 24.896899,26.8916129 C24.896899,29.0123614 24.8410351,31.0699819 24.7360386,33.0319066 C27.506138,34.2581809 29.3588684,36.4897542 29.3588684,39.0393048 C29.3588684,40.1008309 29.03769,41.1072343 28.4628451,42.008906 C27.5794188,40.6232096 26.0968883,39.4848664 24.260295,38.7739377 C24.0200254,40.8577153 23.7185169,42.7536464 23.3675476,44.404745 C22.7114014,39.9464142 21.381897,38.6006072 19.8485769,38.6006072 C18.3152567,38.6006072 16.9857523,39.9464142 16.3296061,44.404745 Z" transform="rotate(31 19.821 23.436)"/>
      <path fill="#3876CF" d="M23.4760674,12.581909 C23.9827694,12.6180913 24.516496,12.637421 25.0676726,12.637421 C28.3639951,12.637421 31.0361924,11.9460624 31.0361924,11.0932283 C31.0361924,10.2403943 28.3639951,9.54903567 25.0676726,9.54903567 C24.516496,9.54903567 23.9827694,9.56836539 23.4760674,9.60454762 C25.9997063,9.7847539 27.8529818,10.3829963 27.8529818,11.0932283 C27.8529818,11.8034604 25.9997063,12.4017028 23.4760674,12.581909 Z" transform="rotate(-59 27.256 11.093)"/>
    </g>
    <path fill="#CDCCCD" d="M23.888,70.1785 L25.066,66.3595 L26.6145,66.3595 L27.783,70.1785 L29.1035,66.3595 L30.709,66.3595 L28.391,73 L27.289,73 L25.8355,68.383 L24.3915,73 L23.2895,73 L20.9715,66.3595 L22.577,66.3595 L23.888,70.1785 Z M35.6205,66.3595 L37.1025,66.3595 L37.1025,73 L35.6205,73 L35.6205,70.3875 L32.9795,70.3875 L32.9795,73 L31.4975,73 L31.4975,66.3595 L32.9795,66.3595 L32.9795,69.1335 L35.6205,69.1335 L35.6205,66.3595 Z M43.4675,73 L42.85,71.5655 L40.0665,71.5655 L39.449,73 L37.872,73 L40.741,66.3595 L42.1755,66.3595 L45.0445,73 L43.4675,73 Z M41.463,68.3355 L40.627,70.264 L42.2895,70.264 L41.463,68.3355 Z M48.1415,67.642 L48.1415,73 L46.6595,73 L46.6595,67.642 L44.7785,67.642 L44.7785,66.3595 L50.0225,66.3595 L50.0225,67.642 L48.1415,67.642 Z M50.9725,67.7465 C50.763499,67.607166 50.659,67.4124179 50.659,67.16225 C50.659,66.9120821 50.7334159,66.7141674 50.88225,66.5685 C51.0310841,66.4228326 51.2179155,66.35 51.44275,66.35 C51.6675845,66.35 51.8544159,66.419666 52.00325,66.559 C52.1520841,66.698334 52.2265,66.8788322 52.2265,67.1005 C52.2265,67.3221678 52.156834,67.5406656 52.0175,67.756 L51.324,68.763 L50.545,68.763 L50.9725,67.7465 Z M55.523,67.509 C55.2759988,67.509 55.0812507,67.5675827 54.93875,67.68475 C54.7962493,67.8019173 54.725,67.9570824 54.725,68.15025 C54.725,68.3434176 54.8120825,68.4969994 54.98625,68.611 C55.1604175,68.7250006 55.5625802,68.8595826 56.19275,69.01475 C56.8229198,69.1699174 57.3121649,69.4026651 57.6605,69.713 C58.0088351,70.0233349 58.183,70.4761637 58.183,71.0715 C58.183,71.6668363 57.9597522,72.1497481 57.51325,72.52025 C57.0667478,72.8907519 56.479337,73.076 55.751,73.076 C54.6996614,73.076 53.7528375,72.6865039 52.9105,71.9075 L53.794,70.8245 C54.5096702,71.4515031 55.171497,71.765 55.7795,71.765 C56.0518347,71.765 56.2655826,71.7064173 56.42075,71.58925 C56.5759174,71.4720827 56.6535,71.313751 56.6535,71.11425 C56.6535,70.914749 56.5711675,70.7564173 56.4065,70.63925 C56.2418325,70.5220827 55.9156691,70.4033339 55.428,70.283 C54.6553295,70.0993324 54.0900851,69.8602515 53.73225,69.56575 C53.3744149,69.2712485 53.1955,68.8089198 53.1955,68.17875 C53.1955,67.5485802 53.4219144,67.0625017 53.87475,66.7205 C54.3275856,66.3784983 54.8928299,66.2075 55.5705,66.2075 C56.0138356,66.2075 56.4571645,66.2834992 56.9005,66.4355 C57.3438356,66.5875008 57.730165,66.8028319 58.0595,67.0815 L57.309,68.1645 C56.7326638,67.7274978 56.1373364,67.509 55.523,67.509 Z M66.6,66.3595 L68.082,66.3595 L68.082,73 L66.6,73 L63.4365,68.839 L63.4365,73 L61.9545,73 L61.9545,66.3595 L63.3415,66.3595 L66.6,70.6345 L66.6,66.3595 Z M74.504,66.3595 L74.504,67.68 L71.198,67.68 L71.198,69.048 L74.1715,69.048 L74.1715,70.3115 L71.198,70.3115 L71.198,71.689 L74.6085,71.689 L74.6085,73 L69.716,73 L69.716,66.3595 L74.504,66.3595 Z M79.6625,66.3595 L81.4485,66.3595 L79.3775,69.561 L81.6195,73 L79.8145,73 L78.399,70.815 L76.993,73 L75.207,73 L77.4395,69.599 L75.359,66.3595 L77.1355,66.3595 L78.399,68.326 L79.6625,66.3595 Z M85.3435,67.642 L85.3435,73 L83.8615,73 L83.8615,67.642 L81.9805,67.642 L81.9805,66.3595 L87.2245,66.3595 L87.2245,67.642 L85.3435,67.642 Z"/>
  </g>
</svg>
