<svg xmlns="http://www.w3.org/2000/svg" width="109" height="88" viewBox="0 0 109 88" xmlns:xlink="http://www.w3.org/1999/xlink">
  <defs>
    <path id="a" d="M0.165022238,0 L11.8685869,0 L11.8685869,-7.10542736e-15 C22.4551588,-9.05014907e-15 31.037271,8.5821122 31.037271,19.1686841 L31.037271,35.3373682 C31.037271,36.9942225 29.6941253,38.3373682 28.037271,38.3373682 L0.165022238,38.3373682 L0.165022238,2.22044605e-16 Z"/>
    <path id="b" d="M1.27538313,1.52902429 L11.3287457,1.52902429 L11.3287457,1.52902429 C21.1038116,1.52902429 29.0280682,9.45328089 29.0280682,19.2283468 L29.0280682,33.9276693 L29.0280682,33.9276693 C29.0280682,35.5845235 27.6849224,36.9276693 26.0280682,36.9276693 L1.27538313,36.9276693 L1.27538313,1.52902429 Z"/>
    <path id="c" d="M0.145025359,0 L10.4303886,0 L10.4303886,1.0658141e-14 C19.7341128,8.94907463e-15 27.2762715,7.54215866 27.2762715,16.8458829 L27.2762715,30.6917657 C27.2762715,32.34862 25.9331257,33.6917657 24.2762715,33.6917657 L0.145025359,33.6917657 L0.145025359,5.55111512e-17 Z"/>
    <path id="d" d="M1.12083619,1.3437419 L9.95596365,1.3437419 L9.95596365,1.3437419 C18.5465176,1.3437419 25.5105376,8.30776185 25.5105376,16.8983158 L25.5105376,29.4528897 L25.5105376,29.4528897 C25.5105376,31.109744 24.1673918,32.4528897 22.5105376,32.4528897 L1.12083619,32.4528897 L1.12083619,1.3437419 Z"/>
  </defs>
  <g fill="none" fill-rule="evenodd" transform="translate(-.207 .095)">
    <g>
      <rect width="108.35" height="86.5" x=".389" y=".551" fill="#123E7A"/>
      <g transform="translate(36.338 16.835)">
        <use fill="#173B6D" xlink:href="#a"/>
        <path stroke="#3871C5" d="M0.665022238,0.5 L0.665022238,37.8373682 L28.037271,37.8373682 C29.4179829,37.8373682 30.537271,36.7180801 30.537271,35.3373682 L30.537271,19.1686841 C30.537271,8.85825458 22.1790164,0.5 11.8685869,0.5 L0.665022238,0.5 Z"/>
        <use fill="#CDCCCD" xlink:href="#b"/>
        <path stroke="#173B6D" d="M1.77538313,2.02902429 L1.77538313,36.4276693 L26.0280682,36.4276693 C27.40878,36.4276693 28.5280682,35.3083812 28.5280682,33.9276693 L28.5280682,19.2283468 C28.5280682,9.72942327 20.8276692,2.02902429 11.3287457,2.02902429 L1.77538313,2.02902429 Z"/>
        <path fill="#3871C5" d="M5.62357812 6.88060931L23.0498602 6.88060931 23.0498602 6.88060931C23.5776457 6.88060931 24.0055004 7.30846399 24.0055004 7.83624949L24.0055004 7.83624949 24.0055004 7.83624949C24.0055004 8.36403499 23.5776457 8.79188967 23.0498602 8.79188967L5.62357812 8.79188967 5.62357812 8.79188967C5.09579262 8.79188967 4.66793794 8.36403499 4.66793794 7.83624949L4.66793794 7.83624949 4.66793794 7.83624949C4.66793794 7.30846399 5.09579262 6.88060931 5.62357812 6.88060931zM5.62357812 10.70317L20.6750718 10.70317 20.6750718 10.70317C21.2028573 10.70317 21.630712 11.1310247 21.630712 11.6588102L21.630712 11.6588102 21.630712 11.6588102C21.630712 12.1865957 21.2028573 12.6144504 20.6750718 12.6144504L5.62357812 12.6144504 5.62357812 12.6144504C5.09579262 12.6144504 4.66793794 12.1865957 4.66793794 11.6588102L4.66793794 11.6588102 4.66793794 11.6588102C4.66793794 11.1310247 5.09579262 10.70317 5.62357812 10.70317z"/>
        <path fill="#173B6D" d="M5.62357812 14.5257308L23.0498602 14.5257308 23.0498602 14.5257308C23.5776457 14.5257308 24.0055004 14.9535854 24.0055004 15.4813709L24.0055004 15.4813709 24.0055004 15.4813709C24.0055004 16.0091564 23.5776457 16.4370111 23.0498602 16.4370111L5.62357812 16.4370111 5.62357812 16.4370111C5.09579262 16.4370111 4.66793794 16.0091564 4.66793794 15.4813709L4.66793794 15.4813709 4.66793794 15.4813709C4.66793794 14.9535854 5.09579262 14.5257308 5.62357812 14.5257308zM5.62357812 18.3482915L17.961028 18.3482915 17.961028 18.3482915C18.4888135 18.3482915 18.9166682 18.7761462 18.9166682 19.3039317L18.9166682 19.3039317 18.9166682 19.3039317C18.9166682 19.8317172 18.4888135 20.2595719 17.961028 20.2595719L5.62357812 20.2595719 5.62357812 20.2595719C5.09579262 20.2595719 4.66793794 19.8317172 4.66793794 19.3039317L4.66793794 19.3039317 4.66793794 19.3039317C4.66793794 18.7761462 5.09579262 18.3482915 5.62357812 18.3482915z"/>
        <path fill="#3871C5" d="M5.62357812 22.1708522L23.0498602 22.1708522 23.0498602 22.1708522C23.5776457 22.1708522 24.0055004 22.5987069 24.0055004 23.1264924L24.0055004 23.1264924 24.0055004 23.1264924C24.0055004 23.6542779 23.5776457 24.0821326 23.0498602 24.0821326L5.62357812 24.0821326 5.62357812 24.0821326C5.09579262 24.0821326 4.66793794 23.6542779 4.66793794 23.1264924L4.66793794 23.1264924 4.66793794 23.1264924C4.66793794 22.5987069 5.09579262 22.1708522 5.62357812 22.1708522zM5.62357812 25.9934129L23.0498602 25.9934129 23.0498602 25.9934129C23.5776457 25.9934129 24.0055004 26.4212676 24.0055004 26.9490531L24.0055004 26.9490531 24.0055004 26.9490531C24.0055004 27.4768386 23.5776457 27.9046933 23.0498602 27.9046933L5.62357812 27.9046933 5.62357812 27.9046933C5.09579262 27.9046933 4.66793794 27.4768386 4.66793794 26.9490531L4.66793794 26.9490531 4.66793794 26.9490531C4.66793794 26.4212676 5.09579262 25.9934129 5.62357812 25.9934129z"/>
        <path fill="#173B6D" d="M5.62357812,29.8159737 L18.3002835,29.8159737 L18.3002835,29.8159737 C18.8280689,29.8159737 19.2559236,30.2438284 19.2559236,30.7716139 L19.2559236,30.7716139 L19.2559236,30.7716139 C19.2559236,31.2993994 18.8280689,31.727254 18.3002835,31.727254 L5.62357812,31.727254 L5.62357812,31.727254 C5.09579262,31.727254 4.66793794,31.2993994 4.66793794,30.7716139 L4.66793794,30.7716139 L4.66793794,30.7716139 C4.66793794,30.2438284 5.09579262,29.8159737 5.62357812,29.8159737 Z"/>
      </g>
      <g transform="translate(44.085 13.386)">
        <use fill="#173B6D" xlink:href="#c"/>
        <path stroke="#3871C5" d="M0.645025359,0.5 L0.645025359,33.1917657 L24.2762715,33.1917657 C25.6569834,33.1917657 26.7762715,32.0724776 26.7762715,30.6917657 L26.7762715,16.8458829 C26.7762715,7.81830104 19.4579705,0.5 10.4303886,0.5 L0.645025359,0.5 Z"/>
        <use fill="#CDCCCD" xlink:href="#d"/>
        <path stroke="#173B6D" d="M1.62083619,1.8437419 L1.62083619,31.9528897 L22.5105376,31.9528897 C23.8912494,31.9528897 25.0105376,30.8336016 25.0105376,29.4528897 L25.0105376,16.8983158 C25.0105376,8.58390422 18.2703752,1.8437419 9.95596365,1.8437419 L1.62083619,1.8437419 Z"/>
        <path fill="#173B6D" d="M4.9421305,6.04683857 L20.2567501,6.04683857 L20.2567501,6.04683857 C20.7205802,6.04683857 21.0965888,6.42284716 21.0965888,6.88667726 L21.0965888,6.88667726 L21.0965888,6.88667726 C21.0965888,7.35050736 20.7205802,7.72651595 20.2567501,7.72651595 L4.9421305,7.72651595 L4.9421305,7.72651595 C4.4783004,7.72651595 4.10229181,7.35050736 4.10229181,6.88667726 L4.10229181,6.88667726 L4.10229181,6.88667726 C4.10229181,6.42284716 4.4783004,6.04683857 4.9421305,6.04683857 Z"/>
        <path fill="#3871C5" d="M4.9421305 9.40619333L18.1697312 9.40619333 18.1697312 9.40619333C18.6335613 9.40619333 19.0095699 9.78220192 19.0095699 10.246032L19.0095699 10.246032 19.0095699 10.246032C19.0095699 10.7098621 18.6335613 11.0858707 18.1697312 11.0858707L4.9421305 11.0858707 4.9421305 11.0858707C4.4783004 11.0858707 4.10229181 10.7098621 4.10229181 10.246032L4.10229181 10.246032 4.10229181 10.246032C4.10229181 9.78220192 4.4783004 9.40619333 4.9421305 9.40619333zM4.9421305 12.7655481L20.2567501 12.7655481 20.2567501 12.7655481C20.7205802 12.7655481 21.0965888 13.1415567 21.0965888 13.6053868L21.0965888 13.6053868 21.0965888 13.6053868C21.0965888 14.0692169 20.7205802 14.4452255 20.2567501 14.4452255L4.9421305 14.4452255 4.9421305 14.4452255C4.4783004 14.4452255 4.10229181 14.0692169 4.10229181 13.6053868L4.10229181 13.6053868 4.10229181 13.6053868C4.10229181 13.1415567 4.4783004 12.7655481 4.9421305 12.7655481zM4.9421305 16.1249029L15.7845667 16.1249029 15.7845667 16.1249029C16.2483968 16.1249029 16.6244054 16.5009114 16.6244054 16.9647415L16.6244054 16.9647415 16.6244054 16.9647415C16.6244054 17.4285716 16.2483968 17.8045802 15.7845667 17.8045802L4.9421305 17.8045802 4.9421305 17.8045802C4.4783004 17.8045802 4.10229181 17.4285716 4.10229181 16.9647415L4.10229181 16.9647415 4.10229181 16.9647415C4.10229181 16.5009114 4.4783004 16.1249029 4.9421305 16.1249029zM4.9421305 19.4842576L20.2567501 19.4842576 20.2567501 19.4842576C20.7205802 19.4842576 21.0965888 19.8602662 21.0965888 20.3240963L21.0965888 20.3240963 21.0965888 20.3240963C21.0965888 20.7879264 20.7205802 21.163935 20.2567501 21.163935L4.9421305 21.163935 4.9421305 21.163935C4.4783004 21.163935 4.10229181 20.7879264 4.10229181 20.3240963L4.10229181 20.3240963 4.10229181 20.3240963C4.10229181 19.8602662 4.4783004 19.4842576 4.9421305 19.4842576zM4.9421305 22.8436124L20.2567501 22.8436124 20.2567501 22.8436124C20.7205802 22.8436124 21.0965888 23.219621 21.0965888 23.6834511L21.0965888 23.6834511 21.0965888 23.6834511C21.0965888 24.1472812 20.7205802 24.5232898 20.2567501 24.5232898L4.9421305 24.5232898 4.9421305 24.5232898C4.4783004 24.5232898 4.10229181 24.1472812 4.10229181 23.6834511L4.10229181 23.6834511 4.10229181 23.6834511C4.10229181 23.219621 4.4783004 22.8436124 4.9421305 22.8436124zM4.9421305 26.2029671L16.0827123 26.2029671 16.0827123 26.2029671C16.5465424 26.2029671 16.922551 26.5789757 16.922551 27.0428058L16.922551 27.0428058 16.922551 27.0428058C16.922551 27.5066359 16.5465424 27.8826445 16.0827123 27.8826445L4.9421305 27.8826445 4.9421305 27.8826445C4.4783004 27.8826445 4.10229181 27.5066359 4.10229181 27.0428058L4.10229181 27.0428058 4.10229181 27.0428058C4.10229181 26.5789757 4.4783004 26.2029671 4.9421305 26.2029671z"/>
      </g>
    </g>
    <path fill="#CDCCCD" d="M48.629,67.642 L48.629,73 L47.147,73 L47.147,67.642 L45.266,67.642 L45.266,66.3595 L50.51,66.3595 L50.51,67.642 L48.629,67.642 Z M55.355,72.43 C54.8229973,72.8606688 54.2070868,73.076 53.50725,73.076 C52.8074132,73.076 52.2326689,72.8970851 51.783,72.53925 C51.3333311,72.1814149 51.1085,71.6921698 51.1085,71.0715 C51.1085,70.3748298 51.5739953,69.757336 52.505,69.219 C52.295999,68.9656654 52.1440005,68.7424176 52.049,68.54925 C51.9539995,68.3560824 51.9065,68.129668 51.9065,67.87 C51.9065,67.331664 52.1012481,66.9200014 52.49075,66.635 C52.8802519,66.3499986 53.3409973,66.2075 53.873,66.2075 C54.4050027,66.2075 54.8594148,66.3452486 55.23625,66.62075 C55.6130852,66.8962514 55.8015,67.2809975 55.8015,67.775 C55.8015,68.3956698 55.3486712,68.9719973 54.443,69.504 C54.7976684,69.9473355 55.0636658,70.2671657 55.241,70.4635 C55.3993341,70.1721652 55.5196663,69.8650016 55.602,69.542 L56.7135,70.34 C56.5678326,70.739002 56.390501,71.1094983 56.1815,71.4515 L57.122,72.3825 L56.1815,73.2755 L55.355,72.43 Z M52.524,71.119 C52.524,71.3406678 52.6158324,71.5243326 52.7995,71.67 C52.9831676,71.8156674 53.2206652,71.8885 53.512,71.8885 C53.8033348,71.8885 54.1168317,71.7491681 54.4525,71.4705 C53.9901644,70.9828309 53.5911683,70.539502 53.2555,70.1405 C52.7678309,70.4445015 52.524,70.7706649 52.524,71.119 Z M53.873,67.3285 C53.733666,67.3285 53.6085839,67.3775828 53.49775,67.47575 C53.3869161,67.5739172 53.3315,67.7069158 53.3315,67.87475 C53.3315,68.0425842 53.4581654,68.2848317 53.7115,68.6015 C54.1865024,68.3481654 54.424,68.1106678 54.424,67.889 C54.424,67.7053324 54.3670006,67.5660005 54.253,67.471 C54.1389994,67.3759995 54.012334,67.3285 53.873,67.3285 Z M61.1785,71.689 C61.906837,71.689 62.5021644,71.4008362 62.9645,70.8245 L63.9145,71.803 C63.1608296,72.6516709 62.2725884,73.076 61.24975,73.076 C60.2269116,73.076 59.3845866,72.7530032 58.72275,72.107 C58.0609134,71.4609968 57.73,70.6455883 57.73,69.66075 C57.73,68.6759117 58.0672466,67.85417 58.74175,67.1955 C59.4162534,66.53683 60.2411618,66.2075 61.2165,66.2075 C62.3058388,66.2075 63.2178297,66.6223292 63.9525,67.452 L63.031,68.497 C62.562331,67.9143304 61.9796702,67.623 61.283,67.623 C60.7256639,67.623 60.2490853,67.8050815 59.85325,68.16925 C59.4574147,68.5334185 59.2595,69.0242469 59.2595,69.64175 C59.2595,70.2592531 59.4463315,70.7548315 59.82,71.1285 C60.1936685,71.5021685 60.6464973,71.689 61.1785,71.689 Z"/>
  </g>
</svg>
