<svg xmlns="http://www.w3.org/2000/svg" width="23" height="21" viewBox="0 0 23 21" xmlns:xlink="http://www.w3.org/1999/xlink">
  <defs>
    <path id="a" d="M5,0 L23,0 L23,5 L0,5 L0,5 L0,5 C-3.38176876e-16,2.23857625 2.23857625,5.07265313e-16 5,0 Z"/>
    <rect id="b" width="23" height="5" y="8" rx="1"/>
    <path id="c" d="M2,16 L23,16 L23,16 L23,16 C23,18.7614237 20.7614237,21 18,21 L0,21 L0,18 L0,18 C-1.3527075e-16,16.8954305 0.8954305,16 2,16 Z"/>
  </defs>
  <g fill="none" fill-rule="evenodd">
    <use fill="#008CFF" xlink:href="#a"/>
    <path stroke="#123E7A" d="M0.527464389,4.5 L22.5,4.5 L22.5,0.5 L5,0.5 C2.68372317,0.5 0.776186533,2.25002477 0.527464389,4.5 Z"/>
    <use fill="#008CFF" xlink:href="#b"/>
    <rect width="22" height="4" x=".5" y="8.5" stroke="#123E7A" rx="1"/>
    <g>
      <use fill="#008CFF" xlink:href="#c"/>
      <path stroke="#123E7A" d="M0.5,20.5 L18,20.5 C20.3162768,20.5 22.2238135,18.7499752 22.4725356,16.5 L2,16.5 C1.17157288,16.5 0.5,17.1715729 0.5,18 L0.5,20.5 Z"/>
    </g>
  </g>
</svg>
