<svg xmlns="http://www.w3.org/2000/svg" width="140" height="31" viewBox="0 0 140 31">
  <g fill="none" fill-rule="evenodd" transform="translate(-1)">
    <path fill="#123E7A" d="M15.7180654,4.78576819 L6.37062064,4.78576819 L6.37062064,6.81958735 L15.7180654,6.81958735 L15.7180654,8.78713026 C15.7180654,12.9793848 12.3150503,16.3778786 8.1362491,16.3778786 L0.554432772,16.3778786 L0.554432772,7.74191141 C0.554432772,3.54965689 3.95744793,0.151163119 8.1362491,0.151163119 L15.7180654,0.151163119 L15.7180654,4.78576819 Z M0.554432772,10.7176454 L0.554432772,12.6142745 L9.96489625,12.6142745 L9.96489625,10.7176454 L0.554432772,10.7176454 Z" transform="translate(2.23 .81)"/>
    <path fill="#123E7A" d="M15.7180654,4.78576819 L6.37062064,4.78576819 L6.37062064,6.81958735 L15.7180654,6.81958735 L15.7180654,8.78713026 C15.7180654,12.9793848 12.3150503,16.3778786 8.1362491,16.3778786 L0.554432772,16.3778786 L0.554432772,7.74191141 C0.554432772,3.54965689 3.95744793,0.151163119 8.1362491,0.151163119 L15.7180654,0.151163119 L15.7180654,4.78576819 Z M0.554432772,10.7176454 L0.554432772,12.6142745 L9.96489625,12.6142745 L9.96489625,10.7176454 L0.554432772,10.7176454 Z" transform="translate(124.003 .81)"/>
    <rect width="6.024" height="16.272" x=".208" y=".105" fill="#123E7A" transform="translate(20.025 .81)"/>
    <path fill="#123E7A" d="M10.5937708,4.78576819 L15.1636327,4.78576819 L15.1636327,0.10544399 L4.15441991,0.10544399 L0,0.10544399 L0,4.78576819 L4.55168237,4.78576819 L4.5698619,16.3778786 L10.5937708,16.3778786 L10.5937708,4.78576819 Z" transform="translate(28.542 .81)"/>
    <g fill="#123E7A" transform="translate(45.783 .81)">
      <polygon points=".208 .105 4.362 .105 15.371 .105 15.371 4.786 .208 4.786"/>
      <rect width="6.024" height="16.272" x=".208" y=".105"/>
      <rect width="15.164" height="3.761" x=".208" y="12.614"/>
    </g>
    <path fill="#123E7A" d="M10.5937708,4.78576819 L15.1636327,4.78576819 L15.1636327,0.10544399 L4.15441991,0.10544399 L0,0.10544399 L0,4.78576819 L4.5523465,4.78576819 L4.5698619,16.3778786 L10.5937708,16.3778786 L10.5937708,4.78576819 Z" transform="translate(63.44 .81)"/>
    <g fill="#123E7A" transform="translate(80.68 .81)">
      <path d="M0.207720995,10.7234577 L6.23162986,10.7234577 L6.23162986,16.3778786 L0.207720995,16.3778786 L0.207720995,10.7234577 Z M0.207720995,0.10544399 L13.2022376,0.10544399 L13.2022376,0.10544399 C14.8590919,0.10544399 16.2022376,1.44858974 16.2022376,3.10544399 L16.2022376,6.71764538 C16.2022376,8.92678437 14.4113766,10.7176454 12.2022376,10.7176454 L0.207720995,10.7176454 L0.207720995,0.10544399 Z M6.23499105,3.62361349 L6.23499105,6.76779883 L9.82759978,6.76779883 C10.3798845,6.76779883 10.8275998,6.32008358 10.8275998,5.76779883 L10.8275998,4.62361349 C10.8275998,4.07132874 10.3798845,3.62361349 9.82759978,3.62361349 L9.82759978,3.62361349 L6.23499105,3.62361349 Z"/>
      <polygon points="7.981 10.721 13.455 10.014 16.202 16.375 10.178 16.375"/>
    </g>
    <rect width="6.024" height="16.272" x=".208" y=".105" fill="#123E7A" transform="translate(98.96 .81)"/>
    <path fill="#123E7A" d="M6.23162986,10.2693111 L6.23162986,16.3778786 L0.207720995,16.3778786 L0.207720995,0.10544399 L6.23162986,0.10544399 L6.23162986,6.15175573 L10.2621449,0.10544399 L16.2002313,0.10544399 L12.1893042,6.16781334 L16.2022376,16.3751424 L10.1783288,16.3751424 L7.77786785,10.2693111 L6.23162986,10.2693111 Z" transform="translate(107.268 .81)"/>
    <rect width="9.623" height="3.758" x="51.11" y="7.579" fill="#123E7A"/>
    <path fill="#008CFF" d="M9.961,30 L8.509,30 L7.728,28.548 L3.185,28.548 L2.404,30 L0.952,30 L4.637,23.235 L6.276,23.235 L9.961,30 Z M7.068,27.349 L5.462,24.357 L3.845,27.349 L7.068,27.349 Z M21.588,24.434 L15.879,24.434 L15.879,25.886 L19.85,25.886 L19.85,27.085 L15.879,27.085 L15.879,30 L14.559,30 L14.559,23.235 L21.588,23.235 L21.588,24.434 Z M30.3,30 L23.018,30 L23.018,23.235 L30.047,23.235 L30.047,24.434 L24.338,24.434 L24.338,25.886 L28.309,25.886 L28.309,27.085 L24.338,27.085 L24.338,28.801 L30.3,28.801 L30.3,30 Z M42.07,23.235 L39.771,30 L38.187,30 L36.57,24.346 L34.953,30 L33.369,30 L31.07,23.235 L32.533,23.235 L34.161,28.856 L35.778,23.235 L37.362,23.235 L38.979,28.856 L40.607,23.235 L42.07,23.235 Z M52.872,24.907 C51.9919956,24.4449977 51.0350052,24.214 50.001,24.214 C48.4976592,24.214 47.746,24.481664 47.746,25.017 C47.746,25.3323349 48.0283305,25.5376662 48.593,25.633 C49.3630039,25.6990003 50.1329962,25.7686663 50.903,25.842 C52.0103389,25.9520006 52.7986643,26.1499986 53.268,26.436 C53.7886693,26.7513349 54.049,27.2316634 54.049,27.877 C54.049,28.6030036 53.7245032,29.163998 53.0755,29.56 C52.4264968,29.956002 51.4860062,30.154 50.254,30.154 C48.5159913,30.154 47.1263385,29.758004 46.085,28.966 L46.8,28.031 C47.731338,28.6836699 48.8753266,29.01 50.232,29.01 C50.9946705,29.01 51.5849979,28.9128343 52.003,28.7185 C52.4210021,28.5241657 52.63,28.2656683 52.63,27.943 C52.63,27.5836649 52.3733359,27.3306674 51.86,27.184 C51.5739986,27.1033329 51.1303363,27.0483335 50.529,27.019 C49.5903286,26.9749998 49.0146677,26.9420001 48.802,26.92 C47.9659958,26.8393329 47.350002,26.6596681 46.954,26.381 C46.557998,26.1023319 46.36,25.695336 46.36,25.16 C46.36,24.5146634 46.6771635,24.0031686 47.3115,23.6255 C47.9458365,23.2478314 48.8349943,23.059 49.979,23.059 C51.504341,23.059 52.7399953,23.3889967 53.686,24.049 L52.872,24.907 Z M62.607,24.434 L59.373,24.434 L59.373,30 L58.053,30 L58.053,24.434 L54.819,24.434 L54.819,23.235 L62.607,23.235 L62.607,24.434 Z M71.319,30 L64.037,30 L64.037,23.235 L71.066,23.235 L71.066,24.434 L65.357,24.434 L65.357,25.886 L69.328,25.886 L69.328,27.085 L65.357,27.085 L65.357,28.801 L71.319,28.801 L71.319,30 Z M78.491,23.235 C79.2096703,23.235 79.7816645,23.4293314 80.207,23.818 C80.6323355,24.2066686 80.845,24.7273301 80.845,25.38 C80.845,26.0620034 80.6231689,26.5881648 80.1795,26.9585 C79.7358311,27.3288352 79.0996708,27.514 78.271,27.514 L74.344,27.514 L74.344,30 L73.024,30 L73.024,23.235 L78.491,23.235 Z M78.293,26.315 C79.0923373,26.315 79.492,26.0106697 79.492,25.402 C79.492,24.7566634 79.0666709,24.434 78.216,24.434 L74.344,24.434 L74.344,26.315 L78.293,26.315 Z M88.347,24.907 C87.4669956,24.4449977 86.5100052,24.214 85.476,24.214 C83.9726592,24.214 83.221,24.481664 83.221,25.017 C83.221,25.3323349 83.5033305,25.5376662 84.068,25.633 C84.8380039,25.6990003 85.6079962,25.7686663 86.378,25.842 C87.4853389,25.9520006 88.2736643,26.1499986 88.743,26.436 C89.2636693,26.7513349 89.524,27.2316634 89.524,27.877 C89.524,28.6030036 89.1995032,29.163998 88.5505,29.56 C87.9014968,29.956002 86.9610062,30.154 85.729,30.154 C83.9909913,30.154 82.6013385,29.758004 81.56,28.966 L82.275,28.031 C83.206338,28.6836699 84.3503266,29.01 85.707,29.01 C86.4696705,29.01 87.0599979,28.9128343 87.478,28.7185 C87.8960021,28.5241657 88.105,28.2656683 88.105,27.943 C88.105,27.5836649 87.8483359,27.3306674 87.335,27.184 C87.0489986,27.1033329 86.6053363,27.0483335 86.004,27.019 C85.0653286,26.9749998 84.4896677,26.9420001 84.277,26.92 C83.4409958,26.8393329 82.825002,26.6596681 82.429,26.381 C82.032998,26.1023319 81.835,25.695336 81.835,25.16 C81.835,24.5146634 82.1521635,24.0031686 82.7865,23.6255 C83.4208365,23.2478314 84.3099943,23.059 85.454,23.059 C86.979341,23.059 88.2149953,23.3889967 89.161,24.049 L88.347,24.907 Z M102.471,30 L101.019,30 L100.238,28.548 L95.695,28.548 L94.914,30 L93.462,30 L97.147,23.235 L98.786,23.235 L102.471,30 Z M99.578,27.349 L97.972,24.357 L96.355,27.349 L99.578,27.349 Z M111.634,30 L110.314,30 L110.314,27.085 L105.089,27.085 L105.089,30 L103.769,30 L103.769,23.235 L105.089,23.235 L105.089,25.886 L110.314,25.886 L110.314,23.235 L111.634,23.235 L111.634,30 Z M121.226,30 L113.944,30 L113.944,23.235 L120.973,23.235 L120.973,24.434 L115.264,24.434 L115.264,25.886 L119.235,25.886 L119.235,27.085 L115.264,27.085 L115.264,28.801 L121.226,28.801 L121.226,30 Z M130.928,30 L129.476,30 L128.695,28.548 L124.152,28.548 L123.371,30 L121.919,30 L125.604,23.235 L127.243,23.235 L130.928,30 Z M128.035,27.349 L126.429,24.357 L124.812,27.349 L128.035,27.349 Z M136.604,23.235 C137.792006,23.235 138.74533,23.5466635 139.464,24.17 C140.18267,24.7933364 140.542,25.5926618 140.542,26.568 C140.542,27.4553378 140.164337,28.3059959 139.409,29.12 C139.196332,29.3546678 138.859002,29.5563325 138.397,29.725 C137.890997,29.9083342 137.366669,30 136.824,30 L132.226,30 L132.226,23.235 L136.604,23.235 Z M136.912,28.801 C137.557337,28.801 138.087165,28.5993354 138.5015,28.196 C138.915835,27.7926646 139.123,27.2793365 139.123,26.656 C139.123,25.9886633 138.903002,25.451502 138.463,25.0445 C138.022998,24.637498 137.436337,24.434 136.703,24.434 L133.546,24.434 L133.546,28.801 L136.912,28.801 Z"/>
  </g>
</svg>
