<svg xmlns="http://www.w3.org/2000/svg" width="60" height="70" viewBox="0 0 60 70">
    <g fill="none" fill-rule="nonzero">
        <path stroke="#5C5C5C" stroke-width="3" d="M29.413 23.209c.068-.53-1.034-1.765-.553-2.308.683-.92 1.718-1.898 2.65-2.488.617-.368 1.553.754 2.359.715-1.728.764-3.735 2.826-4.456 4.08zm6.378-4.876c.439-.356.475-2.053 1.245-2.136 1.202-.23 2.722-.264 3.88-.073.749.145.666 1.642 1.324 2.166-1.905-.606-4.973-.416-6.449.043zm8.502.822c.571.06 1.88-1.083 2.472-.604 1.002.678 2.073 1.713 2.725 2.65.406.62-.783 1.594-.726 2.412-.853-1.743-3.108-3.747-4.47-4.458zm5.305 6.287c.368.424 2.136.473 2.216 1.213.23 1.155.25 2.613.041 3.721-.157.718-1.717.626-2.27 1.252.65-1.822.478-4.766.013-6.186zm-1.002 8.467c-.049.532 1.096 1.728.635 2.288-.65.942-1.65 1.956-2.559 2.577-.604.389-1.58-.7-2.383-.634 1.699-.822 3.63-2.952 4.307-4.23zm-6.372 4.787c-.442.352-.493 2.05-1.264 2.126-1.204.22-2.725.24-3.88.04-.748-.152-.651-1.648-1.305-2.178 1.9.622 4.969.458 6.449.012zm-8.882-1.392c-.543-.048-1.764 1.074-2.335.622-.962-.637-1.997-1.616-2.632-2.507-.396-.592.716-1.547.648-2.335.84 1.665 3.014 3.557 4.319 4.22zm-4.94-5.693c-.368-.423-2.136-.473-2.216-1.212-.23-1.156-.25-2.614-.041-3.722.157-.718 1.717-.625 2.27-1.252-.65 1.822-.478 4.766-.013 6.186z"/>
        <path fill="#5C5C5C" d="M39 39c-5.799 0-10.5-4.701-10.5-10.5S33.201 18 39 18s10.5 4.701 10.5 10.5S44.799 39 39 39zm0-2.5a8 8 0 1 0 0-16 8 8 0 0 0 0 16z"/>
        <g fill="#5C5C5C">
            <path d="M11.623 57.18a.735.735 0 0 1-.335.132l-.261.031c-.71.084-1.378-.542-1.677-1.571l-2.647-9.118c-.148-.512.124-1.033.313-1.355.563-.964 2.331-3.818 5.304-8.563.49-.812 1.108-1.436 1.816-1.786l1.114-.55v-1.006l3.135 2.766c1.824-1.681 2.87-2.603 3.135-2.766 0 .503-.065.981 0 1.006.293.11.576.212.849.304.296.1.58.249.849.439.49.441.908.895 1.256 1.362l.014-.023 3.802 7.37 6.455.901c.226.02.403.319.403.68l-.403 1.912c0 .25-2.82-.151-8.462-1.204l-1.388-2.288v8.871c-2.456 2.01-4.054 3.014-6.51 3.014-1.837 0-3.674-.563-5.512-1.687-.724-.463-.744-.74-.059-.833a318.669 318.669 0 0 0-.95 3.725 1.09 1.09 0 0 1-.24.237zm.242-13.327l-1.726 2.68 1.15 6.191c.223.885.334.885.334 0 0-.884.08-3.841.242-8.871z"/>
            <path d="M18.429 33.596c-2.604 0-4.715-2.82-4.715-6.298S15.824 21 18.43 21c2.603 0 4.714 2.82 4.714 6.298s-2.11 6.298-4.714 6.298z"/>
        </g>
        <rect width="55" height="65" x="2.5" y="2.5" stroke="#5C5C5C" stroke-width="5" rx="8"/>
    </g>
</svg>
