<svg xmlns="http://www.w3.org/2000/svg" width="60" height="70" viewBox="0 0 60 70">
    <g fill="none" fill-rule="evenodd">
        <rect width="23" height="31" x="14.5" y="18.5" stroke="#313131" stroke-width="3" rx="2"/>
        <path fill="#313131" d="M17.035 17l9.974 6.234c2.397 1.52 3.928 2.206 3.99 5.564v22.206c.061 3.358-1.725 5.541-3.99 4.877l-10.471-5.195c-2.265-.664-3.455-2.65-3.535-4.93V20.906C12.923 18.626 14.477 17 17.035 17z"/>
        <path fill="#000" d="M34 27h10v13H34z"/>
        <path fill="#313131" d="M42.213 30.618H34.5a.5.5 0 0 0-.5.5v5.664a.5.5 0 0 0 .5.5h7.713v3.263a.5.5 0 0 0 .837.37l7.158-6.546a.5.5 0 0 0 0-.738l-7.158-6.545a.5.5 0 0 0-.837.369v3.163z"/>
        <rect width="55" height="65" x="2.5" y="2.5" fill-rule="nonzero" stroke="#313131" stroke-width="5" rx="8"/>
    </g>
</svg>
