<svg xmlns="http://www.w3.org/2000/svg" width="60" height="70" viewBox="0 0 60 70">
    <g fill="none" fill-rule="evenodd">
        <rect width="23" height="31" x="14.5" y="18.5" stroke="#FFF" stroke-width="3" rx="2"/>
        <path fill="#313131" stroke="#FFF" stroke-width="2" d="M16.76 18.008c-1.788.1-2.816 1.202-2.757 2.897v24.817c.07 1.999 1.095 3.5 2.816 4.005l.163.064 10.385 5.151c1.449.36 2.682-1.195 2.631-3.938V28.817c-.035-1.96-.515-2.762-1.996-3.765a24.23 24.23 0 0 0-.708-.459l-.815-.51-9.718-6.075z"/>
        <path fill="#000" d="M34 27h10v13H34z"/>
        <path fill="#313131" stroke="#FFF" d="M42.213 30.618H34.5a.5.5 0 0 0-.5.5v5.664a.5.5 0 0 0 .5.5h7.713v3.263a.5.5 0 0 0 .837.37l7.158-6.546a.5.5 0 0 0 0-.738l-7.158-6.545a.5.5 0 0 0-.837.369v3.163z"/>
        <rect width="55" height="65" x="2.5" y="2.5" fill-rule="nonzero" stroke="#FFF" stroke-width="5" rx="8"/>
    </g>
</svg>
