<svg xmlns="http://www.w3.org/2000/svg" width="60" height="70" viewBox="0 0 60 70">
    <g fill="none" fill-rule="nonzero">
        <rect width="55" height="65" x="2.5" y="2.5" stroke="#5C5C5C" stroke-width="5" rx="8"/>
        <path fill="#5C5C5C" d="M45.622 50.663l-2.665-3.025-3.438.822-.583 3.78 2.554 3.158c-1.55 1.193-3.33.742-5.342-1.353-.499-.52-1.675-1.983-2.123-4.505-.305-1.532-.449-3.081-.97-4.048-1.436-1.54-5.929-6.317-13.479-14.33-.857-.874-1.513-1.311-1.97-1.311-.302 0-4.109-.013-6.561-3.476-.893-1.26-1.126-3.104-.7-5.53l3.115 2.93 3.196-.896.723-3.803-2.848-3.126c1.683-1.224 3.16-1.199 4.43.076 3.386 2.484 3.632 7.36 3.76 7.997.01.05-.128.98 1.18 2.352 4.542 4.757 9.783 10.49 13.595 14.55.3.32.701.656.85.656 1.512 0 3.293.001 5.168 1.678 2.506 2.24 3.209 4.709 2.108 7.404z"/>
        <path fill="#5C5C5C" d="M23.239 37.661l3.818 4.516-9.883 11.687c-.992 1.173-2.6 1.173-3.593 0l-.225-.266c-.992-1.173-.992-3.076 0-4.25l9.883-11.687zM40.235 16.359l4.134 5.273c4.013 4.304 5.982 6.689 5.905 7.155-.281 1.719-4.467 5.734-4.886 5.922-.418.189-2.116-2.089-2.678-2.748-.593-.696-.165-2.486-.718-3.023-1.073-1.042-2.73-.631-4.441.77-.145-.078-.14-.179-.516.16-.365.476-1.532 1.915-3.501 4.318l-3.818-4.166c2.125-2.215 3.398-3.634 3.818-4.257 2.253-3.34.587-6.092 0-6.415-4.263-2.353-9.504 1.376-8.41-.51.844-1.46 2.704-2.975 6.516-3.999 3.256-.825 6.121-.318 8.595 1.52z"/>
    </g>
</svg>
