<?xml version="1.0" encoding="UTF-8"?>
<svg width="70px" height="39px" viewBox="0 0 70 39" version="1.1" xmlns="http://www.w3.org/2000/svg" xmlns:xlink="http://www.w3.org/1999/xlink">
    <!-- Generator: Sketch 50.2 (55047) - http://www.bohemiancoding.com/sketch -->
    <title>Details selected</title>
    <desc>Created with Sketch.</desc>
    <defs></defs>
    <g id="Page-1" stroke="none" stroke-width="1" fill="none" fill-rule="evenodd">
        <g id="Clients-Text" transform="translate(-634.000000, -31.000000)">
            <g id="Group-9" transform="translate(564.000000, 31.000000)">
                <g id="Details-selected" transform="translate(70.000000, 0.000000)">
                    <path d="M1,1 L1,38 L60,38 C64.9705627,38 69,33.9705627 69,29 L69,10 C69,5.02943725 64.9705627,1 60,1 L1,1 Z" id="Rectangle" stroke="#FFFFFF" stroke-width="2" fill="#FFFFFF"></path>
                    <path d="M17.6660156,16.8632812 L17.6660156,22.5 L19.3300781,22.5 C20.1816449,22.5 20.7753889,22.0800823 21.1113281,21.2402344 C21.2949228,20.7792946 21.3867188,20.2304719 21.3867188,19.59375 C21.3867188,18.7148394 21.2490248,18.0400414 20.9736328,17.5693359 C20.6982408,17.0986305 20.1503947,16.8632812 19.3300781,16.8632812 L17.6660156,16.8632812 Z M19.6347656,15.3632812 C20.1699246,15.3710938 20.6152326,15.4335932 20.9707031,15.5507812 C21.5761749,15.750001 22.0664044,16.1152317 22.4414062,16.6464844 C22.742189,17.076174 22.9472651,17.5410131 23.0566406,18.0410156 C23.1660162,18.5410181 23.2207031,19.0175759 23.2207031,19.4707031 C23.2207031,20.6191464 22.9902367,21.5917929 22.5292969,22.3886719 C21.9042937,23.462896 20.9394596,24 19.6347656,24 L15.9140625,24 L15.9140625,15.3632812 L19.6347656,15.3632812 Z M26.9648438,18.8203125 C26.5781231,18.8203125 26.2783214,18.941405 26.0654297,19.1835938 C25.852538,19.4257825 25.7187503,19.7539042 25.6640625,20.1679688 L28.2597656,20.1679688 C28.2324217,19.7265603 28.098634,19.3916027 27.8583984,19.1630859 C27.6181629,18.9345692 27.3203143,18.8203125 26.9648438,18.8203125 Z M26.9648438,17.4433594 C27.4960964,17.4433594 27.9746072,17.5429678 28.4003906,17.7421875 C28.826174,17.9414072 29.177733,18.2558572 29.4550781,18.6855469 C29.7050794,19.064455 29.8671871,19.5039037 29.9414062,20.0039062 C29.9843752,20.2968765 30.0019532,20.7187472 29.9941406,21.2695312 L25.6230469,21.2695312 C25.6464845,21.9101595 25.8476544,22.3593737 26.2265625,22.6171875 C26.4570324,22.7773446 26.7343734,22.8574219 27.0585938,22.8574219 C27.4023455,22.8574219 27.6816396,22.7597666 27.8964844,22.5644531 C28.0136725,22.4589838 28.1171871,22.3125009 28.2070312,22.125 L29.9121094,22.125 C29.8691404,22.5039081 29.6718768,22.8886699 29.3203125,23.2792969 C28.7734348,23.9003937 28.0078174,24.2109375 27.0234375,24.2109375 C26.2109334,24.2109375 25.4941437,23.9492214 24.8730469,23.4257812 C24.25195,22.9023411 23.9414062,22.0507871 23.9414062,20.8710938 C23.9414062,19.7656195 24.2216769,18.9179717 24.7822266,18.328125 C25.3427762,17.7382783 26.070308,17.4433594 26.9648438,17.4433594 Z M30.4628906,18.8613281 L30.4628906,17.671875 L31.3535156,17.671875 L31.3535156,15.890625 L33.0058594,15.890625 L33.0058594,17.671875 L34.0429688,17.671875 L34.0429688,18.8613281 L33.0058594,18.8613281 L33.0058594,22.2363281 C33.0058594,22.4980482 33.0390622,22.6611325 33.1054688,22.7255859 C33.1718753,22.7900394 33.3749983,22.8222656 33.7148438,22.8222656 C33.7656253,22.8222656 33.8193357,22.8212891 33.8759766,22.8193359 C33.9326175,22.8173828 33.988281,22.8144531 34.0429688,22.8105469 L34.0429688,24.0585938 L33.2519531,24.0878906 C32.4628867,24.1152345 31.9238296,23.9785171 31.6347656,23.6777344 C31.4472647,23.4863272 31.3535156,23.1914082 31.3535156,22.7929688 L31.3535156,18.8613281 L30.4628906,18.8613281 Z M38.6367188,20.8945312 C38.5312495,20.9609378 38.4248052,21.0146482 38.3173828,21.0556641 C38.2099604,21.0966799 38.0625009,21.1347654 37.875,21.1699219 L37.5,21.2402344 C37.1484357,21.3027347 36.8964851,21.3789058 36.7441406,21.46875 C36.4863268,21.6210945 36.3574219,21.8574203 36.3574219,22.1777344 C36.3574219,22.4628921 36.4365226,22.6689447 36.5947266,22.7958984 C36.7529305,22.9228522 36.9453114,22.9863281 37.171875,22.9863281 C37.5312518,22.9863281 37.8623032,22.8808604 38.1650391,22.6699219 C38.467775,22.4589833 38.6249999,22.0742215 38.6367188,21.515625 L38.6367188,20.8945312 Z M37.6230469,20.1152344 C37.9316422,20.0761717 38.1523431,20.027344 38.2851562,19.96875 C38.5234387,19.867187 38.6425781,19.7089854 38.6425781,19.4941406 C38.6425781,19.2324206 38.5517587,19.0517583 38.3701172,18.9521484 C38.1884757,18.8525386 37.9218768,18.8027344 37.5703125,18.8027344 C37.1757793,18.8027344 36.8964852,18.9003896 36.7324219,19.0957031 C36.6152338,19.2402351 36.5371096,19.4355456 36.4980469,19.6816406 L34.8867188,19.6816406 C34.9218752,19.1230441 35.0781236,18.6640643 35.3554688,18.3046875 C35.7968772,17.7421847 36.5546821,17.4609375 37.6289062,17.4609375 C38.3281285,17.4609375 38.949216,17.599608 39.4921875,17.8769531 C40.035159,18.1542983 40.3066406,18.6777305 40.3066406,19.4472656 L40.3066406,22.3769531 C40.3066406,22.5800791 40.3105468,22.8261704 40.3183594,23.1152344 C40.3300782,23.3339855 40.363281,23.4824215 40.4179688,23.5605469 C40.4726565,23.6386723 40.554687,23.7031247 40.6640625,23.7539062 L40.6640625,24 L38.8476562,24 C38.7968747,23.8710931 38.7617188,23.7500006 38.7421875,23.6367188 C38.7226562,23.5234369 38.7070313,23.394532 38.6953125,23.25 C38.4648426,23.5000013 38.1992203,23.7128897 37.8984375,23.8886719 C37.5390607,24.0957042 37.1328148,24.1992188 36.6796875,24.1992188 C36.1015596,24.1992188 35.6240253,24.0341813 35.2470703,23.7041016 C34.8701153,23.3740218 34.6816406,22.906253 34.6816406,22.3007812 C34.6816406,21.5156211 34.984372,20.9472674 35.5898438,20.5957031 C35.9218767,20.4042959 36.410153,20.2675785 37.0546875,20.1855469 L37.6230469,20.1152344 Z M43.5058594,16.8515625 L41.8125,16.8515625 L41.8125,15.3105469 L43.5058594,15.3105469 L43.5058594,16.8515625 Z M41.8125,17.6132812 L43.5058594,17.6132812 L43.5058594,24 L41.8125,24 L41.8125,17.6132812 Z M46.828125,24 L45.1582031,24 L45.1582031,15.3632812 L46.828125,15.3632812 L46.828125,24 Z M49.7578125,21.9609375 C49.7929689,22.257814 49.86914,22.4687494 49.9863281,22.59375 C50.1933604,22.8164074 50.5761691,22.9277344 51.1347656,22.9277344 C51.4628923,22.9277344 51.7236318,22.8789067 51.9169922,22.78125 C52.1103525,22.6835933 52.2070312,22.5371104 52.2070312,22.3417969 C52.2070312,22.1542959 52.128907,22.0117192 51.9726562,21.9140625 C51.8164055,21.8164058 51.2363331,21.6484387 50.2324219,21.4101562 C49.509762,21.2304679 49.0000015,21.0058607 48.703125,20.7363281 C48.4062485,20.4707018 48.2578125,20.0878931 48.2578125,19.5878906 C48.2578125,18.9980439 48.4892555,18.4912131 48.9521484,18.0673828 C49.4150414,17.6435526 50.0664021,17.4316406 50.90625,17.4316406 C51.703129,17.4316406 52.3525366,17.5908187 52.8544922,17.9091797 C53.3564478,18.2275407 53.6445309,18.7773398 53.71875,19.5585938 L52.0488281,19.5585938 C52.0253905,19.3437489 51.9648442,19.1738287 51.8671875,19.0488281 C51.6835928,18.8222645 51.371096,18.7089844 50.9296875,18.7089844 C50.5664044,18.7089844 50.307618,18.7656244 50.1533203,18.8789062 C49.9990227,18.9921881 49.921875,19.1249992 49.921875,19.2773438 C49.921875,19.468751 50.0039054,19.6074214 50.1679688,19.6933594 C50.3320321,19.7832036 50.9121044,19.9374989 51.9082031,20.15625 C52.5722689,20.3125008 53.0703108,20.5488265 53.4023438,20.8652344 C53.7304704,21.1855485 53.8945312,21.5859351 53.8945312,22.0664062 C53.8945312,22.6992219 53.659182,23.2158183 53.1884766,23.6162109 C52.7177711,24.0166036 51.9902393,24.2167969 51.0058594,24.2167969 C50.0019481,24.2167969 49.2607446,24.0048849 48.7822266,23.5810547 C48.3037085,23.1572244 48.0644531,22.6171908 48.0644531,21.9609375 L49.7578125,21.9609375 Z" id="Details" fill="#3876CF"></path>
                </g>
            </g>
        </g>
    </g>
</svg>