<?xml version="1.0" encoding="UTF-8"?>
<svg width="70px" height="39px" viewBox="0 0 70 39" version="1.1" xmlns="http://www.w3.org/2000/svg" xmlns:xlink="http://www.w3.org/1999/xlink">
    <!-- Generator: Sketch 50.2 (55047) - http://www.bohemiancoding.com/sketch -->
    <title>Details Deselected</title>
    <desc>Created with Sketch.</desc>
    <defs></defs>
    <g id="Page-1" stroke="none" stroke-width="1" fill="none" fill-rule="evenodd">
        <g id="Clients-Text" transform="translate(-454.000000, -31.000000)">
            <g id="Group-9" transform="translate(384.000000, 31.000000)">
                <g id="Details-Deselected" transform="translate(70.000000, 0.000000)">
                    <path d="M1,1 L1,38 L60,38 C64.9705627,38 69,33.9705627 69,29 L69,10 C69,5.02943725 64.9705627,1 60,1 L1,1 Z" id="Rectangle" stroke="#FFFFFF" stroke-width="2"></path>
                    <path d="M17.7519531,16.5527344 L17.7519531,22.1894531 L19.4160156,22.1894531 C20.2675824,22.1894531 20.8613264,21.7695354 21.1972656,20.9296875 C21.3808603,20.4687477 21.4726562,19.9199251 21.4726562,19.2832031 C21.4726562,18.4042925 21.3349623,17.7294945 21.0595703,17.2587891 C20.7841783,16.7880836 20.2363322,16.5527344 19.4160156,16.5527344 L17.7519531,16.5527344 Z M19.7207031,15.0527344 C20.2558621,15.0605469 20.7011701,15.1230463 21.0566406,15.2402344 C21.6621124,15.4394541 22.1523419,15.8046848 22.5273438,16.3359375 C22.8281265,16.7656271 23.0332026,17.2304662 23.1425781,17.7304688 C23.2519537,18.2304713 23.3066406,18.707029 23.3066406,19.1601562 C23.3066406,20.3085995 23.0761742,21.281246 22.6152344,22.078125 C21.9902312,23.1523491 21.0253971,23.6894531 19.7207031,23.6894531 L16,23.6894531 L16,15.0527344 L19.7207031,15.0527344 Z M27.0507812,18.5097656 C26.6640606,18.5097656 26.3642589,18.6308582 26.1513672,18.8730469 C25.9384755,19.1152356 25.8046878,19.4433573 25.75,19.8574219 L28.3457031,19.8574219 C28.3183592,19.4160134 28.1845715,19.0810558 27.9443359,18.8525391 C27.7041004,18.6240223 27.4062518,18.5097656 27.0507812,18.5097656 Z M27.0507812,17.1328125 C27.5820339,17.1328125 28.0605447,17.2324209 28.4863281,17.4316406 C28.9121115,17.6308604 29.2636705,17.9453104 29.5410156,18.375 C29.7910169,18.7539081 29.9531246,19.1933569 30.0273438,19.6933594 C30.0703127,19.9863296 30.0878907,20.4082004 30.0800781,20.9589844 L25.7089844,20.9589844 C25.732422,21.5996126 25.9335919,22.0488268 26.3125,22.3066406 C26.5429699,22.4667977 26.8203109,22.546875 27.1445312,22.546875 C27.488283,22.546875 27.7675771,22.4492197 27.9824219,22.2539062 C28.09961,22.148437 28.2031246,22.0019541 28.2929688,21.8144531 L29.9980469,21.8144531 C29.9550779,22.1933613 29.7578143,22.578123 29.40625,22.96875 C28.8593723,23.5898469 28.0937549,23.9003906 27.109375,23.9003906 C26.2968709,23.9003906 25.5800812,23.6386745 24.9589844,23.1152344 C24.3378875,22.5917943 24.0273438,21.7402403 24.0273438,20.5605469 C24.0273438,19.4550726 24.3076144,18.6074248 24.8681641,18.0175781 C25.4287137,17.4277314 26.1562455,17.1328125 27.0507812,17.1328125 Z M30.5488281,18.5507812 L30.5488281,17.3613281 L31.4394531,17.3613281 L31.4394531,15.5800781 L33.0917969,15.5800781 L33.0917969,17.3613281 L34.1289062,17.3613281 L34.1289062,18.5507812 L33.0917969,18.5507812 L33.0917969,21.9257812 C33.0917969,22.1875013 33.1249997,22.3505856 33.1914062,22.4150391 C33.2578128,22.4794925 33.4609358,22.5117188 33.8007812,22.5117188 C33.8515628,22.5117188 33.9052732,22.5107422 33.9619141,22.5087891 C34.018555,22.5068359 34.0742185,22.5039063 34.1289062,22.5 L34.1289062,23.7480469 L33.3378906,23.7773438 C32.5488242,23.8046876 32.0097671,23.6679703 31.7207031,23.3671875 C31.5332022,23.1757803 31.4394531,22.8808614 31.4394531,22.4824219 L31.4394531,18.5507812 L30.5488281,18.5507812 Z M38.7226562,20.5839844 C38.617187,20.650391 38.5107427,20.7041014 38.4033203,20.7451172 C38.2958979,20.786133 38.1484384,20.8242186 37.9609375,20.859375 L37.5859375,20.9296875 C37.2343732,20.9921878 36.9824226,21.0683589 36.8300781,21.1582031 C36.5722643,21.3105476 36.4433594,21.5468734 36.4433594,21.8671875 C36.4433594,22.1523452 36.5224601,22.3583978 36.6806641,22.4853516 C36.838868,22.6123053 37.0312489,22.6757812 37.2578125,22.6757812 C37.6171893,22.6757812 37.9482407,22.5703136 38.2509766,22.359375 C38.5537125,22.1484364 38.7109374,21.7636747 38.7226562,21.2050781 L38.7226562,20.5839844 Z M37.7089844,19.8046875 C38.0175797,19.7656248 38.2382806,19.7167972 38.3710938,19.6582031 C38.6093762,19.5566401 38.7285156,19.3984386 38.7285156,19.1835938 C38.7285156,18.9218737 38.6376962,18.7412114 38.4560547,18.6416016 C38.2744132,18.5419917 38.0078143,18.4921875 37.65625,18.4921875 C37.2617168,18.4921875 36.9824227,18.5898428 36.8183594,18.7851562 C36.7011713,18.9296882 36.6230471,19.1249988 36.5839844,19.3710938 L34.9726562,19.3710938 C35.0078127,18.8124972 35.1640611,18.3535174 35.4414062,17.9941406 C35.8828147,17.4316378 36.6406196,17.1503906 37.7148438,17.1503906 C38.414066,17.1503906 39.0351535,17.2890611 39.578125,17.5664062 C40.1210965,17.8437514 40.3925781,18.3671837 40.3925781,19.1367188 L40.3925781,22.0664062 C40.3925781,22.2695323 40.3964843,22.5156236 40.4042969,22.8046875 C40.4160157,23.0234386 40.4492185,23.1718746 40.5039062,23.25 C40.558594,23.3281254 40.6406245,23.3925779 40.75,23.4433594 L40.75,23.6894531 L38.9335938,23.6894531 C38.8828122,23.5605462 38.8476563,23.4394537 38.828125,23.3261719 C38.8085937,23.2128901 38.7929688,23.0839851 38.78125,22.9394531 C38.5507801,23.1894544 38.2851578,23.4023429 37.984375,23.578125 C37.6249982,23.7851573 37.2187523,23.8886719 36.765625,23.8886719 C36.1874971,23.8886719 35.7099628,23.7236345 35.3330078,23.3935547 C34.9560528,23.0634749 34.7675781,22.5957062 34.7675781,21.9902344 C34.7675781,21.2050742 35.0703095,20.6367205 35.6757812,20.2851562 C36.0078142,20.093749 36.4960905,19.9570317 37.140625,19.875 L37.7089844,19.8046875 Z M43.5917969,16.5410156 L41.8984375,16.5410156 L41.8984375,15 L43.5917969,15 L43.5917969,16.5410156 Z M41.8984375,17.3027344 L43.5917969,17.3027344 L43.5917969,23.6894531 L41.8984375,23.6894531 L41.8984375,17.3027344 Z M46.9140625,23.6894531 L45.2441406,23.6894531 L45.2441406,15.0527344 L46.9140625,15.0527344 L46.9140625,23.6894531 Z M49.84375,21.6503906 C49.8789064,21.9472671 49.9550775,22.1582025 50.0722656,22.2832031 C50.2792979,22.5058605 50.6621066,22.6171875 51.2207031,22.6171875 C51.5488298,22.6171875 51.8095693,22.5683599 52.0029297,22.4707031 C52.19629,22.3730464 52.2929688,22.2265635 52.2929688,22.03125 C52.2929688,21.8437491 52.2148445,21.7011724 52.0585938,21.6035156 C51.902343,21.5058589 51.3222706,21.3378918 50.3183594,21.0996094 C49.5956995,20.919921 49.085939,20.6953138 48.7890625,20.4257812 C48.492186,20.1601549 48.34375,19.7773463 48.34375,19.2773438 C48.34375,18.6874971 48.575193,18.1806662 49.0380859,17.7568359 C49.5009789,17.3330057 50.1523396,17.1210938 50.9921875,17.1210938 C51.7890665,17.1210938 52.4384741,17.2802718 52.9404297,17.5986328 C53.4423853,17.9169938 53.7304684,18.466793 53.8046875,19.2480469 L52.1347656,19.2480469 C52.111328,19.0332021 52.0507817,18.8632819 51.953125,18.7382812 C51.7695303,18.5117176 51.4570335,18.3984375 51.015625,18.3984375 C50.6523419,18.3984375 50.3935555,18.4550776 50.2392578,18.5683594 C50.0849602,18.6816412 50.0078125,18.8144524 50.0078125,18.9667969 C50.0078125,19.1582041 50.0898429,19.2968746 50.2539062,19.3828125 C50.4179696,19.4726567 50.9980419,19.626952 51.9941406,19.8457031 C52.6582064,20.0019539 53.1562483,20.2382797 53.4882812,20.5546875 C53.8164079,20.8750016 53.9804688,21.2753882 53.9804688,21.7558594 C53.9804688,22.388675 53.7451195,22.9052714 53.2744141,23.3056641 C52.8037086,23.7060567 52.0761768,23.90625 51.0917969,23.90625 C50.0878856,23.90625 49.3466821,23.6943381 48.8681641,23.2705078 C48.389646,22.8466776 48.1503906,22.3066439 48.1503906,21.6503906 L49.84375,21.6503906 Z" id="Details" fill="#FFFFFF"></path>
                </g>
            </g>
        </g>
    </g>
</svg>