<svg xmlns="http://www.w3.org/2000/svg" width="125" height="23" viewBox="0 0 125 23">
  <g fill="none" fill-rule="evenodd" transform="translate(0 -1)">
    <path fill="#008CFF" d="M8.03651723,6.13477282 L6.74125438,6.13477282 L6.04455997,4.8514289 L1.99195726,4.8514289 L1.29526285,6.13477282 L0,6.13477282 L3.28722011,0.155556839 L4.74929712,0.155556839 L8.03651723,6.13477282 Z M5.45580413,3.79169794 L4.02316491,1.14723168 L2.5807131,3.79169794 L5.45580413,3.79169794 Z M18.4084326,1.2152878 L13.3156946,1.2152878 L13.3156946,2.49863172 L16.8580422,2.49863172 L16.8580422,3.55836268 L13.3156946,3.55836268 L13.3156946,6.13477282 L12.1381829,6.13477282 L12.1381829,0.155556839 L18.4084326,0.155556839 L18.4084326,1.2152878 Z M26.1800097,6.13477282 L19.6840703,6.13477282 L19.6840703,0.155556839 L25.95432,0.155556839 L25.95432,1.2152878 L20.861582,1.2152878 L20.861582,2.49863172 L24.4039296,2.49863172 L24.4039296,3.55836268 L20.861582,3.55836268 L20.861582,5.07504186 L26.1800097,5.07504186 L26.1800097,6.13477282 Z M36.6794889,0.155556839 L34.628656,6.13477282 L33.215642,6.13477282 L31.7731902,1.13750938 L30.3307384,6.13477282 L28.9177244,6.13477282 L26.8668915,0.155556839 L28.171967,0.155556839 L29.6242314,5.12365337 L31.0666832,0.155556839 L32.4796972,0.155556839 L33.922149,5.12365337 L35.3744134,0.155556839 L36.6794889,0.155556839 Z M46.3154595,1.6333468 C45.5304478,1.22500806 44.6767603,1.02084175 43.7543716,1.02084175 C42.4133099,1.02084175 41.7427891,1.25741541 41.7427891,1.73056983 C41.7427891,2.00927722 41.9946433,2.19075839 42.4983591,2.27501876 C43.1852444,2.33335287 43.8721193,2.39492684 44.5590046,2.45974251 C45.546811,2.55696602 46.2500401,2.73196571 46.668713,2.98474684 C47.1331783,3.26345424 47.3654074,3.68799053 47.3654074,4.25836846 C47.3654074,4.90004362 47.0759387,5.39587609 46.4969925,5.74588072 C45.9180464,6.09588536 45.0790777,6.27088505 43.9800613,6.27088505 C42.4296632,6.27088505 41.1900175,5.92088567 40.2610869,5.22087639 L40.8989058,4.39448069 C41.7297098,4.97134018 42.7502097,5.2597656 43.9604361,5.2597656 C44.6407796,5.2597656 45.1673837,5.17388612 45.5402643,5.00212459 C45.9131449,4.83036306 46.0995823,4.60189123 46.0995823,4.31670227 C46.0995823,3.99910547 45.870624,3.77549475 45.4127005,3.6458634 C45.1575717,3.57456616 44.7618009,3.52595514 44.2253763,3.50002887 C43.3880304,3.46113946 42.8745096,3.43197285 42.6847985,3.41252815 C41.9390373,3.3412309 41.3895374,3.18243489 41.0362821,2.93613533 C40.6830268,2.68983577 40.5064019,2.33011418 40.5064019,1.85695976 C40.5064019,1.28658183 40.7893289,0.834499292 41.3551915,0.500698574 C41.9210541,0.166897856 42.7142312,0 43.7347464,0 C45.0954334,0 46.1977041,0.291666156 47.0415917,0.875007217 L46.3154595,1.6333468 Z M54.9996081,1.2152878 L52.1147045,1.2152878 L52.1147045,6.13477282 L50.9371928,6.13477282 L50.9371928,1.2152878 L48.0522892,1.2152878 L48.0522892,0.155556839 L54.9996081,0.155556839 L54.9996081,1.2152878 Z M62.7711852,6.13477282 L56.2752458,6.13477282 L56.2752458,0.155556839 L62.5454955,0.155556839 L62.5454955,1.2152878 L57.4527575,1.2152878 L57.4527575,2.49863172 L60.9951051,2.49863172 L60.9951051,3.55836268 L57.4527575,3.55836268 L57.4527575,5.07504186 L62.7711852,5.07504186 L62.7711852,6.13477282 Z M69.1689987,0.155556839 C69.8100916,0.155556839 70.3203416,0.327315797 70.6997639,0.670838866 C71.0791862,1.01436194 71.2688945,1.47454631 71.2688945,2.05140581 C71.2688945,2.65419157 71.0710091,3.11923705 70.6752324,3.4465562 C70.2794557,3.77387536 69.7119661,3.93753248 68.9727468,3.93753248 L65.4696495,3.93753248 L65.4696495,6.13477282 L64.2921378,6.13477282 L64.2921378,0.155556839 L69.1689987,0.155556839 Z M68.992372,2.87780151 C69.7054243,2.87780151 70.0619451,2.6088205 70.0619451,2.07085041 C70.0619451,1.50047249 69.6825284,1.2152878 68.9236838,1.2152878 L65.4696495,1.2152878 L65.4696495,2.87780151 L68.992372,2.87780151 Z M77.9610859,1.6333468 C77.1760742,1.22500806 76.3223868,1.02084175 75.399998,1.02084175 C74.0589364,1.02084175 73.3884156,1.25741541 73.3884156,1.73056983 C73.3884156,2.00927722 73.6402697,2.19075839 74.1439856,2.27501876 C74.8308708,2.33335287 75.5177458,2.39492684 76.204631,2.45974251 C77.1924374,2.55696602 77.8956665,2.73196571 78.3143394,2.98474684 C78.7788047,3.26345424 79.0110339,3.68799053 79.0110339,4.25836846 C79.0110339,4.90004362 78.7215651,5.39587609 78.142619,5.74588072 C77.5636729,6.09588536 76.7247042,6.27088505 75.6256878,6.27088505 C74.0752896,6.27088505 72.8356439,5.92088567 71.9067134,5.22087639 L72.5445322,4.39448069 C73.3753363,4.97134018 74.3958362,5.2597656 75.6060626,5.2597656 C76.2864061,5.2597656 76.8130102,5.17388612 77.1858907,5.00212459 C77.5587713,4.83036306 77.7452088,4.60189123 77.7452088,4.31670227 C77.7452088,3.99910547 77.5162505,3.77549475 77.058327,3.6458634 C76.8031982,3.57456616 76.4074274,3.52595514 75.8710027,3.50002887 C75.0336569,3.46113946 74.5201361,3.43197285 74.3304249,3.41252815 C73.5846638,3.3412309 73.0351638,3.18243489 72.6819086,2.93613533 C72.3286533,2.68983577 72.1520283,2.33011418 72.1520283,1.85695976 C72.1520283,1.28658183 72.4349554,0.834499292 73.000818,0.500698574 C73.5666806,0.166897856 74.3598576,0 75.3803728,0 C76.7410598,0 77.8433306,0.291666156 78.6872181,0.875007217 L77.9610859,1.6333468 Z M90.5604609,6.13477282 L89.2651981,6.13477282 L88.5685037,4.8514289 L84.515901,4.8514289 L83.8192066,6.13477282 L82.5239437,6.13477282 L85.8111638,0.155556839 L87.2732408,0.155556839 L90.5604609,6.13477282 Z M87.9797478,3.79169794 L86.5471086,1.14723168 L85.1046568,3.79169794 L87.9797478,3.79169794 Z M98.7343545,6.13477282 L97.5568428,6.13477282 L97.5568428,3.55836268 L92.8958591,3.55836268 L92.8958591,6.13477282 L91.7183474,6.13477282 L91.7183474,0.155556839 L92.8958591,0.155556839 L92.8958591,2.49863172 L97.5568428,2.49863172 L97.5568428,0.155556839 L98.7343545,0.155556839 L98.7343545,6.13477282 Z M107.290939,6.13477282 L100.795,6.13477282 L100.795,0.155556839 L107.06525,0.155556839 L107.06525,1.2152878 L101.972512,1.2152878 L101.972512,2.49863172 L105.514859,2.49863172 L105.514859,3.55836268 L101.972512,3.55836268 L101.972512,5.07504186 L107.290939,5.07504186 L107.290939,6.13477282 Z M115.94565,6.13477282 L114.650387,6.13477282 L113.953693,4.8514289 L109.90109,4.8514289 L109.204396,6.13477282 L107.909133,6.13477282 L111.196353,0.155556839 L112.65843,0.155556839 L115.94565,6.13477282 Z M113.364937,3.79169794 L111.932298,1.14723168 L110.489846,3.79169794 L113.364937,3.79169794 Z M121.008951,0.155556839 C122.068716,0.155556839 122.919133,0.431019319 123.560226,0.981952543 C124.201319,1.53288577 124.52186,2.23936601 124.52186,3.10141447 C124.52186,3.88568412 124.184965,4.63753465 123.511163,5.35698863 C123.321452,5.56439878 123.020535,5.74263921 122.608404,5.89171526 C122.157022,6.05375444 121.689293,6.13477282 121.205202,6.13477282 L117.103537,6.13477282 L117.103537,0.155556839 L121.008951,0.155556839 Z M121.283703,5.07504186 C121.859378,5.07504186 122.332014,4.89680143 122.701624,4.54031523 C123.071233,4.18382902 123.256035,3.73012611 123.256035,3.17919289 C123.256035,2.58937026 123.059785,2.11460257 122.667279,1.75487558 C122.274774,1.3951486 121.75144,1.2152878 121.097264,1.2152878 L118.281048,1.2152878 L118.281048,5.07504186 L121.283703,5.07504186 Z" transform="translate(.286 17.402)"/>
    <g fill="#FFFFFF">
      <rect width="5.689" height="14.044" x=".193" y=".67" transform="translate(16.543 .397)"/>
      <path d="M10.0045098,4.07590039 L10.0045098,14.0808416 L4.31567089,14.0808416 L4.29850257,4.07590039 L5.68434189e-14,4.07590039 L5.68434189e-14,0.0363970347 L3.92333717,0.0363970347 L14.3201807,0.0363970347 L14.3201807,4.07590039 L10.0045098,4.07590039 Z" transform="translate(23.778 1.03)"/>
      <path d="M5.88500576,5.60530668 L14.1493932,5.60530668 L14.1493932,8.85291725 L5.88500576,8.85291725 L5.88500576,10.3143007 L14.5163475,10.3143007 L14.5163475,14.1504136 L5.88500576,14.1504136 L5.88500576,14.152778 L0.196166859,14.152778 L0.196166859,4.13557315 L0.196166859,0.091118357 L4.11950403,0.091118357 L14.5163475,0.091118357 L14.5163475,4.13557315 L5.88500576,4.13557315 L5.88500576,5.60530668 Z" transform="translate(38.983 .978)"/>
      <path d="M10.0045098,4.12732223 L10.0045098,14.1245417 L4.31567089,14.1245417 L4.29912976,4.12732223 L0,4.12732223 L0,0.090936566 L3.92333717,0.090936566 L14.3201807,0.090936566 L14.3201807,4.12732223 L10.0045098,4.12732223 Z" transform="translate(54.58 .978)"/>
      <path d="M12.84735,8.93898408 L15.301015,14.1310016 L9.61217608,14.1310016 L7.5368607,9.25149403 L7.55937599,9.24883948 L5.88500576,9.24883948 L5.88500576,14.1333627 L0.196166859,14.1333627 L0.196166859,6.858583 L0.196166859,0.0909933577 L12.301015,0.0909933577 C13.9578692,0.0909933577 15.301015,1.43413911 15.301015,3.09099336 L15.301015,5.24883948 C15.301015,6.90978593 14.2886734,8.33428734 12.84735,8.93898408 Z M5.88817999,3.67805865 L5.88817999,6.39134729 L9.22533246,6.39134729 C9.77761721,6.39134729 10.2253325,5.94363204 10.2253325,5.39134729 L10.2253325,4.67805865 C10.2253325,4.1257739 9.77761721,3.67805865 9.22533246,3.67805865 L5.88817999,3.67805865 Z" transform="translate(69.785 .978)"/>
      <rect width="5.689" height="14.042" x=".196" y=".091" transform="translate(86.779 .978)"/>
      <path d="M5.88500576,8.86194745 L5.88500576,14.1333627 L0.196166859,14.1333627 L0.196166859,0.0909933577 L5.88500576,0.0909933577 L5.88500576,5.30868482 L9.69133005,0.0909933577 L15.2991202,0.0909933577 L11.5112943,5.32254181 L15.301015,14.1310016 L9.61217608,14.1310016 L7.34523682,8.86194745 L5.88500576,8.86194745 Z" transform="translate(94.356 .978)"/>
      <path d="M14.5745321,5.87553075 L14.5745321,9.11063811 C14.5745321,11.8720619 12.3359558,14.1106381 9.57453209,14.1106381 L0.25435141,14.1106381 L0.25435141,10.151992 L8.38367093,10.151992 C8.80384363,10.151992 9.14137343,9.81371815 9.14137343,9.39643627 L9.14137343,8.64088059 L0.25435141,8.64088059 L0.25435141,5.13023714 C0.25435141,2.36881339 2.49292766,0.130237141 5.25435141,0.130237141 L14.5745321,0.130237141 L14.5745321,4.12325948 L6.63163546,4.12325948 C6.14035466,4.12325948 5.74702345,4.51551876 5.74702345,4.99939512 L5.74702345,5.87553075 L14.5745321,5.87553075 Z" transform="rotate(180 7.687 7.61)"/>
      <path d="M14.5745321,5.90853911 L14.5745321,9.18991078 C14.5745321,11.9513345 12.3359558,14.1899108 9.57453209,14.1899108 L0.25435141,14.1899108 L0.25435141,10.1875491 L8.38367093,10.1875491 C8.80384363,10.1875491 9.14137343,9.84927533 9.14137343,9.43199345 L9.14137343,8.67643776 L0.25435141,8.67643776 L0.25435141,5.1309688 C0.25435141,2.36954506 2.49292766,0.130968805 5.25435141,0.130968805 L14.5745321,0.130968805 L14.5745321,4.14642369 L6.63163546,4.14642369 C6.14035466,4.14642369 5.74702345,4.54088666 5.74702345,5.0274814 L5.74702345,5.90853911 L14.5745321,5.90853911 Z" transform="rotate(180 62.612 7.627)"/>
    </g>
  </g>
</svg>
