<?xml version="1.0" encoding="utf-8"?>
<!-- Generator: Adobe Illustrator 16.0.0, SVG Export Plug-In . SVG Version: 6.00 Build 0)  -->
<!DOCTYPE svg PUBLIC "-//W3C//DTD SVG 1.1//EN" "http://www.w3.org/Graphics/SVG/1.1/DTD/svg11.dtd">
<svg version="1.1" id="Layer_1" xmlns="http://www.w3.org/2000/svg" xmlns:xlink="http://www.w3.org/1999/xlink" x="0px" y="0px"
	 width="179px" height="28px" viewBox="0 0 179 28" enable-background="new 0 0 179 28" xml:space="preserve">
<g transform="translate(1 -1)">
	<path fill="#123E7A" stroke="#008CFF" d="M0.191,14.855c0-6.802,5.512-12.316,12.312-12.316h15.619v12.316
		c0,6.801-5.513,12.315-12.312,12.315H0.191V14.855z"/>
	<path fill="#008CFF" d="M0.067,16.844c0-5.066,4.103-9.172,9.167-9.172H18.4v10.373c0,5.064-4.103,9.172-9.166,9.172H0.067V16.844z
		"/>
	<path fill="#008CFF" stroke="#123E7A" stroke-width="0.7" d="M1.46,16.576c0-4.45,3.612-8.063,8.056-8.063h8.056v9.878
		c0,4.45-3.613,8.062-8.056,8.062H1.46V16.576z"/>
	<path fill="#008CFF" d="M48.858,27.921h-1.436l-0.772-1.436H42.16l-0.772,1.436h-1.436l3.643-6.688h1.62L48.858,27.921z
		 M45.999,25.301l-1.588-2.959l-1.599,2.959H45.999z M60.353,22.418h-5.644v1.436h3.926v1.186h-3.926v2.882h-1.305v-6.688h6.949
		V22.418z M68.966,27.921h-7.199v-6.688h6.949v1.186h-5.644v1.436h3.926v1.186h-3.926v1.696h5.894V27.921z M80.602,21.232
		l-2.273,6.688h-1.566l-1.599-5.589l-1.598,5.589H72l-2.272-6.688h1.446l1.609,5.558l1.599-5.558h1.566l1.599,5.558l1.609-5.558
		H80.602z M91.281,22.886c-0.871-0.456-1.816-0.685-2.839-0.685c-1.486,0-2.229,0.264-2.229,0.793c0,0.312,0.279,0.516,0.837,0.609
		c0.761,0.065,1.522,0.135,2.284,0.207c1.095,0.108,1.874,0.305,2.338,0.587c0.516,0.312,0.772,0.786,0.772,1.425
		c0,0.718-0.321,1.271-0.962,1.664c-0.643,0.391-1.572,0.587-2.79,0.587c-1.718,0-3.092-0.392-4.122-1.175l0.707-0.924
		c0.921,0.645,2.052,0.968,3.393,0.968c0.754,0,1.337-0.097,1.751-0.288c0.413-0.192,0.619-0.447,0.619-0.768
		c0-0.354-0.254-0.604-0.761-0.75c-0.282-0.08-0.722-0.134-1.316-0.162c-0.928-0.045-1.497-0.076-1.708-0.099
		c-0.826-0.079-1.436-0.257-1.827-0.532c-0.392-0.275-0.587-0.678-0.587-1.207c0-0.639,0.313-1.145,0.94-1.518
		c0.627-0.373,1.506-0.561,2.637-0.561c1.508,0,2.73,0.326,3.666,0.979L91.281,22.886z M100.904,22.418h-3.197v5.503h-1.305v-5.503
		h-3.197v-1.186h7.699V22.418z M109.518,27.921h-7.199v-6.688h6.949v1.186h-5.645v1.436h3.926v1.186h-3.926v1.696h5.895V27.921z
		 M116.607,21.232c0.711,0,1.276,0.193,1.697,0.577c0.42,0.384,0.631,0.899,0.631,1.544c0,0.674-0.22,1.194-0.658,1.561
		c-0.439,0.366-1.068,0.549-1.887,0.549h-3.883v2.458h-1.305v-6.688H116.607z M116.412,24.277c0.79,0,1.186-0.301,1.186-0.902
		c0-0.638-0.421-0.957-1.262-0.957h-3.828v1.859H116.412z M126.352,22.886c-0.87-0.456-1.816-0.685-2.838-0.685
		c-1.486,0-2.23,0.264-2.23,0.793c0,0.312,0.279,0.516,0.838,0.609c0.762,0.065,1.522,0.135,2.283,0.207
		c1.096,0.108,1.875,0.305,2.339,0.587c0.515,0.312,0.772,0.786,0.772,1.425c0,0.718-0.321,1.271-0.963,1.664
		c-0.642,0.391-1.571,0.587-2.789,0.587c-1.719,0-3.092-0.392-4.122-1.175l0.707-0.924c0.921,0.645,2.052,0.968,3.394,0.968
		c0.754,0,1.337-0.097,1.75-0.288c0.414-0.192,0.62-0.447,0.62-0.768c0-0.354-0.254-0.604-0.761-0.75
		c-0.283-0.08-0.722-0.134-1.316-0.162c-0.928-0.045-1.497-0.076-1.707-0.099c-0.826-0.079-1.436-0.257-1.827-0.532
		s-0.587-0.678-0.587-1.207c0-0.639,0.312-1.145,0.94-1.518c0.627-0.373,1.506-0.561,2.638-0.561c1.508,0,2.729,0.326,3.664,0.979
		L126.352,22.886z M140.314,27.921h-1.436l-0.771-1.436h-4.492l-0.771,1.436h-1.436l3.643-6.688h1.621L140.314,27.921z
		 M137.455,25.301l-1.588-2.959l-1.6,2.959H137.455z M149.373,27.921h-1.305v-2.882h-5.166v2.882h-1.305v-6.688h1.305v2.621h5.166
		v-2.621h1.305V27.921z M158.855,27.921h-7.199v-6.688h6.949v1.186h-5.644v1.436h3.926v1.186h-3.926v1.696h5.894V27.921z
		 M168.447,27.921h-1.436l-0.771-1.436h-4.492l-0.771,1.436h-1.436l3.643-6.688h1.621L168.447,27.921z M165.588,25.301L164,22.342
		l-1.599,2.959H165.588z M174.059,21.232c1.175,0,2.117,0.309,2.828,0.925c0.71,0.616,1.065,1.407,1.065,2.37
		c0,0.878-0.374,1.719-1.12,2.523c-0.211,0.232-0.544,0.432-1,0.598c-0.501,0.182-1.02,0.272-1.556,0.272h-4.546v-6.688H174.059z
		 M174.363,26.735c0.639,0,1.162-0.199,1.571-0.598c0.409-0.399,0.614-0.906,0.614-1.522c0-0.66-0.217-1.191-0.652-1.594
		c-0.435-0.402-1.015-0.604-1.74-0.604h-3.121v4.317H174.363z"/>
	<g transform="translate(41 .6)">
		<rect x="18.33" y="1.2" fill="#123E7A" width="6.231" height="15.8"/>
		<path fill="#123E7A" d="M37,5.744V17H30.77L30.751,5.744h-4.708V1.2h4.297h11.387v4.544H37z"/>
		<path fill="#123E7A" d="M49.142,7.406h9.052v3.654h-9.052v1.644h9.453v4.315h-9.453v0.003h-6.231V5.753v-4.55h4.297h11.387v4.55
			h-9.453V7.406z"/>
		<path fill="#123E7A" d="M70.735,5.743V16.99h-6.23L64.486,5.743h-4.709V1.202h4.298h11.387v4.541H70.735z"/>
		<path fill="#123E7A" d="M90.553,11.267l2.637,5.731h-6.23l-2.273-5.49l0.025-0.003h-1.834V17h-6.23V8.816V1.202h13.543
			c1.656,0,3,1.343,3,3v3.303C93.189,9.235,92.09,10.709,90.553,11.267z M82.88,5.238V8.29h3.751c0.552,0,1-0.448,1-1V6.238
			c0-0.552-0.448-1-1-1H82.88z"/>
		<rect x="95.258" y="1.202" fill="#123E7A" width="6.23" height="15.798"/>
		<path fill="#123E7A" d="M109.787,11.07V17h-6.23V1.202h6.23v5.87l4.17-5.87h6.141l-4.148,5.886l4.15,9.91h-6.23l-2.482-5.928
			H109.787z"/>
		<path fill="#123E7A" d="M0.877,10.51V8.246c0-3.866,3.134-7,7-7h8.684v4.453H6.828v1.7h9.733v2.574c0,3.866-3.134,7-7,7H0.877
			v-4.492h9.668V10.51H0.877z"/>
		<path fill="#123E7A" d="M121.189,10.513V8.196c0-3.866,3.134-7,7-7h8.684v4.502h-9.732v1.7h9.732v2.614c0,3.866-3.134,7-7,7
			h-8.684v-4.518h9.668v-1.982H121.189z"/>
	</g>
</g>
</svg>
