<svg xmlns="http://www.w3.org/2000/svg" width="166" height="21" viewBox="0 0 166 21" xmlns:xlink="http://www.w3.org/1999/xlink">
  <defs>
    <path id="b" d="M1,7.5 C1,3.35786438 4.35865295,0 8.50593281,0 L18,0 L18,7.5 C18,11.6421356 14.6413471,15 10.4940672,15 L1,15 L1,7.5 Z"/>
    <filter id="a" width="135.3%" height="140%" x="-11.8%" y="-13.3%" filterUnits="objectBoundingBox">
      <feMorphology radius="1" operator="dilate" in="SourceAlpha" result="shadowSpreadOuter1"/>
      <feOffset dx="1" dy="1" in="shadowSpreadOuter1" result="shadowOffsetOuter1"/>
      <feGaussianBlur stdDeviation=".5" in="shadowOffsetOuter1" result="shadowBlurOuter1"/>
      <feComposite in="shadowBlurOuter1" in2="SourceAlpha" operator="out" result="shadowBlurOuter1"/>
      <feColorMatrix values="0 0 0 0 0 0 0 0 0 0 0 0 0 0 0 0 0 0 0.5 0" in="shadowBlurOuter1"/>
    </filter>
    <filter id="c" width="105.1%" height="138.9%" x="-2.6%" y="-13.9%" filterUnits="objectBoundingBox">
      <feOffset dy="1" in="SourceAlpha" result="shadowOffsetOuter1"/>
      <feGaussianBlur stdDeviation="1" in="shadowOffsetOuter1" result="shadowBlurOuter1"/>
      <feColorMatrix values="0 0 0 0 0 0 0 0 0 0 0 0 0 0 0 0 0 0 0.5 0" in="shadowBlurOuter1" result="shadowMatrixOuter1"/>
      <feMerge>
        <feMergeNode in="shadowMatrixOuter1"/>
        <feMergeNode in="SourceGraphic"/>
      </feMerge>
    </filter>
  </defs>
  <g fill="none" fill-rule="evenodd">
    <g transform="translate(0 2.5)">
      <use fill="black" filter="url(#a)" xlink:href="#b"/>
      <path fill="#123E7A" stroke="#008CFF" d="M0.5,7.5 C0.5,3.08100808 4.08322485,-0.5 8.50593281,-0.5 L18.5,-0.5 L18.5,7.5 C18.5,11.9189919 14.9167752,15.5 10.4940672,15.5 L0.5,15.5 L0.5,7.5 Z"/>
      <path fill="#008CFF" d="M0,9.0053084 C0,5.68866815 2.69303423,3 6,3 L12,3 L12,9.9946916 C12,13.3113318 9.30696577,16 6,16 L0,16 L0,9.0053084 Z"/>
      <path fill="#008CFF" stroke="#123E7A" stroke-width=".5" d="M0.75,9.00109867 C0.75,6.10290536 3.1042145,3.75 6,3.75 L11.25,3.75 L11.25,9.99890133 C11.25,12.8970946 8.8957855,15.25 6,15.25 L0.75,15.25 L0.75,9.00109867 Z"/>
    </g>
    <g fill="#008CFF" filter="url(#c)" transform="translate(27 .6)">
      <rect width="6.231" height="15.8" x=".211" y=".753" transform="translate(18.119 .447)"/>
      <path d="M10.9573202,4.58538794 L10.9573202,15.8409469 L4.72668717,15.8409469 L4.70788377,4.58538794 L5.68434189e-14,4.58538794 L5.68434189e-14,0.0409466641 L4.29698833,0.0409466641 L15.6840074,0.0409466641 L15.6840074,4.58538794 L10.9573202,4.58538794 Z" transform="translate(26.043 1.159)"/>
      <path d="M6.4454825,6.30597002 L15.4969544,6.30597002 L15.4969544,9.95953191 L6.4454825,9.95953191 L6.4454825,11.6035883 L15.8988568,11.6035883 L15.8988568,15.9192153 L6.4454825,15.9192153 L6.4454825,15.9218753 L0.214849417,15.9218753 L0.214849417,4.65251979 L0.214849417,0.102508152 L4.51183775,0.102508152 L15.8988568,0.102508152 L15.8988568,4.65251979 L6.4454825,4.65251979 L6.4454825,6.30597002 Z" transform="translate(42.696 1.1)"/>
      <path d="M10.9573202,4.64323751 L10.9573202,15.8901094 L4.72668717,15.8901094 L4.70857069,4.64323751 L0,4.64323751 L0,0.102303637 L4.29698833,0.102303637 L15.6840074,0.102303637 L15.6840074,4.64323751 L10.9573202,4.64323751 Z" transform="translate(59.778 1.1)"/>
      <path d="M14.1216213,10.1665856 L16.7582545,15.8973767 L10.5276214,15.8973767 L8.25465695,10.4079308 L8.27931656,10.4049444 L6.4454825,10.4049444 L6.4454825,15.9000331 L0.214849417,15.9000331 L0.214849417,7.71590587 L0.214849417,0.102367527 L13.7582545,0.102367527 C15.4151087,0.102367527 16.7582545,1.44551328 16.7582545,3.10236753 L16.7582545,6.40494442 C16.7582545,8.13532604 15.6595027,9.60908044 14.1216213,10.1665856 Z M6.44895904,4.13781598 L6.44895904,7.1902657 L10.1991736,7.1902657 C10.7514584,7.1902657 11.1991736,6.74255045 11.1991736,6.1902657 L11.1991736,5.13781598 C11.1991736,4.58553123 10.7514584,4.13781598 10.1991736,4.13781598 L6.44895904,4.13781598 Z" transform="translate(76.431 1.1)"/>
      <rect width="6.231" height="15.798" x=".215" y=".102" transform="translate(95.043 1.1)"/>
      <path d="M6.4454825,9.96969088 L6.4454825,15.9000331 L0.214849417,15.9000331 L0.214849417,0.102367527 L6.4454825,0.102367527 L6.4454825,5.97227042 L10.6143139,0.102367527 L16.7561793,0.102367527 L12.6076081,5.98785953 L16.7582545,15.8973767 L10.5276214,15.8973767 L8.04478319,9.96969088 L6.4454825,9.96969088 Z" transform="translate(103.342 1.1)"/>
      <path d="M15.9625828,6.6099721 L15.9625828,8.87446787 C15.9625828,12.7404611 12.828576,15.8744679 8.96258277,15.8744679 L0.278575354,15.8744679 L0.278575354,11.4209909 L10.0119804,11.4209909 L10.0119804,9.72099066 L0.278575354,9.72099066 L0.278575354,7.14651678 C0.278575354,3.28052353 3.4125821,0.146516783 7.27857535,0.146516783 L15.9625828,0.146516783 L15.9625828,4.63866691 L6.29435902,4.63866691 L6.29435902,6.6099721 L15.9625828,6.6099721 Z" transform="rotate(180 8.42 8.56)"/>
      <path d="M15.9625828,6.6471065 L15.9625828,8.96364962 C15.9625828,12.8296429 12.828576,15.9636496 8.96258277,15.9636496 L0.278575354,15.9636496 L0.278575354,11.4609928 L10.0119804,11.4609928 L10.0119804,9.76099249 L0.278575354,9.76099249 L0.278575354,7.14733991 C0.278575354,3.28134666 3.4125821,0.147339905 7.27857535,0.147339905 L15.9625828,0.147339905 L15.9625828,4.66472665 L6.29435902,4.66472665 L6.29435902,6.6471065 L15.9625828,6.6471065 Z" transform="rotate(180 68.576 8.58)"/>
    </g>
    <g fill="#FFFFFF" transform="translate(27)">
      <rect width="6.231" height="15.8" x=".211" y=".753" transform="translate(18.119 .447)"/>
      <path d="M10.9573202,4.58538794 L10.9573202,15.8409469 L4.72668717,15.8409469 L4.70788377,4.58538794 L5.68434189e-14,4.58538794 L5.68434189e-14,0.0409466641 L4.29698833,0.0409466641 L15.6840074,0.0409466641 L15.6840074,4.58538794 L10.9573202,4.58538794 Z" transform="translate(26.043 1.159)"/>
      <path d="M6.4454825,6.30597002 L15.4969544,6.30597002 L15.4969544,9.95953191 L6.4454825,9.95953191 L6.4454825,11.6035883 L15.8988568,11.6035883 L15.8988568,15.9192153 L6.4454825,15.9192153 L6.4454825,15.9218753 L0.214849417,15.9218753 L0.214849417,4.65251979 L0.214849417,0.102508152 L4.51183775,0.102508152 L15.8988568,0.102508152 L15.8988568,4.65251979 L6.4454825,4.65251979 L6.4454825,6.30597002 Z" transform="translate(42.696 1.1)"/>
      <path d="M10.9573202,4.64323751 L10.9573202,15.8901094 L4.72668717,15.8901094 L4.70857069,4.64323751 L0,4.64323751 L0,0.102303637 L4.29698833,0.102303637 L15.6840074,0.102303637 L15.6840074,4.64323751 L10.9573202,4.64323751 Z" transform="translate(59.778 1.1)"/>
      <path d="M14.1216213,10.1665856 L16.7582545,15.8973767 L10.5276214,15.8973767 L8.25465695,10.4079308 L8.27931656,10.4049444 L6.4454825,10.4049444 L6.4454825,15.9000331 L0.214849417,15.9000331 L0.214849417,7.71590587 L0.214849417,0.102367527 L13.7582545,0.102367527 C15.4151087,0.102367527 16.7582545,1.44551328 16.7582545,3.10236753 L16.7582545,6.40494442 C16.7582545,8.13532604 15.6595027,9.60908044 14.1216213,10.1665856 Z M6.44895904,4.13781598 L6.44895904,7.1902657 L10.1991736,7.1902657 C10.7514584,7.1902657 11.1991736,6.74255045 11.1991736,6.1902657 L11.1991736,5.13781598 C11.1991736,4.58553123 10.7514584,4.13781598 10.1991736,4.13781598 L6.44895904,4.13781598 Z" transform="translate(76.431 1.1)"/>
      <rect width="6.231" height="15.798" x=".215" y=".102" transform="translate(95.043 1.1)"/>
      <path d="M6.4454825,9.96969088 L6.4454825,15.9000331 L0.214849417,15.9000331 L0.214849417,0.102367527 L6.4454825,0.102367527 L6.4454825,5.97227042 L10.6143139,0.102367527 L16.7561793,0.102367527 L12.6076081,5.98785953 L16.7582545,15.8973767 L10.5276214,15.8973767 L8.04478319,9.96969088 L6.4454825,9.96969088 Z" transform="translate(103.342 1.1)"/>
      <path d="M15.9625828,6.6099721 L15.9625828,8.87446787 C15.9625828,12.7404611 12.828576,15.8744679 8.96258277,15.8744679 L0.278575354,15.8744679 L0.278575354,11.4209909 L10.0119804,11.4209909 L10.0119804,9.72099066 L0.278575354,9.72099066 L0.278575354,7.14651678 C0.278575354,3.28052353 3.4125821,0.146516783 7.27857535,0.146516783 L15.9625828,0.146516783 L15.9625828,4.63866691 L6.29435902,4.63866691 L6.29435902,6.6099721 L15.9625828,6.6099721 Z" transform="rotate(180 8.42 8.56)"/>
      <path d="M15.9625828,6.6471065 L15.9625828,8.96364962 C15.9625828,12.8296429 12.828576,15.9636496 8.96258277,15.9636496 L0.278575354,15.9636496 L0.278575354,11.4609928 L10.0119804,11.4609928 L10.0119804,9.76099249 L0.278575354,9.76099249 L0.278575354,7.14733991 C0.278575354,3.28134666 3.4125821,0.147339905 7.27857535,0.147339905 L15.9625828,0.147339905 L15.9625828,4.66472665 L6.29435902,4.66472665 L6.29435902,6.6471065 L15.9625828,6.6471065 Z" transform="rotate(180 68.576 8.58)"/>
    </g>
  </g>
</svg>
