<svg xmlns="http://www.w3.org/2000/svg" width="78" height="57" viewBox="0 0 78 57" xmlns:xlink="http://www.w3.org/1999/xlink">
  <defs>
    <rect id="a" width="77.014" height="56" x=".488" y=".417"/>
  </defs>
  <g fill="none" fill-rule="evenodd">
    <use fill="#213755" xlink:href="#a"/>
    <use fill="#333333" fill-opacity=".5" xlink:href="#a"/>
    <rect width="75.014" height="54" x="1.488" y="1.417" stroke="#3876CF" stroke-width="2"/>
    <g fill="#FFFFFF" transform="translate(22.938 14.922)">
      <path d="M6.49829937,8.45060797 C7.35204306,8.33374886 8.0097808,7.60153508 8.0097808,6.71569842 L8.0097808,2.46160685 C8.0097808,2.34927155 7.99870514,2.2372099 7.97671453,2.12704805 C7.7919428,1.20143488 6.89179799,0.60086423 5.96618483,0.785635955 L5.96618483,0.785635955 L5.96618483,0.785635955 C5.94406411,0.790051712 5.92207266,0.794768575 5.90021419,0.799781624 C5.90035881,0.779732311 5.90051054,0.759683054 5.90066941,0.739633857 C2.73638233,1.9482942 0.488969404,5.01240473 0.488969404,8.60142668 L0.488969404,8.60142668 L0.488969404,15.9356621 L4.48509155,15.8859031 L4.48509155,10.1429034 L4.48509155,10.1429034 C4.48509155,9.28023143 5.12106231,8.56609842 5.94973569,8.44377249 L5.94972048,8.44180007 C5.95185675,8.44215045 5.95399417,8.44249726 5.95613274,8.44284049 C6.03665995,8.43126322 6.1189918,8.42527193 6.202723,8.42527193 C6.30351165,8.42527193 6.40227274,8.43395291 6.49829937,8.45060797 Z"/>
      <path d="M5.95047171,18.9809478 L5.95031501,19.0012678 C5.97465657,18.9970387 5.99917508,18.9933252 6.02385886,18.9901392 C6.08265065,18.9962223 6.14232275,18.9993399 6.202723,18.9993399 C6.27787991,18.9993399 6.35190939,18.9945128 6.42451834,18.9851518 C7.306906,19.0752802 7.99533557,19.8206713 7.99533557,20.7268539 L7.99533557,20.7268539 L7.99533557,25.3293179 C7.99533557,25.3741699 7.99334755,25.4189998 7.98937735,25.4636758 C7.9151735,26.2986793 7.17811534,26.9154292 6.34311186,26.8412254 L6.34311186,26.8412254 C6.18914377,26.8275428 6.04085843,26.79533 5.90040947,26.7468809 C5.90049389,26.7580974 5.90058053,26.7693139 5.90066941,26.7805304 C2.73638233,25.5718701 0.488969404,22.5077595 0.488969404,18.9187376 L0.488969404,18.9187376 L0.488969404,12.1908764 L4.48509155,12.1551817 L4.48509155,17.2817085 C4.48509155,18.1446358 5.12143892,18.8589362 5.95047171,18.9809478 Z"/>
    </g>
    <path fill="#FFFFFF" d="M54,24.5 L63,24.5 L63,30.5 L54,30.5 L54,24.5 Z M41,27.5 L54,21 L54,34 L41,27.5 Z"/>
  </g>
</svg>
