<svg xmlns="http://www.w3.org/2000/svg" width="19" height="58" viewBox="0 0 19 58">
  <g fill="#FCFCFC" fill-rule="evenodd">
    <path d="M14.6645618,17.1348874 C16.7458998,16.8662303 18.3539078,15.0873248 18.3539078,12.9328488 L18.3539078,12.9328488 L18.3539078,4.51435698 C18.3539078,4.2644616 18.3316021,4.01506497 18.2872562,3.76913582 C17.875682,1.48666573 15.6917275,-0.0299949863 13.4092574,0.381579295 L13.4092574,0.381579295 L13.4092574,0.381579295 C13.3513879,0.392014299 13.2938807,0.403326439 13.2367478,0.415500019 C13.2367482,0.415437441 13.2367485,0.415374863 13.2367489,0.415312285 C12.4485671,0.583608523 11.732545,0.914978258 11.1188969,1.36880038 C4.6046244,4.76332328 0.156679204,11.5783373 0.156679204,19.4322247 L0.156679204,19.4322247 L0.156679204,33.4940112 L9.82562906,33.3852564 L9.82562906,21.2349895 L9.82562906,21.2349895 C9.82562906,19.1476702 11.3644321,17.4197576 13.3694942,17.1237956 L13.3693748,17.1098016 C13.3849619,17.1123361 13.4005741,17.1147927 13.4162109,17.1171709 C13.6010796,17.0920258 13.7898136,17.0790374 13.9815812,17.0790374 L13.9815812,17.0790374 L13.9815812,17.0790374 C14.2142,17.0790374 14.442355,17.0981489 14.6645618,17.1348874 Z"/>
    <path d="M14.4939951,40.158817 C16.6406234,40.3656623 18.3189564,42.1745411 18.3189564,44.3754155 L18.3189564,53.6399541 C18.3189564,53.7388005 18.3149969,53.8376072 18.3070876,53.9361366 C18.1435105,55.9738693 16.3589964,57.4931725 14.3212637,57.3295954 L14.3212637,57.3295954 L14.3212637,57.3295954 C13.6231611,57.2735559 12.9723979,57.0589139 12.4038099,56.7223587 C5.19656476,53.5889678 0.156679204,46.4059227 0.156679204,38.0457492 L0.156679204,38.0457492 L0.156679204,25.3092755 L9.82562906,25.2312598 L9.82562906,36.0341416 C9.82562906,38.1220787 11.3653432,39.8503964 13.3712749,40.1455979 L13.3708071,40.2003968 C13.4377568,40.1887309 13.5052619,40.1786818 13.5732806,40.1702914 C13.7076095,40.1833901 13.8438125,40.1900937 13.9815812,40.1900937 C14.1550741,40.1900937 14.326084,40.1794628 14.4939951,40.158817 Z"/>
  </g>
</svg>
