<svg xmlns="http://www.w3.org/2000/svg" width="10" height="30" viewBox="0 0 10 30">
  <g fill="#3876CF" fill-rule="evenodd">
    <path d="M7.53444502,8.81486392 C8.53062467,8.6812077 9.29884589,7.82786103 9.29884589,6.79508667 L9.29884589,2.16240866 C9.29884589,2.03535047 9.28673632,1.90858147 9.26268144,1.78382112 C9.05359331,0.699388162 8.00498729,-0.010219034 6.92055433,0.19886909 L6.92055433,0.19886909 L6.92055433,0.19886909 C6.89481108,0.203832612 6.86921775,0.209150136 6.84377875,0.214815853 C6.8438925,0.199581934 6.84401004,0.184348047 6.84413137,0.169114191 C3.16169792,1.57577303 0.546292795,5.14166925 0.546292795,9.31842606 L0.546292795,9.31842606 L0.546292795,17.2284557 L5.19689091,17.1725235 L5.19689091,10.7852439 C5.19689091,9.78128345 5.93702254,8.95018999 6.90141705,8.80783229 L6.90138618,8.80396601 C6.90561398,8.80465746 6.90984566,8.80533692 6.91408116,8.80600434 C7.00613234,8.79301849 7.10019798,8.78630262 7.1958322,8.78630262 C7.31124904,8.78630262 7.42438124,8.79608431 7.53444502,8.81486392 Z"/>
    <path d="M6.90227358,20.6508197 L6.90207716,20.6754219 C6.93174976,20.6702616 6.96164859,20.6657604 6.99175801,20.6619339 C7.05885756,20.6687378 7.12693786,20.6722231 7.1958322,20.6722231 L7.1958322,20.6722231 C7.28190267,20.6722231 7.3667026,20.6667833 7.44990695,20.6562287 C8.47875075,20.7592499 9.28203485,21.6276124 9.28203485,22.683592 L9.28203485,22.683592 L9.28203485,27.7221497 C9.28203485,27.7727138 9.27986977,27.8232547 9.27554556,27.8736335 C9.19188337,28.8483322 8.33391235,29.5706601 7.35921363,29.4869979 C7.18006646,29.471621 7.0074852,29.4346308 6.84398886,29.3787 C6.84403577,29.3847395 6.84408327,29.390779 6.84413137,29.3968185 C3.16169792,27.9901597 0.546292795,24.4242635 0.546292795,20.2475067 L0.546292795,20.2475067 L0.546292795,13.01908 L5.19689091,12.9789568 L5.19689091,18.6732818 C5.19689091,19.6775395 5.93746081,20.5088278 6.90227358,20.6508197 Z"/>
  </g>
</svg>
