<?xml version="1.0" encoding="UTF-8"?>
<svg width="17px" height="15px" viewBox="0 0 17 15" version="1.1" xmlns="http://www.w3.org/2000/svg" xmlns:xlink="http://www.w3.org/1999/xlink">
    <!-- Generator: Sketch 52.3 (67297) - http://www.bohemiancoding.com/sketch -->
    <title>Combined Shape</title>
    <desc>Created with Sketch.</desc>
    <g id="Page-1" stroke="none" stroke-width="1" fill="none" fill-rule="evenodd">
        <g id="Group-28" transform="translate(-199.000000, -73.000000)" fill="#303030" fill-rule="nonzero">
            <g id="Group-21" transform="translate(7.000000, 7.000000)">
                <g id="allNews" transform="translate(162.000000, 55.000000)">
                    <g id="Group-7-Copy" transform="translate(19.960854, 11.000000)">
                        <path d="M11,3.90798505e-14 L26.2135231,3.90798505e-14 L26.2135231,14.8076923 L11,14.8076923 L11,3.90798505e-14 Z M12.0391459,9.88461538 L25.3843416,9.88461538 L25.3843416,8.88461538 L12.0391459,8.88461538 L12.0391459,9.88461538 Z M12.0391459,12 L21.5142349,12 L21.5142349,11 L12.0391459,11 L12.0391459,12 Z M22.8391459,11 L22.8391459,14 L25.3391459,14 L25.3391459,11 L22.8391459,11 Z M12.0391459,13.9230769 L21.5142349,13.9230769 L21.5142349,12.9230769 L12.0391459,12.9230769 L12.0391459,13.9230769 Z M12.0391459,1 L12.0391459,8 L16.8434164,8 L16.8434164,1 L12.0391459,1 Z M17.560142,7 L17.9219584,7 L17.9219584,5.51904297 L18.919517,7 L19.3238139,7 L19.3238139,4.83203125 L18.9619975,4.83203125 L18.9619975,6.31298828 L17.9571147,4.83203125 L17.560142,4.83203125 L17.560142,7 Z M19.8658061,7 L21.2896342,7 L21.2896342,6.69238281 L20.3169779,6.69238281 L20.3169779,6.02441406 L21.0581889,6.02441406 L21.0581889,5.734375 L20.3169779,5.734375 L20.3169779,5.12939453 L21.2207865,5.12939453 L21.2207865,4.83203125 L19.8658061,4.83203125 L19.8658061,7 Z M21.9678568,7 L22.3985209,7 L22.7486186,5.51318359 L23.0826029,7 L23.513267,7 L24.0816264,4.83203125 L23.7696147,4.83203125 L23.353599,6.40966797 L22.9991068,4.83203125 L22.622642,4.83203125 L22.2491068,6.41845703 L21.853599,4.83203125 L21.4273295,4.83203125 L21.9678568,7 Z M24.2574076,6.98095703 C24.4878775,7.0297854 24.6900239,7.05419922 24.8638529,7.05419922 C25.1265496,7.05419922 25.3326022,6.99707088 25.482017,6.8828125 C25.6314318,6.76855412 25.7061381,6.61084085 25.7061381,6.40966797 C25.7061381,6.2680657 25.6665877,6.14794971 25.5874858,6.04931641 C25.5083838,5.9506831 25.3643423,5.84277402 25.1553568,5.72558594 L25.0000834,5.63916016 C24.8838719,5.57373014 24.8047711,5.51855491 24.7627787,5.47363281 C24.7207863,5.42871071 24.6997904,5.37646514 24.6997904,5.31689453 C24.6997904,5.24462854 24.7298194,5.18627952 24.7898783,5.1418457 C24.8499372,5.09741189 24.9297704,5.07519531 25.0293803,5.07519531 C25.1582872,5.07519531 25.3335784,5.1166988 25.5552592,5.19970703 L25.5552592,4.85253906 C25.3384612,4.80273413 25.143639,4.77783203 24.9707865,4.77783203 C24.7549651,4.77783203 24.5813829,4.83203071 24.4500346,4.94042969 C24.3186863,5.04882867 24.2530131,5.19238192 24.2530131,5.37109375 C24.2530131,5.50488348 24.2930518,5.62182567 24.3731303,5.72192383 C24.4532088,5.82202198 24.5904145,5.92675727 24.7847514,6.03613281 L24.9297709,6.11669922 C25.046959,6.1831058 25.126548,6.24047827 25.1685404,6.28881836 C25.2105328,6.33715844 25.2315287,6.39648402 25.2315287,6.46679688 C25.2315287,6.55566451 25.1980818,6.6259763 25.1311869,6.67773438 C25.0642921,6.72949245 24.9727402,6.75537109 24.8565287,6.75537109 C24.6905123,6.75537109 24.4908072,6.70654346 24.2574076,6.60888672 L24.2574076,6.98095703 Z M18.5728373,4 L18.9009623,4 L19.1265483,3.42138672 L20.0230326,3.42138672 L20.2486186,4 L20.7115092,4 L19.8677592,1.83203125 L19.4165873,1.83203125 L18.5728373,4 Z M19.2378764,3.1328125 L19.5747904,2.26855469 L19.9117045,3.1328125 L19.2378764,3.1328125 Z M21.0191264,4 L22.447349,4 L22.447349,3.69238281 L21.4702983,3.69238281 L21.4702983,1.83203125 L21.0191264,1.83203125 L21.0191264,4 Z M22.7637553,4 L24.1919779,4 L24.1919779,3.69238281 L23.2149272,3.69238281 L23.2149272,1.83203125 L22.7637553,1.83203125 L22.7637553,4 Z" id="Combined-Shape"></path>
                    </g>
                </g>
            </g>
        </g>
    </g>
</svg>