<?xml version="1.0" encoding="UTF-8"?>
<svg width="17px" height="15px" viewBox="0 0 17 15" version="1.1" xmlns="http://www.w3.org/2000/svg" xmlns:xlink="http://www.w3.org/1999/xlink">
    <!-- Generator: Sketch 52.3 (67297) - http://www.bohemiancoding.com/sketch -->
    <title>Blog icon</title>
    <desc>Created with Sketch.</desc>
    <g id="Page-1" stroke="none" stroke-width="1" fill="none" fill-rule="evenodd">
        <g id="Group-28" transform="translate(-360.000000, -73.000000)" fill="#303030">
            <g id="Group-21" transform="translate(7.000000, 7.000000)">
                <g id="blog" transform="translate(324.000000, 55.000000)">
                    <g id="Blog-icon" transform="translate(29.000000, 11.000000)">
                        <path d="M5.88154236,0.125209501 L10.9356101,0.125209501 C14.0380823,0.125209501 16.5531331,2.6402602 16.5531331,5.74273247 L16.5531331,7.69520487 C16.5531331,9.71935641 14.912234,11.3602554 12.8880825,11.3602554 C12.5504571,11.9046007 12.8672404,13.0563056 13.8384322,14.81537 C11.607235,13.8380051 10.4916365,12.6863003 10.4916365,11.3602554 L5.88154236,11.3602554 C2.77907009,11.3602554 0.264019384,8.84520474 0.264019384,5.74273247 C0.264019384,2.6402602 2.77907009,0.125209501 5.88154236,0.125209501 Z M3.90991174,9.13384962 C4.03091719,9.25590999 4.17667157,9.31693926 4.34717925,9.31693926 C4.51768693,9.31693926 4.6634413,9.25590999 4.78444675,9.13384962 C4.9054522,9.01178925 4.96595402,8.8647642 4.96595402,8.69277004 C4.96595402,8.52077588 4.9054522,8.37513786 4.78444675,8.25585159 C4.6634413,8.13656532 4.51768693,8.07692308 4.34717925,8.07692308 C4.17667157,8.07692308 4.03229223,8.13656532 3.91403691,8.25585159 C3.79578158,8.37513786 3.7366548,8.52077588 3.7366548,8.69277004 C3.7366548,8.8647642 3.79440654,9.01178925 3.90991174,9.13384962 Z M5.77823914,9.13384962 C5.89924459,9.25590999 6.04499897,9.31693926 6.21550665,9.31693926 C6.38601433,9.31693926 6.53176871,9.25590999 6.65277415,9.13384962 C6.7737796,9.01178925 6.83428142,8.8647642 6.83428142,8.69277004 C6.83428142,8.52077588 6.7737796,8.37513786 6.65277415,8.25585159 C6.53176871,8.13656532 6.38601433,8.07692308 6.21550665,8.07692308 C6.04499897,8.07692308 5.90061963,8.13656532 5.78236431,8.25585159 C5.66410898,8.37513786 5.60498221,8.52077588 5.60498221,8.69277004 C5.60498221,8.8647642 5.66273394,9.01178925 5.77823914,9.13384962 Z M7.64656654,9.13384962 C7.76757199,9.25590999 7.91332637,9.31693926 8.08383405,9.31693926 C8.25434173,9.31693926 8.40009611,9.25590999 8.52110156,9.13384962 C8.64210701,9.01178925 8.70260882,8.8647642 8.70260882,8.69277004 C8.70260882,8.52077588 8.64210701,8.37513786 8.52110156,8.25585159 C8.40009611,8.13656532 8.25434173,8.07692308 8.08383405,8.07692308 C7.91332637,8.07692308 7.76894704,8.13656532 7.65069171,8.25585159 C7.53243638,8.37513786 7.47330961,8.52077588 7.47330961,8.69277004 C7.47330961,8.8647642 7.53106134,9.01178925 7.64656654,9.13384962 Z" id="Combined-Shape"></path>
                    </g>
                </g>
            </g>
        </g>
    </g>
</svg>