<?xml version="1.0" encoding="UTF-8"?>
<svg width="14px" height="16px" viewBox="0 0 14 16" version="1.1" xmlns="http://www.w3.org/2000/svg" xmlns:xlink="http://www.w3.org/1999/xlink">
    <!-- Generator: Sketch 52.3 (67297) - http://www.bohemiancoding.com/sketch -->
    <title>Phone Icon</title>
    <desc>Created with Sketch.</desc>
    <g id="Page-1" stroke="none" stroke-width="1" fill="none" fill-rule="evenodd">
        <g id="Group-28" transform="translate(-39.000000, -17.000000)" fill="#303030">
            <g id="Group-21" transform="translate(7.000000, 7.000000)">
                <g id="contact_us">
                    <g id="Phone-Icon" transform="translate(37.870402, 19.640917) rotate(-38.000000) translate(-37.870402, -19.640917) translate(34.370402, 10.140917)">
                        <path d="M5.37578738,5.42313765 C5.30102363,5.41135902 5.22437851,5.40524324 5.14630499,5.40524324 C5.08245678,5.40524324 5.01956389,5.40933342 4.95787403,5.41726604 C4.9488203,5.41596262 4.93978924,5.41458532 4.9307815,5.41313473 L4.93085591,5.42099664 C4.22503721,5.52517342 3.68334829,6.13342757 3.68334829,6.86819994 L3.68334829,9.23771521 L0.279734753,9.23771521 L0.279734753,6.85451472 C0.279734753,4.16604524 1.76034032,1.82338972 3.9506275,0.597472136 C4.21590848,0.344305386 4.55747394,0.166399625 4.94483854,0.103394028 C5.76241533,-0.0295864127 6.53299423,0.525388589 6.66597467,1.34296539 C6.67892293,1.42257255 6.6854287,1.50309446 6.6854287,1.58374778 L6.6854287,3.94258716 C6.6854287,4.7047641 6.1137453,5.33341722 5.37578738,5.42313765 Z" id="Combined-Shape"></path>
                        <path d="M5.26158533,12.6475355 C6.02293484,12.7163311 6.6195079,13.3562604 6.6195079,14.1355268 L6.6195079,16.7531283 C6.6195079,16.7845736 6.61838059,16.8160087 6.61612816,16.8473732 C6.56407815,17.5721533 5.9343329,18.1175088 5.20955278,18.0654588 C4.8805739,18.0418332 4.58078075,17.9176765 4.33991642,17.7239484 C1.9016528,16.5765775 0.213813947,14.0975767 0.213813947,11.22436 L0.213813947,8.91504458 L3.62397739,8.91504458 L3.62397739,11.1917291 C3.62397739,11.9281338 4.16703066,12.5377016 4.87451487,12.6418102 L4.87431163,12.6631079 C4.90087637,12.6584626 4.92769016,12.6545414 4.9547319,12.6513656 C4.99919347,12.6554261 5.04422911,12.6575011 5.08974939,12.6575011 C5.14788049,12.6575011 5.20522121,12.6541172 5.26158533,12.6475355 Z" id="Combined-Shape"></path>
                    </g>
                </g>
            </g>
        </g>
    </g>
</svg>