<?xml version="1.0" encoding="UTF-8"?>
<svg width="16px" height="16px" viewBox="0 0 16 16" version="1.1" xmlns="http://www.w3.org/2000/svg" xmlns:xlink="http://www.w3.org/1999/xlink">
    <!-- Generator: Sketch 52.3 (67297) - http://www.bohemiancoding.com/sketch -->
    <title>{ }</title>
    <desc>Created with Sketch.</desc>
    <g id="Page-1" stroke="none" stroke-width="1" fill="none" fill-rule="evenodd">
        <g id="Group-27" transform="translate(-118.000000, -19.000000)" fill="#B3B3B3">
            <g id="css" transform="translate(89.000000, 8.000000)">
                <path d="M29.5734375,18.3884438 L29.95625,18.3884438 C30.6750036,18.3884438 31.034375,18.0467523 31.034375,17.363359 C31.034375,16.995378 30.9848963,16.6195174 30.8859375,16.2357658 L30.70625,15.5103211 C30.5916661,15.0424596 30.534375,14.5956322 30.534375,14.1698257 C30.534375,13.42335 30.8208305,12.8372176 31.39375,12.411411 C31.9666695,11.9856045 32.7583283,11.7727044 33.76875,11.7727044 L33.76875,13.1368556 C32.9041623,13.1894243 32.471875,13.5258591 32.471875,14.1461699 C32.471875,14.2986191 32.4979164,14.5351748 32.55,14.8558439 L32.6671875,15.5260917 C32.7244795,15.8888158 32.753125,16.2620481 32.753125,16.6457997 C32.753125,17.7234583 32.2401093,18.5619167 31.2140625,19.1612 C32.2401093,19.7709971 32.753125,20.6120839 32.753125,21.6844856 C32.753125,22.0682372 32.7244795,22.4414695 32.6671875,22.8041936 L32.55,23.4744413 C32.4979164,23.7951105 32.471875,24.0316661 32.471875,24.1841154 C32.471875,24.8044262 32.9041623,25.1408609 33.76875,25.1934296 L33.76875,26.5575809 C32.7583283,26.5575809 31.9666695,26.3446808 31.39375,25.9188742 C30.8208305,25.4930677 30.534375,24.9069353 30.534375,24.1604596 C30.534375,23.734653 30.5916661,23.2878257 30.70625,22.8199641 L30.8859375,22.0945195 C30.9848963,21.7107679 31.034375,21.3322788 31.034375,20.959041 C31.034375,20.2809046 30.6750036,19.9418415 29.95625,19.9418415 L29.5734375,19.9418415 L29.5734375,18.3884438 Z M44.971875,18.3884438 L44.971875,19.9418415 L44.5890625,19.9418415 C43.8703089,19.9418415 43.5109375,20.2809046 43.5109375,20.959041 C43.5109375,21.3322788 43.5604162,21.7107679 43.659375,22.0945195 L43.8390625,22.8199641 C43.9536464,23.2878257 44.0109375,23.734653 44.0109375,24.1604596 C44.0109375,24.9069353 43.724482,25.4930677 43.1515625,25.9188742 C42.578643,26.3446808 41.7869842,26.5575809 40.7765625,26.5575809 L40.7765625,25.1934296 C41.6411502,25.1408609 42.0734375,24.8044262 42.0734375,24.1841154 C42.0734375,24.0316661 42.0473961,23.7951105 41.9953125,23.4744413 L41.878125,22.8041936 C41.820833,22.4414695 41.7921875,22.0682372 41.7921875,21.6844856 C41.7921875,20.6120839 42.3052032,19.7709971 43.33125,19.1612 C42.3052032,18.5619167 41.7921875,17.7234583 41.7921875,16.6457997 C41.7921875,16.2620481 41.820833,15.8888158 41.878125,15.5260917 L41.9953125,14.8558439 C42.0473961,14.5351748 42.0734375,14.2986191 42.0734375,14.1461699 C42.0734375,13.5258591 41.6411502,13.1894243 40.7765625,13.1368556 L40.7765625,11.7727044 C41.7869842,11.7727044 42.578643,11.9856045 43.1515625,12.411411 C43.724482,12.8372176 44.0109375,13.42335 44.0109375,14.1698257 C44.0109375,14.5956322 43.9536464,15.0424596 43.8390625,15.5103211 L43.659375,16.2357658 C43.5604162,16.6195174 43.5109375,16.995378 43.5109375,17.363359 C43.5109375,18.0467523 43.8703089,18.3884438 44.5890625,18.3884438 L44.971875,18.3884438 Z" id="{-}"></path>
            </g>
        </g>
    </g>
</svg>