<?xml version="1.0" encoding="UTF-8"?>
<svg width="11px" height="16px" viewBox="0 0 11 16" version="1.1" xmlns="http://www.w3.org/2000/svg" xmlns:xlink="http://www.w3.org/1999/xlink">
    <!-- Generator: Sketch 52.3 (67297) - http://www.bohemiancoding.com/sketch -->
    <title>Dynamic content icon</title>
    <desc>Created with Sketch.</desc>
    <g id="Page-1" stroke="none" stroke-width="1" fill="none" fill-rule="evenodd">
        <g id="Group-27" transform="translate(-365.000000, -73.000000)">
            <g id="dynamic" transform="translate(332.000000, 63.000000)">
                <g id="Dynamic-content-icon">
                    <g transform="translate(33.096085, 10.646780)">
                        <path d="M1.23491172,0.220025848 L9.37726048,0.220025848 C9.92954523,0.220025848 10.3772605,0.667741098 10.3772605,1.22002585 L10.3772605,14.28853 C10.3772605,14.8408147 9.92954523,15.28853 9.37726048,15.28853 L1.23491172,15.28853 C0.682626972,15.28853 0.234911722,14.8408147 0.234911722,14.28853 L0.234911722,1.22002585 C0.234911722,0.667741098 0.682626972,0.220025848 1.23491172,0.220025848 Z M1.30252738,1.29634757 L1.30252738,13.0519496 L9.50855552,13.0519496 L9.50855552,1.29634757 L1.30252738,1.29634757 Z M5.3060861,14.7503691 C5.60090002,14.7503691 5.83989393,14.5094263 5.83989393,14.2122083 C5.83989393,13.9149902 5.60090002,13.6740474 5.3060861,13.6740474 C5.01127218,13.6740474 4.77227827,13.9149902 4.77227827,14.2122083 C4.77227827,14.5094263 5.01127218,14.7503691 5.3060861,14.7503691 Z" id="Combined-Shape" fill="#B3B3B3"></path>
                        <polygon id="Rectangle-44" fill="#B3B3B3" points="4.77227827 2.3726693 8.50893307 2.3726693 8.50893307 6.15324936 4.77227827 6.15324936"></polygon>
                        <polygon id="Rectangle-46" fill="#B3B3B3" points="8.50893307 2.3726693 9.57654873 2.3726693 9.57654873 2.60464688 8.50893307 2.60464688"></polygon>
                        <polygon id="Rectangle-46" fill="#B3B3B3" points="8.50893307 3.71807145 9.57654873 3.71807145 9.57654873 3.95004903 8.50893307 3.95004903"></polygon>
                        <polygon id="Rectangle-46" fill="#B3B3B3" points="8.50893307 5.91976949 9.57654873 5.91976949 9.57654873 6.15174707 8.50893307 6.15174707"></polygon>
                        <polygon id="Rectangle-46" fill="#B3B3B3" points="8.50893307 5.06347361 9.57654873 5.06347361 9.57654873 5.29545119 8.50893307 5.29545119"></polygon>
                        <path d="M4.23847044,9.63784094 L4.23847044,12.8668061 L9.30964482,12.8668061 L9.30964482,9.63784094 L4.23847044,9.63784094 Z M3.97156653,9.36876051 L9.57654873,9.36876051 L9.57654873,13.1358865 L3.97156653,13.1358865 L3.97156653,9.36876051 Z" id="Rectangle-44" fill="#B3B3B3" fill-rule="nonzero"></path>
                        <rect id="Rectangle-44" stroke="#B3B3B3" stroke-width="0.5" x="4.22156653" y="6.9279562" width="5.10498221" height="2.45988474"></rect>
                    </g>
                </g>
            </g>
        </g>
    </g>
</svg>