<?xml version="1.0" encoding="UTF-8"?>
<svg width="15px" height="15px" viewBox="0 0 15 15" version="1.1" xmlns="http://www.w3.org/2000/svg" xmlns:xlink="http://www.w3.org/1999/xlink">
    <!-- Generator: Sketch 52.3 (67297) - http://www.bohemiancoding.com/sketch -->
    <title>Requests</title>
    <desc>Created with Sketch.</desc>
    <g id="Page-1" stroke="none" stroke-width="1" fill="none" fill-rule="evenodd">
        <g id="Group-27" transform="translate(-119.000000, -74.000000)" fill="#B3B3B3">
            <g id="login" transform="translate(89.000000, 63.000000)">
                <g id="Requests-Copy-2" transform="translate(30.000000, 11.111771)">
                    <g id="Requests" transform="translate(0.049743, 0.027321)">
                        <path d="M4.47626548,9.31780025 C4.65745828,9.24208338 4.830082,8.88897238 4.99413664,8.25846727 C5.01555255,8.17616029 5.14842906,8.16842109 5.21622831,8.09196856 C5.28207164,8.01063179 5.1604514,7.37018596 5.1441281,7.10858557 C5.12559995,6.81164965 4.66154099,6.60535203 4.64941704,5.49724158 C4.64700727,5.27699136 4.29284443,5.353314 4.29223485,4.70168261 C4.29201646,4.46823423 4.06391382,3.96193172 4.41482891,3.67143523 C4.6576321,3.47043652 4.19913787,1.962625 4.99413664,0.959528914 C5.24038611,0.648821671 5.74224787,0.136963622 6.9041947,0.00679945449 C7.05662382,-0.0102760338 7.05496093,0.0106676736 7.23757686,0.00679945449 C7.23757686,2.16028008 7.23757686,10.8574614 7.23757686,14.8158791 C5.04179128,14.8158791 2.62926566,14.8158791 0,14.8158791 C0.10619607,12.7993482 0.405092062,11.5837169 0.896687978,11.1689851 C1.32312326,10.7268346 2.51631576,10.1097729 4.47626548,9.31780025 Z" id="Combined-Shape"></path>
                        <path d="M9.88428697,9.30559226 C11.8442367,10.0975649 13.0374292,10.7146266 13.4638645,11.1567771 C13.9554604,11.5715089 14.2543564,12.7871402 14.3605524,14.8036711 C11.4990625,14.8036711 8.97042481,14.8036711 6.77463923,14.8036711 C6.77463923,10.8452534 6.66666667,2.15942453 6.66666667,0.00594389861 C6.83357379,0.00947936973 7.09905973,-0.00904814844 7.24762726,0.00594389861 C8.50070893,0.132393193 9.11738751,0.633107474 9.3664158,0.947320924 C10.1614146,1.950417 9.70292034,3.45822853 9.94572354,3.65922723 C10.2966386,3.94972373 10.068536,4.45602624 10.0683176,4.68947462 C10.067708,5.34110601 9.71354518,5.26478337 9.7111354,5.48503358 C9.69901146,6.59314403 9.2349525,6.79944166 9.21642434,7.09637758 C9.20010105,7.35797797 9.07848081,7.9984238 9.14432413,8.07976057 C9.21212339,8.1562131 9.3449999,8.1639523 9.3664158,8.24625927 C9.53047044,8.87676439 9.70309416,9.22987539 9.88428697,9.30559226 Z" id="Rectangle-41"></path>
                    </g>
                </g>
            </g>
        </g>
    </g>
</svg>