<?xml version="1.0" encoding="UTF-8"?>
<svg width="13px" height="16px" viewBox="0 0 13 16" version="1.1" xmlns="http://www.w3.org/2000/svg" xmlns:xlink="http://www.w3.org/1999/xlink">
    <!-- Generator: Sketch 52.3 (67297) - http://www.bohemiancoding.com/sketch -->
    <title>SEARCH ICON</title>
    <desc>Created with Sketch.</desc>
    <g id="Page-1" stroke="none" stroke-width="1" fill="none" fill-rule="evenodd">
        <g id="Group-28" transform="translate(-39.000000, -72.000000)" fill="#303030">
            <g id="Group-21" transform="translate(7.000000, 7.000000)">
                <g id="search" transform="translate(0.000000, 55.000000)">
                    <g id="SEARCH-ICON" transform="translate(37.639553, 18.645469) rotate(30.000000) translate(-37.639553, -18.645469) translate(32.139553, 9.645469)">
                        <path d="M5.64780467,10.1386548 C2.99718934,10.1386548 0.843534203,8.03205546 0.843534203,5.42711636 C0.843534203,2.82217725 2.99718934,0.715577894 5.64780467,0.715577894 C8.29842,0.715577894 10.4520751,2.82217725 10.4520751,5.42711636 C10.4520751,8.03205546 8.29842,10.1386548 5.64780467,10.1386548 Z M5.64780467,9.33096251 C7.86161907,9.33096251 9.65136338,7.58032279 9.65136338,5.42711636 C9.65136338,3.27390992 7.86161907,1.5232702 5.64780467,1.5232702 C3.43399026,1.5232702 1.64424595,3.27390992 1.64424595,5.42711636 C1.64424595,7.58032279 3.43399026,9.33096251 5.64780467,9.33096251 Z" id="Oval-12" fill-rule="nonzero"></path>
                        <path d="M4.7162083,10.008525 L6.05072787,10.008525 L6.05072787,16.3412652 C6.05072787,16.7097826 5.75198549,17.008525 5.38346809,17.008525 L5.38346809,17.008525 C5.01495068,17.008525 4.7162083,16.7097826 4.7162083,16.3412652 L4.7162083,10.008525 Z" id="Rectangle-51"></path>
                        <path d="M5.11656417,16.335448 C5.11656417,16.4841401 5.23606112,16.6046788 5.38346809,16.6046788 C5.53087505,16.6046788 5.650372,16.4841401 5.650372,16.335448 L5.650372,10.4123711 L5.11656417,10.4123711 L5.11656417,16.335448 Z M6.45108374,9.6046788 L6.45108374,16.335448 C6.45108374,16.9302162 5.97309593,17.4123711 5.38346809,17.4123711 C4.79384024,17.4123711 4.31585243,16.9302162 4.31585243,16.335448 L4.31585243,9.6046788 L6.45108374,9.6046788 Z" id="Rectangle-51" fill-rule="nonzero"></path>
                    </g>
                </g>
            </g>
        </g>
    </g>
</svg>