<?xml version="1.0" encoding="UTF-8"?>
<svg width="13px" height="15px" viewBox="0 0 13 15" version="1.1" xmlns="http://www.w3.org/2000/svg" xmlns:xlink="http://www.w3.org/1999/xlink">
    <!-- Generator: Sketch 52.3 (67297) - http://www.bohemiancoding.com/sketch -->
    <title>lock copy 5</title>
    <desc>Created with Sketch.</desc>
    <g id="Page-1" stroke="none" stroke-width="1" fill="none" fill-rule="evenodd">
        <g id="Group-28" transform="translate(-443.000000, -20.000000)">
            <g id="Group-21" transform="translate(7.000000, 7.000000)">
                <g id="Group-20-Copy" transform="translate(405.000000, 0.000000)">
                    <g id="lock-copy-5" transform="translate(31.494662, 13.461538)">
                        <path d="M4.10479813,1.37254902 C3.58633227,1.37254902 3.16603264,1.7412557 3.16603264,2.19607843 L3.16603264,4.80392157 C3.16603264,5.2587443 3.58633227,5.62745098 4.10479813,5.62745098 L8.17278194,5.62745098 C8.6912478,5.62745098 9.11154743,5.2587443 9.11154743,4.80392157 L9.11154743,2.19607843 C9.11154743,1.7412557 8.6912478,1.37254902 8.17278194,1.37254902 L4.10479813,1.37254902 Z M4.10479813,0 L8.17278194,0 C9.55535758,-2.22798883e-16 10.6761566,0.983217804 10.6761566,2.19607843 L10.6761566,4.80392157 C10.6761566,6.0167822 9.55535758,7 8.17278194,7 L4.10479813,7 C2.72222249,7 1.60142349,6.0167822 1.60142349,4.80392157 L1.60142349,2.19607843 C1.60142349,0.983217804 2.72222249,2.22798883e-16 4.10479813,0 Z" id="Rectangle" fill="#303030" fill-rule="nonzero"></path>
                        <path d="M5.71872518,9.85040063 C5.71093959,9.87159723 5.70451325,9.89352193 5.69956074,9.91608259 L5.38532332,11.3475593 C5.37261794,11.4054373 5.36620936,11.4645197 5.36620936,11.5237759 C5.36620936,11.9776716 5.73416453,12.3456268 6.18806022,12.3456268 C6.24710511,12.3456268 6.30597843,12.3392702 6.36366256,12.326667 C6.80754533,12.2296845 7.08876357,11.7912266 6.99178107,11.3473438 L6.67908807,9.91616767 C6.67235115,9.88533322 6.66285861,9.85568513 6.6509032,9.8274591 C7.2841984,9.65227548 7.74021352,9.16113426 7.74021352,8.58264033 C7.74021352,7.85726426 7.02323181,7.26923077 6.13879004,7.26923077 C5.25434827,7.26923077 4.53736655,7.85726426 4.53736655,8.58264033 C4.53736655,9.18880083 5.03804269,9.69905351 5.71872518,9.85040063 Z M1,5.11538462 L11.2775801,5.11538462 C11.8298648,5.11538462 12.2775801,5.56309987 12.2775801,6.11538462 L12.2775801,13.2692308 C12.2775801,13.8215155 11.8298648,14.2692308 11.2775801,14.2692308 L1,14.2692308 C0.44771525,14.2692308 6.76353751e-17,13.8215155 0,13.2692308 L0,6.11538462 C-6.76353751e-17,5.56309987 0.44771525,5.11538462 1,5.11538462 Z" id="Combined-Shape" fill="#303030" fill-rule="nonzero"></path>
                        <g id="Group-19" transform="translate(4.537367, 7.269231)"></g>
                    </g>
                </g>
            </g>
        </g>
    </g>
</svg>