<?xml version="1.0" encoding="UTF-8"?>
<svg width="75px" height="49px" viewBox="0 0 75 49" version="1.1" xmlns="http://www.w3.org/2000/svg" xmlns:xlink="http://www.w3.org/1999/xlink">
    <!-- Generator: Sketch 52.3 (67297) - http://www.bohemiancoding.com/sketch -->
    <title>Group 25</title>
    <desc>Created with Sketch.</desc>
    <g id="Page-1" stroke="none" stroke-width="1" fill="none" fill-rule="evenodd">
        <g id="Group-25">
            <g id="Group-20-Copy-3">
                <rect id="Rectangle-Copy-55" fill="#515151" fill-rule="nonzero" x="0" y="0" width="75" height="49"></rect>
                <path d="M11.0117188,40.1171875 L11.0117188,39.125 C11.6341177,39.385418 12.1666645,39.515625 12.609375,39.515625 C12.9192724,39.515625 13.1634106,39.4466153 13.3417969,39.3085938 C13.5201832,39.1705722 13.609375,38.9830741 13.609375,38.7460938 C13.609375,38.5585928 13.553386,38.4003913 13.4414062,38.2714844 C13.3294265,38.1425775 13.1171891,37.9895842 12.8046875,37.8125 L12.4179688,37.5976562 C11.899737,37.3059881 11.5338552,37.026694 11.3203125,36.7597656 C11.1067698,36.4928372 11,36.1809914 11,35.8242188 C11,35.3476539 11.1751285,34.9648452 11.5253906,34.6757812 C11.8756528,34.3867173 12.3385388,34.2421875 12.9140625,34.2421875 C13.3750023,34.2421875 13.8945284,34.3085931 14.4726562,34.4414062 L14.4726562,35.3671875 C13.8815075,35.1458322 13.4140642,35.0351562 13.0703125,35.0351562 C12.8046862,35.0351562 12.5917977,35.0944004 12.4316406,35.2128906 C12.2714836,35.3313808 12.1914062,35.4869782 12.1914062,35.6796875 C12.1914062,35.8385425 12.2473953,35.977864 12.359375,36.0976562 C12.4713547,36.2174485 12.6822901,36.3645825 12.9921875,36.5390625 L13.40625,36.7695312 C13.9635445,37.0820328 14.3476552,37.3697904 14.5585938,37.6328125 C14.7695323,37.8958346 14.875,38.2161439 14.875,38.59375 C14.875,39.130211 14.6757832,39.5507797 14.2773438,39.8554688 C13.8789043,40.1601578 13.3294306,40.3125 12.6289062,40.3125 C12.1653623,40.3125 11.6263052,40.2473965 11.0117188,40.1171875 Z M17.7070312,40.265625 C17.0377571,40.265625 16.5058613,40.0631531 16.1113281,39.6582031 C15.7167949,39.2532532 15.5195312,38.7083368 15.5195312,38.0234375 C15.5195312,37.3307257 15.718097,36.7838562 16.1152344,36.3828125 C16.5123718,35.9817688 17.0520799,35.78125 17.734375,35.78125 C18.4192743,35.78125 18.9602845,35.9817688 19.3574219,36.3828125 C19.7545593,36.7838562 19.953125,37.3281216 19.953125,38.015625 C19.953125,38.7187535 19.7539082,39.2695293 19.3554688,39.6679688 C18.9570293,40.0664082 18.4075556,40.265625 17.7070312,40.265625 Z M17.7265625,39.5429688 C18.3906283,39.5429688 18.7226562,39.0338593 18.7226562,38.015625 C18.7226562,37.5494768 18.6347665,37.1809909 18.4589844,36.9101562 C18.2832022,36.6393216 18.0416682,36.5039062 17.734375,36.5039062 C17.429686,36.5039062 17.189454,36.6393216 17.0136719,36.9101562 C16.8378897,37.1809909 16.75,37.552081 16.75,38.0234375 C16.75,38.4895857 16.8372387,38.8593736 17.0117188,39.1328125 C17.1861988,39.4062514 17.4244777,39.5429688 17.7265625,39.5429688 Z M24.1796875,40.0742188 C23.7005184,40.2018236 23.2565125,40.265625 22.8476562,40.265625 C22.162757,40.265625 21.6217468,40.0644551 21.2246094,39.6621094 C20.827472,39.2597636 20.6289062,38.712243 20.6289062,38.0195312 C20.6289062,37.3190069 20.8333313,36.7708353 21.2421875,36.375 C21.6510437,35.9791647 22.2161422,35.78125 22.9375,35.78125 C23.2864601,35.78125 23.6887998,35.837239 24.1445312,35.9492188 L24.1445312,36.7851562 C23.6705705,36.6315096 23.2916681,36.5546875 23.0078125,36.5546875 C22.6614566,36.5546875 22.3828136,36.6874987 22.171875,36.953125 C21.9609364,37.2187513 21.8554688,37.5716124 21.8554688,38.0117188 C21.8554688,38.4622418 21.9693999,38.8229153 22.1972656,39.09375 C22.4251313,39.3645847 22.7291648,39.5 23.109375,39.5 C23.4557309,39.5 23.8124982,39.4244799 24.1796875,39.2734375 L24.1796875,40.0742188 Z M25.2734375,40.1679688 L25.2734375,35.8789062 L26.4296875,35.8789062 L26.4296875,40.1679688 L25.2734375,40.1679688 Z M25.2734375,35.15625 L25.2734375,34.1914062 L26.4296875,34.1914062 L26.4296875,35.15625 L25.2734375,35.15625 Z M29.9765625,39.7070312 C29.5911439,40.0794289 29.1783876,40.265625 28.7382812,40.265625 C28.3632794,40.265625 28.0585949,40.1510428 27.8242188,39.921875 C27.5898426,39.6927072 27.4726562,39.3958352 27.4726562,39.03125 C27.4726562,38.5572893 27.6621075,38.1920586 28.0410156,37.9355469 C28.4199238,37.6790352 28.9622361,37.5507812 29.6679688,37.5507812 L29.9765625,37.5507812 L29.9765625,37.1601562 C29.9765625,36.7148415 29.7226588,36.4921875 29.2148438,36.4921875 C28.7643207,36.4921875 28.3085961,36.6197904 27.8476562,36.875 L27.8476562,36.078125 C28.3710964,35.8802073 28.8893204,35.78125 29.4023438,35.78125 C30.5247452,35.78125 31.0859375,36.2278601 31.0859375,37.1210938 L31.0859375,39.0195312 C31.0859375,39.3554704 31.1940093,39.5234375 31.4101562,39.5234375 C31.4492189,39.5234375 31.4999997,39.5182292 31.5625,39.5078125 L31.5898438,40.15625 C31.3450509,40.229167 31.1289072,40.265625 30.9414062,40.265625 C30.4674455,40.265625 30.1627611,40.0794289 30.0273438,39.7070312 L29.9765625,39.7070312 Z M29.9765625,39.0859375 L29.9765625,38.2148438 L29.703125,38.2148438 C28.9557254,38.2148438 28.5820312,38.4492164 28.5820312,38.9179688 C28.5820312,39.0768237 28.6360672,39.2102859 28.7441406,39.3183594 C28.8522141,39.4264328 28.9856763,39.4804688 29.1445312,39.4804688 C29.4153659,39.4804688 29.6927069,39.3489596 29.9765625,39.0859375 Z M32.578125,40.1679688 L32.578125,34 L33.734375,34 L33.734375,40.1679688 L32.578125,40.1679688 Z M37.4921875,40.1171875 L37.4921875,39.125 C38.1145864,39.385418 38.6471332,39.515625 39.0898438,39.515625 C39.3997411,39.515625 39.6438793,39.4466153 39.8222656,39.3085938 C40.0006519,39.1705722 40.0898438,38.9830741 40.0898438,38.7460938 C40.0898438,38.5585928 40.0338547,38.4003913 39.921875,38.2714844 C39.8098953,38.1425775 39.5976578,37.9895842 39.2851562,37.8125 L38.8984375,37.5976562 C38.3802057,37.3059881 38.014324,37.026694 37.8007812,36.7597656 C37.5872385,36.4928372 37.4804688,36.1809914 37.4804688,35.8242188 C37.4804688,35.3476539 37.6555972,34.9648452 38.0058594,34.6757812 C38.3561215,34.3867173 38.8190075,34.2421875 39.3945312,34.2421875 C39.8554711,34.2421875 40.3749971,34.3085931 40.953125,34.4414062 L40.953125,35.3671875 C40.3619762,35.1458322 39.894533,35.0351562 39.5507812,35.0351562 C39.2851549,35.0351562 39.0722664,35.0944004 38.9121094,35.2128906 C38.7519523,35.3313808 38.671875,35.4869782 38.671875,35.6796875 C38.671875,35.8385425 38.727864,35.977864 38.8398438,36.0976562 C38.9518235,36.2174485 39.1627589,36.3645825 39.4726562,36.5390625 L39.8867188,36.7695312 C40.4440132,37.0820328 40.8281239,37.3697904 41.0390625,37.6328125 C41.2500011,37.8958346 41.3554688,38.2161439 41.3554688,38.59375 C41.3554688,39.130211 41.156252,39.5507797 40.7578125,39.8554688 C40.359373,40.1601578 39.8098993,40.3125 39.109375,40.3125 C38.645831,40.3125 38.1067739,40.2473965 37.4921875,40.1171875 Z M42.3867188,40.1679688 L42.3867188,34 L43.5429688,34 L43.5429688,36.6875 C43.9205748,36.0833303 44.4075491,35.78125 45.0039062,35.78125 C45.3867207,35.78125 45.688801,35.9023425 45.9101562,36.1445312 C46.1315115,36.38672 46.2421875,36.7174458 46.2421875,37.1367188 L46.2421875,40.1679688 L45.0859375,40.1679688 L45.0859375,37.421875 C45.0859375,36.9348934 44.9244808,36.6914062 44.6015625,36.6914062 C44.2343732,36.6914062 43.8815121,36.9505182 43.5429688,37.46875 L43.5429688,40.1679688 L42.3867188,40.1679688 Z M49.7421875,39.7070312 C49.3567689,40.0794289 48.9440126,40.265625 48.5039062,40.265625 C48.1289044,40.265625 47.8242199,40.1510428 47.5898438,39.921875 C47.3554676,39.6927072 47.2382812,39.3958352 47.2382812,39.03125 C47.2382812,38.5572893 47.4277325,38.1920586 47.8066406,37.9355469 C48.1855488,37.6790352 48.7278611,37.5507812 49.4335938,37.5507812 L49.7421875,37.5507812 L49.7421875,37.1601562 C49.7421875,36.7148415 49.4882838,36.4921875 48.9804688,36.4921875 C48.5299457,36.4921875 48.0742211,36.6197904 47.6132812,36.875 L47.6132812,36.078125 C48.1367214,35.8802073 48.6549454,35.78125 49.1679688,35.78125 C50.2903702,35.78125 50.8515625,36.2278601 50.8515625,37.1210938 L50.8515625,39.0195312 C50.8515625,39.3554704 50.9596343,39.5234375 51.1757812,39.5234375 C51.2148439,39.5234375 51.2656247,39.5182292 51.328125,39.5078125 L51.3554688,40.15625 C51.1106759,40.229167 50.8945322,40.265625 50.7070312,40.265625 C50.2330705,40.265625 49.9283861,40.0794289 49.7929688,39.7070312 L49.7421875,39.7070312 Z M49.7421875,39.0859375 L49.7421875,38.2148438 L49.46875,38.2148438 C48.7213504,38.2148438 48.3476562,38.4492164 48.3476562,38.9179688 C48.3476562,39.0768237 48.4016922,39.2102859 48.5097656,39.3183594 C48.6178391,39.4264328 48.7513013,39.4804688 48.9101562,39.4804688 C49.1809909,39.4804688 49.4583319,39.3489596 49.7421875,39.0859375 Z M52.34375,40.1679688 L52.34375,35.8789062 L53.5,35.8789062 L53.5,36.6875 C53.7994807,36.0833303 54.2552053,35.78125 54.8671875,35.78125 C54.9401045,35.78125 55.0117184,35.7890624 55.0820312,35.8046875 L55.0820312,36.8359375 C54.9179679,36.7760414 54.7656257,36.7460938 54.625,36.7460938 C54.1640602,36.7460938 53.7890639,36.9791643 53.5,37.4453125 L53.5,40.1679688 L52.34375,40.1679688 Z M59.4726562,40.0234375 C58.9231743,40.1848966 58.4023462,40.265625 57.9101562,40.265625 C57.1940068,40.265625 56.6289083,40.062502 56.2148438,39.65625 C55.8007792,39.249998 55.59375,38.695316 55.59375,37.9921875 C55.59375,37.3281217 55.7832012,36.7936218 56.1621094,36.3886719 C56.5410175,35.9837219 57.0416636,35.78125 57.6640625,35.78125 C58.2916698,35.78125 58.7499986,35.9791647 59.0390625,36.375 C59.3281264,36.7708353 59.4726562,37.3971311 59.4726562,38.2539062 L56.8125,38.2539062 C56.8906254,39.0716187 57.3398396,39.4804688 58.1601562,39.4804688 C58.548179,39.4804688 58.9856746,39.3906259 59.4726562,39.2109375 L59.4726562,40.0234375 Z M56.796875,37.6015625 L58.3359375,37.6015625 C58.3359375,36.869788 58.1002628,36.5039062 57.6289062,36.5039062 C57.1497372,36.5039062 56.8723962,36.869788 56.796875,37.6015625 Z M60.5546875,40.03125 L60.5546875,39.1835938 C61.127607,39.4231783 61.6171855,39.5429688 62.0234375,39.5429688 C62.4973982,39.5429688 62.734375,39.381512 62.734375,39.0585938 C62.734375,38.8502594 62.5390645,38.6679695 62.1484375,38.5117188 L61.7578125,38.3554688 C61.3333312,38.1835929 61.0299488,37.9986989 60.8476562,37.8007812 C60.6653637,37.6028636 60.5742188,37.3580744 60.5742188,37.0664062 C60.5742188,36.6601542 60.7291651,36.3444022 61.0390625,36.1191406 C61.3489599,35.8938791 61.7825493,35.78125 62.3398438,35.78125 C62.6888038,35.78125 63.1041643,35.8320307 63.5859375,35.9335938 L63.5859375,36.7460938 C63.1223935,36.5846346 62.7382828,36.5039062 62.4335938,36.5039062 C61.9544247,36.5039062 61.7148438,36.6523423 61.7148438,36.9492188 C61.7148438,37.1445322 61.8919253,37.3098952 62.2460938,37.4453125 L62.5820312,37.5742188 C63.0846379,37.7643239 63.4342438,37.9570303 63.6308594,38.1523438 C63.8274749,38.3476572 63.9257812,38.5989568 63.9257812,38.90625 C63.9257812,39.3098979 63.7584652,39.6373685 63.4238281,39.8886719 C63.089191,40.1399752 62.6536485,40.265625 62.1171875,40.265625 C61.6015599,40.265625 61.0807318,40.1875008 60.5546875,40.03125 Z" id="Social-Shares" fill="#FFFFFF"></path>
            </g>
            <g id="Group-22" transform="translate(31.000000, 11.000000)" fill-rule="nonzero">
                <g id="Group-24">
                    <rect id="Rectangle" stroke="#B3B3B3" stroke-width="1.5" x="0.75" y="0.75" width="11.625" height="13.5" rx="4"></rect>
                    <g id="Group-23" transform="translate(4.687500, 0.000000)" fill="#B3B3B3">
                        <polygon id="Triangle" stroke="#515151" transform="translate(7.968750, 4.500000) rotate(90.000000) translate(-7.968750, -4.500000) " points="7.96875 2.15625 12.46875 6.84375 3.46875 6.84375"></polygon>
                        <path d="M6.3125,3.00334027 L6.3125,5.70458935 C6.2400762,5.70154288 6.16714291,5.7000001 6.09375,5.7000001 C3.87474877,5.7000001 2.07589286,7.11030319 2.07589286,8.85000021 C2.07589286,10.5891277 3.8735711,11.9990768 6.09157067,11.9999999 C2.98597054,11.999058 0.46875,9.98470043 0.46875,7.50000016 C0.46875,5.0147187 2.98714828,3 6.09375,3 C6.16700214,3 6.23992724,3.00112017 6.3125,3.00334027 Z M6.3125,11.9966601 C6.240647,11.9988581 6.16844861,11.999978 6.09592939,12 C6.16858678,11.9999698 6.24079312,11.9984275 6.3125,11.9954112 L6.3125,11.9966601 Z" id="Combined-Shape"></path>
                    </g>
                </g>
            </g>
        </g>
    </g>
</svg>