<?xml version="1.0" encoding="UTF-8"?>
<svg width="15px" height="15px" viewBox="0 0 15 15" version="1.1" xmlns="http://www.w3.org/2000/svg" xmlns:xlink="http://www.w3.org/1999/xlink">
    <!-- Generator: Sketch 52.3 (67297) - http://www.bohemiancoding.com/sketch -->
    <title>Group 24</title>
    <desc>Created with Sketch.</desc>
    <g id="Page-1" stroke="none" stroke-width="1" fill="none" fill-rule="evenodd">
        <g id="Group-28" transform="translate(-443.000000, -73.000000)" fill="#303030" fill-rule="nonzero">
            <g id="Group-21" transform="translate(7.000000, 7.000000)">
                <g id="Group-25" transform="translate(405.000000, 55.000000)">
                    <g id="Group-22" transform="translate(31.000000, 11.000000)">
                        <g id="Group-24">
                            <path d="M11.8858237,2.19905995 L10.7015058,1.0621147 L10.7015058,2.05963169 C11.2650109,2.51802571 11.625,3.21697287 11.625,4 L11.625,6.82934235 L13.125,5.38934235 L11.625,6.82934235 Z M11.625,8.21556023 L13.125,6.77556023 L13.125,11 C13.125,13.209139 11.334139,15 9.125,15 L4,15 C1.790861,15 2.705415e-16,13.209139 0,11 L0,4 C-2.705415e-16,1.790861 1.790861,4.05812251e-16 4,0 L9.125,0 C9.32077189,-3.59627122e-17 9.51325889,0.0140642458 9.70150576,0.0412374798 L9.70150576,1.56679832 C9.51643317,1.52311474 9.32341595,1.5 9.125,1.5 L4,1.5 C2.61928813,1.5 1.5,2.61928813 1.5,4 L1.5,11 C1.5,12.3807119 2.61928813,13.5 4,13.5 L9.125,13.5 C10.5057119,13.5 11.625,12.3807119 11.625,11 L11.625,8.21556023 Z" id="Combined-Shape"></path>
                            <g id="Group-23" transform="translate(4.687500, 1.000000)">
                                <path d="M6.01400576,0.0621146995 L9.47951728,3.38900576 L6.01400576,6.71589682 L6.01400576,0.0621146995 Z" id="Combined-Shape"></path>
                                <path d="M6.3125,2.00334027 L6.3125,4.70458935 C6.2400762,4.70154288 6.16714291,4.7000001 6.09375,4.7000001 C3.87474877,4.7000001 2.07589286,6.11030319 2.07589286,7.85000021 C2.07589286,9.58912767 3.8735711,10.9990768 6.09157067,10.9999999 C2.98597054,10.999058 0.46875,8.98470043 0.46875,6.50000016 C0.46875,4.0147187 2.98714828,2 6.09375,2 C6.16700214,2 6.23992724,2.00112017 6.3125,2.00334027 Z M6.3125,10.9966601 C6.240647,10.9988581 6.16844861,10.999978 6.09592939,11 C6.16858678,10.9999698 6.24079312,10.9984275 6.3125,10.9954112 L6.3125,10.9966601 Z" id="Combined-Shape"></path>
                            </g>
                        </g>
                    </g>
                </g>
            </g>
        </g>
    </g>
</svg>