<?xml version="1.0" encoding="UTF-8"?>
<svg width="29px" height="16px" viewBox="0 0 29 16" version="1.1" xmlns="http://www.w3.org/2000/svg" xmlns:xlink="http://www.w3.org/1999/xlink">
    <!-- Generator: Sketch 52.3 (67297) - http://www.bohemiancoding.com/sketch -->
    <title>videos</title>
    <desc>Created with Sketch.</desc>
    <g id="Page-1" stroke="none" stroke-width="1" fill="none" fill-rule="evenodd">
        <g id="Group-27" transform="translate(-517.000000, -18.000000)" fill="#979797">
            <g id="video" transform="translate(494.000000, 8.000000)">
                <g id="videos" transform="translate(23.000000, 10.000000)">
                    <path d="M5.8,2.53412503 C3.73813693,2.53412503 2.06666667,4.22116377 2.06666667,6.30223152 L2.06666667,10.6086389 C2.06666667,12.6897067 3.73813693,14.3767454 5.8,14.3767454 L23.1333333,14.3767454 C25.1951964,14.3767454 26.8666667,12.6897067 26.8666667,10.6086389 L26.8666667,6.30223152 C26.8666667,4.22116377 25.1951964,2.53412503 23.1333333,2.53412503 L5.8,2.53412503 Z M5.8,0.919222253 L23.1333333,0.919222253 C26.078852,0.919222253 28.4666667,3.3292776 28.4666667,6.30223152 L28.4666667,10.6086389 C28.4666667,13.5815929 26.078852,15.9916482 23.1333333,15.9916482 L5.8,15.9916482 C2.85448133,15.9916482 0.466666667,13.5815929 0.466666667,10.6086389 L0.466666667,6.30223152 C0.466666667,3.3292776 2.85448133,0.919222253 5.8,0.919222253 Z" id="Rectangle-30" fill-rule="nonzero"></path>
                    <polygon id="Triangle-3" transform="translate(15.533333, 8.590010) rotate(90.000000) translate(-15.533333, -8.590010) " points="15.5333333 5.25667713 19.1668646 11.9233438 11.8998021 11.9233438"></polygon>
                </g>
            </g>
        </g>
    </g>
</svg>