<svg xmlns="http://www.w3.org/2000/svg" width="80" height="79" viewBox="0 0 80 79" xmlns:xlink="http://www.w3.org/1999/xlink">
  <defs>
    <rect id="a" width="11.58" height="11.915" x="37.173" y="20.629"/>
    <filter id="b" width="108.6%" height="108.4%" x="-4.3%" y="-4.2%" filterUnits="objectBoundingBox">
      <feOffset dx="1" dy="1" in="SourceAlpha" result="shadowOffsetInner1"/>
      <feComposite in="shadowOffsetInner1" in2="SourceAlpha" operator="arithmetic" k2="-1" k3="1" result="shadowInnerInner1"/>
      <feColorMatrix values="0 0 0 0 0.37254902 0 0 0 0 0.71372549 0 0 0 0 0.992156863 0 0 0 1 0" in="shadowInnerInner1"/>
    </filter>
    <rect id="d" width="17.872" height="11.915" x="34.62" y="42.757"/>
    <filter id="c" width="105.6%" height="108.4%" x="-2.8%" y="-4.2%" filterUnits="objectBoundingBox">
      <feOffset dx="1" dy="1" in="SourceAlpha" result="shadowOffsetInner1"/>
      <feComposite in="shadowOffsetInner1" in2="SourceAlpha" operator="arithmetic" k2="-1" k3="1" result="shadowInnerInner1"/>
      <feColorMatrix values="0 0 0 0 0.37254902 0 0 0 0 0.71372549 0 0 0 0 0.992156863 0 0 0 1 0" in="shadowInnerInner1"/>
    </filter>
    <rect id="f" width="17.872" height="11.915" x="34.62" y="34.246"/>
    <filter id="e" width="105.6%" height="108.4%" x="-2.8%" y="-4.2%" filterUnits="objectBoundingBox">
      <feOffset dx="1" dy="1" in="SourceAlpha" result="shadowOffsetInner1"/>
      <feComposite in="shadowOffsetInner1" in2="SourceAlpha" operator="arithmetic" k2="-1" k3="1" result="shadowInnerInner1"/>
      <feColorMatrix values="0 0 0 0 0.37254902 0 0 0 0 0.71372549 0 0 0 0 0.992156863 0 0 0 1 0" in="shadowInnerInner1"/>
    </filter>
  </defs>
  <g fill="none" fill-rule="evenodd" transform="translate(1.62 .86)">
    <ellipse cx="38.629" cy="38.489" fill="#123E7A" stroke="#5FB6FD" stroke-width="3" rx="37.949" ry="37.565"/>
    <path fill="#5FB6FD" d="M27.7051282,13.8205128 L50.0453966,13.8205128 C52.8068203,13.8205128 55.0453966,16.0590891 55.0453966,18.8205128 L55.0453966,56.4798557 C55.0453966,59.2412794 52.8068203,61.4798557 50.0453966,61.4798557 L27.7051282,61.4798557 C24.9437045,61.4798557 22.7051282,59.2412794 22.7051282,56.4798557 L22.7051282,18.8205128 L22.7051282,18.8205128 C22.7051282,16.0590891 24.9437045,13.8205128 27.7051282,13.8205128 L27.7051282,13.8205128 Z M27.109367,17.2247516 C26.5570822,17.2247516 26.109367,17.6724668 26.109367,18.2247516 L26.109367,53.4058985 C26.109367,53.9581833 26.5570822,54.4058985 27.109367,54.4058985 L51.2754118,54.4058985 C51.8276966,54.4058985 52.2754118,53.9581833 52.2754118,53.4058985 L52.2754118,18.2247516 C52.2754118,17.6724668 51.8276966,17.2247516 51.2754118,17.2247516 L27.109367,17.2247516 Z"/>
    <circle cx="38.875" cy="58.076" r="1.302" stroke="#123E7A" stroke-width=".8"/>
    <use fill="#5FB6FD" xlink:href="#a"/>
    <use fill="black" filter="url(#b)" xlink:href="#a"/>
    <rect width="3.779" height="1" x="48.713" y="20.629" fill="#5FB6FD"/>
    <rect width="3.779" height="1" x="48.713" y="24.884" fill="#5FB6FD"/>
    <rect width="3.779" height="1" x="48.713" y="31.693" fill="#5FB6FD"/>
    <rect width="3.779" height="1" x="48.713" y="28.289" fill="#5FB6FD"/>
    <use fill="black" filter="url(#c)" xlink:href="#d"/>
    <g fill="black">
      <use filter="url(#e)" xlink:href="#f"/>
    </g>
  </g>
</svg>
