<svg xmlns="http://www.w3.org/2000/svg" width="80" height="80" viewBox="0 0 80 80" xmlns:xlink="http://www.w3.org/1999/xlink">
  <defs>
    <path id="a" d="M2.83148819,1.09058187 L7.11788826,1.09058187 L7.11788826,5.27480594 L7.11788826,5.27480594 C7.11788826,6.37937544 6.22245776,7.27480594 5.11788826,7.27480594 L0.831488188,7.27480594 L0.831488188,3.09058187 L0.831488188,3.09058187 C0.831488188,1.98601237 1.72691869,1.09058187 2.83148819,1.09058187 Z"/>
    <path id="b" d="M2.83148819,1.09058187 L7.11788826,1.09058187 L7.11788826,5.27480594 L7.11788826,5.27480594 C7.11788826,6.37937544 6.22245776,7.27480594 5.11788826,7.27480594 L0.831488188,7.27480594 L0.831488188,3.09058187 L0.831488188,3.09058187 C0.831488188,1.98601237 1.72691869,1.09058187 2.83148819,1.09058187 Z"/>
    <path id="c" d="M2.83148819,1.09058187 L7.11788826,1.09058187 L7.11788826,5.27480594 L7.11788826,5.27480594 C7.11788826,6.37937544 6.22245776,7.27480594 5.11788826,7.27480594 L0.831488188,7.27480594 L0.831488188,3.09058187 L0.831488188,3.09058187 C0.831488188,1.98601237 1.72691869,1.09058187 2.83148819,1.09058187 Z"/>
  </defs>
  <g fill="none" fill-rule="evenodd" transform="translate(1.62 .86)">
    <ellipse cx="38.629" cy="38.745" fill="#123E7A" stroke="#5FB6FD" stroke-width="3" rx="37.949" ry="38.053"/>
    <g transform="translate(48.366 37.356)">
      <path fill="#5FB6FD" d="M1,0 L13.7106718,0 C14.2629565,-2.06356265e-15 14.7106718,0.44771525 14.7106718,1 L14.7106718,20.9604287 L14.7106718,20.9604287 C14.7106718,21.5127134 14.2629565,21.9604287 13.7106718,21.9604287 L1,21.9604287 L1,21.9604287 C0.44771525,21.9604287 -5.9849844e-16,21.5127134 -6.66133815e-16,20.9604287 L0,1 L0,1 C-6.76353751e-17,0.44771525 0.44771525,1.01453063e-16 1,0 L1,0 Z M1.94849177,1.56860205 C1.72757787,1.56860205 1.54849177,1.74768815 1.54849177,1.96860206 L1.54849177,18.3008971 C1.54849177,18.521811 1.72757787,18.7008971 1.94849177,18.7008971 L13.0506842,18.7008971 C13.2715981,18.7008971 13.4506842,18.521811 13.4506842,18.3008971 L13.4506842,18.3008971 L13.4506842,1.96860206 C13.4506842,1.74768815 13.2715981,1.56860205 13.0506842,1.56860205 L1.94849177,1.56860205 Z"/>
      <ellipse cx="7.355" cy="20.392" stroke="#123E7A" stroke-width=".2" rx="1" ry="1"/>
    </g>
    <g transform="translate(31.59 10)">
      <path fill="#5FB6FD" d="M1,0 L13.7106718,0 C14.2629565,-2.06356265e-15 14.7106718,0.44771525 14.7106718,1 L14.7106718,20.9604287 L14.7106718,20.9604287 C14.7106718,21.5127134 14.2629565,21.9604287 13.7106718,21.9604287 L1,21.9604287 L1,21.9604287 C0.44771525,21.9604287 -5.9849844e-16,21.5127134 -6.66133815e-16,20.9604287 L0,1 L0,1 C-6.76353751e-17,0.44771525 0.44771525,1.01453063e-16 1,0 L1,0 Z M1.94849177,1.56860205 C1.72757787,1.56860205 1.54849177,1.74768815 1.54849177,1.96860206 L1.54849177,18.3008971 C1.54849177,18.521811 1.72757787,18.7008971 1.94849177,18.7008971 L13.0506842,18.7008971 C13.2715981,18.7008971 13.4506842,18.521811 13.4506842,18.3008971 L13.4506842,18.3008971 L13.4506842,1.96860206 C13.4506842,1.74768815 13.2715981,1.56860205 13.0506842,1.56860205 L1.94849177,1.56860205 Z"/>
      <ellipse cx="7.355" cy="20.392" stroke="#123E7A" stroke-width=".2" rx="1" ry="1"/>
    </g>
    <ellipse cx="38.5" cy="39" stroke="#5FB6FD" stroke-dasharray="2.3 5 2.3 4" rx="23.692" ry="24"/>
    <g transform="translate(14.802 37.356)">
      <path fill="#5FB6FD" d="M1,9.23705556e-14 L13.7106718,9.23705556e-14 C14.2629565,9.0306993e-14 14.7106718,0.44771525 14.7106718,1 L14.7106718,20.9604287 L14.7106718,20.9604287 C14.7106718,21.5127134 14.2629565,21.9604287 13.7106718,21.9604287 L1,21.9604287 L1,21.9604287 C0.44771525,21.9604287 -5.9849844e-16,21.5127134 -6.66133815e-16,20.9604287 L0,1 L0,1 C-6.76353751e-17,0.44771525 0.44771525,9.24720087e-14 1,9.23705556e-14 L1,9.23705556e-14 Z M1.94849177,1.56860205 C1.72757787,1.56860205 1.54849177,1.74768815 1.54849177,1.96860206 L1.54849177,18.3008971 C1.54849177,18.521811 1.72757787,18.7008971 1.94849177,18.7008971 L13.0506842,18.7008971 C13.2715981,18.7008971 13.4506842,18.521811 13.4506842,18.3008971 L13.4506842,18.3008971 L13.4506842,1.96860206 C13.4506842,1.74768815 13.2715981,1.56860205 13.0506842,1.56860205 L1.94849177,1.56860205 Z"/>
      <ellipse cx="7.355" cy="20.392" stroke="#123E7A" stroke-width=".2" rx="1" ry="1"/>
    </g>
    <rect width="11.963" height="17.141" x="16.301" y="38.918" fill="#123E7A" rx=".4"/>
    <path fill="#123E7A" d="M50.252814 38.9184584L61.4158403 38.9184584 61.4158403 38.9184584C61.6367542 38.9184584 61.8158403 39.0975445 61.8158403 39.3184584L61.8158403 55.6592577 61.8158403 55.6592577C61.8158403 55.8801716 61.6367542 56.0592577 61.4158403 56.0592577L50.252814 56.0592577 50.252814 56.0592577C50.0319001 56.0592577 49.852814 55.8801716 49.852814 55.6592577L49.852814 39.3184584 49.852814 39.3184584C49.852814 39.0975445 50.0319001 38.9184584 50.252814 38.9184584zM33.4827734 11.5391721L44.6457997 11.5391721 44.6457997 11.5391721C44.8667136 11.5391721 45.0457997 11.7182582 45.0457997 11.9391721L45.0457997 28.2799714 45.0457997 28.2799714C45.0457997 28.5008853 44.8667136 28.6799714 44.6457997 28.6799714L33.4827734 28.6799714 33.4827734 28.6799714C33.2618595 28.6799714 33.0827734 28.5008853 33.0827734 28.2799714L33.0827734 11.9391721 33.0827734 11.9391721C33.0827734 11.7182582 33.2618595 11.5391721 33.4827734 11.5391721z"/>
    <g transform="translate(35.343 16.203)">
      <path stroke="#2473C3" d="M1.0739944,7.03684933 L5.38426114,7.03684933 C6.21268826,7.03684933 6.88426114,6.36527645 6.88426114,5.53684933 L6.88426114,1.33727326 L2.5739944,1.33727326 C1.74556728,1.33727326 1.0739944,2.00884613 1.0739944,2.83727326 L1.0739944,7.03684933 Z"/>
      <use fill="#5FB6FD" xlink:href="#a"/>
      <path stroke="#123E7A" stroke-width=".2" d="M0.931488188,7.17480594 L5.11788826,7.17480594 C6.16722928,7.17480594 7.01788826,6.32414696 7.01788826,5.27480594 L7.01788826,1.19058187 L2.83148819,1.19058187 C1.78214716,1.19058187 0.931488188,2.04124084 0.931488188,3.09058187 L0.931488188,7.17480594 Z"/>
      <rect width="4.073" height="1" x="3.342" y="2.8" fill="#123E7A"/>
      <rect width="4.073" height="1" x=".574" y="4.89" fill="#123E7A"/>
      <polyline fill="#123E7A" points=".703 .746 1.07 .394 3.857 3.072 3.49 3.425"/>
      <polyline fill="#123E7A" points="3.921 5.212 4.267 4.89 6.891 7.335 6.546 7.657"/>
    </g>
    <g transform="translate(18.56 43.203)">
      <path stroke="#2473C3" d="M1.0739944,7.03684933 L5.38426114,7.03684933 C6.21268826,7.03684933 6.88426114,6.36527645 6.88426114,5.53684933 L6.88426114,1.33727326 L2.5739944,1.33727326 C1.74556728,1.33727326 1.0739944,2.00884613 1.0739944,2.83727326 L1.0739944,7.03684933 Z"/>
      <use fill="#5FB6FD" xlink:href="#b"/>
      <path stroke="#123E7A" stroke-width=".2" d="M0.931488188,7.17480594 L5.11788826,7.17480594 C6.16722928,7.17480594 7.01788826,6.32414696 7.01788826,5.27480594 L7.01788826,1.19058187 L2.83148819,1.19058187 C1.78214716,1.19058187 0.931488188,2.04124084 0.931488188,3.09058187 L0.931488188,7.17480594 Z"/>
      <rect width="4.073" height="1" x="3.342" y="2.8" fill="#123E7A"/>
      <rect width="4.073" height="1" x=".574" y="4.89" fill="#123E7A"/>
      <polyline fill="#123E7A" points=".703 .746 1.07 .394 3.857 3.072 3.49 3.425"/>
      <polyline fill="#123E7A" points="3.921 5.212 4.267 4.89 6.891 7.335 6.546 7.657"/>
    </g>
    <g transform="translate(52.125 43.203)">
      <path stroke="#2473C3" d="M1.0739944,7.03684933 L5.38426114,7.03684933 C6.21268826,7.03684933 6.88426114,6.36527645 6.88426114,5.53684933 L6.88426114,1.33727326 L2.5739944,1.33727326 C1.74556728,1.33727326 1.0739944,2.00884613 1.0739944,2.83727326 L1.0739944,7.03684933 Z"/>
      <use fill="#5FB6FD" xlink:href="#c"/>
      <path stroke="#123E7A" stroke-width=".2" d="M0.931488188,7.17480594 L5.11788826,7.17480594 C6.16722928,7.17480594 7.01788826,6.32414696 7.01788826,5.27480594 L7.01788826,1.19058187 L2.83148819,1.19058187 C1.78214716,1.19058187 0.931488188,2.04124084 0.931488188,3.09058187 L0.931488188,7.17480594 Z"/>
      <rect width="4.073" height="1" x="3.342" y="2.8" fill="#123E7A"/>
      <rect width="4.073" height="1" x=".574" y="4.89" fill="#123E7A"/>
      <polyline fill="#123E7A" points=".703 .746 1.07 .394 3.857 3.072 3.49 3.425"/>
      <polyline fill="#123E7A" points="3.921 5.212 4.267 4.89 6.891 7.335 6.546 7.657"/>
    </g>
  </g>
</svg>
