<svg xmlns="http://www.w3.org/2000/svg" width="81" height="80" viewBox="0 0 81 80">
  <g fill="none" fill-rule="evenodd" transform="translate(.959 1.489)">
    <g fill="#5FB6FD" transform="translate(13.771 21.882)">
      <path d="M11.2735055,21.9424801 C11.7260672,21.7676896 12.1572261,20.9525417 12.5669821,19.4970365 C12.6204722,19.3070329 12.9523552,19.2891671 13.1216961,19.1126784 C13.2861517,18.9249145 12.9823832,17.4464614 12.9416128,16.8425634 C12.8953354,16.1570943 11.7362645,15.6808614 11.7059828,13.1228162 C11.6999639,12.6143741 10.8153784,12.790563 10.8138558,11.2862883 C10.8133104,10.7473786 10.2435829,9.57859192 11.1200566,8.90798805 C11.7265014,8.44398758 10.5813293,4.9632425 12.5669821,2.64762036 C13.1820345,1.93036048 14.4355248,0.74874901 17.3376964,0.448268295 C17.7184156,0.408849958 17.7142623,0.457197981 18.1703785,0.448268295 C18.1703785,5.41952431 18.1703785,25.4967493 18.1703785,34.6346572 C12.6860081,34.6346572 6.66029051,34.6346572 0.0932255689,34.6346572 C0.358469396,29.9795462 1.10501602,27.1732918 2.33286544,26.2158939 C3.39796442,25.1952004 6.37817778,23.7707292 11.2735055,21.9424801 Z"/>
      <path d="M25.0483272,21.9424801 C24.5957655,21.7676896 24.1646067,20.9525417 23.7548506,19.4970365 C23.7013605,19.3070329 23.3694775,19.2891671 23.2001366,19.1126784 C23.0356811,18.9249145 23.3394495,17.4464614 23.3802199,16.8425634 C23.4264973,16.1570943 24.5855682,15.6808614 24.61585,13.1228162 C24.6218688,12.6143741 25.5064543,12.790563 25.5079769,11.2862883 C25.5085223,10.7473786 26.0782498,9.57859192 25.2017761,8.90798805 C24.5953314,8.44398758 25.7405034,4.9632425 23.7548506,2.64762036 C23.1328576,1.92226649 21.5925917,0.766380129 18.4627943,0.474475106 C18.0917201,0.439866341 17.4286211,0.482636652 17.0117405,0.474475106 C17.0117405,5.44573112 17.2814214,25.4967493 17.2814214,34.6346572 C22.7657917,34.6346572 29.0815203,34.6346572 36.2286072,34.6346572 C35.9633633,29.9795462 35.2168167,27.1732918 33.9889673,26.2158939 C32.9238683,25.1952004 29.943655,23.7707292 25.0483272,21.9424801 Z"/>
    </g>
    <path fill="#5FB6FD" fill-rule="nonzero" d="M62.4304549,44.0088312 C61.4204069,43.2499794 60.264218,42.5668501 58.9499446,41.9303143 C57.4104258,41.1846865 56.8971772,40.9861424 53.4854792,39.7392799 L53.3031703,39.6726521 L53.159026,39.5426588 C52.4249411,38.8806406 52.0129395,38.0483949 51.7168077,36.9468974 C51.6809114,36.9264064 51.6464422,36.9095195 51.6134579,36.8960532 L50.9914348,36.6421036 L50.9914348,35.2242955 C50.9914348,34.8451575 51.2321602,33.4684393 51.3585713,33.1264966 L51.4208158,32.9904144 C51.64185,32.5895237 52.2118484,31.7259836 52.1073383,31.8956183 C52.1745032,31.7867199 52.2168063,31.6994367 52.2586054,31.5794284 C52.3282101,31.3795883 52.3851856,31.1194721 52.448355,30.7308696 C52.4644036,30.6321427 52.4791727,30.5368666 52.5099485,30.3364622 C52.5470935,30.0962158 52.5721948,29.9449068 52.601914,29.7908993 C52.6998563,29.2833535 52.8399449,28.95462 53.1131738,28.6360622 C53.2056635,28.5282285 53.5566729,28.1830559 53.5671803,28.1737191 C53.5350362,28.2002265 53.5639555,28.0392824 53.5536385,27.7262557 C53.5501461,27.6202939 53.5440201,27.5173505 53.5314777,27.3394517 C53.5072457,26.9957506 53.5019312,26.9036231 53.5019312,26.7453367 C53.5019312,26.7888161 53.4921028,26.7701647 53.4111812,26.6774482 C53.4286795,26.697497 53.2045225,26.4507084 53.1358526,26.3631866 C52.909244,26.074367 52.7799242,25.7868839 52.8325566,25.4354917 C53.0581232,22.8609975 52.7335542,21.1664943 51.8499091,20.1678506 C50.6356,18.7955096 47.5699296,18.1674378 46.2846521,18.3005109 C44.1704121,18.5194119 43.0198459,19.1651441 42.1700733,20.1561291 C41.7694156,20.6233669 41.5047218,21.1840539 41.3482761,21.8501889 C41.1872249,22.5359337 41.1537649,23.1403657 41.1657798,24.2839134 C41.182614,25.8861486 41.1613187,26.108608 40.5716818,26.5597486 C40.4967049,26.6171146 40.473896,26.6738292 40.4753515,26.8395651 C40.476493,26.9695561 40.4975216,27.1182384 40.5470655,27.3654196 C40.6541302,27.8995796 40.6575989,27.9194661 40.657825,28.142836 C40.6582087,28.5219059 40.7015284,28.6271764 40.7855601,28.7054639 C40.8126039,28.730659 40.9876087,28.8691107 41.0121555,28.8898598 C41.3393497,29.1664331 41.544294,29.4964603 41.5498824,29.968539 C41.5610429,30.9113208 41.7301731,31.5243376 42.0353149,32.0555894 C42.0229412,32.0340468 42.5827467,32.8740308 42.6916752,33.1884736 C42.7415132,33.3323405 42.7729847,33.4798053 42.7833113,33.6327645 C42.7927396,33.7724174 42.8089602,33.8956062 42.8876785,34.4497511 C42.8967672,34.5138262 42.8967672,34.5138262 42.90587,34.5786476 C42.9594695,34.9616939 42.9902033,35.2202601 43.005188,35.4508741 C43.0418089,36.0144722 43.0207081,36.2834089 42.6872335,36.662582 C42.5566607,36.7986663 42.4298054,36.8868142 42.274034,36.966965 C41.8049316,38.5190404 41.2851303,39.4210559 40.4777617,39.7328816 C35.7091307,41.5138798 32.7971534,42.9057358 31.8687311,43.7954508 L31.7917373,43.8620571 C30.9538973,44.5153507 30.3017357,46.7585026 30.0070485,50.492217 L47.0143481,50.492217 L63.9859983,50.492217 C63.6628583,47.0434644 62.9414796,44.3927655 62.4304549,44.0088312 Z M40.1174752,38.8000399 C40.5700369,38.6252494 41.0011957,37.8101015 41.4109518,36.3545963 C41.4644419,36.1645927 41.7963249,36.1467269 41.9656658,35.9702382 C42.1301213,35.7824743 41.8263529,34.3040212 41.7855825,33.7001232 C41.7393051,33.0146541 40.5802342,32.5384212 40.5499524,29.980376 C40.5439336,29.4719339 39.6593481,29.6481228 39.6578255,28.1438481 C39.6572801,27.6049384 39.0875526,26.4361517 39.9640263,25.7655479 C40.570471,25.3015474 39.425299,21.8208023 41.4109518,19.5051802 C42.0260042,18.7879203 43.2794944,17.6063088 46.1816661,17.3058281 C46.3218293,17.2913161 50.6398935,17.2913161 52.5988203,19.5051802 C53.751966,20.8083977 54.0637981,22.8399514 53.8287403,25.5227732 C53.7902994,25.7876042 54.5019312,26.1345473 54.5019312,26.7453367 C54.5019312,27.3561262 54.7213912,28.4279575 54.2766185,28.8786242 C53.8412975,29.3197141 53.7028802,29.3632873 53.5837992,29.980376 C53.4687699,30.5764682 53.4034122,31.3328449 53.2029627,31.9083499 C53.0045701,32.4779493 52.7567642,32.6385152 52.2965293,33.4732456 C52.212656,33.7001232 51.9914348,34.9590936 51.9914348,35.2242955 L51.9914348,35.9702382 C52.1948311,36.0532776 52.397293,36.1813969 52.5988203,36.3545963 C52.7771077,37.1103235 53.0854177,38.129691 53.8287403,38.8000399 C56.3737631,39.7301613 60.0598325,40.9769939 63.0311213,43.2093314 C63.8630386,43.8343532 64.7712839,46.9735235 65.0687851,51.492217 L28.9371952,51.492217 C29.2024391,46.837106 29.9489857,44.0308516 31.1768351,43.0734537 C32.2419341,42.0527602 35.2221475,40.628289 40.1174752,38.8000399 Z"/>
    <ellipse cx="39.292" cy="38.682" stroke="#5FB6FD" stroke-width="3" rx="38.441" ry="38.053"/>
  </g>
</svg>
