<svg xmlns="http://www.w3.org/2000/svg" width="109" height="88" viewBox="0 0 109 88">
  <g fill="none" fill-rule="evenodd" transform="translate(-.5 .435)">
    <g>
      <rect width="108.35" height="86.5" x=".5" y=".211" fill="#3876CF"/>
      <path fill="#D8D8D8" d="M52.3296061,55.404745 C51.9775177,53.7483815 51.675206,51.8456218 51.4345621,49.7539985 C49.5740024,50.4634826 48.0718471,51.6101811 47.1801148,53.008906 C46.6052699,52.1072343 46.2840915,51.1008309 46.2840915,50.0393048 C46.2840915,47.4735432 48.1604575,45.2298154 50.9598724,44.0086373 C50.8556778,42.0537145 50.8002547,40.0039787 50.8002547,37.8916129 C50.8002547,24.4020473 53.0604655,13.4665938 55.8485769,13.4665938 C58.6366882,13.4665938 60.896899,24.4020473 60.896899,37.8916129 C60.896899,40.0123614 60.8410351,42.0699819 60.7360386,44.0319066 C63.506138,45.2581809 65.3588684,47.4897542 65.3588684,50.0393048 C65.3588684,51.1008309 65.03769,52.1072343 64.4628451,53.008906 C63.5794188,51.6232096 62.0968883,50.4848664 60.260295,49.7739377 C60.0200254,51.8577153 59.7185169,53.7536464 59.3675476,55.404745 C58.7114014,50.9464142 57.381897,49.6006072 55.8485769,49.6006072 C54.3152567,49.6006072 52.9857523,50.9464142 52.3296061,55.404745 Z" transform="rotate(31 55.821 34.436)"/>
      <path fill="#173B6D" d="M59.4760674,23.581909 C59.9827694,23.6180913 60.516496,23.637421 61.0676726,23.637421 C64.3639951,23.637421 67.0361924,22.9460624 67.0361924,22.0932283 C67.0361924,21.2403943 64.3639951,20.5490357 61.0676726,20.5490357 C60.516496,20.5490357 59.9827694,20.5683654 59.4760674,20.6045476 C61.9997063,20.7847539 63.8529818,21.3829963 63.8529818,22.0932283 C63.8529818,22.8034604 61.9997063,23.4017028 59.4760674,23.581909 Z" transform="rotate(-59 63.256 22.093)"/>
    </g>
    <path fill="#CDCCCD" d="M23.888,70.1785 L25.066,66.3595 L26.6145,66.3595 L27.783,70.1785 L29.1035,66.3595 L30.709,66.3595 L28.391,73 L27.289,73 L25.8355,68.383 L24.3915,73 L23.2895,73 L20.9715,66.3595 L22.577,66.3595 L23.888,70.1785 Z M35.6205,66.3595 L37.1025,66.3595 L37.1025,73 L35.6205,73 L35.6205,70.3875 L32.9795,70.3875 L32.9795,73 L31.4975,73 L31.4975,66.3595 L32.9795,66.3595 L32.9795,69.1335 L35.6205,69.1335 L35.6205,66.3595 Z M43.4675,73 L42.85,71.5655 L40.0665,71.5655 L39.449,73 L37.872,73 L40.741,66.3595 L42.1755,66.3595 L45.0445,73 L43.4675,73 Z M41.463,68.3355 L40.627,70.264 L42.2895,70.264 L41.463,68.3355 Z M48.1415,67.642 L48.1415,73 L46.6595,73 L46.6595,67.642 L44.7785,67.642 L44.7785,66.3595 L50.0225,66.3595 L50.0225,67.642 L48.1415,67.642 Z M50.9725,67.7465 C50.763499,67.607166 50.659,67.4124179 50.659,67.16225 C50.659,66.9120821 50.7334159,66.7141674 50.88225,66.5685 C51.0310841,66.4228326 51.2179155,66.35 51.44275,66.35 C51.6675845,66.35 51.8544159,66.419666 52.00325,66.559 C52.1520841,66.698334 52.2265,66.8788322 52.2265,67.1005 C52.2265,67.3221678 52.156834,67.5406656 52.0175,67.756 L51.324,68.763 L50.545,68.763 L50.9725,67.7465 Z M55.523,67.509 C55.2759988,67.509 55.0812507,67.5675827 54.93875,67.68475 C54.7962493,67.8019173 54.725,67.9570824 54.725,68.15025 C54.725,68.3434176 54.8120825,68.4969994 54.98625,68.611 C55.1604175,68.7250006 55.5625802,68.8595826 56.19275,69.01475 C56.8229198,69.1699174 57.3121649,69.4026651 57.6605,69.713 C58.0088351,70.0233349 58.183,70.4761637 58.183,71.0715 C58.183,71.6668363 57.9597522,72.1497481 57.51325,72.52025 C57.0667478,72.8907519 56.479337,73.076 55.751,73.076 C54.6996614,73.076 53.7528375,72.6865039 52.9105,71.9075 L53.794,70.8245 C54.5096702,71.4515031 55.171497,71.765 55.7795,71.765 C56.0518347,71.765 56.2655826,71.7064173 56.42075,71.58925 C56.5759174,71.4720827 56.6535,71.313751 56.6535,71.11425 C56.6535,70.914749 56.5711675,70.7564173 56.4065,70.63925 C56.2418325,70.5220827 55.9156691,70.4033339 55.428,70.283 C54.6553295,70.0993324 54.0900851,69.8602515 53.73225,69.56575 C53.3744149,69.2712485 53.1955,68.8089198 53.1955,68.17875 C53.1955,67.5485802 53.4219144,67.0625017 53.87475,66.7205 C54.3275856,66.3784983 54.8928299,66.2075 55.5705,66.2075 C56.0138356,66.2075 56.4571645,66.2834992 56.9005,66.4355 C57.3438356,66.5875008 57.730165,66.8028319 58.0595,67.0815 L57.309,68.1645 C56.7326638,67.7274978 56.1373364,67.509 55.523,67.509 Z M66.6,66.3595 L68.082,66.3595 L68.082,73 L66.6,73 L63.4365,68.839 L63.4365,73 L61.9545,73 L61.9545,66.3595 L63.3415,66.3595 L66.6,70.6345 L66.6,66.3595 Z M74.504,66.3595 L74.504,67.68 L71.198,67.68 L71.198,69.048 L74.1715,69.048 L74.1715,70.3115 L71.198,70.3115 L71.198,71.689 L74.6085,71.689 L74.6085,73 L69.716,73 L69.716,66.3595 L74.504,66.3595 Z M79.6625,66.3595 L81.4485,66.3595 L79.3775,69.561 L81.6195,73 L79.8145,73 L78.399,70.815 L76.993,73 L75.207,73 L77.4395,69.599 L75.359,66.3595 L77.1355,66.3595 L78.399,68.326 L79.6625,66.3595 Z M85.3435,67.642 L85.3435,73 L83.8615,73 L83.8615,67.642 L81.9805,67.642 L81.9805,66.3595 L87.2245,66.3595 L87.2245,67.642 L85.3435,67.642 Z"/>
  </g>
</svg>
