<svg xmlns="http://www.w3.org/2000/svg" width="109" height="88" viewBox="0 0 109 88">
  <g fill="none" fill-rule="evenodd" transform="translate(-.507 .073)">
    <rect width="108.35" height="86.5" x=".507" y=".573" fill="#3876CF"/>
    <g transform="translate(38 16)">
      <path fill="#CDCCCD" fill-rule="nonzero" d="M33.5008269,17.9954295 L34.7395602,17.9954295 C34.7905347,17.4832627 34.8166013,16.9642356 34.8166013,16.4394452 C34.8166013,7.39176489 27.0686334,0.0571708533 17.5110306,0.0571708533 C7.95342778,0.0571708533 0.205459846,7.39176489 0.205459846,16.4394452 C0.205459846,16.9642356 0.231526495,17.4832627 0.282500987,17.9954295 L1.52123426,17.9954295 C1.46633981,17.4838359 1.43821892,16.9647493 1.43821892,16.4394452 C1.43821892,8.0362747 8.63426182,1.22415908 17.5110306,1.22415908 C26.3877994,1.22415908 33.5838423,8.0362747 33.5838423,16.4394452 C33.5838423,16.9647493 33.5557214,17.4838359 33.5008269,17.9954295 Z"/>
      <rect width="9.676" height="16.684" x=".205" y="13.507" fill="#173B6D" rx="4.838"/>
      <rect width="2.14" height="10.892" x="6.589" y="16.416" fill="#3871C5" rx="1.07"/>
      <rect width="9.676" height="16.684" x="25.066" y="13.37" fill="#173B6D" rx="4.838"/>
      <rect width="2.14" height="10.892" x="26.509" y="16.416" fill="#3871C5" rx="1.07"/>
      <rect width="4.554" height="2.586" x="14.876" y="33.912" fill="#173B6D" rx="1.293"/>
      <path fill="#CDCCCD" d="M5.69724789,29.3160973 C4.52021597,29.0381139 3.70706475,29.1170107 3.65105815,29.7757046 C3.64283049,29.8724701 3.65105815,30.0168883 3.65105815,30.1149251 C3.65105815,33.1305856 7.63454753,35.9676455 12.4968119,35.9676455 C13.3439676,35.9676455 14.1631767,35.8934341 14.9384608,35.7549212 C15.312982,35.688009 15.4964389,35.5427029 15.5236298,35.3387281 C15.4404025,35.3520297 15.3475473,35.3621015 15.2446517,35.3687747 C14.9402193,35.3885186 14.6311706,35.3986401 14.3183102,35.3986401 C10.02806,35.3986401 6.41271607,33.1029467 5.63129485,30.583481 C5.62642848,30.5677908 5.64657126,29.749892 5.69724789,29.3160973 Z"/>
    </g>
    <path fill="#CDCCCD" d="M30.148,64.509 C29.9009988,64.509 29.7062507,64.5675827 29.56375,64.68475 C29.4212493,64.8019173 29.35,64.9570824 29.35,65.15025 C29.35,65.3434176 29.4370825,65.4969994 29.61125,65.611 C29.7854175,65.7250006 30.1875802,65.8595826 30.81775,66.01475 C31.4479198,66.1699174 31.9371649,66.4026651 32.2855,66.713 C32.6338351,67.0233349 32.808,67.4761637 32.808,68.0715 C32.808,68.6668363 32.5847522,69.1497481 32.13825,69.52025 C31.6917478,69.8907519 31.104337,70.076 30.376,70.076 C29.3246614,70.076 28.3778375,69.6865039 27.5355,68.9075 L28.419,67.8245 C29.1346702,68.4515031 29.796497,68.765 30.4045,68.765 C30.6768347,68.765 30.8905826,68.7064173 31.04575,68.58925 C31.2009174,68.4720827 31.2785,68.313751 31.2785,68.11425 C31.2785,67.914749 31.1961675,67.7564173 31.0315,67.63925 C30.8668325,67.5220827 30.5406691,67.4033339 30.053,67.283 C29.2803295,67.0993324 28.7150851,66.8602515 28.35725,66.56575 C27.9994149,66.2712485 27.8205,65.8089198 27.8205,65.17875 C27.8205,64.5485802 28.0469144,64.0625017 28.49975,63.7205 C28.9525856,63.3784983 29.5178299,63.2075 30.1955,63.2075 C30.6388356,63.2075 31.0821645,63.2834992 31.5255,63.4355 C31.9688356,63.5875008 32.355165,63.8028319 32.6845,64.0815 L31.934,65.1645 C31.3576638,64.7274978 30.7623364,64.509 30.148,64.509 Z M35.829,68.29 C36.0760012,68.5940015 36.4084979,68.746 36.8265,68.746 C37.2445021,68.746 37.5754154,68.5924182 37.81925,68.28525 C38.0630846,67.9780818 38.185,67.5585027 38.185,67.0265 L38.185,63.3595 L39.667,63.3595 L39.667,67.074 C39.667,68.0366715 39.4010027,68.7760808 38.869,69.29225 C38.3369973,69.8084192 37.6561708,70.0665 36.8265,70.0665 C35.9968292,70.0665 35.3144193,69.8068359 34.77925,69.2875 C34.2440807,68.7681641 33.9765,68.0303381 33.9765,67.074 L33.9765,63.3595 L35.4585,63.3595 L35.4585,67.0265 C35.4585,67.5585027 35.5819988,67.9796651 35.829,68.29 Z M43.5525,63.3595 C44.5721718,63.3595 45.3147477,63.5574147 45.78025,63.95325 C46.2457523,64.3490853 46.4785,64.9570792 46.4785,65.77725 C46.4785,66.5974208 46.2394191,67.1974981 45.76125,67.5775 C45.2830809,67.9575019 44.5531716,68.1475 43.5715,68.1475 L42.688,68.1475 L42.688,70 L41.206,70 L41.206,63.3595 L43.5525,63.3595 Z M43.6855,66.865 C44.1795025,66.865 44.5151658,66.765251 44.6925,66.56575 C44.8698342,66.366249 44.9585,66.0749186 44.9585,65.69175 C44.9585,65.3085814 44.8429178,65.0362508 44.61175,64.87475 C44.3805822,64.7132492 44.0211691,64.6325 43.5335,64.6325 L42.688,64.6325 L42.688,66.865 L43.6855,66.865 Z M49.984,63.3595 C51.0036718,63.3595 51.7462477,63.5574147 52.21175,63.95325 C52.6772523,64.3490853 52.91,64.9570792 52.91,65.77725 C52.91,66.5974208 52.6709191,67.1974981 52.19275,67.5775 C51.7145809,67.9575019 50.9846716,68.1475 50.003,68.1475 L49.1195,68.1475 L49.1195,70 L47.6375,70 L47.6375,63.3595 L49.984,63.3595 Z M50.117,66.865 C50.6110025,66.865 50.9466658,66.765251 51.124,66.56575 C51.3013342,66.366249 51.39,66.0749186 51.39,65.69175 C51.39,65.3085814 51.2744178,65.0362508 51.04325,64.87475 C50.8120822,64.7132492 50.4526691,64.6325 49.965,64.6325 L49.1195,64.6325 L49.1195,66.865 L50.117,66.865 Z M59.1515,66.6465 C59.1515,66.0511637 58.9615019,65.5445021 58.5815,65.1265 C58.2014981,64.7084979 57.7344194,64.4995 57.18025,64.4995 C56.6260806,64.4995 56.1590019,64.7084979 55.779,65.1265 C55.3989981,65.5445021 55.209,66.0495804 55.209,66.64175 C55.209,67.2339196 55.3989981,67.7374146 55.779,68.15225 C56.1590019,68.5670854 56.6260806,68.7745 57.18025,68.7745 C57.7344194,68.7745 58.2014981,68.5670854 58.5815,68.15225 C58.9615019,67.7374146 59.1515,67.2355029 59.1515,66.6465 Z M59.655,69.088 C58.9836633,69.7403366 58.1571716,70.0665 57.1755,70.0665 C56.1938284,70.0665 55.3673367,69.7387533 54.696,69.08325 C54.0246633,68.4277467 53.689,67.6123382 53.689,66.637 C53.689,65.6616618 54.0246633,64.8462533 54.696,64.19075 C55.3673367,63.5352467 56.1938284,63.2075 57.1755,63.2075 C58.1571716,63.2075 58.9836633,63.5352467 59.655,64.19075 C60.3263367,64.8462533 60.662,65.6616618 60.662,66.637 C60.662,67.6123382 60.3263367,68.42933 59.655,69.088 Z M67.3025,65.5635 C67.3025,66.6275053 66.8813375,67.3146651 66.039,67.625 L67.7205,70 L65.8965,70 L64.424,67.8815 L63.398,67.8815 L63.398,70 L61.916,70 L61.916,63.3595 L64.4335,63.3595 C65.4658385,63.3595 66.2020811,63.5336649 66.64225,63.882 C67.0824189,64.2303351 67.3025,64.7908295 67.3025,65.5635 Z M64.481,66.599 C64.9876692,66.599 65.3328324,66.5166675 65.5165,66.352 C65.7001676,66.1873325 65.792,65.9260851 65.792,65.56825 C65.792,65.2104149 65.697001,64.9650007 65.507,64.832 C65.3169991,64.6989993 64.9845024,64.6325 64.5095,64.6325 L63.398,64.6325 L63.398,66.599 L64.481,66.599 Z M71.5015,64.642 L71.5015,70 L70.0195,70 L70.0195,64.642 L68.1385,64.642 L68.1385,63.3595 L73.3825,63.3595 L73.3825,64.642 L71.5015,64.642 Z M80.8495,69.43 C80.3174973,69.8606688 79.7015868,70.076 79.00175,70.076 C78.3019132,70.076 77.7271689,69.8970851 77.2775,69.53925 C76.8278311,69.1814149 76.603,68.6921698 76.603,68.0715 C76.603,67.3748298 77.0684953,66.757336 77.9995,66.219 C77.790499,65.9656654 77.6385005,65.7424176 77.5435,65.54925 C77.4484995,65.3560824 77.401,65.129668 77.401,64.87 C77.401,64.331664 77.5957481,63.9200014 77.98525,63.635 C78.3747519,63.3499986 78.8354973,63.2075 79.3675,63.2075 C79.8995027,63.2075 80.3539148,63.3452486 80.73075,63.62075 C81.1075852,63.8962514 81.296,64.2809975 81.296,64.775 C81.296,65.3956698 80.8431712,65.9719973 79.9375,66.504 C80.2921684,66.9473355 80.5581658,67.2671657 80.7355,67.4635 C80.8938341,67.1721652 81.0141663,66.8650016 81.0965,66.542 L82.208,67.34 C82.0623326,67.739002 81.885001,68.1094983 81.676,68.4515 L82.6165,69.3825 L81.676,70.2755 L80.8495,69.43 Z M78.0185,68.119 C78.0185,68.3406678 78.1103324,68.5243326 78.294,68.67 C78.4776676,68.8156674 78.7151652,68.8885 79.0065,68.8885 C79.2978348,68.8885 79.6113317,68.7491681 79.947,68.4705 C79.4846644,67.9828309 79.0856683,67.539502 78.75,67.1405 C78.2623309,67.4445015 78.0185,67.7706649 78.0185,68.119 Z M79.3675,64.3285 C79.228166,64.3285 79.1030839,64.3775828 78.99225,64.47575 C78.8814161,64.5739172 78.826,64.7069158 78.826,64.87475 C78.826,65.0425842 78.9526654,65.2848317 79.206,65.6015 C79.6810024,65.3481654 79.9185,65.1106678 79.9185,64.889 C79.9185,64.7053324 79.8615006,64.5660005 79.7475,64.471 C79.6334994,64.3759995 79.506834,64.3285 79.3675,64.3285 Z M35.14975,76.5635 C35.14975,77.6275053 34.7285875,78.3146651 33.88625,78.625 L35.56775,81 L33.74375,81 L32.27125,78.8815 L31.24525,78.8815 L31.24525,81 L29.76325,81 L29.76325,74.3595 L32.28075,74.3595 C33.3130885,74.3595 34.0493311,74.5336649 34.4895,74.882 C34.9296689,75.2303351 35.14975,75.7908295 35.14975,76.5635 Z M32.32825,77.599 C32.8349192,77.599 33.1800824,77.5166675 33.36375,77.352 C33.5474176,77.1873325 33.63925,76.9260851 33.63925,76.56825 C33.63925,76.2104149 33.544251,75.9650007 33.35425,75.832 C33.1642491,75.6989993 32.8317524,75.6325 32.35675,75.6325 L31.24525,75.6325 L31.24525,77.599 L32.32825,77.599 Z M41.45775,74.3595 L41.45775,75.68 L38.15175,75.68 L38.15175,77.048 L41.12525,77.048 L41.12525,78.3115 L38.15175,78.3115 L38.15175,79.689 L41.56225,79.689 L41.56225,81 L36.66975,81 L36.66975,74.3595 L41.45775,74.3595 Z M49.47575,77.637 C49.47575,78.3273368 49.3000018,78.9479972 48.9485,79.499 C48.5969982,80.0500028 48.1235863,80.4616653 47.52825,80.734 C47.5852503,80.8290005 47.6754994,80.9097497 47.799,80.97625 C47.9225006,81.0427503 48.0507493,81.076 48.18375,81.076 C48.3167507,81.076 48.4465827,81.0554169 48.57325,81.01425 C48.6999173,80.9730831 48.8012496,80.9240003 48.87725,80.867 C49.0419175,80.7339993 49.159083,80.6041673 49.22875,80.4775 L49.99825,81.399 C49.4535806,81.9753362 48.7727541,82.2635 47.95575,82.2635 C47.5757481,82.2635 47.2020852,82.159001 46.83475,81.95 C46.4674148,81.740999 46.1855843,81.4465019 45.98925,81.0665 C45.0075784,81.0665 44.1810867,80.7387533 43.50975,80.08325 C42.8384133,79.4277467 42.50275,78.6123382 42.50275,77.637 C42.50275,76.6616618 42.8384133,75.8462533 43.50975,75.19075 C44.1810867,74.5352467 45.0075784,74.2075 45.98925,74.2075 C46.9709216,74.2075 47.7974133,74.5352467 48.46875,75.19075 C49.1400867,75.8462533 49.47575,76.6616618 49.47575,77.637 Z M47.96525,77.6465 C47.96525,77.0511637 47.7752519,76.5445021 47.39525,76.1265 C47.0152481,75.7084979 46.5481694,75.4995 45.994,75.4995 C45.4398306,75.4995 44.9727519,75.7084979 44.59275,76.1265 C44.2127481,76.5445021 44.02275,77.0495804 44.02275,77.64175 C44.02275,78.2339196 44.2127481,78.7374146 44.59275,79.15225 C44.9727519,79.5670854 45.4398306,79.7745 45.994,79.7745 C46.5481694,79.7745 47.0152481,79.5670854 47.39525,79.15225 C47.7752519,78.7374146 47.96525,78.2355029 47.96525,77.6465 Z M52.49675,79.29 C52.7437512,79.5940015 53.0762479,79.746 53.49425,79.746 C53.9122521,79.746 54.2431654,79.5924182 54.487,79.28525 C54.7308346,78.9780818 54.85275,78.5585027 54.85275,78.0265 L54.85275,74.3595 L56.33475,74.3595 L56.33475,78.074 C56.33475,79.0366715 56.0687527,79.7760808 55.53675,80.29225 C55.0047473,80.8084192 54.3239208,81.0665 53.49425,81.0665 C52.6645792,81.0665 51.9821693,80.8068359 51.447,80.2875 C50.9118307,79.7681641 50.64425,79.0303381 50.64425,78.074 L50.64425,74.3595 L52.12625,74.3595 L52.12625,78.0265 C52.12625,78.5585027 52.2497488,78.9796651 52.49675,79.29 Z M62.66175,74.3595 L62.66175,75.68 L59.35575,75.68 L59.35575,77.048 L62.32925,77.048 L62.32925,78.3115 L59.35575,78.3115 L59.35575,79.689 L62.76625,79.689 L62.76625,81 L57.87375,81 L57.87375,74.3595 L62.66175,74.3595 Z M66.22425,75.509 C65.9772488,75.509 65.7825007,75.5675827 65.64,75.68475 C65.4974993,75.8019173 65.42625,75.9570824 65.42625,76.15025 C65.42625,76.3434176 65.5133325,76.4969994 65.6875,76.611 C65.8616675,76.7250006 66.2638302,76.8595826 66.894,77.01475 C67.5241698,77.1699174 68.0134149,77.4026651 68.36175,77.713 C68.7100851,78.0233349 68.88425,78.4761637 68.88425,79.0715 C68.88425,79.6668363 68.6610022,80.1497481 68.2145,80.52025 C67.7679978,80.8907519 67.180587,81.076 66.45225,81.076 C65.4009114,81.076 64.4540875,80.6865039 63.61175,79.9075 L64.49525,78.8245 C65.2109202,79.4515031 65.872747,79.765 66.48075,79.765 C66.7530847,79.765 66.9668326,79.7064173 67.122,79.58925 C67.2771674,79.4720827 67.35475,79.313751 67.35475,79.11425 C67.35475,78.914749 67.2724175,78.7564173 67.10775,78.63925 C66.9430825,78.5220827 66.6169191,78.4033339 66.12925,78.283 C65.3565795,78.0993324 64.7913351,77.8602515 64.4335,77.56575 C64.0756649,77.2712485 63.89675,76.8089198 63.89675,76.17875 C63.89675,75.5485802 64.1231644,75.0625017 64.576,74.7205 C65.0288356,74.3784983 65.5940799,74.2075 66.27175,74.2075 C66.7150856,74.2075 67.1584145,74.2834992 67.60175,74.4355 C68.0450856,74.5875008 68.431415,74.8028319 68.76075,75.0815 L68.01025,76.1645 C67.4339138,75.7274978 66.8385864,75.509 66.22425,75.509 Z M72.90275,75.642 L72.90275,81 L71.42075,81 L71.42075,75.642 L69.53975,75.642 L69.53975,74.3595 L74.78375,74.3595 L74.78375,75.642 L72.90275,75.642 Z M77.94725,75.509 C77.7002488,75.509 77.5055007,75.5675827 77.363,75.68475 C77.2204993,75.8019173 77.14925,75.9570824 77.14925,76.15025 C77.14925,76.3434176 77.2363325,76.4969994 77.4105,76.611 C77.5846675,76.7250006 77.9868302,76.8595826 78.617,77.01475 C79.2471698,77.1699174 79.7364149,77.4026651 80.08475,77.713 C80.4330851,78.0233349 80.60725,78.4761637 80.60725,79.0715 C80.60725,79.6668363 80.3840022,80.1497481 79.9375,80.52025 C79.4909978,80.8907519 78.903587,81.076 78.17525,81.076 C77.1239114,81.076 76.1770875,80.6865039 75.33475,79.9075 L76.21825,78.8245 C76.9339202,79.4515031 77.595747,79.765 78.20375,79.765 C78.4760847,79.765 78.6898326,79.7064173 78.845,79.58925 C79.0001674,79.4720827 79.07775,79.313751 79.07775,79.11425 C79.07775,78.914749 78.9954175,78.7564173 78.83075,78.63925 C78.6660825,78.5220827 78.3399191,78.4033339 77.85225,78.283 C77.0795795,78.0993324 76.5143351,77.8602515 76.1565,77.56575 C75.7986649,77.2712485 75.61975,76.8089198 75.61975,76.17875 C75.61975,75.5485802 75.8461644,75.0625017 76.299,74.7205 C76.7518356,74.3784983 77.3170799,74.2075 77.99475,74.2075 C78.4380856,74.2075 78.8814145,74.2834992 79.32475,74.4355 C79.7680856,74.5875008 80.154415,74.8028319 80.48375,75.0815 L79.73325,76.1645 C79.1569138,75.7274978 78.5615864,75.509 77.94725,75.509 Z"/>
  </g>
</svg>
