<svg xmlns="http://www.w3.org/2000/svg" width="80" height="80" viewBox="0 0 80 80">
  <g fill="none" fill-rule="evenodd">
    <path fill="#5FB6FD" fill-rule="nonzero" d="M39.75,79.48 C17.9619985,79.48 0.301,61.7706011 0.301,39.927 C0.301,18.0833989 17.9619985,0.374 39.75,0.374 C61.5380015,0.374 79.199,18.0833989 79.199,39.927 C79.199,61.7706011 61.5380015,79.48 39.75,79.48 Z M39.75,76.48 C59.8793065,76.48 76.199,60.115582 76.199,39.927 C76.199,19.738418 59.8793065,3.374 39.75,3.374 C19.6206935,3.374 3.301,19.738418 3.301,39.927 C3.301,60.115582 19.6206935,76.48 39.75,76.48 Z"/>
    <path fill="#5FB6FD" fill-rule="nonzero" d="M36.8940797,35.4507537 C36.8007266,33.1324558 36.9506637,30.271486 37.1133576,27.1671013 C37.5147961,19.5071989 36.303564,13.3673056 41.0589755,13.4663086 C45.8143869,13.5653116 43.9522945,19.8445739 43.550856,27.5044763 C43.3788858,30.7858641 43.2205596,33.8069069 42.8428365,36.1727306 C43.1148994,36.249855 43.3766216,36.3328279 43.6283962,36.4214928 C43.747833,35.1057696 43.8941769,33.7133999 44.0457963,32.2708375 C44.8888743,24.2494862 44.0333131,17.7437475 48.7778337,18.0838087 C53.5223543,18.42387 51.2998935,24.9233114 50.4568155,32.9446628 C50.0856907,36.4756799 49.7448231,39.7188183 49.2063523,42.2117271 C49.3382185,42.6476631 49.4481975,43.0999294 49.539922,43.567078 C53.470876,41.9586921 58.5611564,34.3752002 60.8375747,36.0741531 C63.1949297,37.8335112 61.0959607,42.0474822 56.339894,48.13497 C53.2470452,52.0936359 49.6602676,61.3214951 47.2481703,62.8834056 C45.3260238,65.1410983 42.1353069,66.4217079 36.917133,66.4217079 C25.644394,66.4217079 24.3431606,62.6095928 23.654686,53.3477622 C23.547453,51.9051918 23.5971668,50.0269997 23.7275753,48.2265909 C23.3482784,46.1912037 23.6656849,42.2447251 23.9197716,35.8554629 C24.3958396,23.8842579 23.8718679,21.7808552 27.2439489,21.7808552 C30.6160299,21.7808552 29.2901503,27.9808683 29.2901503,35.6512827 C29.2901503,36.006322 29.293604,36.3546449 29.2997873,36.6962793 C29.5203034,36.5977058 29.7497153,36.5045372 29.9883818,36.4169338 C29.9028447,34.5170231 29.9028447,32.3611264 29.9028447,30.0731956 C29.9028447,22.4027812 28.3719354,16.3346934 33.1260111,16.1846817 C37.8800868,16.0346701 36.3491775,22.4027812 36.3491775,30.0731956 C36.3491775,31.9784905 36.3491775,33.7961332 36.2997791,35.4516254 C36.4948122,35.4495923 36.6928965,35.4492946 36.8940797,35.4507537 Z"/>
    <path fill="#123E7A" d="M2.58,0.257 C3.8266729,0.257 4.78333,0.56199695 5.45,1.172 C6.11667,1.78200305 6.45,2.6303279 6.45,3.717 C6.45,4.8036721 6.12500325,5.6636635 5.475,6.297 C4.82499675,6.9303365 3.83334,7.247 2.5,7.247 L0.11,7.247 L0.11,0.257 L2.58,0.257 Z M2.66,5.867 C3.3733369,5.867 3.92166475,5.6870018 4.305,5.327 C4.68833525,4.9669982 4.88,4.4436701 4.88,3.757 C4.88,3.0703299 4.68833525,2.54200185 4.305,2.172 C3.92166475,1.80199815 3.3333373,1.617 2.54,1.617 L1.67,1.617 L1.67,5.867 L2.66,5.867 Z M10.27,0.257 C11.5166729,0.257 12.47333,0.56199695 13.14,1.172 C13.80667,1.78200305 14.14,2.6303279 14.14,3.717 C14.14,4.8036721 13.8150033,5.6636635 13.165,6.297 C12.5149968,6.9303365 11.52334,7.247 10.19,7.247 L7.8,7.247 L7.8,0.257 L10.27,0.257 Z M10.35,5.867 C11.0633369,5.867 11.6116648,5.6870018 11.995,5.327 C12.3783353,4.9669982 12.57,4.4436701 12.57,3.757 C12.57,3.0703299 12.3783353,2.54200185 11.995,2.172 C11.6116648,1.80199815 11.0233373,1.617 10.23,1.617 L9.36,1.617 L9.36,5.867 L10.35,5.867 Z M16.54,4.557 C16.54,4.9970022 16.6649988,5.35533195 16.915,5.632 C17.1650013,5.90866805 17.4849981,6.047 17.875,6.047 C18.265002,6.047 18.5849988,5.90866805 18.835,5.632 C19.0850013,5.35533195 19.21,4.9970022 19.21,4.557 C19.21,4.1169978 19.0850013,3.7570014 18.835,3.477 C18.5849988,3.1969986 18.265002,3.057 17.875,3.057 C17.4849981,3.057 17.1650013,3.1969986 16.915,3.477 C16.6649988,3.7570014 16.54,4.1169978 16.54,4.557 Z M20.72,4.557 C20.72,5.3370039 20.4500027,5.993664 19.91,6.527 C19.3699973,7.060336 18.6916708,7.327 17.875,7.327 C17.0583293,7.327 16.3800027,7.060336 15.84,6.527 C15.2999973,5.993664 15.03,5.3370039 15.03,4.557 C15.03,3.7769961 15.2999973,3.11866935 15.84,2.582 C16.3800027,2.04533065 17.0583293,1.777 17.875,1.777 C18.6916708,1.777 19.3699973,2.04533065 19.91,2.582 C20.4500027,3.11866935 20.72,3.7769961 20.72,4.557 Z M24.11,1.467 C23.8499987,1.467 23.6450008,1.52866605 23.495,1.652 C23.3449993,1.77533395 23.27,1.93866565 23.27,2.142 C23.27,2.34533435 23.3616658,2.5069994 23.545,2.627 C23.7283343,2.7470006 24.1516634,2.88866585 24.815,3.052 C25.4783367,3.21533415 25.9933315,3.4603317 26.36,3.787 C26.7266685,4.1136683 26.91,4.5903302 26.91,5.217 C26.91,5.8436698 26.6750024,6.35199805 26.205,6.742 C25.7349977,7.13200195 25.1166705,7.327 24.35,7.327 C23.2433278,7.327 22.2466711,6.9170041 21.36,6.097 L22.29,4.957 C23.0433371,5.6170033 23.7399968,5.947 24.38,5.947 C24.6666681,5.947 24.8916659,5.88533395 25.055,5.762 C25.2183342,5.63866605 25.3,5.47200105 25.3,5.262 C25.3,5.05199895 25.2133342,4.88533395 25.04,4.762 C24.8666658,4.63866605 24.5233359,4.5136673 24.01,4.387 C23.1966626,4.1936657 22.6016686,3.94200155 22.225,3.632 C21.8483315,3.32199845 21.66,2.83533665 21.66,2.172 C21.66,1.50866335 21.898331,0.9970018 22.375,0.637 C22.8516691,0.2769982 23.4466631,0.097 24.16,0.097 C24.626669,0.097 25.093331,0.1769992 25.56,0.337 C26.026669,0.4970008 26.4333316,0.7236652 26.78,1.017 L25.99,2.157 C25.3833303,1.6969977 24.7566699,1.467 24.11,1.467 Z" transform="translate(25.25 46.074)"/>
  </g>
</svg>
