<svg xmlns="http://www.w3.org/2000/svg" width="80" height="80" viewBox="0 0 80 80" xmlns:xlink="http://www.w3.org/1999/xlink">
  <defs>
    <path id="a" d="M40.2084484,29.3068534 L56.5351414,29.3068534 L56.5351414,29.3068534 C61.5057041,29.3068534 65.5351414,33.3362906 65.5351414,38.3068534 L65.5351414,45.054781 L65.5351414,45.054781 C65.5351414,49.3203556 62.07721,52.7782869 57.8116354,52.7782869 L57.8116354,52.7782869 C57.1001442,53.9154932 57.767714,56.3215505 59.8143449,59.9964588 C55.112455,57.9546198 52.7615101,55.5485625 52.7615101,52.7782869 L40.2084484,52.7782869 L40.2084484,52.7782869 C35.2378856,52.7782869 31.2084484,48.7488497 31.2084484,43.7782869 L31.2084484,38.3068534 L31.2084484,38.3068534 C31.2084484,33.3362906 35.2378856,29.3068534 40.2084484,29.3068534 Z"/>
    <path id="b" d="M22.7476506,20.8174407 L42.4061956,20.8174407 L42.4061956,20.8174407 C47.3767583,20.8174407 51.4061956,24.8468779 51.4061956,29.8174407 L51.4061956,38.0939095 L51.4061956,38.0939095 C51.4061956,42.7735136 47.612627,46.5670822 42.933023,46.5670822 L42.933023,46.5670822 C42.1524722,47.814669 42.8848384,50.4542655 45.1301215,54.4858715 C39.971852,52.2458454 37.3927172,49.606249 37.3927172,46.5670822 L22.7476506,46.5670822 L22.7476506,46.5670822 C17.7770878,46.5670822 13.7476506,42.5376449 13.7476506,37.5670822 L13.7476506,29.8174407 L13.7476506,29.8174407 C13.7476506,24.8468779 17.7770878,20.8174407 22.7476506,20.8174407 Z"/>
  </defs>
  <g fill="none" fill-rule="evenodd" transform="translate(2 1)">
    <ellipse cx="38.254" cy="38.849" fill="#123E7A" stroke="#5FB6FD" stroke-width="3" rx="37.949" ry="38.053"/>
    <use fill="#5FB6FD" xlink:href="#a"/>
    <path stroke="#123E7A" d="M58.6688344,58.9114413 C57.0944065,55.8110439 56.6405237,53.7074287 57.3877599,52.5130899 L57.5346639,52.2782869 L57.8116354,52.2782869 C61.8010676,52.2782869 65.0351414,49.0442132 65.0351414,45.054781 L65.0351414,38.3068534 C65.0351414,33.612433 61.2295617,29.8068534 56.5351414,29.8068534 L40.2084484,29.8068534 C35.514028,29.8068534 31.7084484,33.612433 31.7084484,38.3068534 L31.7084484,43.7782869 C31.7084484,48.4727073 35.514028,52.2782869 40.2084484,52.2782869 L53.2615101,52.2782869 L53.2615101,52.7782869 C53.2615101,55.0388022 55.0366436,57.0913429 58.6688344,58.9114413 Z"/>
    <g transform="matrix(-1 0 0 1 65.154 0)">
      <use fill="#5FB6FD" xlink:href="#b"/>
      <path stroke="#123E7A" d="M43.9835815,53.4045421 C44.2013014,53.8291266 44.4379246,54.270606 44.6932961,54.7291484 L45.3292826,54.0272488 C44.8580115,53.8225949 44.4094764,53.6150165 43.9835815,53.4045421 Z"/>
    </g>
  </g>
</svg>
