<svg xmlns="http://www.w3.org/2000/svg" width="81" height="80" viewBox="0 0 81 80">
  <g fill="none" fill-rule="evenodd" transform="translate(2.31 1.553)">
    <ellipse cx="38.441" cy="38.296" fill="#123E7A" stroke="#5FB6FD" stroke-width="3" rx="38.441" ry="38.053"/>
    <polygon fill="#5FB6FD" points="48.706 11.887 60.108 29.577 51.807 29.429 51.224 47.268 46.196 47.268 45.778 29.429 37.58 29.577" transform="rotate(-135 48.844 29.577)"/>
    <path fill="#67AAF4" fill-rule="nonzero" d="M37.8155558,28 L23,28 L23,58 L49,58 L49,41.446682 L53.014819,41.446682 L53.014819,27.4197416 L50.1247601,23.9730265 L37.8529264,23.9730265 L37.8155558,28 Z M22,24 L50,24 C51.6568542,24 53,25.3431458 53,27 L53,59 C53,60.6568542 51.6568542,62 50,62 L22,62 C20.3431458,62 19,60.6568542 19,59 L19,27 C19,25.3431458 20.3431458,24 22,24 Z"/>
  </g>
</svg>
