<svg xmlns="http://www.w3.org/2000/svg" width="74" height="56" viewBox="0 0 74 56" xmlns:xlink="http://www.w3.org/1999/xlink">
  <defs>
    <rect id="a" width="74" height="56" rx="8"/>
  </defs>
  <g fill="none" fill-rule="evenodd">
    <use fill="#3871C5" xlink:href="#a"/>
    <rect width="73" height="55" x=".5" y=".5" stroke="#979797" rx="8"/>
    <path fill="#173B6D" stroke="#50BDE2" d="M57.2926775,13.9317872 L47.2304776,44.7500654 L47.2304776,44.7500654 C46.7162291,46.3250939 45.0225356,47.185026 43.4475072,46.6707776 C43.2773654,46.6152261 43.1125363,46.5445601 42.9549919,46.459625 L34.3183645,41.8034586 L32.0364639,45.3251913 L32.0364639,45.3251913 C31.736144,45.788685 31.1169507,45.9209635 30.653457,45.6206435 C30.3689683,45.4363096 30.1972344,45.120402 30.1972344,44.781414 L30.1972344,39.1675186 L50.8366511,15.8552573 L25.0767622,36.46136 L18.5422873,32.8267607 L18.5422873,32.8267607 C17.0943441,32.0213871 16.5734386,30.194713 17.3788121,28.7467698 C17.6726261,28.2185354 18.1191536,27.791374 18.6598879,27.5212545 L53.100179,10.3168849 L53.100179,10.3168849 C54.582386,9.57646035 56.3841848,10.1777938 57.1246094,11.6600008 C57.477142,12.3657126 57.5375226,13.181881 57.2926775,13.9317872 Z"/>
  </g>
</svg>
