<svg xmlns="http://www.w3.org/2000/svg" width="92" height="98" viewBox="0 0 92 98">
  <g fill="none" fill-rule="evenodd">
    <g fill="#D0E1F7" transform="translate(0 28)">
      <path d="M20,28 L27,28 L27,28 C38.045695,28 47,36.954305 47,48 L47,64 C39.1666667,67.9948416 31.3333333,69.9922624 23.5,69.9922624 C15.6666667,69.9922624 7.83333333,67.9948416 0,64 L0,48 L0,48 C-1.3527075e-15,36.954305 8.954305,28 20,28 Z"/>
      <ellipse cx="23.5" cy="13" rx="14.5" ry="13"/>
    </g>
    <g fill="#D6E7FB" transform="translate(31.46 .244)">
      <circle cx="20.28" cy="21.437" r="3.439"/>
      <circle cx="30.107" cy="21.437" r="3.439"/>
      <circle cx="39.934" cy="21.437" r="3.439"/>
      <path fill-rule="nonzero" d="M0.807725615,21.5600498 C0.807725615,9.54292186 14.1099803,0 30.3523024,0 C46.5946245,0 59.8968793,9.54292186 59.8968793,21.5600498 C59.8968793,29.5828606 53.9067551,36.7416361 44.565439,40.4762697 C44.1091662,40.6586863 42.359325,42.3593786 36.4533843,48.3062845 C36.3385977,48.4218561 36.3385977,48.4218561 36.2237686,48.5374206 C30.3179173,54.4803897 28.115523,56.531551 26.8481662,56.7973082 C25.6729067,57.0437532 24.8494828,56.2136896 24.8432772,55.1135301 C24.8404172,54.606499 24.9871712,54.0076825 25.2659613,53.2213737 C25.6433205,52.1570576 25.9681796,51.422639 27.3340966,48.4467556 C27.3830743,48.3400494 27.4275442,48.2430676 27.4700677,48.1502088 C28.4957417,45.9104373 29.0412473,44.6187021 29.3614507,43.5886466 C29.415706,43.4141139 29.4604775,43.2546685 29.4956656,43.1112322 C13.644873,42.7826972 0.807725615,33.3652218 0.807725615,21.5600498 Z M34.3914076,46.7165039 C34.5059218,46.6012563 34.5059218,46.6012563 34.6204342,46.4859607 C34.8344665,46.2704439 35.0541164,46.0491047 35.341011,45.7598822 C35.3607996,45.7399329 35.9009816,45.1953186 36.0567064,45.0383543 C36.6369084,44.453534 37.0537639,44.0339994 37.4569181,43.629468 C38.4956211,42.5872162 39.3089236,41.7802327 40.0189585,41.0901411 C41.9255745,39.2370775 42.9508268,38.3397147 43.6064556,38.077596 C52.0459569,34.7035056 57.3136091,28.4081537 57.3136091,21.5600498 C57.3136091,11.189305 45.3173181,2.58327011 30.3523024,2.58327011 C15.3872868,2.58327011 3.39099573,11.189305 3.39099573,21.5600498 C3.39099573,31.9307946 15.3872868,40.5368295 30.3523024,40.5368295 C31.4303455,40.5368295 32.095611,41.3168751 32.1658119,42.3285416 C32.2044527,42.8853942 32.0823468,43.5381807 31.8282791,44.3554858 C31.4635347,45.5288239 30.8921177,46.8819162 29.8187802,49.2257709 C29.775919,49.3193672 29.7311412,49.4170205 29.6818674,49.5243718 C28.9576831,51.102131 28.5338538,52.0334703 28.2428057,52.7106743 C29.6328263,51.4359054 31.7186597,49.4060498 34.3914076,46.7165039 Z"/>
    </g>
  </g>
</svg>
