<svg xmlns="http://www.w3.org/2000/svg" width="89" height="89" viewBox="0 0 89 89">
  <g fill="none" fill-rule="evenodd">
    <path fill="#D3E4F9" d="M41,47 L48,47 L48,47 C59.045695,47 68,55.954305 68,67 L68,83 C60.1666667,86.9948416 52.3333333,88.9922624 44.5,88.9922624 C36.6666667,88.9922624 28.8333333,86.9948416 21,83 L21,67 L21,67 C21,55.954305 29.954305,47 41,47 Z M61.297441,27.7127141 L61.297441,27.7127141 L62.1684296,27.3682226 L68.4892106,27.3682226 L68.4892106,27.3682226 C79.5349056,27.3682226 88.4892106,36.3225276 88.4892106,47.3682226 L88.4892106,61.4007377 C81.197228,63.5812199 75.1968069,65.3065064 70.4879474,66.5765971 C70.4671898,64.871973 70.4895844,63.6502633 70.3090746,62.4470554 C68.5874137,49.5443777 57.1985442,45.4787807 52.5660003,45.4787807 C51.9987562,45.4787807 51.8582431,45.4392818 52.1444608,45.3602839 L52.144454,45.360259 C59.3617777,43.3682334 63.5977188,35.9025808 61.6056932,28.6852571 C61.5151814,28.3573232 61.4123579,28.0329126 61.297441,27.7127141 Z"/>
    <ellipse cx="44.5" cy="32" fill="#D0E1F7" rx="14.5" ry="13"/>
    <ellipse cx="66.274" cy="13.188" fill="#D0E1F7" rx="13.708" ry="12.29"/>
    <path fill="#D0E1F7" d="M27.297441,27.7127141 L27.297441,27.7127141 L28.1684296,27.3682226 L34.4892106,27.3682226 L34.4892106,27.3682226 C45.5349056,27.3682226 54.4892106,36.3225276 54.4892106,47.3682226 L54.4892106,61.4007377 C47.197228,63.5812199 41.1968069,65.3065064 36.4879474,66.5765971 C36.4671898,64.871973 36.4895844,63.6502633 36.3090746,62.4470554 C34.5874137,49.5443777 23.1985442,45.4787807 18.5660003,45.4787807 C17.9987562,45.4787807 17.8582431,45.4392818 18.1444608,45.3602839 L18.144454,45.360259 C25.3617777,43.3682334 29.5977188,35.9025808 27.6056932,28.6852571 C27.5151814,28.3573232 27.4123579,28.0329126 27.297441,27.7127141 Z" transform="matrix(-1 0 0 1 55.47 0)"/>
    <path fill="#D0E1F7" d="M22.2735411,25.4775273 C29.8440068,25.4775273 35.9810819,19.9753221 35.9810819,13.188008 C35.9810819,6.40069391 29.8440068,0.898488697 22.2735411,0.898488697 C14.7030754,0.898488697 8.56600031,6.40069391 8.56600031,13.188008 C8.56600031,19.9753221 14.7030754,25.4775273 22.2735411,25.4775273 Z" transform="matrix(-1 0 0 1 44.547 0)"/>
  </g>
</svg>
