<svg xmlns="http://www.w3.org/2000/svg" width="109" height="88" viewBox="0 0 109 88">
  <g fill="none" fill-rule="evenodd" transform="translate(-1)">
    <g transform="translate(.493 .073)">
      <rect width="108.35" height="86.5" x=".507" y=".573" fill="#3876CF"/>
      <path fill="#173B6D" d="M62.554709,35.3843341 L62.554709,35.3843341 L62.554709,35.3843341 C67.8316291,35.3843341 72.109418,39.662123 72.109418,44.9390431 L72.109418,50.0213351 C68.924515,51.6455713 65.739612,52.4576893 62.554709,52.4576893 C59.369806,52.4576893 56.184903,51.6455713 53,50.0213351 L53,44.9390431 L53,44.9390431 C53,39.662123 57.2777889,35.3843341 62.554709,35.3843341 Z"/>
      <ellipse cx="62.555" cy="29.286" fill="#173B6D" rx="5.895" ry="5.286"/>
      <path fill="#D8D8D8" d="M47.554709,35.3843341 L47.554709,35.3843341 L47.554709,35.3843341 C52.8316291,35.3843341 57.109418,39.662123 57.109418,44.9390431 L57.109418,50.0213351 C53.924515,51.6455713 50.739612,52.4576893 47.554709,52.4576893 C44.369806,52.4576893 41.184903,51.6455713 38,50.0213351 L38,44.9390431 L38,44.9390431 C38,39.662123 42.2777889,35.3843341 47.554709,35.3843341 Z"/>
      <ellipse cx="47.555" cy="29.286" fill="#D8D8D8" rx="5.895" ry="5.286"/>
    </g>
    <path fill="#CDCCCD" d="M28.7954145,68.6723141 C29.5237514,68.6723141 30.1190788,68.3841503 30.5814145,67.8078141 L31.5314145,68.7863141 C30.777744,69.634985 29.8895029,70.0593141 28.8666645,70.0593141 C27.843826,70.0593141 27.0015011,69.7363173 26.3396645,69.0903141 C25.6778278,68.4443109 25.3469145,67.6289024 25.3469145,66.6440641 C25.3469145,65.6592258 25.6841611,64.8374841 26.3586645,64.1788141 C27.0331678,63.5201441 27.8580763,63.1908141 28.8334145,63.1908141 C29.9227532,63.1908141 30.8347441,63.6056433 31.5694145,64.4353141 L30.6479145,65.4803141 C30.1792455,64.8976445 29.5965846,64.6063141 28.8999145,64.6063141 C28.3425783,64.6063141 27.8659998,64.7883956 27.4701645,65.1525641 C27.0743291,65.5167326 26.8764145,66.007561 26.8764145,66.6250641 C26.8764145,67.2425672 27.0632459,67.7381456 27.4369145,68.1118141 C27.810583,68.4854826 28.2634118,68.6723141 28.7954145,68.6723141 Z M37.6399145,66.6298141 C37.6399145,66.0344778 37.4499164,65.5278162 37.0699145,65.1098141 C36.6899126,64.691812 36.2228339,64.4828141 35.6686645,64.4828141 C35.114495,64.4828141 34.6474164,64.691812 34.2674145,65.1098141 C33.8874126,65.5278162 33.6974145,66.0328945 33.6974145,66.6250641 C33.6974145,67.2172337 33.8874126,67.7207287 34.2674145,68.1355641 C34.6474164,68.5503995 35.114495,68.7578141 35.6686645,68.7578141 C36.2228339,68.7578141 36.6899126,68.5503995 37.0699145,68.1355641 C37.4499164,67.7207287 37.6399145,67.218817 37.6399145,66.6298141 Z M38.1434145,69.0713141 C37.4720778,69.7236507 36.645586,70.0498141 35.6639145,70.0498141 C34.6822429,70.0498141 33.8557512,69.7220674 33.1844145,69.0665641 C32.5130778,68.4110608 32.1774145,67.5956523 32.1774145,66.6203141 C32.1774145,65.6449759 32.5130778,64.8295674 33.1844145,64.1740641 C33.8557512,63.5185608 34.6822429,63.1908141 35.6639145,63.1908141 C36.645586,63.1908141 37.4720778,63.5185608 38.1434145,64.1740641 C38.8147512,64.8295674 39.1504145,65.6449759 39.1504145,66.6203141 C39.1504145,67.5956523 38.8147512,68.4126441 38.1434145,69.0713141 Z M46.3514145,65.8033141 L44.5559145,69.4323141 L43.6724145,69.4323141 L41.8864145,65.8033141 L41.8864145,69.9833141 L40.4044145,69.9833141 L40.4044145,63.3428141 L42.4089145,63.3428141 L44.1189145,66.9908141 L45.8384145,63.3428141 L47.8334145,63.3428141 L47.8334145,69.9833141 L46.3514145,69.9833141 L46.3514145,65.8033141 Z M55.4144145,65.8033141 L53.6189145,69.4323141 L52.7354145,69.4323141 L50.9494145,65.8033141 L50.9494145,69.9833141 L49.4674145,69.9833141 L49.4674145,63.3428141 L51.4719145,63.3428141 L53.1819145,66.9908141 L54.9014145,63.3428141 L56.8964145,63.3428141 L56.8964145,69.9833141 L55.4144145,69.9833141 L55.4144145,65.8033141 Z M60.2879145,68.2733141 C60.5349157,68.5773156 60.8674124,68.7293141 61.2854145,68.7293141 C61.7034166,68.7293141 62.0343299,68.5757323 62.2781645,68.2685641 C62.521999,67.9613959 62.6439145,67.5418168 62.6439145,67.0098141 L62.6439145,63.3428141 L64.1259145,63.3428141 L64.1259145,67.0573141 C64.1259145,68.0199856 63.8599171,68.7593949 63.3279145,69.2755641 C62.7959118,69.7917334 62.1150853,70.0498141 61.2854145,70.0498141 C60.4557436,70.0498141 59.7733338,69.79015 59.2381645,69.2708141 C58.7029951,68.7514782 58.4354145,68.0136522 58.4354145,67.0573141 L58.4354145,63.3428141 L59.9174145,63.3428141 L59.9174145,67.0098141 C59.9174145,67.5418168 60.0409132,67.9629792 60.2879145,68.2733141 Z M70.3104145,63.3428141 L71.7924145,63.3428141 L71.7924145,69.9833141 L70.3104145,69.9833141 L67.1469145,65.8223141 L67.1469145,69.9833141 L65.6649145,69.9833141 L65.6649145,63.3428141 L67.0519145,63.3428141 L70.3104145,67.6178141 L70.3104145,63.3428141 Z M73.4264145,63.3428141 L74.9084145,63.3428141 L74.9084145,69.9833141 L73.4264145,69.9833141 L73.4264145,63.3428141 Z M79.3544145,64.6253141 L79.3544145,69.9833141 L77.8724145,69.9833141 L77.8724145,64.6253141 L75.9914145,64.6253141 L75.9914145,63.3428141 L81.2354145,63.3428141 L81.2354145,64.6253141 L79.3544145,64.6253141 Z M83.9923813,69.9833141 L83.9923813,67.1073375 L81.6869613,63.1180797 L83.2641098,63.1180797 L84.9386703,66.0172497 L86.6874496,63.1180797 L87.8192856,63.1180797 L85.4210922,67.0980602 L85.4210922,69.9833141 L83.9923813,69.9833141 Z M31.5019125,80.9833141 L29.8876547,80.9833141 L29.5815024,80.616859 C29.0403213,80.9755848 28.445031,81.154945 27.7956137,81.154945 C27.0565149,81.154945 26.4465357,80.947753 25.9656576,80.5333629 C25.4847796,80.1189728 25.2443441,79.593262 25.2443441,78.9562145 C25.2443441,78.0099207 25.8148951,77.3017572 26.9560141,76.8317028 C26.628213,76.2565046 26.4643149,75.7864572 26.4643149,75.4215465 C26.4643149,75.004064 26.6459943,74.6530746 27.0093588,74.368568 C27.3727232,74.0840614 27.823443,73.9418102 28.3615316,73.9418102 C28.877973,73.9418102 29.3031804,74.0786496 29.6371664,74.3523327 C29.9711525,74.6260157 30.138143,74.9746857 30.138143,75.3983532 C30.138143,76.0570479 29.6325328,76.621414 28.6212973,77.0914684 C29.0140401,77.8181973 29.4779027,78.5047139 30.0128988,79.1510387 C30.3252376,78.6995391 30.4814047,78.0702322 30.4814047,77.2630993 L30.4814047,77.1564098 L31.636434,77.1564098 C31.636434,78.1676453 31.2715288,79.0644463 30.5417074,79.8468395 C30.8447688,80.2395823 31.164834,80.6184034 31.5019125,80.9833141 Z M27.4245199,77.5414196 C26.8585991,77.798094 26.575643,78.1861924 26.575643,78.7057262 C26.575643,79.1417635 26.7171211,79.5113074 27.0000815,79.8143688 C27.2830419,80.1174302 27.6286195,80.2689586 28.0368246,80.2689586 C28.3955504,80.2689586 28.7279852,80.160724 29.0341391,79.9442516 C28.5238826,79.2979268 28.0430118,78.5913095 27.5915121,77.8243786 L27.4245199,77.5414196 Z M28.1899008,76.4513317 C28.724897,76.1668251 28.992391,75.825113 28.992391,75.4261852 C28.992391,75.0117951 28.7882915,74.8046032 28.3800863,74.8046032 C27.9718812,74.8046032 27.7677816,75.0040641 27.7677816,75.4029918 C27.7677816,75.6720362 27.9084866,76.0214793 28.1899008,76.4513317 Z M35.9921469,80.9833141 L35.9921469,74.1180797 L38.3857016,74.1180797 C39.2206667,74.1180797 39.8167301,74.2580116 40.1739096,74.5378795 C40.5310891,74.8177475 40.7096762,75.2854755 40.7096762,75.9410778 C40.7096762,76.683269 40.470787,77.2607779 39.9930014,77.6736217 C39.5152158,78.0864656 38.8464806,78.2928844 37.9867758,78.2928844 L37.3930258,78.2928844 L37.3930258,80.9833141 L35.9921469,80.9833141 Z M37.3930258,77.351234 L37.6713461,77.351234 C38.1599553,77.351234 38.5457343,77.2375877 38.8286947,77.0102916 C39.1116551,76.7829956 39.2531332,76.474527 39.2531332,76.0848766 C39.2531332,75.4014422 38.8186486,75.0597301 37.9496664,75.0597301 L37.3930258,75.0597301 L37.3930258,77.351234 Z M41.0668539,80.9833141 L43.7387289,74.1180797 L45.1674399,74.1180797 L47.8393149,80.9833141 L46.3734945,80.9833141 L45.6591391,79.1510387 L42.8202719,79.1510387 L42.1059164,80.9833141 L41.0668539,80.9833141 Z M43.1728109,78.2372204 L45.3066,78.2372204 L44.2397055,75.5004039 L43.1728109,78.2372204 Z M48.8134359,80.9833141 L48.8134359,74.1180797 L51.3832602,74.1180797 C52.7779611,74.1180797 53.4753012,74.6855382 53.4753012,75.8204723 C53.4753012,76.2441398 53.3570162,76.6299188 53.1204428,76.9778209 C52.8838693,77.3257231 52.5583924,77.592444 52.1440024,77.7779918 L54.3891195,80.9833141 L52.6496176,80.9833141 L50.947225,78.1769176 L50.1586508,78.1769176 L50.1586508,80.9833141 L48.8134359,80.9833141 Z M50.1586508,77.2352672 L50.4879965,77.2352672 C51.5239717,77.2352672 52.0419516,76.8162447 52.0419516,75.9781872 C52.0419516,75.3658794 51.5796352,75.0597301 50.6549887,75.0597301 L50.1586508,75.0597301 L50.1586508,77.2352672 Z M57.0702719,80.9833141 L57.0702719,75.0597301 L54.6117758,75.0597301 L54.6117758,74.1180797 L60.9621176,74.1180797 L60.9621176,75.0597301 L58.5036215,75.0597301 L58.5036215,80.9833141 L57.0702719,80.9833141 Z M61.9223227,80.9833141 L61.9223227,74.1180797 L63.1794027,74.1180797 L66.3615316,78.807777 L66.3615316,74.1180797 L67.5072836,74.1180797 L67.5072836,80.9833141 L66.2270102,80.9833141 L63.0680746,76.2936168 L63.0680746,80.9833141 L61.9223227,80.9833141 Z M69.2235922,80.9833141 L69.2235922,74.1180797 L73.5143637,74.1180797 L73.5143637,75.0597301 L70.6523031,75.0597301 L70.6523031,76.9755016 L72.9994711,76.9755016 L72.9994711,77.8939586 L70.6523031,77.8939586 L70.6523031,80.009193 L73.7323813,80.009193 L73.7323813,80.9833141 L69.2235922,80.9833141 Z M74.9291586,80.9833141 L74.9291586,74.1180797 L77.4989828,74.1180797 C78.8936838,74.1180797 79.5910238,74.6855382 79.5910238,75.8204723 C79.5910238,76.2441398 79.4727389,76.6299188 79.2361654,76.9778209 C78.999592,77.3257231 78.6741151,77.592444 78.259725,77.7779918 L80.5048422,80.9833141 L78.7653402,80.9833141 L77.0629477,78.1769176 L76.2743734,78.1769176 L76.2743734,80.9833141 L74.9291586,80.9833141 Z M76.2743734,77.2352672 L76.6037191,77.2352672 C77.6396944,77.2352672 78.1576742,76.8162447 78.1576742,75.9781872 C78.1576742,75.3658794 77.6953579,75.0597301 76.7707113,75.0597301 L76.2743734,75.0597301 L76.2743734,77.2352672 Z M81.0985922,80.9230114 L81.0985922,79.7447887 C81.8376909,80.0540351 82.4700902,80.2086559 82.995809,80.2086559 C83.3638121,80.2086559 83.6537262,80.1267069 83.86556,79.9628063 C84.0773937,79.7989057 84.183309,79.5762517 84.183309,79.2948375 C84.183309,79.0721802 84.116822,78.8843158 83.9838461,78.7312389 C83.8508702,78.578162 83.5988382,78.3964825 83.2277426,78.186195 L82.7685141,77.931068 C82.1531139,77.5847121 81.7186293,77.2530504 81.4650473,76.9360729 C81.2114653,76.6190954 81.0846762,76.2487785 81.0846762,75.825111 C81.0846762,75.2591902 81.2926412,74.8046049 81.7085775,74.4613414 C82.1245139,74.118078 82.674191,73.9464489 83.3576254,73.9464489 C83.9049914,73.9464489 84.5219286,74.0253055 85.2084555,74.1830211 L85.2084555,75.2823864 C84.5064663,75.019527 83.9513774,74.8880993 83.5431723,74.8880993 C83.227741,74.8880993 82.9749359,74.9584517 82.7847494,75.0991588 C82.5945629,75.2398659 82.4994711,75.4246378 82.4994711,75.6534801 C82.4994711,75.8421204 82.5659581,76.0075647 82.698934,76.149818 C82.8319099,76.2920713 83.0823957,76.4667929 83.4503988,76.6739879 L83.9420981,76.9476696 C84.6038852,77.3187652 85.0600167,77.6604773 85.3105063,77.9728161 C85.5609958,78.2851549 85.6862387,78.6655221 85.6862387,79.1139293 C85.6862387,79.7509768 85.4496688,80.2504021 84.9765219,80.6122204 C84.503375,80.9740386 83.850875,81.154945 83.0190024,81.154945 C82.4685439,81.154945 81.8284136,81.0776345 81.0985922,80.9230114 Z"/>
  </g>
</svg>
