<svg xmlns="http://www.w3.org/2000/svg" width="109" height="88" viewBox="0 0 109 88" xmlns:xlink="http://www.w3.org/1999/xlink">
  <defs>
    <path id="a" d="M39.2753831,17.5290243 L49.3287457,17.5290243 L49.3287457,17.5290243 C59.1038116,17.5290243 67.0280682,25.4532809 67.0280682,35.2283468 L67.0280682,49.9276693 L67.0280682,49.9276693 C67.0280682,51.5845235 65.6849224,52.9276693 64.0280682,52.9276693 L39.2753831,52.9276693 L39.2753831,17.5290243 Z"/>
  </defs>
  <g fill="none" fill-rule="evenodd" transform="translate(-.306 -.283)">
    <g>
      <rect width="108.35" height="86.5" x=".306" y=".929" fill="#3876CF"/>
      <path stroke="#123E7A" d="M38.6650222,16.5 L38.6650222,53.8373682 L66.037271,53.8373682 C67.4179829,53.8373682 68.537271,52.7180801 68.537271,51.3373682 L68.537271,35.1686841 C68.537271,24.8582546 60.1790164,16.5 49.8685869,16.5 L38.6650222,16.5 Z"/>
      <use fill="#CDCCCD" xlink:href="#a"/>
      <path stroke="#3876CF" d="M39.7753831,18.0290243 L39.7753831,52.4276693 L64.0280682,52.4276693 C65.40878,52.4276693 66.5280682,51.3083812 66.5280682,49.9276693 L66.5280682,35.2283468 C66.5280682,25.7294233 58.8276692,18.0290243 49.3287457,18.0290243 L39.7753831,18.0290243 Z"/>
      <path fill="#3876CF" d="M43.6235781 22.8806093C48.1840973 22.8806093 52.7446164 22.8806093 57.3051356 22.8806093 57.9461294 23.25806 58.9831094 24.11743 59.6904771 24.7918897 54.3348441 24.7918897 48.9792111 24.7918897 43.6235781 24.7918897L43.6235781 24.7918897C43.0957926 24.7918897 42.6679379 24.364035 42.6679379 23.8362495L42.6679379 23.8362495 42.6679379 23.8362495C42.6679379 23.308464 43.0957926 22.8806093 43.6235781 22.8806093zM43.6235781 26.70317L58.6750718 26.70317 58.6750718 26.70317C59.2028573 26.70317 59.630712 27.1310247 59.630712 27.6588102L59.630712 27.6588102 59.630712 27.6588102C59.630712 28.1865957 59.2028573 28.6144504 58.6750718 28.6144504L43.6235781 28.6144504 43.6235781 28.6144504C43.0957926 28.6144504 42.6679379 28.1865957 42.6679379 27.6588102L42.6679379 27.6588102 42.6679379 27.6588102C42.6679379 27.1310247 43.0957926 26.70317 43.6235781 26.70317zM43.6235781 30.5257308L61.0498602 30.5257308 61.0498602 30.5257308C61.5776457 30.5257308 62.0055004 30.9535854 62.0055004 31.4813709L62.0055004 31.4813709 62.0055004 31.4813709C62.0055004 32.0091564 61.5776457 32.4370111 61.0498602 32.4370111L43.6235781 32.4370111 43.6235781 32.4370111C43.0957926 32.4370111 42.6679379 32.0091564 42.6679379 31.4813709L42.6679379 31.4813709 42.6679379 31.4813709C42.6679379 30.9535854 43.0957926 30.5257308 43.6235781 30.5257308zM43.6235781 34.3482915L55.961028 34.3482915 55.961028 34.3482915C56.4888135 34.3482915 56.9166682 34.7761462 56.9166682 35.3039317L56.9166682 35.3039317 56.9166682 35.3039317C56.9166682 35.8317172 56.4888135 36.2595719 55.961028 36.2595719L43.6235781 36.2595719 43.6235781 36.2595719C43.0957926 36.2595719 42.6679379 35.8317172 42.6679379 35.3039317L42.6679379 35.3039317 42.6679379 35.3039317C42.6679379 34.7761462 43.0957926 34.3482915 43.6235781 34.3482915z"/>
      <path fill="#123E7A" d="M60.5645737,49.0765254 L60.5789242,49.0765254 L60.5789242,46.4204195 C61.6233244,45.8919225 62.3383209,44.8164202 62.3383209,43.5756091 C62.3383209,41.8121831 60.8941883,40.3826438 59.1127603,40.3826438 C57.3313324,40.3826438 55.8871997,41.8121831 55.8871997,43.5756091 C55.8871997,44.5671334 56.3437612,45.4530995 57.0601308,46.0387426 L57.0601308,49.0765254 L57.0744814,49.0765254 L58.8195275,47.3491135 L60.5645737,49.0765254 Z" transform="matrix(-1 0 0 1 118.226 0)"/>
    </g>
    <path fill="#CDCCCD" d="M30.817,74 L30.817,67.3595 L32.299,67.3595 L32.299,72.6795 L35.13,72.6795 L35.13,74 L30.817,74 Z M36.213,67.3595 L37.695,67.3595 L37.695,74 L36.213,74 L36.213,67.3595 Z M42.3785,72.689 C43.106837,72.689 43.7021644,72.4008362 44.1645,71.8245 L45.1145,72.803 C44.3608296,73.6516709 43.4725884,74.076 42.44975,74.076 C41.4269116,74.076 40.5845866,73.7530032 39.92275,73.107 C39.2609134,72.4609968 38.93,71.6455883 38.93,70.66075 C38.93,69.6759117 39.2672466,68.85417 39.94175,68.1955 C40.6162534,67.53683 41.4411618,67.2075 42.4165,67.2075 C43.5058388,67.2075 44.4178297,67.6223292 45.1525,68.452 L44.231,69.497 C43.762331,68.9143304 43.1796702,68.623 42.483,68.623 C41.9256639,68.623 41.4490853,68.8050815 41.05325,69.16925 C40.6574147,69.5334185 40.4595,70.0242469 40.4595,70.64175 C40.4595,71.2592531 40.6463315,71.7548315 41.02,72.1285 C41.3936685,72.5021685 41.8464973,72.689 42.3785,72.689 Z M51.071,67.3595 L51.071,68.68 L47.765,68.68 L47.765,70.048 L50.7385,70.048 L50.7385,71.3115 L47.765,71.3115 L47.765,72.689 L51.1755,72.689 L51.1755,74 L46.283,74 L46.283,67.3595 L51.071,67.3595 Z M57.1415,67.3595 L58.6235,67.3595 L58.6235,74 L57.1415,74 L53.978,69.839 L53.978,74 L52.496,74 L52.496,67.3595 L53.883,67.3595 L57.1415,71.6345 L57.1415,67.3595 Z M62.395,68.509 C62.1479988,68.509 61.9532507,68.5675827 61.81075,68.68475 C61.6682493,68.8019173 61.597,68.9570824 61.597,69.15025 C61.597,69.3434176 61.6840825,69.4969994 61.85825,69.611 C62.0324175,69.7250006 62.4345802,69.8595826 63.06475,70.01475 C63.6949198,70.1699174 64.1841649,70.4026651 64.5325,70.713 C64.8808351,71.0233349 65.055,71.4761637 65.055,72.0715 C65.055,72.6668363 64.8317522,73.1497481 64.38525,73.52025 C63.9387478,73.8907519 63.351337,74.076 62.623,74.076 C61.5716614,74.076 60.6248375,73.6865039 59.7825,72.9075 L60.666,71.8245 C61.3816702,72.4515031 62.043497,72.765 62.6515,72.765 C62.9238347,72.765 63.1375826,72.7064173 63.29275,72.58925 C63.4479174,72.4720827 63.5255,72.313751 63.5255,72.11425 C63.5255,71.914749 63.4431675,71.7564173 63.2785,71.63925 C63.1138325,71.5220827 62.7876691,71.4033339 62.3,71.283 C61.5273295,71.0993324 60.9620851,70.8602515 60.60425,70.56575 C60.2464149,70.2712485 60.0675,69.8089198 60.0675,69.17875 C60.0675,68.5485802 60.2939144,68.0625017 60.74675,67.7205 C61.1995856,67.3784983 61.7648299,67.2075 62.4425,67.2075 C62.8858356,67.2075 63.3291645,67.2834992 63.7725,67.4355 C64.2158356,67.5875008 64.602165,67.8028319 64.9315,68.0815 L64.181,69.1645 C63.6046638,68.7274978 63.0093364,68.509 62.395,68.509 Z M71.1065,67.3595 L71.1065,68.68 L67.8005,68.68 L67.8005,70.048 L70.774,70.048 L70.774,71.3115 L67.8005,71.3115 L67.8005,72.689 L71.211,72.689 L71.211,74 L66.3185,74 L66.3185,67.3595 L71.1065,67.3595 Z M74.669,68.509 C74.4219988,68.509 74.2272507,68.5675827 74.08475,68.68475 C73.9422493,68.8019173 73.871,68.9570824 73.871,69.15025 C73.871,69.3434176 73.9580825,69.4969994 74.13225,69.611 C74.3064175,69.7250006 74.7085802,69.8595826 75.33875,70.01475 C75.9689198,70.1699174 76.4581649,70.4026651 76.8065,70.713 C77.1548351,71.0233349 77.329,71.4761637 77.329,72.0715 C77.329,72.6668363 77.1057522,73.1497481 76.65925,73.52025 C76.2127478,73.8907519 75.625337,74.076 74.897,74.076 C73.8456614,74.076 72.8988375,73.6865039 72.0565,72.9075 L72.94,71.8245 C73.6556702,72.4515031 74.317497,72.765 74.9255,72.765 C75.1978347,72.765 75.4115826,72.7064173 75.56675,72.58925 C75.7219174,72.4720827 75.7995,72.313751 75.7995,72.11425 C75.7995,71.914749 75.7171675,71.7564173 75.5525,71.63925 C75.3878325,71.5220827 75.0616691,71.4033339 74.574,71.283 C73.8013295,71.0993324 73.2360851,70.8602515 72.87825,70.56575 C72.5204149,70.2712485 72.3415,69.8089198 72.3415,69.17875 C72.3415,68.5485802 72.5679144,68.0625017 73.02075,67.7205 C73.4735856,67.3784983 74.0388299,67.2075 74.7165,67.2075 C75.1598356,67.2075 75.6031645,67.2834992 76.0465,67.4355 C76.4898356,67.5875008 76.876165,67.8028319 77.2055,68.0815 L76.455,69.1645 C75.8786638,68.7274978 75.2833364,68.509 74.669,68.509 Z"/>
  </g>
</svg>
