<svg xmlns="http://www.w3.org/2000/svg" width="109" height="88" viewBox="0 0 109 88">
  <g fill="none" fill-rule="evenodd" transform="translate(-.507 .435)">
    <rect width="108.35" height="86.5" x=".507" y=".211" fill="#3876CF"/>
    <path fill="#CDCCCD" d="M39.9614403,24.1021251 L64.938396,24.1021251 L64.938396,24.1021251 C72.9506964,24.1021251 79.4459493,30.597378 79.4459493,38.6096785 L79.4459493,38.6096785 C79.4459493,46.6219789 72.9506964,53.1172318 64.938396,53.1172318 L39.9614403,53.1172318 L39.9614403,53.1172318 C31.9491399,53.1172318 25.453887,46.6219789 25.453887,38.6096785 L25.453887,38.6096785 L25.453887,38.6096785 C25.453887,30.597378 31.9491399,24.1021251 39.9614403,24.1021251 L39.9614403,24.1021251 Z M61.5847383,38.7543311 L48.7600898,31.9230552 L48.7600898,45.5856069 L61.5847383,38.7543311 Z"/>
    <polygon fill="#173B6D" points="55.172 32.342 62.004 45.167 48.341 45.167" transform="rotate(90 55.172 38.754)"/>
    <path fill="#CDCCCD" d="M38.7042715,71.1351133 L40.3952715,66.9076133 L42.0007715,66.9076133 L39.3312715,73.5481133 L38.0772715,73.5481133 L35.4077715,66.9076133 L37.0132715,66.9076133 L38.7042715,71.1351133 Z M42.7892715,66.9076133 L44.2712715,66.9076133 L44.2712715,73.5481133 L42.7892715,73.5481133 L42.7892715,66.9076133 Z M48.2517715,66.9076133 C49.4361108,66.9076133 50.344935,67.1973604 50.9782715,67.7768633 C51.611608,68.3563662 51.9282715,69.1622748 51.9282715,70.1946133 C51.9282715,71.2269518 51.6195246,72.0439436 51.0020215,72.6456133 C50.3845184,73.2472829 49.4424445,73.5481133 48.1757715,73.5481133 L45.9052715,73.5481133 L45.9052715,66.9076133 L48.2517715,66.9076133 Z M48.3277715,72.2371133 C49.0054416,72.2371133 49.526353,72.066115 49.8905215,71.7241133 C50.25469,71.3821116 50.4367715,70.8849499 50.4367715,70.2326133 C50.4367715,69.5802767 50.25469,69.078365 49.8905215,68.7268633 C49.526353,68.3753615 48.9674419,68.1996133 48.2137715,68.1996133 L47.3872715,68.1996133 L47.3872715,72.2371133 L48.3277715,72.2371133 Z M57.9987715,66.9076133 L57.9987715,68.2281133 L54.6927715,68.2281133 L54.6927715,69.5961133 L57.6662715,69.5961133 L57.6662715,70.8596133 L54.6927715,70.8596133 L54.6927715,72.2371133 L58.1032715,72.2371133 L58.1032715,73.5481133 L53.2107715,73.5481133 L53.2107715,66.9076133 L57.9987715,66.9076133 Z M64.4017715,70.1946133 C64.4017715,69.599277 64.2117734,69.0926154 63.8317715,68.6746133 C63.4517696,68.2566112 62.984691,68.0476133 62.4305215,68.0476133 C61.8763521,68.0476133 61.4092734,68.2566112 61.0292715,68.6746133 C60.6492696,69.0926154 60.4592715,69.5976936 60.4592715,70.1898633 C60.4592715,70.7820329 60.6492696,71.2855279 61.0292715,71.7003633 C61.4092734,72.1151987 61.8763521,72.3226133 62.4305215,72.3226133 C62.984691,72.3226133 63.4517696,72.1151987 63.8317715,71.7003633 C64.2117734,71.2855279 64.4017715,70.7836162 64.4017715,70.1946133 Z M64.9052715,72.6361133 C64.2339348,73.2884499 63.4074431,73.6146133 62.4257715,73.6146133 C61.4440999,73.6146133 60.6176082,73.2868665 59.9462715,72.6313633 C59.2749348,71.97586 58.9392715,71.1604515 58.9392715,70.1851133 C58.9392715,69.2097751 59.2749348,68.3943665 59.9462715,67.7388633 C60.6176082,67.08336 61.4440999,66.7556133 62.4257715,66.7556133 C63.4074431,66.7556133 64.2339348,67.08336 64.9052715,67.7388633 C65.5766082,68.3943665 65.9122715,69.2097751 65.9122715,70.1851133 C65.9122715,71.1604515 65.5766082,71.9774433 64.9052715,72.6361133 Z M69.2467715,68.0571133 C68.9997703,68.0571133 68.8050222,68.115696 68.6625215,68.2328633 C68.5200208,68.3500305 68.4487715,68.5051956 68.4487715,68.6983633 C68.4487715,68.8915309 68.535854,69.0451127 68.7100215,69.1591133 C68.8841891,69.2731138 69.2863517,69.4076958 69.9165215,69.5628633 C70.5466913,69.7180307 71.0359364,69.9507784 71.3842715,70.2611133 C71.7326066,70.5714482 71.9067715,71.024277 71.9067715,71.6196133 C71.9067715,72.2149496 71.6835237,72.6978614 71.2370215,73.0683633 C70.7905193,73.4388651 70.2031085,73.6241133 69.4747715,73.6241133 C68.4234329,73.6241133 67.4766091,73.2346172 66.6342715,72.4556133 L67.5177715,71.3726133 C68.2334418,71.9996164 68.8952685,72.3131133 69.5032715,72.3131133 C69.7756062,72.3131133 69.9893541,72.2545305 70.1445215,72.1373633 C70.299689,72.020196 70.3772715,71.8618643 70.3772715,71.6623633 C70.3772715,71.4628623 70.294939,71.3045305 70.1302715,71.1873633 C69.965604,71.070196 69.6394406,70.9514472 69.1517715,70.8311133 C68.379101,70.6474457 67.8138566,70.4083647 67.4560215,70.1138633 C67.0981864,69.8193618 66.9192715,69.3570331 66.9192715,68.7268633 C66.9192715,68.0966934 67.1456859,67.610615 67.5985215,67.2686133 C68.0513571,66.9266116 68.6166015,66.7556133 69.2942715,66.7556133 C69.7376071,66.7556133 70.180936,66.8316125 70.6242715,66.9836133 C71.0676071,67.135614 71.4539365,67.3509452 71.7832715,67.6296133 L71.0327715,68.7126133 C70.4564353,68.2756111 69.8611079,68.0571133 69.2467715,68.0571133 Z"/>
  </g>
</svg>
