<svg xmlns="http://www.w3.org/2000/svg" width="109" height="88" viewBox="0 0 109 88">
  <g fill="none" fill-rule="evenodd" transform="translate(-.306 -.203)">
    <rect width="108.35" height="86.5" x=".306" y=".849" fill="#3876CF"/>
    <path fill="#CDCCCD" d="M41.871,38.085 L29.061,38.085 L29.061,41.97 L37.965,41.97 L37.965,44.259 L29.061,44.259 L29.061,51 L26.541,51 L26.541,35.796 L41.871,35.796 L41.871,38.085 Z M61.863,51 L59.112,51 L57.348,47.598 L47.121,47.598 L45.357,51 L42.606,51 L50.649,35.796 L53.82,35.796 L61.863,51 Z M56.109,45.309 L52.245,37.959 L48.36,45.309 L56.109,45.309 Z"/>
    <path fill="#123E7A" d="M76.301,50.8079307 C75.3629953,51.0179317 74.4390045,51.1229307 73.529,51.1229307 C70.8689867,51.1229307 68.636009,50.4439375 66.83,49.0859307 C64.7719897,47.5319229 63.743,45.522943 63.743,43.0589307 C63.743,40.6229185 64.7789896,38.6209385 66.851,37.0529307 C68.6710091,35.6809238 70.8969868,34.9949307 73.529,34.9949307 C76.1610132,34.9949307 78.379991,35.6809238 80.186,37.0529307 C82.2440103,38.6069385 83.273,40.6089184 83.273,43.0589307 C83.273,46.1809463 81.7260155,48.5049231 78.632,50.0309307 L80.522,52.1099307 L78.17,52.8659307 L76.301,50.8079307 Z M76.952,48.1829307 C79.4160123,47.1889257 80.648,45.4809428 80.648,43.0589307 C80.648,41.2809218 79.8850076,39.8319363 78.359,38.7119307 C77.0569935,37.7599259 75.4470096,37.2839307 73.529,37.2839307 C71.5969903,37.2839307 69.9730066,37.7599259 68.657,38.7119307 C67.1309924,39.8179362 66.368,41.2669217 66.368,43.0589307 C66.368,44.7669392 67.0224935,46.1529254 68.3315,47.2169307 C69.6405065,48.280936 71.3729892,48.8129307 73.529,48.8129307 C73.6830008,48.8129307 73.9839978,48.7989308 74.432,48.7709307 L72.794,46.9439307 L75.188,46.2299307 L76.952,48.1829307 Z"/>
  </g>
</svg>
