<svg xmlns="http://www.w3.org/2000/svg" width="71" height="74" viewBox="0 0 71 74">
  <g fill="none" fill-rule="evenodd" transform="translate(0 -6)">
    <path fill="#D0E1F7" d="M20,38 L27,38 L27,38 C38.045695,38 47,46.954305 47,58 L47,74 C39.1666667,77.9948416 31.3333333,79.9922624 23.5,79.9922624 C15.6666667,79.9922624 7.83333333,77.9948416 0,74 L0,58 L0,58 C-1.3527075e-15,46.954305 8.954305,38 20,38 Z"/>
    <ellipse cx="23.5" cy="23" fill="#D0E1F7" rx="14.5" ry="13"/>
    <path fill="#DDEEFF" d="M54.352,20.384 L54.352,16.064 L50.152,16.064 L50.152,13.112 L54.352,13.112 L54.352,8.792 L57.664,8.792 L57.664,13.112 L61.864,13.112 L61.864,16.064 L57.664,16.064 L57.664,20.384 L54.352,20.384 Z M63.76,6.224 L70.552,6.224 L70.552,23 L66.952,23 L66.952,9.416 L63.76,9.416 L63.76,6.224 Z"/>
  </g>
</svg>
