<svg xmlns="http://www.w3.org/2000/svg" width="69" height="86" viewBox="0 0 69 86">
    <g fill="none" fill-rule="nonzero">
        <path fill="#515151" stroke="#515151" stroke-linecap="round" stroke-linejoin="round" stroke-width="4" d="M31.054 79c1.713.034 3.136.044 4.132.044.969 0 2.268 0 3.796-.015.639.52 1.018 1.17 1.018 1.874C40 82.613 37.761 84 35 84s-5-1.387-5-3.097c0-.718.394-1.378 1.054-1.903z"/>
        <path fill="#BCBCBC" stroke="#515151" stroke-width="3" d="M67.304 67.32c-5.55-7.114-6.797-12.229-6.381-18.89.1-1.605.117-4.315.076-8.477-.007-.754-.016-1.503-.03-2.583-.042-3.503-.049-4.207-.049-5.344C60.92 16.802 50.32 7.5 34.923 7.5 19.602 7.5 9.22 16.746 9.22 32.026c0 .645-.001.976-.012 2.775-.013 2.24-.016 3.567-.007 5.028.025 4.006.149 6.86.408 8.43.842 5.1-1.432 11.594-7.691 19.149-.75.987-.51 1.525 1.278 2.406 2.018.994 5.436 1.805 9.928 2.41 6.718.905 15.086 1.276 22.172 1.276 6.238 0 10.73-.103 15.819-.508 5.577-.444 10.04-1.185 12.986-2.261 2.91-1.064 3.782-2.096 3.203-3.411z"/>
        <path fill="#515151" d="M29.662 8.896A6.165 6.165 0 0 1 29 6.106C29 2.732 31.686 0 35 0s6 2.733 6 6.105c0 1.048-.26 2.034-.716 2.895a34.754 34.754 0 0 0-5.654-.453c-1.699 0-3.359.117-4.968.349z"/>
    </g>
</svg>
