<svg xmlns="http://www.w3.org/2000/svg" width="109" height="88" viewBox="0 0 109 88" xmlns:xlink="http://www.w3.org/1999/xlink">
  <defs>
    <path id="a" d="M0.156802442,0 L11.1385389,0 L11.1385389,-3.55271368e-15 C21.2744875,-5.41465723e-15 29.4912973,8.21680984 29.4912973,18.3527584 L29.4912973,33.7055169 C29.4912973,35.3623711 28.1481516,36.7055169 26.4912973,36.7055169 L0.156802442,36.7055169 L0.156802442,0 Z"/>
    <path id="b" d="M1.211856,1.46394052 L10.6362323,1.46394052 L10.6362323,1.46394052 C19.9952171,1.46394052 27.5821733,9.05089675 27.5821733,18.4098815 L27.5821733,32.3558226 C27.5821733,34.0126768 26.2390276,35.3558226 24.5821733,35.3558226 L1.211856,35.3558226 L1.211856,1.46394052 Z"/>
  </defs>
  <g fill="none" fill-rule="evenodd" transform="translate(-.818 .646)">
    <rect width="108.35" height="86.5" x=".818" fill="#123E7A"/>
    <g transform="translate(39 16)">
      <use fill="#123E7A" xlink:href="#a"/>
      <path stroke="#3871C5" d="M0.656802442,0.5 L0.656802442,36.2055169 L26.4912973,36.2055169 C27.8720092,36.2055169 28.9912973,35.0862288 28.9912973,33.7055169 L28.9912973,18.3527584 C28.9912973,8.49295221 20.9983451,0.5 11.1385389,0.5 L0.656802442,0.5 Z"/>
      <use fill="#CDCCCD" xlink:href="#b"/>
      <path stroke="#123E7A" d="M1.711856,1.96394052 L1.711856,34.8558226 L24.5821733,34.8558226 C25.9628852,34.8558226 27.0821733,33.7365344 27.0821733,32.3558226 L27.0821733,18.4098815 C27.0821733,9.32703912 19.7190747,1.96394052 10.6362323,1.96394052 L1.711856,1.96394052 Z"/>
      <path fill="#123E7A" d="M5.35038969 6.58773236C9.58033221 6.58773236 13.8102747 6.58773236 18.0402172 6.58773236 18.5733054 6.90463359 19.8975289 7.85600432 20.3677105 8.41765801 15.3619369 8.41765801 10.3561633 8.41765801 5.35038969 8.41765801L5.35038969 8.41765801C4.84506968 8.41765801 4.43542686 8.0080152 4.43542686 7.50269519L4.43542686 7.50269519 4.43542686 7.50269519C4.43542686 6.99737517 4.84506968 6.58773236 5.35038969 6.58773236zM5.35038969 10.2475837L19.6383184 10.2475837 19.6383184 10.2475837C20.1436384 10.2475837 20.5532812 10.6572265 20.5532812 11.1625465L20.5532812 11.1625465 20.5532812 11.1625465C20.5532812 11.6678665 20.1436384 12.0775093 19.6383184 12.0775093L5.35038969 12.0775093 5.35038969 12.0775093C4.84506968 12.0775093 4.43542686 11.6678665 4.43542686 11.1625465L4.43542686 11.1625465 4.43542686 11.1625465C4.43542686 10.6572265 4.84506968 10.2475837 5.35038969 10.2475837zM5.35038969 13.907435L21.894818 13.907435 21.894818 13.907435C22.400138 13.907435 22.8097808 14.3170778 22.8097808 14.8223978L22.8097808 14.8223978 22.8097808 14.8223978C22.8097808 15.3277178 22.400138 15.7373606 21.894818 15.7373606L5.35038969 15.7373606 5.35038969 15.7373606C4.84506968 15.7373606 4.43542686 15.3277178 4.43542686 14.8223978L4.43542686 14.8223978 4.43542686 14.8223978C4.43542686 14.3170778 4.84506968 13.907435 5.35038969 13.907435z"/>
      <path fill="#3871C5" d="M5.35038969,17.5672863 L17.0594617,17.5672863 L17.0594617,17.5672863 C17.5647817,17.5672863 17.9744245,17.9769291 17.9744245,18.4822491 L17.9744245,18.4822491 L17.9744245,18.4822491 C17.9744245,18.9875691 17.5647817,19.3972119 17.0594617,19.3972119 L5.35038969,19.3972119 L5.35038969,19.3972119 C4.84506968,19.3972119 4.43542686,18.9875691 4.43542686,18.4822491 L4.43542686,18.4822491 L4.43542686,18.4822491 C4.43542686,17.9769291 4.84506968,17.5672863 5.35038969,17.5672863 Z"/>
      <path fill="#123E7A" d="M5.35038969 21.2271376L21.894818 21.2271376 21.894818 21.2271376C22.400138 21.2271376 22.8097808 21.6367804 22.8097808 22.1421004L22.8097808 22.1421004 22.8097808 22.1421004C22.8097808 22.6474204 22.400138 23.0570633 21.894818 23.0570633L5.35038969 23.0570633 5.35038969 23.0570633C4.84506968 23.0570633 4.43542686 22.6474204 4.43542686 22.1421004L4.43542686 22.1421004 4.43542686 22.1421004C4.43542686 21.6367804 4.84506968 21.2271376 5.35038969 21.2271376zM5.35038969 24.8869889L21.894818 24.8869889 21.894818 24.8869889C22.400138 24.8869889 22.8097808 25.2966317 22.8097808 25.8019517L22.8097808 25.8019517 22.8097808 25.8019517C22.8097808 26.3072718 22.400138 26.7169146 21.894818 26.7169146L5.35038969 26.7169146 5.35038969 26.7169146C4.84506968 26.7169146 4.43542686 26.3072718 4.43542686 25.8019517L4.43542686 25.8019517 4.43542686 25.8019517C4.43542686 25.2966317 4.84506968 24.8869889 5.35038969 24.8869889z"/>
      <path fill="#3871C5" d="M5.35038969,28.5468402 L17.3818188,28.5468402 L17.3818188,28.5468402 C17.8871388,28.5468402 18.2967816,28.956483 18.2967816,29.461803 L18.2967816,29.461803 L18.2967816,29.461803 C18.2967816,29.9671231 17.8871388,30.3767659 17.3818188,30.3767659 L5.35038969,30.3767659 L5.35038969,30.3767659 C4.84506968,30.3767659 4.43542686,29.9671231 4.43542686,29.461803 L4.43542686,29.461803 L4.43542686,29.461803 C4.43542686,28.956483 4.84506968,28.5468402 5.35038969,28.5468402 Z"/>
    </g>
    <path fill="#CDCCCD" d="M12.1635,66.3595 C13.3478393,66.3595 14.2566635,66.6492471 14.89,67.22875 C15.5233365,67.8082529 15.84,68.6141615 15.84,69.6465 C15.84,70.6788385 15.5312531,71.4958303 14.91375,72.0975 C14.2962469,72.6991697 13.354173,73 12.0875,73 L9.817,73 L9.817,66.3595 L12.1635,66.3595 Z M12.2395,71.689 C12.9171701,71.689 13.4380815,71.5180017 13.80225,71.176 C14.1664185,70.8339983 14.3485,70.3368366 14.3485,69.6845 C14.3485,69.0321634 14.1664185,68.5302518 13.80225,68.17875 C13.4380815,67.8272482 12.8791704,67.6515 12.1255,67.6515 L11.299,67.6515 L11.299,71.689 L12.2395,71.689 Z M22.205,69.6465 C22.205,69.0511637 22.0150019,68.5445021 21.635,68.1265 C21.2549981,67.7084979 20.7879194,67.4995 20.23375,67.4995 C19.6795806,67.4995 19.2125019,67.7084979 18.8325,68.1265 C18.4524981,68.5445021 18.2625,69.0495804 18.2625,69.64175 C18.2625,70.2339196 18.4524981,70.7374146 18.8325,71.15225 C19.2125019,71.5670854 19.6795806,71.7745 20.23375,71.7745 C20.7879194,71.7745 21.2549981,71.5670854 21.635,71.15225 C22.0150019,70.7374146 22.205,70.2355029 22.205,69.6465 Z M22.7085,72.088 C22.0371633,72.7403366 21.2106716,73.0665 20.229,73.0665 C19.2473284,73.0665 18.4208367,72.7387533 17.7495,72.08325 C17.0781633,71.4277467 16.7425,70.6123382 16.7425,69.637 C16.7425,68.6616618 17.0781633,67.8462533 17.7495,67.19075 C18.4208367,66.5352467 19.2473284,66.2075 20.229,66.2075 C21.2106716,66.2075 22.0371633,66.5352467 22.7085,67.19075 C23.3798367,67.8462533 23.7155,68.6616618 23.7155,69.637 C23.7155,70.6123382 23.3798367,71.42933 22.7085,72.088 Z M28.019,71.689 C28.747337,71.689 29.3426644,71.4008362 29.805,70.8245 L30.755,71.803 C30.0013296,72.6516709 29.1130884,73.076 28.09025,73.076 C27.0674116,73.076 26.2250866,72.7530032 25.56325,72.107 C24.9014134,71.4609968 24.5705,70.6455883 24.5705,69.66075 C24.5705,68.6759117 24.9077466,67.85417 25.58225,67.1955 C26.2567534,66.53683 27.0816618,66.2075 28.057,66.2075 C29.1463388,66.2075 30.0583297,66.6223292 30.793,67.452 L29.8715,68.497 C29.402831,67.9143304 28.8201701,67.623 28.1235,67.623 C27.5661639,67.623 27.0895853,67.8050815 26.69375,68.16925 C26.2979147,68.5334185 26.1,69.0242469 26.1,69.64175 C26.1,70.2592531 26.2868315,70.7548315 26.6605,71.1285 C27.0341685,71.5021685 27.4869973,71.689 28.019,71.689 Z M33.681,71.29 C33.9280012,71.5940015 34.2604979,71.746 34.6785,71.746 C35.0965021,71.746 35.4274154,71.5924182 35.67125,71.28525 C35.9150846,70.9780818 36.037,70.5585027 36.037,70.0265 L36.037,66.3595 L37.519,66.3595 L37.519,70.074 C37.519,71.0366715 37.2530027,71.7760808 36.721,72.29225 C36.1889973,72.8084192 35.5081708,73.0665 34.6785,73.0665 C33.8488292,73.0665 33.1664193,72.8068359 32.63125,72.2875 C32.0960807,71.7681641 31.8285,71.0303381 31.8285,70.074 L31.8285,66.3595 L33.3105,66.3595 L33.3105,70.0265 C33.3105,70.5585027 33.4339988,70.9796651 33.681,71.29 Z M45.005,68.82 L43.2095,72.449 L42.326,72.449 L40.54,68.82 L40.54,73 L39.058,73 L39.058,66.3595 L41.0625,66.3595 L42.7725,70.0075 L44.492,66.3595 L46.487,66.3595 L46.487,73 L45.005,73 L45.005,68.82 Z M52.909,66.3595 L52.909,67.68 L49.603,67.68 L49.603,69.048 L52.5765,69.048 L52.5765,70.3115 L49.603,70.3115 L49.603,71.689 L53.0135,71.689 L53.0135,73 L48.121,73 L48.121,66.3595 L52.909,66.3595 Z M58.9795,66.3595 L60.4615,66.3595 L60.4615,73 L58.9795,73 L55.816,68.839 L55.816,73 L54.334,73 L54.334,66.3595 L55.721,66.3595 L58.9795,70.6345 L58.9795,66.3595 Z M64.9075,67.642 L64.9075,73 L63.4255,73 L63.4255,67.642 L61.5445,67.642 L61.5445,66.3595 L66.7885,66.3595 L66.7885,67.642 L64.9075,67.642 Z M72.118,73 L71.5005,71.5655 L68.717,71.5655 L68.0995,73 L66.5225,73 L69.3915,66.3595 L70.826,66.3595 L73.695,73 L72.118,73 Z M70.1135,68.3355 L69.2775,70.264 L70.94,70.264 L70.1135,68.3355 Z M76.792,67.642 L76.792,73 L75.31,73 L75.31,67.642 L73.429,67.642 L73.429,66.3595 L78.673,66.3595 L78.673,67.642 L76.792,67.642 Z M79.756,66.3595 L81.238,66.3595 L81.238,73 L79.756,73 L79.756,66.3595 Z M87.9545,69.6465 C87.9545,69.0511637 87.7645019,68.5445021 87.3845,68.1265 C87.0044981,67.7084979 86.5374194,67.4995 85.98325,67.4995 C85.4290806,67.4995 84.9620019,67.7084979 84.582,68.1265 C84.2019981,68.5445021 84.012,69.0495804 84.012,69.64175 C84.012,70.2339196 84.2019981,70.7374146 84.582,71.15225 C84.9620019,71.5670854 85.4290806,71.7745 85.98325,71.7745 C86.5374194,71.7745 87.0044981,71.5670854 87.3845,71.15225 C87.7645019,70.7374146 87.9545,70.2355029 87.9545,69.6465 Z M88.458,72.088 C87.7866633,72.7403366 86.9601716,73.0665 85.9785,73.0665 C84.9968284,73.0665 84.1703367,72.7387533 83.499,72.08325 C82.8276633,71.4277467 82.492,70.6123382 82.492,69.637 C82.492,68.6616618 82.8276633,67.8462533 83.499,67.19075 C84.1703367,66.5352467 84.9968284,66.2075 85.9785,66.2075 C86.9601716,66.2075 87.7866633,66.5352467 88.458,67.19075 C89.1293367,67.8462533 89.465,68.6616618 89.465,69.637 C89.465,70.6123382 89.1293367,71.42933 88.458,72.088 Z M95.3645,66.3595 L96.8465,66.3595 L96.8465,73 L95.3645,73 L92.201,68.839 L92.201,73 L90.719,73 L90.719,66.3595 L92.106,66.3595 L95.3645,70.6345 L95.3645,66.3595 Z"/>
  </g>
</svg>
