<svg xmlns="http://www.w3.org/2000/svg" width="109" height="88" viewBox="0 0 109 88">
  <g fill="none" fill-rule="evenodd" transform="translate(-.306 -.203)">
    <rect width="108.35" height="86.5" x=".306" y=".849" fill="#123E7A"/>
    <path fill="#CDCCCD" d="M41.871,38.085 L29.061,38.085 L29.061,41.97 L37.965,41.97 L37.965,44.259 L29.061,44.259 L29.061,51 L26.541,51 L26.541,35.796 L41.871,35.796 L41.871,38.085 Z M61.863,51 L59.112,51 L57.348,47.598 L47.121,47.598 L45.357,51 L42.606,51 L50.649,35.796 L53.82,35.796 L61.863,51 Z M56.109,45.309 L52.245,37.959 L48.36,45.309 L56.109,45.309 Z"/>
    <path fill="#3876CF" d="M77.301,50.8079307 C76.3629953,51.0179317 75.4390045,51.1229307 74.529,51.1229307 C71.8689867,51.1229307 69.636009,50.4439375 67.83,49.0859307 C65.7719897,47.5319229 64.743,45.522943 64.743,43.0589307 C64.743,40.6229185 65.7789896,38.6209385 67.851,37.0529307 C69.6710091,35.6809238 71.8969868,34.9949307 74.529,34.9949307 C77.1610132,34.9949307 79.379991,35.6809238 81.186,37.0529307 C83.2440103,38.6069385 84.273,40.6089184 84.273,43.0589307 C84.273,46.1809463 82.7260155,48.5049231 79.632,50.0309307 L81.522,52.1099307 L79.17,52.8659307 L77.301,50.8079307 Z M77.952,48.1829307 C80.4160123,47.1889257 81.648,45.4809428 81.648,43.0589307 C81.648,41.2809218 80.8850076,39.8319363 79.359,38.7119307 C78.0569935,37.7599259 76.4470096,37.2839307 74.529,37.2839307 C72.5969903,37.2839307 70.9730066,37.7599259 69.657,38.7119307 C68.1309924,39.8179362 67.368,41.2669217 67.368,43.0589307 C67.368,44.7669392 68.0224935,46.1529254 69.3315,47.2169307 C70.6405065,48.280936 72.3729892,48.8129307 74.529,48.8129307 C74.6830008,48.8129307 74.9839978,48.7989308 75.432,48.7709307 L73.794,46.9439307 L76.188,46.2299307 L77.952,48.1829307 Z"/>
  </g>
</svg>
