<svg xmlns="http://www.w3.org/2000/svg" width="43" height="40" viewBox="0 0 43 40">
  <g fill="none" fill-rule="evenodd">
    <path fill="#123E7A" d="M.946 37L.946 29.311 2.662 29.311 2.662 35.471 5.94 35.471 5.94 37 .946 37zM8.272 34.041C8.272 34.5250024 8.40949862 34.9191651 8.6845 35.2235 8.95950138 35.5278349 9.31149785 35.68 9.7405 35.68 10.1695021 35.68 10.5214986 35.5278349 10.7965 35.2235 11.0715014 34.9191651 11.209 34.5250024 11.209 34.041 11.209 33.5569976 11.0715014 33.1610015 10.7965 32.853 10.5214986 32.5449985 10.1695021 32.391 9.7405 32.391 9.31149785 32.391 8.95950138 32.5449985 8.6845 32.853 8.40949862 33.1610015 8.272 33.5569976 8.272 34.041zM12.87 34.041C12.87 34.8990043 12.573003 35.6213304 11.979 36.208 11.384997 36.7946696 10.6388378 37.088 9.7405 37.088 8.84216217 37.088 8.09600297 36.7946696 7.502 36.208 6.90799703 35.6213304 6.611 34.8990043 6.611 34.041 6.611 33.1829957 6.90799703 32.4588363 7.502 31.8685 8.09600297 31.2781637 8.84216217 30.983 9.7405 30.983 10.6388378 30.983 11.384997 31.2781637 11.979 31.8685 12.573003 32.4588363 12.87 33.1829957 12.87 34.041zM18.238 33.92C18.238 33.443331 18.1060013 33.0693347 17.842 32.798 17.5779987 32.5266653 17.2516686 32.391 16.863 32.391 16.4743314 32.391 16.1388347 32.5266653 15.8565 32.798 15.5741653 33.0693347 15.433 33.4396643 15.433 33.909 15.433 34.3783357 15.5704986 34.7578319 15.8455 35.0475 16.1205014 35.3371681 16.455998 35.482 16.852 35.482 17.248002 35.482 17.5779987 35.3390014 17.842 35.053 18.1060013 34.7669986 18.238 34.3893357 18.238 33.92zM18.469 35.999C17.9483307 36.5783362 17.3011705 36.868 16.5275 36.868 15.7538295 36.868 15.1011693 36.605836 14.5695 36.0815 14.0378307 35.557164 13.772 34.8568377 13.772 33.9805 13.772 33.1041623 14.0451639 32.3855028 14.5915 31.8245 15.1378361 31.2634972 15.7629965 30.983 16.467 30.983 17.1710035 30.983 17.7539977 31.2726638 18.216 31.852L18.216 31.071 19.866 31.071 19.866 36.23C19.866 36.7580026 19.7743342 37.2273313 19.591 37.638 19.4076657 38.0486687 19.1620015 38.3713322 18.854 38.606 18.2453303 39.0900024 17.5266708 39.332 16.698 39.332 16.2579978 39.332 15.8088356 39.2605007 15.3505 39.1175 14.8921644 38.9744993 14.4906684 38.7710013 14.146 38.507L14.784 37.264C15.3266694 37.6746687 15.900497 37.88 16.5055 37.88 17.110503 37.88 17.5889982 37.7296682 17.941 37.429 18.2930018 37.1283318 18.469 36.6516699 18.469 35.999zM25.652 34.041C25.652 34.5250024 25.7894986 34.9191651 26.0645 35.2235 26.3395014 35.5278349 26.6914979 35.68 27.1205 35.68 27.5495021 35.68 27.9014986 35.5278349 28.1765 35.2235 28.4515014 34.9191651 28.589 34.5250024 28.589 34.041 28.589 33.5569976 28.4515014 33.1610015 28.1765 32.853 27.9014986 32.5449985 27.5495021 32.391 27.1205 32.391 26.6914979 32.391 26.3395014 32.5449985 26.0645 32.853 25.7894986 33.1610015 25.652 33.5569976 25.652 34.041zM30.25 34.041C30.25 34.8990043 29.953003 35.6213304 29.359 36.208 28.764997 36.7946696 28.0188378 37.088 27.1205 37.088 26.2221622 37.088 25.476003 36.7946696 24.882 36.208 24.287997 35.6213304 23.991 34.8990043 23.991 34.041 23.991 33.1829957 24.287997 32.4588363 24.882 31.8685 25.476003 31.2781637 26.2221622 30.983 27.1205 30.983 28.0188378 30.983 28.764997 31.2781637 29.359 31.8685 29.953003 32.4588363 30.25 33.1829957 30.25 34.041zM35.288 34.272L35.288 31.082 36.949 31.082 36.949 37 35.288 37 35.288 36.219C34.8773313 36.7983362 34.3475032 37.088 33.6985 37.088 33.0494968 37.088 32.5050022 36.884502 32.065 36.4775 31.6249978 36.070498 31.405 35.4673373 31.405 34.668L31.405 31.082 33.066 31.082 33.066 34.305C33.066 35.2143379 33.3996633 35.669 34.067 35.669 34.3970016 35.669 34.6829988 35.5498345 34.925 35.3115 35.1670012 35.0731655 35.288 34.7266689 35.288 34.272zM40.48 32.27L40.48 34.921C40.48 35.1483345 40.5386661 35.326166 40.656 35.4545 40.7733339 35.582834 40.9126659 35.647 41.074 35.647 41.3820015 35.647 41.6423323 35.5076681 41.855 35.229L42.471 36.384C41.9576641 36.8533357 41.4168362 37.088 40.8485 37.088 40.2801638 37.088 39.7998353 36.9010019 39.4075 36.527 39.0151647 36.1529981 38.819 35.6433366 38.819 34.998L38.819 32.27 38.126 32.27 38.126 31.082 38.819 31.082 38.819 29.311 40.48 29.311 40.48 31.082 41.91 31.082 41.91 32.27 40.48 32.27zM11 0L43 0 43 14C43 19.5228475 38.5228475 24 33 24L1 24 1 10C1 4.4771525 5.4771525.79088747e-15 11 .77635684e-15z"/>
    <path fill="#FFFFFF" d="M4.51693851,5.53397707 L5.77989156,10.45208 C6.05462741,11.521937 5.41005436,12.6119449 4.34019736,12.8866807 C4.17767278,12.9284165 4.01054194,12.9495332 3.84274411,12.9495332 L2.7242772,12.9495332 C1.6197077,12.9495332 0.724277196,12.0541027 0.724277196,10.9495332 C0.724277196,10.7817354 0.745393952,10.6146046 0.787129741,10.45208 L2.04276434,5.56247609 C1.05804805,5.10632602 0.375,4.10926172 0.375,2.952663 C0.375,1.36501947 1.66203937,0.0779801 3.2496829,0.0779801 L3.2503171,0.0779801 C4.83796063,0.0779801 6.125,1.36501947 6.125,2.952663 C6.125,4.08573925 5.46945258,5.06570419 4.51693851,5.53397707 Z" transform="translate(19 6)"/>
  </g>
</svg>
