<?xml version="1.0" encoding="UTF-8"?>
<svg width="164px" height="162px" viewBox="0 0 164 162" version="1.1" xmlns="http://www.w3.org/2000/svg" xmlns:xlink="http://www.w3.org/1999/xlink">
    <!-- Generator: Sketch 52.3 (67297) - http://www.bohemiancoding.com/sketch -->
    <title>Requests Copy 2</title>
    <desc>Created with Sketch.</desc>
    <g id="Page-1" stroke="none" stroke-width="1" fill="none" fill-rule="evenodd">
        <g id="Login-Wide-Dark" transform="translate(-196.000000, -244.000000)">
            <g id="Group-8" transform="translate(98.000000, 246.000000)">
                <g id="Requests-Copy-2" transform="translate(100.000000, 0.000000)">
                    <g id="Requests" transform="translate(30.000000, 32.000000)" fill="#7399AE">
                        <path d="M30.8248619,59.0205433 C32.0622899,58.5424286 33.2411967,56.3127072 34.3615822,52.3313789 C34.5078389,51.8116511 35.4152982,51.7627818 35.8783227,51.2800219 C36.3279895,50.7664204 35.497403,46.7223215 35.3859256,45.0704443 C35.2593904,43.1954406 32.0901721,41.8927731 32.0073735,34.8956032 C31.9909163,33.5048319 29.5722164,33.9867717 29.5680533,29.8720415 C29.5665619,28.3979303 28.0087704,25.2008802 30.4052904,23.3665383 C32.063477,22.0973308 28.932262,12.5762462 34.3615822,6.2421901 C36.0433046,4.2802274 39.4706913,1.04809676 47.4060261,0.226174364 C48.447017,0.118351094 48.4356606,0.250600256 49.6828076,0.226174364 C49.6828076,13.8243404 49.6828076,68.7427428 49.6828076,93.7381943 C34.6870321,93.7381943 18.2110644,93.7381943 0.254904322,93.7381943 C0.98015383,81.0047982 3.02141743,73.3286871 6.37869513,70.7098608 C9.29096842,67.9178986 17.4396907,64.0214594 30.8248619,59.0205433 Z" id="Combined-Shape"></path>
                        <path d="M77.0847305,59.0205433 C78.3221585,58.5424286 79.5010653,56.3127072 80.6214509,52.3313789 C80.7677075,51.8116511 81.6751669,51.7627818 82.1381914,51.2800219 C82.5878581,50.7664204 81.7572717,46.7223215 81.6457942,45.0704443 C81.5192591,43.1954406 78.3500407,41.8927731 78.2672422,34.8956032 C78.2507849,33.5048319 75.8320851,33.9867717 75.827922,29.8720415 C75.8264306,28.3979303 74.2686391,25.2008802 76.665159,23.3665383 C78.3233456,22.0973308 75.1921307,12.5762462 80.6214509,6.2421901 C82.3221509,4.25808744 86.5336611,1.09632419 95.0913871,0.29785938 C96.1060059,0.203192012 97.9191007,0.320184133 99.0589669,0.29785938 C99.0589669,13.8960254 98.3215852,68.7427428 98.3215852,93.7381943 C83.3258097,93.7381943 66.0568723,93.7381943 46.514773,93.7381943 C47.2400225,81.0047982 49.2812861,73.3286871 52.6385638,70.7098608 C55.5508371,67.9178986 63.6995593,64.0214594 77.0847305,59.0205433 Z" id="Rectangle-41" transform="translate(72.786870, 46.999260) scale(-1, 1) translate(-72.786870, -46.999260) "></path>
                    </g>
                    <ellipse id="Oval-Copy-9" stroke="#F6F6F6" stroke-width="3" cx="80.0138851" cy="79.2372642" rx="80.0138851" ry="79.2372642"></ellipse>
                </g>
            </g>
        </g>
    </g>
</svg>