<svg xmlns="http://www.w3.org/2000/svg" width="122" height="123" viewBox="0 0 122 123">
    <g fill="none" fill-rule="evenodd" transform="translate(2 2)">
        <g fill="#5FB6FD">
            <path d="M44.996 68.326c.914-.358 1.786-2.027 2.614-5.006.108-.39.779-.426 1.12-.787.333-.385-.28-3.411-.363-4.648-.094-1.403-2.436-2.378-2.497-7.615-.012-1.04-1.8-.68-1.803-3.76-.001-1.103-1.153-3.496.619-4.868 1.225-.95-1.09-8.076 2.924-12.817 1.243-1.468 3.776-3.887 9.641-4.502.77-.081.761.018 1.683 0V94.31H22.4c.537-9.53 2.045-15.275 4.527-17.235 2.152-2.09 8.175-5.006 18.069-8.749z"/>
            <path d="M72.834 68.326c-.914-.358-1.786-2.027-2.614-5.006-.108-.39-.779-.426-1.12-.787-.333-.385.28-3.411.363-4.648.094-1.403 2.436-2.378 2.497-7.615.012-1.04 1.8-.68 1.803-3.76.001-1.103 1.153-3.496-.619-4.868-1.225-.95 1.09-8.076-2.924-12.817-1.257-1.485-4.37-3.851-10.695-4.449-.75-.07-2.09.017-2.932 0 0 10.178.545 51.226.545 69.934H95.43c-.537-9.53-2.045-15.275-4.527-17.235-2.152-2.09-8.175-5.006-18.069-8.749z"/>
        </g>
        <ellipse cx="59.141" cy="59.303" stroke="#5FB6FD" stroke-width="3" rx="59.141" ry="59.303"/>
    </g>
</svg>
