<?xml version="1.0" encoding="UTF-8"?>
<svg width="21px" height="15px" viewBox="0 0 21 15" version="1.1" xmlns="http://www.w3.org/2000/svg" xmlns:xlink="http://www.w3.org/1999/xlink">
    <!-- Generator: Sketch 52.3 (67297) - http://www.bohemiancoding.com/sketch -->
    <title>Combined Shape</title>
    <desc>Created with Sketch.</desc>
    <g id="Page-1" stroke="none" stroke-width="1" fill="none" fill-rule="evenodd">
        <g id="Group-28" transform="translate(-520.000000, -74.000000)" fill="#303030">
            <g id="Group-21" transform="translate(7.000000, 7.000000)">
                <g id="fin_calculator" transform="translate(486.000000, 55.000000)">
                    <g id="EMAIL-Icon" transform="translate(27.000000, 12.000000)">
                        <path d="M2.26690391,0.269230769 L18.7948922,0.269230769 C19.8994617,0.269230769 20.7948922,1.16466127 20.7948922,2.26923077 L20.7948922,12.5164122 C20.7948922,13.6209817 19.8994617,14.5164122 18.7948922,14.5164122 L2.26690391,14.5164122 C1.16233441,14.5164122 0.266903915,13.6209817 0.266903915,12.5164122 L0.266903915,2.26923077 C0.266903915,1.16466127 1.16233441,0.269230769 2.26690391,0.269230769 Z M16.5,8.5 C15.9477153,8.5 15.5,8.94771525 15.5,9.5 L15.5,12.5 C15.5,13.0522847 15.9477153,13.5 16.5,13.5 C17.0522847,13.5 17.5,13.0522847 17.5,12.5 L17.5,9.5 C17.5,8.94771525 17.0522847,8.5 16.5,8.5 Z M13.5,8.5 C12.9477153,8.5 12.5,8.94771525 12.5,9.5 C12.5,10.0522847 12.9477153,10.5 13.5,10.5 C14.0522847,10.5 14.5,10.0522847 14.5,9.5 C14.5,8.94771525 14.0522847,8.5 13.5,8.5 Z M13.5,5.5 C12.9477153,5.5 12.5,5.94771525 12.5,6.5 C12.5,7.05228475 12.9477153,7.5 13.5,7.5 C14.0522847,7.5 14.5,7.05228475 14.5,6.5 C14.5,5.94771525 14.0522847,5.5 13.5,5.5 Z M16.5,5.5 C15.9477153,5.5 15.5,5.94771525 15.5,6.5 C15.5,7.05228475 15.9477153,7.5 16.5,7.5 C17.0522847,7.5 17.5,7.05228475 17.5,6.5 C17.5,5.94771525 17.0522847,5.5 16.5,5.5 Z M13.5,11.5 C12.9477153,11.5 12.5,11.9477153 12.5,12.5 C12.5,13.0522847 12.9477153,13.5 13.5,13.5 C14.0522847,13.5 14.5,13.0522847 14.5,12.5 C14.5,11.9477153 14.0522847,11.5 13.5,11.5 Z M10.5,8.5 C9.94771525,8.5 9.5,8.94771525 9.5,9.5 C9.5,10.0522847 9.94771525,10.5 10.5,10.5 C11.0522847,10.5 11.5,10.0522847 11.5,9.5 C11.5,8.94771525 11.0522847,8.5 10.5,8.5 Z M10.5,5.5 C9.94771525,5.5 9.5,5.94771525 9.5,6.5 C9.5,7.05228475 9.94771525,7.5 10.5,7.5 C11.0522847,7.5 11.5,7.05228475 11.5,6.5 C11.5,5.94771525 11.0522847,5.5 10.5,5.5 Z M10.5,11.5 C9.94771525,11.5 9.5,11.9477153 9.5,12.5 C9.5,13.0522847 9.94771525,13.5 10.5,13.5 C11.0522847,13.5 11.5,13.0522847 11.5,12.5 C11.5,11.9477153 11.0522847,11.5 10.5,11.5 Z M7.5,8.5 C6.94771525,8.5 6.5,8.94771525 6.5,9.5 C6.5,10.0522847 6.94771525,10.5 7.5,10.5 C8.05228475,10.5 8.5,10.0522847 8.5,9.5 C8.5,8.94771525 8.05228475,8.5 7.5,8.5 Z M7.5,5.5 C6.94771525,5.5 6.5,5.94771525 6.5,6.5 C6.5,7.05228475 6.94771525,7.5 7.5,7.5 C8.05228475,7.5 8.5,7.05228475 8.5,6.5 C8.5,5.94771525 8.05228475,5.5 7.5,5.5 Z M7.5,11.5 C6.94771525,11.5 6.5,11.9477153 6.5,12.5 C6.5,13.0522847 6.94771525,13.5 7.5,13.5 C8.05228475,13.5 8.5,13.0522847 8.5,12.5 C8.5,11.9477153 8.05228475,11.5 7.5,11.5 Z M4.5,8.5 C3.94771525,8.5 3.5,8.94771525 3.5,9.5 C3.5,10.0522847 3.94771525,10.5 4.5,10.5 C5.05228475,10.5 5.5,10.0522847 5.5,9.5 C5.5,8.94771525 5.05228475,8.5 4.5,8.5 Z M4.5,5.5 C3.94771525,5.5 3.5,5.94771525 3.5,6.5 C3.5,7.05228475 3.94771525,7.5 4.5,7.5 C5.05228475,7.5 5.5,7.05228475 5.5,6.5 C5.5,5.94771525 5.05228475,5.5 4.5,5.5 Z M4.5,11.5 C3.94771525,11.5 3.5,11.9477153 3.5,12.5 C3.5,13.0522847 3.94771525,13.5 4.5,13.5 C5.05228475,13.5 5.5,13.0522847 5.5,12.5 C5.5,11.9477153 5.05228475,11.5 4.5,11.5 Z M3.5,1.5 L3.5,4.5 L17.5,4.5 L17.5,1.5 L3.5,1.5 Z" id="Combined-Shape"></path>
                    </g>
                </g>
            </g>
        </g>
    </g>
</svg>