<?xml version="1.0" encoding="UTF-8"?>
<svg width="15px" height="16px" viewBox="0 0 15 16" version="1.1" xmlns="http://www.w3.org/2000/svg" xmlns:xlink="http://www.w3.org/1999/xlink">
    <!-- Generator: Sketch 52.3 (67297) - http://www.bohemiancoding.com/sketch -->
    <title>Group 36</title>
    <desc>Created with Sketch.</desc>
    <g id="Page-1" stroke="none" stroke-width="1" fill="none" fill-rule="evenodd">
        <g id="Group-28" transform="translate(-604.000000, -74.000000)" fill="#303030">
            <g id="Group-21" transform="translate(7.000000, 7.000000)">
                <g id="custom_widget_biz-copy" transform="translate(567.000000, 55.000000)">
                    <g id="Group-36" transform="translate(30.000000, 12.000000)">
                        <path d="M1.22775801,2 L1.22775801,14.9230769 L13.772242,14.9230769 L13.772242,2 L1.22775801,2 Z M1.22775801,0.923076923 L13.772242,0.923076923 C14.3618698,0.923076923 14.8398577,1.40523181 14.8398577,2 L14.8398577,14.9230769 C14.8398577,15.5178451 14.3618698,16 13.772242,16 L1.22775801,16 C0.63813016,16 0.160142349,15.5178451 0.160142349,14.9230769 L0.160142349,2 C0.160142349,1.40523181 0.63813016,0.923076923 1.22775801,0.923076923 Z" id="Rectangle-Copy-54" fill-rule="nonzero"></path>
                        <path d="M6.95263846,12.5 L6.95263846,11.2011719 L8.50088968,11.2011719 L8.50088968,12.5 L6.95263846,12.5 Z M8.50088968,10.2967248 L6.95263846,10.2967248 L6.95263846,10.1494892 C6.95263846,9.58508332 7.20980893,9.01542755 7.72415758,8.44050481 L8.09427825,8.03034856 C8.59472559,7.47295394 8.84494551,6.97516245 8.84494551,6.53695913 C8.84494551,5.88491261 8.43833814,5.55889423 7.62511121,5.55889423 C7.10033657,5.55889423 6.49911371,5.71489227 5.8214246,6.02689303 L5.8214246,4.83849159 C6.51301502,4.628154 7.18895633,4.52298678 7.84926879,4.52298678 C8.67292171,4.52298678 9.32366726,4.68249039 9.80152497,5.0015024 C10.2793827,5.32051442 10.5183079,5.75520558 10.5183079,6.30558894 C10.5183079,6.81039916 10.2315976,7.33623525 9.65816837,7.88311298 L9.30889958,8.21965144 C8.98221867,8.5316522 8.7658827,8.79544664 8.65988518,9.01104267 C8.55388765,9.2266387 8.50088968,9.50620822 8.50088968,9.84975962 L8.50088968,10.2967248 Z" id="?-copy"></path>
                    </g>
                </g>
            </g>
        </g>
    </g>
</svg>