<?xml version="1.0" encoding="UTF-8"?>
<svg width="17px" height="15px" viewBox="0 0 17 15" version="1.1" xmlns="http://www.w3.org/2000/svg" xmlns:xlink="http://www.w3.org/1999/xlink">
    <!-- Generator: Sketch 52.3 (67297) - http://www.bohemiancoding.com/sketch -->
    <title>Combined Shape</title>
    <desc>Created with Sketch.</desc>
    <g id="Page-1" stroke="none" stroke-width="1" fill="none" fill-rule="evenodd">
        <g id="Group-27" transform="translate(-37.000000, -74.000000)" fill="#B3B3B3" fill-rule="nonzero">
            <g id="detailedNews" transform="translate(8.000000, 63.000000)">
                <g id="Group-7" transform="translate(29.866667, 11.111771)">
                    <path d="M-8.8817842e-16,1.69642078e-13 L15.2,1.69642078e-13 L15.2,14.8032755 L-8.8817842e-16,14.8032755 L-8.8817842e-16,1.69642078e-13 Z M7.13333333,1.88822914 L14.1333333,1.88822914 L14.1333333,0.888229138 L7.13333333,0.888229138 L7.13333333,1.88822914 Z M7.13333333,3.88822914 L14.1333333,3.88822914 L14.1333333,2.88822914 L7.13333333,2.88822914 L7.13333333,3.88822914 Z M7.13333333,5.88822914 L14.1333333,5.88822914 L14.1333333,4.88822914 L7.13333333,4.88822914 L7.13333333,5.88822914 Z M7.13333333,7.88822914 L14.1333333,7.88822914 L14.1333333,6.88822914 L7.13333333,6.88822914 L7.13333333,7.88822914 Z M1.13333333,9.88822914 L14.1333333,9.88822914 L14.1333333,8.88822914 L1.13333333,8.88822914 L1.13333333,9.88822914 Z M1.13333333,11.8882291 L10.1333333,11.8882291 L10.1333333,10.8882291 L1.13333333,10.8882291 L1.13333333,11.8882291 Z M10.9333333,10.8882291 L10.9333333,13.7722824 L13.8666667,13.7722824 L13.8666667,10.8882291 L10.9333333,10.8882291 Z M1.13333333,13.8882291 L10.1333333,13.8882291 L10.1333333,12.8882291 L1.13333333,12.8882291 L1.13333333,13.8882291 Z M1.13333333,0.888229138 L1.13333333,7.88822914 L5.93333333,7.88822914 L5.93333333,0.888229138 L1.13333333,0.888229138 Z" id="Combined-Shape"></path>
                </g>
            </g>
        </g>
    </g>
</svg>