<?xml version="1.0" encoding="UTF-8"?>
<svg width="13px" height="17px" viewBox="0 0 13 17" version="1.1" xmlns="http://www.w3.org/2000/svg" xmlns:xlink="http://www.w3.org/1999/xlink">
    <!-- Generator: Sketch 52.3 (67297) - http://www.bohemiancoding.com/sketch -->
    <title>Documentation</title>
    <desc>Created with Sketch.</desc>
    <g id="Page-1" stroke="none" stroke-width="1" fill="none" fill-rule="evenodd">
        <g id="Group-28" transform="translate(-524.000000, -16.000000)" fill="#303030" fill-rule="nonzero">
            <g id="Group-21" transform="translate(7.000000, 7.000000)">
                <g id="documentation" transform="translate(486.000000, 0.000000)">
                    <g id="Documentation" transform="translate(31.494662, 9.653846)">
                        <path d="M0,0 L6,0 C9.3137085,-6.08718376e-16 12,2.6862915 12,6 L12,15 C12,15.5522847 11.5522847,16 11,16 L0,16 L0,0 Z M1,1 L5.5,1 C8.53756612,1 11,3.46243388 11,6.5 L11,14.5 C11,14.7761424 10.7761424,15 10.5,15 L1,15 L1,1 Z M0.5,0.5 L0.5,15.5 L10.5,15.5 C11.0522847,15.5 11.5,15.0522847 11.5,14.5 L11.5,6.5 C11.5,3.1862915 8.8137085,0.5 5.5,0.5 L0.5,0.5 Z M2.34384002,3.78768987 C2.12080195,3.78768987 1.93999387,3.96849795 1.93999387,4.19153602 C1.93999387,4.41457409 2.12080195,4.59538217 2.34384002,4.59538217 L8.74255341,4.59538217 C8.96559148,4.59538217 9.14639956,4.41457409 9.14639956,4.19153602 C9.14639956,3.96849795 8.96559148,3.78768987 8.74255341,3.78768987 L2.34384002,3.78768987 Z M2.07693611,5.13384371 C1.85389803,5.13384371 1.67308995,5.31465179 1.67308995,5.53768987 C1.67308995,5.76072794 1.85389803,5.94153602 2.07693611,5.94153602 L7.67493775,5.94153602 C7.89797582,5.94153602 8.0787839,5.76072794 8.0787839,5.53768987 C8.0787839,5.31465179 7.89797582,5.13384371 7.67493775,5.13384371 L2.07693611,5.13384371 Z M2.07918423,6.74922833 C1.85614616,6.74922833 1.67533808,6.93003641 1.67533808,7.15307448 C1.67533808,7.37611255 1.85614616,7.55692064 2.07918423,7.55692064 L8.74255341,7.55692064 C8.96559148,7.55692064 9.14639956,7.37611255 9.14639956,7.15307448 C9.14639956,6.93003641 8.96559148,6.74922833 8.74255341,6.74922833 L2.07918423,6.74922833 Z M2.07693611,8.09538217 C1.85389803,8.09538217 1.67308995,8.27619026 1.67308995,8.49922833 C1.67308995,8.7222664 1.85389803,8.90307448 2.07693611,8.90307448 L6.60732209,8.90307448 C6.83036016,8.90307448 7.01116824,8.7222664 7.01116824,8.49922833 C7.01116824,8.27619026 6.83036016,8.09538217 6.60732209,8.09538217 L2.07693611,8.09538217 Z M2.07918423,9.71076679 C1.85614616,9.71076679 1.67533808,9.89157487 1.67533808,10.1146129 C1.67533808,10.337651 1.85614616,10.5184591 2.07918423,10.5184591 L8.74255341,10.5184591 C8.96559148,10.5184591 9.14639956,10.337651 9.14639956,10.1146129 C9.14639956,9.89157487 8.96559148,9.71076679 8.74255341,9.71076679 L2.07918423,9.71076679 Z M2.07918423,11.3261514 C1.85614616,11.3261514 1.67533808,11.5069595 1.67533808,11.7299976 C1.67533808,11.9530356 1.85614616,12.1338437 2.07918423,12.1338437 L8.74255341,12.1338437 C8.96559148,12.1338437 9.14639956,11.9530356 9.14639956,11.7299976 C9.14639956,11.5069595 8.96559148,11.3261514 8.74255341,11.3261514 L2.07918423,11.3261514 Z M2.07693611,12.6723053 C1.85389803,12.6723053 1.67308995,12.8531133 1.67308995,13.0761514 C1.67308995,13.2991895 1.85389803,13.4799976 2.07693611,13.4799976 L6.87422601,13.4799976 C7.09726408,13.4799976 7.27807216,13.2991895 7.27807216,13.0761514 C7.27807216,12.8531133 7.09726408,12.6723053 6.87422601,12.6723053 L2.07693611,12.6723053 Z" id="Combined-Shape"></path>
                    </g>
                </g>
            </g>
        </g>
    </g>
</svg>