<?xml version="1.0" encoding="UTF-8"?>
<svg width="21px" height="14px" viewBox="0 0 21 14" version="1.1" xmlns="http://www.w3.org/2000/svg" xmlns:xlink="http://www.w3.org/1999/xlink">
    <!-- Generator: Sketch 52.3 (67297) - http://www.bohemiancoding.com/sketch -->
    <title>Combined Shape</title>
    <desc>Created with Sketch.</desc>
    <g id="Page-1" stroke="none" stroke-width="1" fill="none" fill-rule="evenodd">
        <g id="Group-28" transform="translate(-196.000000, -19.000000)" fill="#303030" fill-rule="nonzero">
            <path d="M206.535756,27.2927594 C205.457131,26.3480432 202.042086,23.7481808 196.290619,19.4931721 C196.065913,19.3326676 195.975254,19.4900338 196.19996,19.6505383 L206.209381,27.8069056 C206.40179,27.9443406 206.658404,27.9259344 206.828963,27.7767303 C213.522708,22.508788 216.81618,19.8000573 216.709381,19.6505383 C216.843428,19.4933843 216.934087,19.3326676 216.709381,19.4931721 C212.19577,23.0704702 208.804562,25.6703326 206.535756,27.2927594 Z M196,19 L217,19 L217,33 L196,33 L196,19 Z M216.341,32.7543995 C216.481501,32.8422126 216.666586,32.7995006 216.754399,32.6589997 C216.842213,32.5184987 208.333414,27.2004994 208.245601,27.3410003 C208.157787,27.4815013 208.200499,27.6665864 208.341,27.7543995 L216.341,32.7543995 Z M196.659,32.7543995 L204.659,27.7543995 C204.799501,27.6665864 204.842213,27.4815013 204.754399,27.3410003 C204.666586,27.2004994 196.157787,32.5184987 196.245601,32.6589997 C196.333414,32.7995006 196.518499,32.8422126 196.659,32.7543995 Z" id="Combined-Shape"></path>
        </g>
    </g>
</svg>