<?xml version="1.0" encoding="UTF-8"?>
<svg width="27px" height="17px" viewBox="0 0 27 17" version="1.1" xmlns="http://www.w3.org/2000/svg" xmlns:xlink="http://www.w3.org/1999/xlink">
    <!-- Generator: Sketch 52.3 (67297) - http://www.bohemiancoding.com/sketch -->
    <title>Group 34</title>
    <desc>Created with Sketch.</desc>
    <g id="Page-1" stroke="none" stroke-width="1" fill="none" fill-rule="evenodd">
        <g id="Group-28" transform="translate(-598.000000, -17.000000)" fill="#303030" fill-rule="nonzero">
            <g id="Group-21" transform="translate(7.000000, 7.000000)">
                <g id="embedded" transform="translate(567.000000, 0.000000)">
                    <g id="Group-34" transform="translate(23.000000, 10.000000)">
                        <g id="Group-4-Copy" transform="translate(0.288256, 0.384615)">
                            <g id="Group-3" transform="translate(18.348754, 0.000000)">
                                <path d="M0.128244306,3.84771648 L9.36048356,3.88778492 C9.87996898,3.89003951 10.3005367,4.31060719 10.3027913,4.83009261 L10.3027913,4.83009261 C10.3050207,5.34378751 9.89039606,5.76202685 9.37670116,5.76425631 C9.37400997,5.76426799 9.37131874,5.76426799 9.36862755,5.76425631 L0.136388297,5.72418787 C-0.383097121,5.72193328 -0.803664799,5.3013656 -0.805919395,4.78188018 L-0.805919395,4.78188018 C-0.80814886,4.26818528 -0.393524201,3.84994595 0.1201707,3.84771648 C0.122861889,3.8477048 0.125553117,3.8477048 0.128244306,3.84771648 Z" id="Rectangle-Copy-36" transform="translate(4.748436, 4.805986) rotate(45.000000) translate(-4.748436, -4.805986) "></path>
                                <path d="M0.128244306,10.5784857 L9.36048356,10.6185541 C9.87996898,10.6208087 10.3005367,11.0413764 10.3027913,11.5608618 L10.3027913,11.5608618 C10.3050207,12.0745567 9.89039606,12.4927961 9.37670116,12.4950255 C9.37400997,12.4950372 9.37131874,12.4950372 9.36862755,12.4950255 L0.136388297,12.4549571 C-0.383097121,12.4527025 -0.803664799,12.0321348 -0.805919395,11.5126494 L-0.805919395,11.5126494 C-0.80814886,10.9989545 -0.393524201,10.5807152 0.1201707,10.5784857 C0.122861889,10.578474 0.125553117,10.578474 0.128244306,10.5784857 Z" id="Rectangle-Copy-37" transform="translate(4.748436, 11.536756) scale(-1, 1) rotate(45.000000) translate(-4.748436, -11.536756) "></path>
                            </g>
                            <g id="Group-3" transform="translate(5.341637, 8.500000) scale(-1, 1) translate(-5.341637, -8.500000) translate(0.341637, 0.000000)">
                                <path d="M0.128244306,3.84771648 L9.36048356,3.88778492 C9.87996898,3.89003951 10.3005367,4.31060719 10.3027913,4.83009261 L10.3027913,4.83009261 C10.3050207,5.34378751 9.89039606,5.76202685 9.37670116,5.76425631 C9.37400997,5.76426799 9.37131874,5.76426799 9.36862755,5.76425631 L0.136388297,5.72418787 C-0.383097121,5.72193328 -0.803664799,5.3013656 -0.805919395,4.78188018 L-0.805919395,4.78188018 C-0.80814886,4.26818528 -0.393524201,3.84994595 0.1201707,3.84771648 C0.122861889,3.8477048 0.125553117,3.8477048 0.128244306,3.84771648 Z" id="Rectangle-Copy-36" transform="translate(4.748436, 4.805986) rotate(45.000000) translate(-4.748436, -4.805986) "></path>
                                <path d="M0.128244306,10.5784857 L9.36048356,10.6185541 C9.87996898,10.6208087 10.3005367,11.0413764 10.3027913,11.5608618 L10.3027913,11.5608618 C10.3050207,12.0745567 9.89039606,12.4927961 9.37670116,12.4950255 C9.37400997,12.4950372 9.37131874,12.4950372 9.36862755,12.4950255 L0.136388297,12.4549571 C-0.383097121,12.4527025 -0.803664799,12.0321348 -0.805919395,11.5126494 L-0.805919395,11.5126494 C-0.80814886,10.9989545 -0.393524201,10.5807152 0.1201707,10.5784857 C0.122861889,10.578474 0.125553117,10.578474 0.128244306,10.5784857 Z" id="Rectangle-Copy-37" transform="translate(4.748436, 11.536756) scale(-1, 1) rotate(45.000000) translate(-4.748436, -11.536756) "></path>
                            </g>
                        </g>
                        <path d="M14.6139345,0.225772604 L14.6139345,0.225772604 C15.2048388,0.227211866 15.6835005,0.705881938 15.6849295,1.29678624 L15.718797,15.3018756 C15.720217,15.8890857 15.2453403,16.3662647 14.6581302,16.3676847 C14.6564099,16.3676888 14.6546897,16.3676888 14.6529694,16.3676846 L14.6529694,16.3676846 C14.0620651,16.3662454 13.5834034,15.8875753 13.5819744,15.296671 L13.5481069,1.2915816 C13.5466869,0.704371527 14.0215636,0.227192567 14.6087737,0.225772559 C14.610494,0.225768399 14.6122143,0.225768414 14.6139345,0.225772604 Z" id="Rectangle" transform="translate(14.633452, 8.296729) rotate(17.000000) translate(-14.633452, -8.296729) "></path>
                    </g>
                </g>
            </g>
        </g>
    </g>
</svg>