<?xml version="1.0" encoding="UTF-8"?>
<svg width="20px" height="16px" viewBox="0 0 20 16" version="1.1" xmlns="http://www.w3.org/2000/svg" xmlns:xlink="http://www.w3.org/1999/xlink">
    <!-- Generator: Sketch 52.3 (67297) - http://www.bohemiancoding.com/sketch -->
    <title>Forum icon</title>
    <desc>Created with Sketch.</desc>
    <g id="Page-1" stroke="none" stroke-width="1" fill="none" fill-rule="evenodd">
        <g id="Group-28" transform="translate(-278.000000, -73.000000)" fill="#303030" fill-rule="nonzero">
            <g id="Group-21" transform="translate(7.000000, 7.000000)">
                <g id="forum" transform="translate(243.000000, 55.000000)">
                    <g id="Forum-icon" transform="translate(28.024911, 11.653846)">
                        <path d="M16.0181224,11.8847302 L16.1277773,11.7075826 L16.3345196,11.7075826 C17.7203914,11.7075826 18.8438624,10.5720502 18.8438624,9.17130005 L18.8438624,6.62580498 C18.8438624,4.95911479 17.5070943,3.60799543 15.8581072,3.60799543 L9.76466859,3.60799543 C8.11568151,3.60799543 6.77891335,4.95911479 6.77891335,6.62580498 L6.77891335,8.68977305 C6.77891335,10.3564632 8.11568151,11.7075826 9.76466859,11.7075826 L14.8229342,11.7075826 L14.8229342,12.0848088 C14.8229342,12.7461684 15.2818134,13.3730391 16.2384048,13.9536982 C15.8275642,13.007291 15.7417082,12.3312776 16.0181224,11.8847302 Z M9.76466859,3.23076923 L15.8581072,3.23076923 C17.7132177,3.23076923 19.2170819,4.75077851 19.2170819,6.62580498 L19.2170819,9.17130005 C19.2170819,10.7803865 17.9265148,12.0848088 16.3345196,12.0848088 C16.0689772,12.5137928 16.3181272,13.4214206 17.0819696,14.8076923 C15.3271331,14.0374571 14.4497148,13.1298293 14.4497148,12.0848088 L9.76466859,12.0848088 C7.90955812,12.0848088 6.40569395,10.5647995 6.40569395,8.68977305 L6.40569395,6.62580498 C6.40569395,4.75077851 7.90955812,3.23076923 9.76466859,3.23076923 Z" id="Rectangle-52"></path>
                        <path d="M3.31693728,0 L10.5620663,0 C12.3939602,0 13.8790036,1.5144121 13.8790036,3.3825341 L13.8790036,6.49313834 C13.8790036,8.25190725 12.4808892,9.67767115 10.7562278,9.67767115 C10.4685569,10.1465606 10.7384694,11.1386189 11.5659653,12.6538462 C9.66489238,11.8119612 8.71435592,10.8199029 8.71435592,9.67767115 L3.31693728,9.67767115 C1.48504341,9.67767115 0,8.16325905 0,6.29513706 L1.30934761e-15,3.3825341 C1.30934761e-15,1.5144121 1.48504341,0 3.31693728,0 Z" id="Rectangle-52" transform="translate(6.939502, 6.326923) scale(-1, 1) translate(-6.939502, -6.326923) "></path>
                    </g>
                </g>
            </g>
        </g>
    </g>
</svg>