<?xml version="1.0" encoding="UTF-8"?>
<svg width="39px" height="15px" viewBox="0 0 39 15" version="1.1" xmlns="http://www.w3.org/2000/svg" xmlns:xlink="http://www.w3.org/1999/xlink">
    <!-- Generator: Sketch 52.3 (67297) - http://www.bohemiancoding.com/sketch -->
    <title>Group 9</title>
    <desc>Created with Sketch.</desc>
    <g id="Page-1" stroke="none" stroke-width="1" fill="none" fill-rule="evenodd">
        <g id="Group-27" transform="translate(-430.000000, -19.000000)" fill="#B3B3B3" fill-rule="nonzero">
            <g id="gallery" transform="translate(413.000000, 8.000000)">
                <g id="Group-9" transform="translate(17.000000, 11.000000)">
                    <g id="Group-8" transform="translate(0.000000, 5.921310)">
                        <path d="M9,7.80536344 L9,8 L12.1220256,8 C11.7338645,8.53473737 11.1071077,8.8819653 10.4,8.8819653 L2.13333333,8.8819653 C0.955125867,8.8819653 -1.27046923e-14,7.91794316 -1.28489811e-14,6.72876159 L-1.33226763e-14,2.15320371 C-1.34669651e-14,0.964022137 0.955125867,8.19308637e-14 2.13333333,8.17124146e-14 L9,8.17124146e-14 L9,1.07660185 L2.13333333,1.07660185 C1.5442296,1.07660185 1.06666667,1.55861292 1.06666667,2.15320371 L1.06666667,6.72876159 C1.06666667,7.32335238 1.5442296,7.80536344 2.13333333,7.80536344 L9,7.80536344 Z" id="Combined-Shape"></path>
                        <path d="M9,3.78358932 L9,7.26706252 L2.93333333,7.26706252 C4.01099656,4.80753995 4.67812142,3.57777866 4.9347079,3.57777866 C5.19129439,3.57777866 5.51202749,4.01610942 5.89690722,4.89277093 C6.51271478,3.06639278 7.11569301,2.15320371 7.70584192,2.15320371 C8.03906296,2.15320371 8.47044899,2.69666558 9,3.78358932 Z" id="Combined-Shape"></path>
                        <ellipse id="Oval" cx="3.06666667" cy="2.5569294" rx="1" ry="1"></ellipse>
                    </g>
                    <g id="Group-8-Copy" transform="translate(8.266667, 3.768106)">
                        <path d="M13.8481919,9.5 L15.377485,9.5 C15.1143256,10.3879671 14.298713,11.035169 13.3333333,11.035169 L2.13333333,11.035169 C0.955125867,11.035169 -1.63206804e-15,10.0711469 -1.77635684e-15,8.8819653 L-1.77635684e-15,2.15320371 C-1.92064564e-15,0.964022137 0.955125867,-3.33426457e-15 2.13333333,-3.55271368e-15 L10,-3.55271368e-15 L10,1.34575232 L2.13333333,1.34575232 C1.69150553,1.34575232 1.33333333,1.70726062 1.33333333,2.15320371 L1.33333333,8.8819653 C1.33333333,9.32790839 1.69150553,9.68941669 2.13333333,9.68941669 L13.3333333,9.68941669 C13.5294328,9.68941669 13.7090528,9.61820277 13.8481919,9.5 Z" id="Combined-Shape"></path>
                        <path d="M10,3.06134914 L10,9.15111576 L3.73333333,9.15111576 C5.08041237,6.17379897 5.91431844,4.68514057 6.23505155,4.68514057 C6.55578465,4.68514057 6.95670103,5.21575148 7.43780069,6.27697331 C8.20756014,4.0660945 8.96128293,2.9606551 9.69896907,2.9606551 C9.79305226,2.9606551 9.8933959,2.99421978 10,3.06134914 Z" id="Combined-Shape"></path>
                        <ellipse id="Oval" cx="3.73333333" cy="3.22980556" rx="1" ry="1"></ellipse>
                    </g>
                    <g id="Group-8" transform="translate(17.066667, 0.000000)">
                        <path d="M2.13333333,1.61490278 C1.83878147,1.61490278 1.6,1.85590832 1.6,2.15320371 L1.6,12.6500718 C1.6,12.9473672 1.83878147,13.1883727 2.13333333,13.1883727 L18.9333333,13.1883727 C19.2278852,13.1883727 19.4666667,12.9473672 19.4666667,12.6500718 L19.4666667,2.15320371 C19.4666667,1.85590832 19.2278852,1.61490278 18.9333333,1.61490278 L2.13333333,1.61490278 Z M2.13333333,0 L18.9333333,0 C20.1115408,-2.18449111e-16 21.0666667,0.964022137 21.0666667,2.15320371 L21.0666667,12.6500718 C21.0666667,13.8392534 20.1115408,14.8032755 18.9333333,14.8032755 L2.13333333,14.8032755 C0.955125867,14.8032755 1.442888e-16,13.8392534 0,12.6500718 L0,2.15320371 C-1.442888e-16,0.964022137 0.955125867,2.18449111e-16 2.13333333,0 Z" id="Rectangle"></path>
                        <path d="M8.1670133,5.88773214 C8.59868167,5.88773214 9.13826713,6.62274018 9.78576969,8.09275625 C10.8217738,5.03022277 11.8361945,3.49895603 12.8290317,3.49895603 C13.821869,3.49895603 15.3327083,6.35732061 17.3615496,12.0740498 L4.8,12.0740498 C6.61300716,7.94983802 7.73534493,5.88773214 8.1670133,5.88773214 Z" id="Rectangle"></path>
                        <ellipse id="Oval" cx="5.2" cy="4.03725695" rx="1.2" ry="1.07660185"></ellipse>
                    </g>
                </g>
            </g>
        </g>
    </g>
</svg>