<?xml version="1.0" encoding="UTF-8"?>
<svg width="23px" height="16px" viewBox="0 0 23 16" version="1.1" xmlns="http://www.w3.org/2000/svg" xmlns:xlink="http://www.w3.org/1999/xlink">
    <!-- Generator: Sketch 52.3 (67297) - http://www.bohemiancoding.com/sketch -->
    <title>Group 4</title>
    <desc>Created with Sketch.</desc>
    <g id="Page-1" stroke="none" stroke-width="1" fill="none" fill-rule="evenodd">
        <g id="Group-27" transform="translate(-34.000000, -19.000000)" fill="#B3B3B3" fill-rule="nonzero">
            <g id="html" transform="translate(8.000000, 8.000000)">
                <g id="Group-4" transform="translate(25.400000, 10.249146)">
                    <g id="Group-3" transform="translate(14.066667, 0.000000)">
                        <path d="M0.126482961,4.16981173 L9.35325394,4.21258271 C9.87252057,4.21498979 10.2928735,4.63534271 10.2952806,5.15460934 L10.2952806,5.15460934 C10.297659,5.66769667 9.88364763,6.08556424 9.3705603,6.08794267 C9.36768929,6.08795598 9.36481824,6.08795598 9.36194723,6.08794267 L0.13517625,6.04517169 C-0.384090375,6.04276461 -0.804443296,5.62241169 -0.806850372,5.10314506 L-0.806850372,5.10314506 C-0.809228805,4.59005773 -0.395217438,4.17219016 0.117869896,4.16981173 C0.120740902,4.16979842 0.123611955,4.16979842 0.126482961,4.16981173 Z" id="Rectangle-Copy-36" transform="translate(4.744215, 5.128877) rotate(45.000000) translate(-4.744215, -5.128877) "></path>
                        <path d="M0.126482961,10.8985733 L9.35325394,10.9413443 C9.87252057,10.9437514 10.2928735,11.3641043 10.2952806,11.8833709 L10.2952806,11.8833709 C10.297659,12.3964583 9.88364763,12.8143258 9.3705603,12.8167043 C9.36768929,12.8167176 9.36481824,12.8167176 9.36194723,12.8167043 L0.13517625,12.7739333 C-0.384090375,12.7715262 -0.804443296,12.3511733 -0.806850372,11.8319067 L-0.806850372,11.8319067 C-0.809228805,11.3188193 -0.395217438,10.9009518 0.117869896,10.8985733 C0.120740902,10.89856 0.123611955,10.89856 0.126482961,10.8985733 Z" id="Rectangle-Copy-37" transform="translate(4.744215, 11.857639) scale(-1, 1) rotate(45.000000) translate(-4.744215, -11.857639) "></path>
                    </g>
                    <g id="Group-3" transform="translate(5.333333, 8.500000) scale(-1, 1) translate(-5.333333, -8.500000) translate(0.333333, 0.000000)">
                        <path d="M0.126482961,4.16981173 L9.35325394,4.21258271 C9.87252057,4.21498979 10.2928735,4.63534271 10.2952806,5.15460934 L10.2952806,5.15460934 C10.297659,5.66769667 9.88364763,6.08556424 9.3705603,6.08794267 C9.36768929,6.08795598 9.36481824,6.08795598 9.36194723,6.08794267 L0.13517625,6.04517169 C-0.384090375,6.04276461 -0.804443296,5.62241169 -0.806850372,5.10314506 L-0.806850372,5.10314506 C-0.809228805,4.59005773 -0.395217438,4.17219016 0.117869896,4.16981173 C0.120740902,4.16979842 0.123611955,4.16979842 0.126482961,4.16981173 Z" id="Rectangle-Copy-36" transform="translate(4.744215, 5.128877) rotate(45.000000) translate(-4.744215, -5.128877) "></path>
                        <path d="M0.126482961,10.8985733 L9.35325394,10.9413443 C9.87252057,10.9437514 10.2928735,11.3641043 10.2952806,11.8833709 L10.2952806,11.8833709 C10.297659,12.3964583 9.88364763,12.8143258 9.3705603,12.8167043 C9.36768929,12.8167176 9.36481824,12.8167176 9.36194723,12.8167043 L0.13517625,12.7739333 C-0.384090375,12.7715262 -0.804443296,12.3511733 -0.806850372,11.8319067 L-0.806850372,11.8319067 C-0.809228805,11.3188193 -0.395217438,10.9009518 0.117869896,10.8985733 C0.120740902,10.89856 0.123611955,10.89856 0.126482961,10.8985733 Z" id="Rectangle-Copy-37" transform="translate(4.744215, 11.857639) scale(-1, 1) rotate(45.000000) translate(-4.744215, -11.857639) "></path>
                    </g>
                </g>
            </g>
        </g>
    </g>
</svg>