<?xml version="1.0" encoding="UTF-8"?>
<svg width="22px" height="15px" viewBox="0 0 22 15" version="1.1" xmlns="http://www.w3.org/2000/svg" xmlns:xlink="http://www.w3.org/1999/xlink">
    <!-- Generator: Sketch 52.3 (67297) - http://www.bohemiancoding.com/sketch -->
    <title>Group 13</title>
    <desc>Created with Sketch.</desc>
    <g id="Page-1" stroke="none" stroke-width="1" fill="none" fill-rule="evenodd">
        <g id="Group-27" transform="translate(-358.000000, -19.000000)" fill="#B3B3B3" fill-rule="nonzero">
            <g id="image" transform="translate(332.000000, 8.000000)">
                <g id="Group-13" transform="translate(26.933333, 11.111771)">
                    <path d="M2.13333333,1.61490278 C1.83878147,1.61490278 1.6,1.85590832 1.6,2.15320371 L1.6,12.6500718 C1.6,12.9473672 1.83878147,13.1883727 2.13333333,13.1883727 L18.9333333,13.1883727 C19.2278852,13.1883727 19.4666667,12.9473672 19.4666667,12.6500718 L19.4666667,2.15320371 C19.4666667,1.85590832 19.2278852,1.61490278 18.9333333,1.61490278 L2.13333333,1.61490278 Z M2.13333333,0 L18.9333333,0 C20.1115408,-2.18449111e-16 21.0666667,0.964022137 21.0666667,2.15320371 L21.0666667,12.6500718 C21.0666667,13.8392534 20.1115408,14.8032755 18.9333333,14.8032755 L2.13333333,14.8032755 C0.955125867,14.8032755 1.442888e-16,13.8392534 0,12.6500718 L0,2.15320371 C-1.442888e-16,0.964022137 0.955125867,2.18449111e-16 2.13333333,0 Z" id="Rectangle-Copy-43"></path>
                    <path d="M7.75739131,5.73777688 C8.17073207,5.73777688 8.68740803,6.42664484 9.30741918,7.80438075 C10.299437,4.9340976 11.2707878,3.49895603 12.2214716,3.49895603 C13.1721553,3.49895603 14.618848,6.17788697 16.5615496,11.5357488 L4.53333333,11.5357488 C6.26936455,7.6704342 7.34405054,5.73777688 7.75739131,5.73777688 Z" id="Rectangle-Copy-44"></path>
                    <ellipse id="Oval" cx="4.33333333" cy="3.92548609" rx="1.2" ry="1.07660185"></ellipse>
                </g>
            </g>
        </g>
    </g>
</svg>