<?xml version="1.0" encoding="UTF-8"?>
<svg width="15px" height="15px" viewBox="0 0 15 15" version="1.1" xmlns="http://www.w3.org/2000/svg" xmlns:xlink="http://www.w3.org/1999/xlink">
    <!-- Generator: Sketch 52.3 (67297) - http://www.bohemiancoding.com/sketch -->
    <title>Group 29</title>
    <desc>Created with Sketch.</desc>
    <g id="Page-1" stroke="none" stroke-width="1" fill="none" fill-rule="evenodd">
        <g id="Group-27" transform="translate(-200.000000, -19.000000)">
            <g id="javascript" transform="translate(170.000000, 8.000000)">
                <g id="Group-29" transform="translate(30.000000, 11.000000)">
                    <path d="M1.25737898,1.07142857 L1.25737898,13.9285714 L13.742621,13.9285714 L13.742621,1.07142857 L1.25737898,1.07142857 Z M1.25737898,0 L13.742621,0 C14.3294643,0 14.8051948,0.479694911 14.8051948,1.07142857 L14.8051948,13.9285714 C14.8051948,14.5203051 14.3294643,15 13.742621,15 L1.25737898,15 C0.670535685,15 0.194805195,14.5203051 0.194805195,13.9285714 L0.194805195,1.07142857 C0.194805195,0.479694911 0.670535685,0 1.25737898,0 Z" id="Rectangle" fill="#ADADAD" fill-rule="nonzero"></path>
                    <path d="M8.97282153,11.8069498 L8.97282153,10.8262548 C9.59861017,11.0836564 10.1340573,11.2123552 10.5791789,11.2123552 C10.890764,11.2123552 11.1362318,11.1441448 11.3155897,11.007722 C11.4949475,10.8712992 11.5846251,10.6859729 11.5846251,10.4517375 C11.5846251,10.2664083 11.5283311,10.1100392 11.4157415,9.98262548 C11.3031519,9.85521172 11.0897586,9.70399058 10.7755551,9.52895753 L10.3867302,9.31660232 C9.86567607,9.02831259 9.49780166,8.75225357 9.28309594,8.48841699 C9.06839021,8.22458041 8.96103896,7.91634668 8.96103896,7.56370656 C8.96103896,7.09266174 9.1371212,6.71428714 9.48929095,6.42857143 C9.84146071,6.14285571 10.3068677,6 10.8855258,6 C11.3489759,6 11.8713314,6.06563641 12.4526079,6.1969112 L12.4526079,7.11196911 C11.8582396,6.8931778 11.3882506,6.78378378 11.0426267,6.78378378 C10.7755538,6.78378378 10.5615058,6.84234176 10.4004765,6.95945946 C10.2394472,7.07657716 10.1589338,7.23037228 10.1589338,7.42084942 C10.1589338,7.57786436 10.2152278,7.71557212 10.3278173,7.83397683 C10.4404069,7.95238154 10.6524911,8.09781124 10.9640762,8.27027027 L11.3803938,8.4980695 C11.9407234,8.80695135 12.326926,9.09137579 12.5390134,9.35135135 C12.7511008,9.61132691 12.8571429,9.92792606 12.8571429,10.3011583 C12.8571429,10.8314055 12.6568411,11.2471027 12.2562317,11.5482625 C11.8556222,11.8494224 11.303156,12 10.5988165,12 C10.132748,12 9.59075508,11.9356506 8.97282153,11.8069498 Z" id="S" fill="#B3B3B3"></path>
                    <path d="M6.04683726,11.8581081 L6.03896104,10.990991 C6.35401145,11.1144901 6.67824596,11.1762387 7.01167431,11.1762387 C7.28996884,11.1762387 7.48162163,11.0987245 7.58663843,10.9436937 C7.69165523,10.7886629 7.74416285,10.5101371 7.74416285,10.1081081 L7.74416285,5 L8.96103896,5 L8.96103896,9.97804054 C8.96103896,10.6953865 8.81533033,11.2117101 8.52390871,11.527027 C8.23248708,11.8423439 7.75598048,12 7.09437463,12 C6.7635717,12 6.41439607,11.9527032 6.04683726,11.8581081 Z" id="J" fill="#B3B3B3"></path>
                </g>
            </g>
        </g>
    </g>
</svg>