<?xml version="1.0" encoding="UTF-8"?>
<svg width="77px" height="80px" viewBox="0 0 77 80" version="1.1" xmlns="http://www.w3.org/2000/svg" xmlns:xlink="http://www.w3.org/1999/xlink">
    <!-- Generator: Sketch 52.3 (67297) - http://www.bohemiancoding.com/sketch -->
    <title>lock copy 2</title>
    <desc>Created with Sketch.</desc>
    <g id="Page-1" stroke="none" stroke-width="1" fill="none" fill-rule="evenodd">
        <g id="page_builder" transform="translate(-839.000000, -2296.000000)" fill-rule="nonzero">
            <g id="Line-4" transform="translate(839.000000, 565.000000)">
                <g id="lock-copy-2" transform="translate(0.000000, 1731.000000)">
                    <rect id="Rectangle-Copy-33" stroke="#979797" fill="#FFFFFF" x="0.5" y="0.5" width="76" height="79" rx="12"></rect>
                    <circle id="Oval" fill="#D8D8D8" cx="38" cy="28" r="11"></circle>
                    <path d="M37.3488621,34 L39.7949342,34 C40.5982713,34 40.8903193,34.0707113 41.192959,34.2098313 C41.4955987,34.3489513 41.7432514,34.5564802 41.9331697,34.8301154 C42.1230879,35.1037506 42.2437994,35.3789248 42.3843345,36.1698739 L45.6945619,54.8002434 C46.0810269,56.9753158 44.631074,59.0518521 42.4560016,59.438317 C42.2250097,59.4793594 41.9908547,59.5 41.756245,59.5 L36.1163032,59.5 C33.9071642,59.5 32.1163032,57.709139 32.1163032,55.5 C32.1163032,55.3153759 32.1290854,55.1309734 32.1545582,54.948115 L34.7586598,36.2543894 C34.8720527,35.4403901 34.9876939,35.1548321 35.1751021,34.8700699 C35.3625104,34.5853077 35.6124292,34.3677902 35.9203249,34.2214633 C36.2282206,34.0751364 36.5270027,34 37.3488621,34 Z" id="Rectangle" fill="#D8D8D8"></path>
                </g>
            </g>
        </g>
    </g>
</svg>