<?xml version="1.0" encoding="UTF-8"?>
<svg width="17px" height="18px" viewBox="0 0 17 18" version="1.1" xmlns="http://www.w3.org/2000/svg" xmlns:xlink="http://www.w3.org/1999/xlink">
    <!-- Generator: Sketch 52.3 (67297) - http://www.bohemiancoding.com/sketch -->
    <title>Group 22</title>
    <desc>Created with Sketch.</desc>
    <g id="Page-1" stroke="none" stroke-width="1" fill="none" fill-rule="evenodd">
        <g id="Group-27" transform="translate(-201.000000, -74.000000)" fill="#B3B3B3" fill-rule="nonzero">
            <g id="Group-25-Copy-2" transform="translate(170.000000, 63.000000)">
                <g id="Group-22" transform="translate(31.000000, 11.000000)">
                    <g id="Group-24">
                        <path d="M11.625,9 L13,9 L13,11.9960383 C12.5573366,13.7232753 10.9902658,15 9.125,15 L4,15 C1.790861,15 2.705415e-16,13.209139 0,11 L0,4 C-2.705415e-16,1.790861 1.790861,4.05812251e-16 4,0 L9.125,0 C10.9902658,-3.42643768e-16 12.5573366,1.27672466 13,3.00396166 L13,5 L11.625,5 L11.625,4 C11.625,2.61928813 10.5057119,1.5 9.125,1.5 L4,1.5 C2.61928813,1.5 1.5,2.61928813 1.5,4 L1.5,11 C1.5,12.3807119 2.61928813,13.5 4,13.5 L9.125,13.5 C10.5057119,13.5 11.625,12.3807119 11.625,11 L11.625,9 Z M11.625,8 L11.625,6 L13.125,6 L13.125,8 L11.625,8 Z" id="Combined-Shape"></path>
                    </g>
                    <g id="Group-24" transform="translate(0.000000, 2.000000)" stroke="#B3B3B3" stroke-width="1.5">
                        <path d="M4.08120297,1.0914874 C3.74976874,0.9098796 3.37792862,0.814682812 3,0.814682812 C1.75735931,0.814682812 0.75,1.82204212 0.75,3.06468281 L0.75,11.2229884 C0.75,12.0448166 1.19807363,12.8012669 1.91879703,13.1961838 L5.04379703,14.9085126 C5.37523126,15.0901204 5.74707138,15.1853172 6.125,15.1853172 C7.36764069,15.1853172 8.375,14.1779579 8.375,12.9353172 L8.375,4.77701158 C8.375,3.95518337 7.92692637,3.1987331 7.20620297,2.80381616 L4.08120297,1.0914874 Z" id="Rectangle"></path>
                    </g>
                    <path d="M14,6 L14,4 L17,7 L14,10 L14,8 L11,8 L11,6 L14,6 Z" id="Combined-Shape"></path>
                </g>
            </g>
        </g>
    </g>
</svg>