<?xml version="1.0" encoding="UTF-8"?>
<svg width="37px" height="19px" viewBox="0 0 37 19" version="1.1" xmlns="http://www.w3.org/2000/svg" xmlns:xlink="http://www.w3.org/1999/xlink">
    <!-- Generator: Sketch 52.3 (67297) - http://www.bohemiancoding.com/sketch -->
    <title>Group 35</title>
    <desc>Created with Sketch.</desc>
    <g id="Page-1" stroke="none" stroke-width="1" fill="none" fill-rule="evenodd">
        <g id="Group-28" transform="translate(-107.000000, -69.000000)" fill="#303030" fill-rule="nonzero">
            <g id="Group-21" transform="translate(7.000000, 7.000000)">
                <g id="newsCarousel" transform="translate(81.000000, 55.000000)">
                    <g id="Group-35" transform="translate(19.000000, 7.000000)">
                        <g id="Group-7-Copy-2" transform="translate(20.836299, 0.153846)">
                            <path d="M5.33807829,14.8076923 L5.33807829,13.9230769 L13.8790036,13.9230769 L13.8790036,12.9230769 L5.33807829,12.9230769 L5.33807829,11.8461538 L10.1423488,11.8461538 L10.1423488,10.8461538 L5.33807829,10.8461538 L5.33807829,9.88461538 L10.1423488,9.88461538 L10.1423488,8.88461538 L5.33807829,8.88461538 L5.33807829,7.80769231 L8.54092527,7.80769231 L8.54092527,1.61538462 L0.800711744,1.61538462 L0.800711744,3.84615385 L7.10542736e-15,3.84615385 L7.99360578e-15,3.37507799e-14 L15.2135231,3.37507799e-14 L15.2135231,14.8076923 L5.33807829,14.8076923 Z M9.16199015,2.61538462 L14.0586504,2.61538462 L14.0586504,1.61538462 L9.16199015,1.61538462 L9.16199015,2.61538462 Z M9.16199015,4.84615385 L14.0586504,4.84615385 L14.0586504,3.84615385 L9.16199015,3.84615385 L9.16199015,4.84615385 Z M9.16199015,7 L14.0586504,7 L14.0586504,6 L9.16199015,6 L9.16199015,7 Z M10.9430605,8.88461538 L10.9430605,11.7692308 L13.8790036,11.7692308 L13.8790036,8.88461538 L10.9430605,8.88461538 Z" id="Combined-Shape"></path>
                        </g>
                        <g id="Group-7-Copy-3" transform="translate(0.818505, 0.153846)">
                            <path d="M15.2135231,3.84615385 L13.8790036,3.84615385 L13.8790036,1.61538462 L9.0747331,1.61538462 L9.0747331,7.80769231 L10.1423488,7.80769231 L10.1423488,8.88461538 L0.667259786,8.88461538 L0.667259786,9.88461538 L10.1423488,9.88461538 L10.1423488,14.8076923 L1.59872116e-14,14.8076923 L1.59872116e-14,6.75015599e-14 L15.2135231,6.75015599e-14 L15.2135231,3.84615385 Z M0.667259786,2.61538462 L7.87366548,2.61538462 L7.87366548,1.61538462 L0.667259786,1.61538462 L0.667259786,2.61538462 Z M0.667259786,4.76923077 L7.87366548,4.76923077 L7.87366548,3.76923077 L0.667259786,3.76923077 L0.667259786,4.76923077 Z M0.667259786,6.92307692 L7.87366548,6.92307692 L7.87366548,5.92307692 L0.667259786,5.92307692 L0.667259786,6.92307692 Z M0.667259786,11.8461538 L10.1423488,11.8461538 L10.1423488,10.8461538 L0.667259786,10.8461538 L0.667259786,11.8461538 Z M0.667259786,13.9230769 L10.1423488,13.9230769 L10.1423488,12.9230769 L0.667259786,12.9230769 L0.667259786,13.9230769 Z" id="Combined-Shape"></path>
                        </g>
                        <g id="Group-7-Copy" transform="translate(10.960854, 4.000000)">
                            <path d="M7.99360578e-15,3.90798505e-14 L15.2135231,3.90798505e-14 L15.2135231,14.8076923 L7.99360578e-15,14.8076923 L7.99360578e-15,3.90798505e-14 Z M6.80604982,2.61538462 L14.0124555,2.61538462 L14.0124555,1.61538462 L6.80604982,1.61538462 L6.80604982,2.61538462 Z M6.80604982,4.84615385 L14.0124555,4.84615385 L14.0124555,3.84615385 L6.80604982,3.84615385 L6.80604982,4.84615385 Z M0.667259786,8 L14.0124555,8 L14.0124555,7 L0.667259786,7 L0.667259786,8 Z M0.667259786,9.88461538 L14.0124555,9.88461538 L14.0124555,8.88461538 L0.667259786,8.88461538 L0.667259786,9.88461538 Z M0.667259786,12 L10.1423488,12 L10.1423488,11 L0.667259786,11 L0.667259786,12 Z M10.9430605,11 L10.9430605,14 L13.8790036,14 L13.8790036,11 L10.9430605,11 Z M0.667259786,13.9230769 L10.1423488,13.9230769 L10.1423488,12.9230769 L0.667259786,12.9230769 L0.667259786,13.9230769 Z M0.800711744,1.61538462 L0.800711744,6.19230769 L5.60498221,6.19230769 L5.60498221,1.61538462 L0.800711744,1.61538462 Z" id="Combined-Shape"></path>
                        </g>
                    </g>
                </g>
            </g>
        </g>
    </g>
</svg>