<?xml version="1.0" encoding="UTF-8"?>
<svg width="13px" height="15px" viewBox="0 0 13 15" version="1.1" xmlns="http://www.w3.org/2000/svg" xmlns:xlink="http://www.w3.org/1999/xlink">
    <!-- Generator: Sketch 52.3 (67297) - http://www.bohemiancoding.com/sketch -->
    <title>Group 31</title>
    <desc>Created with Sketch.</desc>
    <g id="Page-1" stroke="none" stroke-width="1" fill="none" fill-rule="evenodd">
        <g id="Group-27" transform="translate(-444.000000, -74.000000)">
            <g id="presentation" transform="translate(413.000000, 63.000000)">
                <g id="Group-31" transform="translate(31.000000, 11.000000)">
                    <path d="M2.33333333,1.65007179 C2.03878147,1.65007179 1.8,1.89107732 1.8,2.18837272 L1.8,12.6852408 C1.8,12.9825362 2.03878147,13.2235417 2.33333333,13.2235417 L10.6,13.2235417 C10.8945519,13.2235417 11.1333333,12.9825362 11.1333333,12.6852408 L11.1333333,2.18837272 C11.1333333,1.89107732 10.8945519,1.65007179 10.6,1.65007179 L2.33333333,1.65007179 Z M2.33333333,0.0351690074 L10.6,0.0351690074 C11.7782075,0.0351690074 12.7333333,0.999191145 12.7333333,2.18837272 L12.7333333,12.6852408 C12.7333333,13.8744224 11.7782075,14.8384445 10.6,14.8384445 L2.33333333,14.8384445 C1.15512587,14.8384445 0.2,13.8744224 0.2,12.6852408 L0.2,2.18837272 C0.2,0.999191145 1.15512587,0.0351690074 2.33333333,0.0351690074 Z" id="Rectangle-Copy-41" fill="#B3B3B3" fill-rule="nonzero"></path>
                    <path d="M2.96132812,5.95647921 L2.96132812,3.03893024 L3.96914062,3.03893024 C4.32070488,3.03893024 4.57167894,3.0983977 4.72207031,3.21733441 C4.87246169,3.33627113 4.94765625,3.53504359 4.94765625,3.81365777 C4.94765625,4.12907004 4.84707132,4.37449654 4.64589844,4.54994462 C4.44472556,4.7253927 4.16315285,4.81311542 3.80117187,4.81311542 L3.55117187,4.81311542 L3.55117187,5.95647921 L2.96132812,5.95647921 Z M3.55117187,4.4129381 L3.66835937,4.4129381 C3.87408957,4.4129381 4.03652284,4.36464132 4.15566406,4.26804631 C4.27480528,4.1714513 4.334375,4.04036003 4.334375,3.87476859 C4.334375,3.58432645 4.15143412,3.43910756 3.78554687,3.43910756 L3.55117187,3.43910756 L3.55117187,4.4129381 Z M5.41445312,5.95647921 L5.41445312,3.03893024 L6.65859375,3.03893024 C7.10651266,3.03893024 7.44960818,3.15885081 7.68789062,3.39869557 C7.92617307,3.63854032 8.0453125,3.98450297 8.0453125,4.4365939 C8.0453125,4.91759762 7.91901168,5.29115843 7.66640625,5.55728754 C7.41380082,5.82341665 7.06028873,5.95647921 6.60585937,5.95647921 L5.41445312,5.95647921 Z M6.01601562,5.54250266 L6.46523437,5.54250266 C6.78164221,5.54250266 7.01764245,5.45412284 7.17324219,5.27736054 C7.32884192,5.10059825 7.40664062,4.83217328 7.40664062,4.4720776 C7.40664062,4.19346342 7.34414125,3.96150746 7.21914062,3.77620275 C7.1332027,3.64872362 7.02968811,3.56067234 6.90859375,3.51204629 C6.78749939,3.46342023 6.61106887,3.43910756 6.37929687,3.43910756 L6.01601562,3.43910756 L6.01601562,5.54250266 Z M8.58632812,5.95647921 L8.58632812,3.03893024 L10.4046875,3.03893024 L10.4046875,3.43910756 L9.18789062,3.43910756 L9.18789062,4.32620015 L10.1878906,4.32620015 L10.1878906,4.7283488 L9.18789062,4.7283488 L9.18789062,5.95647921 L8.58632812,5.95647921 Z" id="PDF" fill="#BBBCBB"></path>
                </g>
            </g>
        </g>
    </g>
</svg>