<?xml version="1.0" encoding="UTF-8"?>
<svg width="19px" height="16px" viewBox="0 0 19 16" version="1.1" xmlns="http://www.w3.org/2000/svg" xmlns:xlink="http://www.w3.org/1999/xlink">
    <!-- Generator: Sketch 52.3 (67297) - http://www.bohemiancoding.com/sketch -->
    <title>Group 18</title>
    <desc>Created with Sketch.</desc>
    <g id="Page-1" stroke="none" stroke-width="1" fill="none" fill-rule="evenodd">
        <g id="Group-28" transform="translate(-117.000000, -19.000000)" fill="#303030">
            <g id="Group-21" transform="translate(7.000000, 7.000000)">
                <g id="registration-copy" transform="translate(81.000000, 0.000000)">
                    <g id="Group-18" transform="translate(28.828947, 12.842105)">
                        <g id="Requests-Copy-3" transform="translate(0.776316, 0.000000)">
                            <g id="Requests-Copy" transform="translate(0.049560, 0.026969)">
                                <path d="M4.45984194,9.19794116 C4.64036994,9.12319827 4.81236029,8.7746295 4.97581301,8.15223486 C4.99715035,8.07098664 5.12953932,8.06334698 5.19708982,7.9878779 C5.26269157,7.9075874 5.14151756,7.27537992 5.12525415,7.01714461 C5.10679397,6.72402831 4.64443766,6.52038439 4.6323582,5.42652806 C4.62995726,5.20911103 4.27709386,5.28445189 4.27648652,4.64120274 C4.27626893,4.41075731 4.0490032,3.9109676 4.39863077,3.62420789 C4.64054312,3.42579472 4.18373111,1.93737886 4.97581301,0.947186059 C5.22115899,0.640475583 5.7211794,0.135201797 6.87886302,0.00671199002 C7.03073287,-0.0101438485 7.02907608,0.0105304504 7.21102198,0.00671199002 C7.21102198,2.13249142 7.21102198,10.717797 7.21102198,14.6252957 C5.0232928,14.6252957 2.61961881,14.6252957 0,14.6252957 C0.105806433,12.6347044 0.403605768,11.4347103 0.893398005,11.0253134 C1.31826868,10.5888504 2.50708332,9.97972634 4.45984194,9.19794116 Z" id="Combined-Shape"></path>
                                <path d="M14.0868441,12.5941334 C14.1916104,13.1391331 14.2652834,13.8121702 14.3078632,14.6132448 C11.4568722,14.6132448 8.93751207,14.6132448 6.74978288,14.6132448 C6.74978288,10.705746 6.64220648,2.13164687 6.64220648,0.00586743955 C6.80850122,0.00935743229 7.07301307,-0.00893175801 7.22103551,0.00586743955 C8.46951959,0.130690159 9.08393556,0.624963526 9.33205016,0.935135105 C10.0591158,1.84405011 9.73389834,3.1727539 9.8627079,3.53821245 C8.26482136,4.37273336 7.17412374,6.04550906 7.17412374,7.97303084 C7.17412374,10.7344546 9.41269999,12.9730308 12.1741237,12.9730308 C12.8516143,12.9730308 13.4976335,12.838286 14.0868441,12.5941334 Z" id="Combined-Shape"></path>
                            </g>
                        </g>
                        <path d="M13.263664,13.2530364 C10.3462813,13.2530364 7.9812753,10.8880305 7.9812753,7.97064777 C7.9812753,5.05326507 10.3462813,2.68825911 13.263664,2.68825911 C16.1810467,2.68825911 18.5460526,5.05326507 18.5460526,7.97064777 C18.5460526,10.8880305 16.1810467,13.2530364 13.263664,13.2530364 Z M13.263664,12.2530364 C15.6287619,12.2530364 17.5460526,10.3357457 17.5460526,7.97064777 C17.5460526,5.60554982 15.6287619,3.68825911 13.263664,3.68825911 C10.898566,3.68825911 8.9812753,5.60554982 8.9812753,7.97064777 C8.9812753,10.3357457 10.898566,12.2530364 13.263664,12.2530364 Z" id="Oval" fill-rule="nonzero"></path>
                        <path d="M13.9810223,7.14701417 L16.1198128,7.14701417 L16.1198128,8.74114372 L13.9810223,8.74114372 L13.9810223,10.680668 L12.5463057,10.680668 L12.5463057,8.74114372 L10.4075152,8.74114372 L10.4075152,7.14701417 L12.5463057,7.14701417 L12.5463057,5.2340587 L13.9810223,5.2340587 L13.9810223,7.14701417 Z" id="Combined-Shape" fill-rule="nonzero"></path>
                    </g>
                </g>
            </g>
        </g>
    </g>
</svg>