<?xml version="1.0" encoding="UTF-8"?>
<svg width="28px" height="16px" viewBox="0 0 28 16" version="1.1" xmlns="http://www.w3.org/2000/svg" xmlns:xlink="http://www.w3.org/1999/xlink">
    <!-- Generator: Sketch 52.3 (67297) - http://www.bohemiancoding.com/sketch -->
    <title>Group 33</title>
    <desc>Created with Sketch.</desc>
    <g id="Page-1" stroke="none" stroke-width="1" fill="none" fill-rule="evenodd">
        <g id="Group-28" transform="translate(-357.000000, -18.000000)" fill="#303030" fill-rule="nonzero">
            <g id="Group-21" transform="translate(7.000000, 7.000000)">
                <g id="Email-Copy-2" transform="translate(324.000000, 0.000000)">
                    <g id="Group-33" transform="translate(26.000000, 11.000000)">
                        <path d="M21,6 L18,6 C16.3431458,6 15,7.34314575 15,9 L15,9.92511542 C13.4958874,9.00335891 12.2785335,8.28830757 12.2456005,8.34100032 C12.1577874,8.48150128 12.2004994,8.66658639 12.3410003,8.75439949 L15,10.4162743 L15,13 C15,13.3506354 15.0601542,13.6872211 15.1707057,14 L5.23669996e-12,14 L5.23669996e-12,0 L21,0 L21,6 Z M10.5357561,8.29275942 C9.45713119,7.34804321 6.04208552,4.74818077 0.290619097,0.493172101 C0.0659128036,0.332667605 -0.0247464497,0.490033829 0.199959844,0.650538324 L10.2093809,8.80690557 C10.40179,8.94434065 10.6584043,8.92593442 10.8289631,8.77673034 C17.5227076,3.50878797 20.8161802,0.800057298 20.7093809,0.650538324 C20.8434279,0.49338434 20.9340872,0.332667605 20.7093809,0.493172101 C16.1957704,4.07047021 12.8045621,6.67033265 10.5357561,8.29275942 Z M0.658999682,13.7543995 L8.65899968,8.75439949 C8.79950064,8.66658639 8.84221259,8.48150128 8.75439949,8.34100032 C8.66658639,8.20049936 0.157787409,13.5184987 0.245600509,13.6589997 C0.333413608,13.7995006 0.518498723,13.8422126 0.658999682,13.7543995 Z" id="Combined-Shape"></path>
                        <path d="M18,7 C16.8954305,7 16,7.8954305 16,9 L16,13 C16,14.1045695 16.8954305,15 18,15 L25,15 C26.1045695,15 27,14.1045695 27,13 L27,9 C27,7.8954305 26.1045695,7 25,7 L18,7 Z M18,6 L25,6 C26.6568542,6 28,7.34314575 28,9 L28,13 C28,14.6568542 26.6568542,16 25,16 L18,16 C16.3431458,16 15,14.6568542 15,13 L15,9 C15,7.34314575 16.3431458,6 18,6 Z" id="Rectangle"></path>
                        <path d="M25.0144316,10.3577073 L20.510124,13.8768581 L20.5012466,13.8654955 C20.3538785,13.9510272 20.1826584,14 20,14 C19.6724301,14 19.3816465,13.8424988 19.1992475,13.5990946 L19.1951142,13.6015781 L19.1569939,13.5381352 C19.1469345,13.5224095 19.1373032,13.506384 19.1281164,13.4900749 L17.65,11.0300761 L17.6513755,11.0292496 C17.5554431,10.8757516 17.5,10.6943505 17.5,10.5 C17.5,9.94771525 17.9477153,9.5 18.5,9.5 C18.8853323,9.5 19.2197609,9.7179449 19.3867402,10.0372891 L20.2778292,11.5203103 L23.8492634,8.73 L23.8542692,8.73640707 C24.0284919,8.58892771 24.2538609,8.5 24.5,8.5 C25.0522847,8.5 25.5,8.94771525 25.5,9.5 C25.5,9.86415222 25.3053557,10.1828428 25.0144316,10.3577073 Z" id="Combined-Shape"></path>
                    </g>
                </g>
            </g>
        </g>
    </g>
</svg>