<?xml version="1.0" encoding="UTF-8"?>
<svg width="21px" height="14px" viewBox="0 0 21 14" version="1.1" xmlns="http://www.w3.org/2000/svg" xmlns:xlink="http://www.w3.org/1999/xlink">
    <!-- Generator: Sketch 52.3 (67297) - http://www.bohemiancoding.com/sketch -->
    <title>Group 14</title>
    <desc>Created with Sketch.</desc>
    <g id="Page-1" stroke="none" stroke-width="1" fill="none" fill-rule="evenodd">
        <g id="Group-28" transform="translate(-278.000000, -19.000000)" fill="#303030" fill-rule="nonzero">
            <g id="Group-21" transform="translate(7.000000, 7.000000)">
                <g id="subscription" transform="translate(243.000000, 0.000000)">
                    <g id="Group-14" transform="translate(27.487544, 11.500000)">
                        <path d="M17.3293549,14.4343422 L17.2429772,14.5 L0.512455516,14.5 L0.512455516,0.5 L21.5124555,0.5 L21.5124555,14.5 L19.4604685,14.5 L20.2663299,13.8874458 L20.8534558,14.2543995 C20.9939568,14.3422126 21.1790419,14.2995006 21.266855,14.1589997 C21.2825891,14.1338251 21.0223326,13.942429 20.5839777,13.6459942 L21.1922478,13.1836339 L20.3891138,12.1085476 L20.1194707,12.3135097 C20.2218901,11.7897263 20.1566896,11.2296415 19.8977459,10.718176 L19.8977596,10.7181691 C19.2722832,9.48272823 18.6661447,8.35239324 18.0793441,7.32716411 C17.9388557,7.15690247 17.7083221,7.09023335 17.498642,7.15922806 C17.2175748,7.25171252 17.0646982,7.55453601 17.1571827,7.83560325 L17.1571985,7.83559803 C17.3186875,8.32637497 17.3994319,8.58472568 17.3994319,8.61065018 C17.314878,8.66360805 16.7587409,6.87192225 16.0508559,7.28418286 C15.3429709,7.69644346 16.3784396,8.96153846 16.3784396,9.27185287 C16.0967657,8.96153846 15.4726174,7.20423254 14.7230921,7.64074377 C13.9735668,8.077255 15.4227281,9.82844354 15.2957919,9.9023691 C15.1779999,9.97096921 14.4415594,8.54050846 13.679185,7.43151066 C18.8011478,3.3751357 21.3153649,1.28147825 21.2218364,1.15053832 C21.3558835,0.99338434 21.4465427,0.832667605 21.2218364,0.993172101 C18.0708102,3.49054313 15.4668055,5.51154455 13.4098223,7.05617634 C12.9157937,6.40111673 12.4402782,5.97229372 12.1459075,6.26923077 C11.8092992,6.60877361 11.9538893,7.10716196 12.3794231,7.82388862 C11.8994732,8.17838113 11.4557361,8.50133806 11.0482116,8.79275942 C9.9695867,7.84804321 6.55454103,5.24818077 0.803074613,0.993172101 C0.57836832,0.832667605 0.487709066,0.990033829 0.71241536,1.15053832 L10.7218364,9.30690557 C10.9142455,9.44434065 11.1708598,9.42593442 11.3414186,9.27673034 C11.7916099,8.92243206 12.2264208,8.57970988 12.6458513,8.2485638 C12.8042815,8.49079118 12.9850219,8.75403638 13.1825205,9.03994878 C12.923464,8.8968448 12.7694814,8.82271964 12.758056,8.84100032 C12.6702429,8.98150128 12.7129549,9.16658639 12.8534558,9.25439949 L13.6907851,9.7777303 C14.1616489,10.4673608 14.6882657,11.2659916 15.2168958,12.1895882 C14.00327,10.3602085 12.8117199,10.3535047 12.4149839,11.1153846 C13.0100678,11.7767603 13.8650449,12.5992627 14.9799085,13.5828993 C15.6420135,14.1670623 16.4853603,14.4574542 17.3293549,14.4343422 Z M1.1714552,14.2543995 L9.1714552,9.25439949 C9.31195616,9.16658639 9.35466811,8.98150128 9.26685501,8.84100032 C9.17904191,8.70049936 0.670242925,14.0184987 0.758056025,14.1589997 C0.845869124,14.2995006 1.03095424,14.3422126 1.1714552,14.2543995 Z" id="Combined-Shape"></path>
                    </g>
                </g>
            </g>
        </g>
    </g>
</svg>