<?xml version="1.0" encoding="UTF-8"?>
<svg width="22px" height="15px" viewBox="0 0 22 15" version="1.1" xmlns="http://www.w3.org/2000/svg" xmlns:xlink="http://www.w3.org/1999/xlink">
    <!-- Generator: Sketch 52.3 (67297) - http://www.bohemiancoding.com/sketch -->
    <title>Group 37</title>
    <desc>Created with Sketch.</desc>
    <g id="Page-1" stroke="none" stroke-width="1" fill="none" fill-rule="evenodd">
        <g id="Group-28" transform="translate(-601.000000, -73.000000)" fill="#303030" fill-rule="nonzero">
            <g id="Group-21" transform="translate(7.000000, 7.000000)">
                <g id="custom_widget_biz-copy" transform="translate(567.000000, 55.000000)">
                    <g id="Group-37" transform="translate(27.000000, 11.000000)">
                        <g id="Group-36">
                            <rect id="Rectangle" x="0" y="0" width="6" height="5" rx="1"></rect>
                            <rect id="Rectangle-Copy-70" x="8" y="0" width="6" height="5" rx="1"></rect>
                            <rect id="Rectangle-Copy-72" x="16" y="0" width="6" height="5" rx="1"></rect>
                        </g>
                        <path d="M0,7 L22,7 L22,15 L0,15 L0,7 Z M1,10 L16,10 L16,9 L1,9 L1,10 Z M1,12 L20,12 L20,11 L1,11 L1,12 Z M1,14 L20,14 L20,13 L1,13 L1,14 Z" id="Combined-Shape"></path>
                    </g>
                </g>
            </g>
        </g>
    </g>
</svg>