<svg xmlns="http://www.w3.org/2000/svg" width="109" height="88" viewBox="0 0 109 88">
  <g fill="none" fill-rule="evenodd" transform="translate(-.512 .646)">
    <rect width="108.35" height="86.5" x=".512" fill="#123E7A"/>
    <g transform="translate(31 21)">
      <g fill="#CDCCCD" transform="translate(.108 .156)">
        <path d="M8.90621312,9.68423422 C10.0846785,9.53871532 10.9969864,8.53396502 10.9969864,7.31613378 L10.9969864,7.31613378 L10.9969864,3.3014912 C10.9969864,3.16950868 10.9860572,3.03775281 10.9643108,2.90757416 C10.7467564,1.6052456 9.51464785,0.725862381 8.21231929,0.943416757 L8.21231929,0.943416757 L8.21231929,0.943416757 C7.62162981,1.04209161 7.09760817,1.30654793 6.68195083,1.68247314 C3.14479115,3.63437318 0.748896162,7.40049478 0.748896162,11.7262076 L0.748896162,11.7262076 L0.748896162,18.219007 L6.19413579,18.1622669 L6.19413579,11.9953992 C6.19413579,10.8198826 7.06074859,9.84677424 8.18994304,9.6801053 L8.18983786,9.66869073 C8.202821,9.67078697 8.21583458,9.67278779 8.22887782,9.67469249 C8.32894747,9.66163641 8.43100398,9.65490146 8.53463353,9.65490146 L8.53463353,9.65490146 L8.53463353,9.65490146 C8.66108624,9.65490146 8.78519674,9.66492968 8.90621312,9.68423422 Z"/>
        <path d="M8.81338371,21.6960949 C10.0269952,21.8079954 10.9773029,22.8288561 10.9773029,24.071673 L10.9773029,28.5644713 C10.9773029,28.6163378 10.9753776,28.6681864 10.9715311,28.71991 C10.8856847,29.8742739 9.8802956,30.7404784 8.72593173,30.654632 L8.72593173,30.654632 C8.2333233,30.6179982 7.78196673,30.4404723 7.41085763,30.1627924 C3.47795885,28.3461442 0.748896162,24.3668626 0.748896162,19.7501743 L0.748896162,19.7501743 L0.748896162,13.9488241 L6.19413579,13.9081213 L6.19413579,19.3720242 C6.19413579,20.5478888 7.06126166,21.5212252 8.19094575,21.6874659 L8.19064114,21.7205213 C8.23160824,21.7133657 8.27294572,21.7072875 8.3146233,21.7023171 C8.38705248,21.7090697 8.46043985,21.712522 8.53463353,21.712522 C8.62895749,21.712522 8.72197823,21.7069423 8.81338371,21.6960949 Z"/>
      </g>
      <g fill="#3876CF" transform="translate(17.694 6.008)">
        <polygon points="0 .787 28.314 .787 14.215 12.329"/>
        <polygon points="0 1.841 11.238 11.109 0 19"/>
        <polygon points="17.494 11.023 28.259 2.167 28.259 19.208"/>
        <polygon points="12.081 11.807 14.359 13.664 16.689 11.699 28.272 20.299 0 20.299"/>
      </g>
    </g>
    <path fill="#CDCCCD" d="M27.3070415,72.0261419 C28.0353785,72.0261419 28.6307059,71.7379781 29.0930415,71.1616419 L30.0430415,72.1401419 C29.2893711,72.9888128 28.40113,73.4131419 27.3782915,73.4131419 C26.3554531,73.4131419 25.5131281,73.0901451 24.8512915,72.4441419 C24.1894549,71.7981386 23.8585415,70.9827301 23.8585415,69.9978919 C23.8585415,69.0130536 24.1957881,68.1913118 24.8702915,67.5326419 C25.5447949,66.8739719 26.3697033,66.5446419 27.3450415,66.5446419 C28.4343803,66.5446419 29.3463712,66.9594711 30.0810415,67.7891419 L29.1595415,68.8341419 C28.6908725,68.2514723 28.1082117,67.9601419 27.4115415,67.9601419 C26.8542054,67.9601419 26.3776268,68.1422234 25.9817915,68.5063919 C25.5859562,68.8705604 25.3880415,69.3613888 25.3880415,69.9788919 C25.3880415,70.596395 25.574873,71.0919733 25.9485415,71.4656419 C26.32221,71.8393104 26.7750388,72.0261419 27.3070415,72.0261419 Z M36.1515415,69.9836419 C36.1515415,69.3883056 35.9615434,68.881644 35.5815415,68.4636419 C35.2015396,68.0456398 34.7344609,67.8366419 34.1802915,67.8366419 C33.6261221,67.8366419 33.1590434,68.0456398 32.7790415,68.4636419 C32.3990396,68.881644 32.2090415,69.3867222 32.2090415,69.9788919 C32.2090415,70.5710615 32.3990396,71.0745565 32.7790415,71.4893919 C33.1590434,71.9042273 33.6261221,72.1116419 34.1802915,72.1116419 C34.7344609,72.1116419 35.2015396,71.9042273 35.5815415,71.4893919 C35.9615434,71.0745565 36.1515415,70.5726448 36.1515415,69.9836419 Z M36.6550415,72.4251419 C35.9837048,73.0774785 35.1572131,73.4036419 34.1755415,73.4036419 C33.1938699,73.4036419 32.3673782,73.0758952 31.6960415,72.4203919 C31.0247048,71.7648886 30.6890415,70.9494801 30.6890415,69.9741419 C30.6890415,68.9988037 31.0247048,68.1833952 31.6960415,67.5278919 C32.3673782,66.8723886 33.1938699,66.5446419 34.1755415,66.5446419 C35.1572131,66.5446419 35.9837048,66.8723886 36.6550415,67.5278919 C37.3263782,68.1833952 37.6620415,68.9988037 37.6620415,69.9741419 C37.6620415,70.9494801 37.3263782,71.7664719 36.6550415,72.4251419 Z M43.5615415,66.6966419 L45.0435415,66.6966419 L45.0435415,73.3371419 L43.5615415,73.3371419 L40.3980415,69.1761419 L40.3980415,73.3371419 L38.9160415,73.3371419 L38.9160415,66.6966419 L40.3030415,66.6966419 L43.5615415,70.9716419 L43.5615415,66.6966419 Z M49.4895415,67.9791419 L49.4895415,73.3371419 L48.0075415,73.3371419 L48.0075415,67.9791419 L46.1265415,67.9791419 L46.1265415,66.6966419 L51.3705415,66.6966419 L51.3705415,67.9791419 L49.4895415,67.9791419 Z M56.7000415,73.3371419 L56.0825415,71.9026419 L53.2990415,71.9026419 L52.6815415,73.3371419 L51.1045415,73.3371419 L53.9735415,66.6966419 L55.4080415,66.6966419 L58.2770415,73.3371419 L56.7000415,73.3371419 Z M54.6955415,68.6726419 L53.8595415,70.6011419 L55.5220415,70.6011419 L54.6955415,68.6726419 Z M62.0960415,72.0261419 C62.8243785,72.0261419 63.4197059,71.7379781 63.8820415,71.1616419 L64.8320415,72.1401419 C64.0783711,72.9888128 63.19013,73.4131419 62.1672915,73.4131419 C61.1444531,73.4131419 60.3021281,73.0901451 59.6402915,72.4441419 C58.9784549,71.7981386 58.6475415,70.9827301 58.6475415,69.9978919 C58.6475415,69.0130536 58.9847881,68.1913118 59.6592915,67.5326419 C60.3337949,66.8739719 61.1587033,66.5446419 62.1340415,66.5446419 C63.2233803,66.5446419 64.1353712,66.9594711 64.8700415,67.7891419 L63.9485415,68.8341419 C63.4798725,68.2514723 62.8972117,67.9601419 62.2005415,67.9601419 C61.6432054,67.9601419 61.1666268,68.1422234 60.7707915,68.5063919 C60.3749562,68.8705604 60.1770415,69.3613888 60.1770415,69.9788919 C60.1770415,70.596395 60.363873,71.0919733 60.7375415,71.4656419 C61.11121,71.8393104 61.5640388,72.0261419 62.0960415,72.0261419 Z M68.8125415,67.9791419 L68.8125415,73.3371419 L67.3305415,73.3371419 L67.3305415,67.9791419 L65.4495415,67.9791419 L65.4495415,66.6966419 L70.6935415,66.6966419 L70.6935415,67.9791419 L68.8125415,67.9791419 Z M76.0420415,71.6271419 C76.2890427,71.9311434 76.6215394,72.0831419 77.0395415,72.0831419 C77.4575436,72.0831419 77.788457,71.9295601 78.0322915,71.6223919 C78.2761261,71.3152237 78.3980415,70.8956445 78.3980415,70.3636419 L78.3980415,66.6966419 L79.8800415,66.6966419 L79.8800415,70.4111419 C79.8800415,71.3738134 79.6140442,72.1132226 79.0820415,72.6293919 C78.5500388,73.1455611 77.8692123,73.4036419 77.0395415,73.4036419 C76.2098707,73.4036419 75.5274608,73.1439778 74.9922915,72.6246419 C74.4571222,72.1053059 74.1895415,71.36748 74.1895415,70.4111419 L74.1895415,66.6966419 L75.6715415,66.6966419 L75.6715415,70.3636419 C75.6715415,70.8956445 75.7950403,71.316807 76.0420415,71.6271419 Z M83.5565415,67.8461419 C83.3095403,67.8461419 83.1147922,67.9047246 82.9722915,68.0218919 C82.8297908,68.1390591 82.7585415,68.2942242 82.7585415,68.4873919 C82.7585415,68.6805595 82.845624,68.8341413 83.0197915,68.9481419 C83.193959,69.0621424 83.5961217,69.1967244 84.2262915,69.3518919 C84.8564613,69.5070593 85.3457064,69.739807 85.6940415,70.0501419 C86.0423766,70.3604768 86.2165415,70.8133056 86.2165415,71.4086419 C86.2165415,72.0039782 85.9932937,72.48689 85.5467915,72.8573919 C85.1002893,73.2278937 84.5128785,73.4131419 83.7845415,73.4131419 C82.7332029,73.4131419 81.786379,73.0236458 80.9440415,72.2446419 L81.8275415,71.1616419 C82.5432117,71.788645 83.2050385,72.1021419 83.8130415,72.1021419 C84.0853762,72.1021419 84.2991241,72.0435591 84.4542915,71.9263919 C84.6094589,71.8092246 84.6870415,71.6508929 84.6870415,71.4513919 C84.6870415,71.2518909 84.604709,71.0935591 84.4400415,70.9763919 C84.275374,70.8592246 83.9492106,70.7404758 83.4615415,70.6201419 C82.688871,70.4364743 82.1236266,70.1973933 81.7657915,69.9028919 C81.4079564,69.6083904 81.2290415,69.1460617 81.2290415,68.5158919 C81.2290415,67.8857221 81.4554559,67.3996436 81.9082915,67.0576419 C82.3611271,66.7156402 82.9263714,66.5446419 83.6040415,66.5446419 C84.0473771,66.5446419 84.490706,66.6206411 84.9340415,66.7726419 C85.3773771,66.9246426 85.7637065,67.1399738 86.0930415,67.4186419 L85.3425415,68.5016419 C84.7662053,68.0646397 84.1708779,67.8461419 83.5565415,67.8461419 Z"/>
  </g>
</svg>
