<?xml version="1.0" encoding="UTF-8"?>
<svg width="122px" height="123px" viewBox="0 0 122 123" version="1.1" xmlns="http://www.w3.org/2000/svg" xmlns:xlink="http://www.w3.org/1999/xlink">
    <!-- Generator: Sketch 52.3 (67297) - http://www.bohemiancoding.com/sketch -->
    <title>Requests Copy 2</title>
    <desc>Created with Sketch.</desc>
    <g id="Page-1" stroke="none" stroke-width="1" fill="none" fill-rule="evenodd">
        <g id="Login-Page-Dark-Copy" transform="translate(-162.000000, -170.000000)">
            <g id="Requests-Copy-2" transform="translate(164.000000, 172.000000)">
                <g id="Requests" transform="translate(22.212048, 23.404948)" fill="#6D6D6D">
                    <path d="M22.7835935,44.9210355 C23.6982142,44.5632013 24.5695801,42.8944161 25.3976912,39.9146798 C25.5057939,39.5257011 26.1765248,39.489126 26.5187603,39.1278151 C26.8511226,38.7434215 26.2372109,35.716706 26.1548146,34.4803954 C26.0612886,33.0770908 23.7188228,32.1021384 23.6576239,26.8652628 C23.6454599,25.8243711 21.8577252,26.1850681 21.8546481,23.1054902 C21.8535458,22.0022246 20.7021347,19.6094638 22.4734755,18.2365916 C23.6990917,17.2866816 21.3847154,10.1608383 25.3976912,5.42025549 C26.6407034,3.9518683 29.1739892,1.53285229 35.0392367,0.917702826 C35.8086648,0.837004907 35.8002709,0.93598384 36.7220752,0.917702826 C36.7220752,11.0949466 36.7220752,52.1973987 36.7220752,70.9046863 C25.6382412,70.9046863 13.4603519,70.9046863 0.188407542,70.9046863 C0.724461527,61.3746603 2.23322158,55.6296463 4.71468771,53.6696442 C6.86723753,51.5800625 12.8902061,48.6638596 22.7835935,44.9210355 Z" id="Combined-Shape"></path>
                    <path d="M56.9756704,44.9210355 C57.8902911,44.5632013 58.761657,42.8944161 59.5897681,39.9146798 C59.6978708,39.5257011 60.3686016,39.489126 60.7108371,39.1278151 C61.0431995,38.7434215 60.4292877,35.716706 60.3468914,34.4803954 C60.2533654,33.0770908 57.9108997,32.1021384 57.8497007,26.8652628 C57.8375367,25.8243711 56.049802,26.1850681 56.046725,23.1054902 C56.0456226,22.0022246 54.8942115,19.6094638 56.6655523,18.2365916 C57.8911685,17.2866816 55.5767922,10.1608383 59.5897681,5.42025549 C60.8468072,3.93529815 63.9596626,1.56894703 70.2849383,0.971353876 C71.0348739,0.900502197 72.3749875,0.988062339 73.2174973,0.971353876 C73.2174973,11.1485976 72.672476,52.1973987 72.672476,70.9046863 C61.588642,70.9046863 48.8246448,70.9046863 34.3804844,70.9046863 C34.9165384,61.3746603 36.4252984,55.6296463 38.9067646,53.6696442 C41.0593144,51.5800625 47.082283,48.6638596 56.9756704,44.9210355 Z" id="Rectangle-41" transform="translate(53.798991, 35.923975) scale(-1, 1) translate(-53.798991, -35.923975) "></path>
                </g>
                <ellipse id="Oval-Copy-9" stroke="#FFFFFF" stroke-width="3" cx="59.1406977" cy="59.3033612" rx="59.1406977" ry="59.3033612"></ellipse>
            </g>
        </g>
    </g>
</svg>