<svg xmlns="http://www.w3.org/2000/svg" width="47" height="40" viewBox="0 0 47 40">
  <g fill="none" fill-rule="evenodd" transform="translate(-.634 -.003)">
    <path fill="#0892FF" d="M13,0 L45,0 L45,14 C45,19.5228475 40.5228475,24 35,24 L3,24 L3,10 C3,4.4771525 7.4771525,2.79088747e-15 13,1.77635684e-15 Z"/>
    <path fill="#FFFFFF" d="M21.8267765,14.0666829 C21.9964969,14.0011327 22.1581909,13.6954345 22.3118583,13.1495884 C22.3319182,13.0783329 22.4563816,13.0716329 22.5198881,13.0054458 C22.5815625,12.9350302 22.4676427,12.3805782 22.4523529,12.1541033 C22.4349979,11.8970375 22.0003211,11.7184398 21.9889648,10.7591173 C21.9867076,10.5684405 21.6549688,10.6345152 21.6543978,10.0703795 C21.6541933,9.8682766 21.4405331,9.42995621 21.7692298,9.17846519 C21.9966597,9.00445493 21.5036272,7.46744605 22.3118583,6.83069129 C23.2322455,6.10557571 23.7394926,6.07114571 24.1827541,6.07114571 C24.1827541,7.93547472 24.4132537,15.3996111 24.4132537,18.8265251 C22.3564956,18.8265251 20.0967206,18.8265251 17.6339286,18.8265251 C17.7334008,17.0807573 18.013372,16.0283509 18.4738422,15.6693059 C18.8732774,15.2865237 19.9909222,14.752316 21.8267765,14.0666829 Z"/>
    <path fill="#FFFFFF" d="M26.6478232,14.0561141 C26.4781027,13.9905639 26.3164088,13.6848657 26.1627414,13.1390196 C26.1426814,13.0677641 26.0182181,13.0610641 25.9547116,12.994877 C25.8930372,12.9244614 26.0069569,12.3700094 26.0222467,12.1435345 C26.0396018,11.8864687 26.4742785,11.707871 26.4856348,10.7485485 C26.487892,10.5578717 26.8196308,10.6239463 26.8202018,10.0598107 C26.8204064,9.85770779 27.0340666,9.41938741 26.7053699,9.16789639 C26.4779399,8.99388613 26.9709241,7.48855139 26.1627414,6.82012248 C25.2607163,6.07407872 24.4770784,6.07407872 24.2355444,6.07407872 C23.9368923,6.07407872 23.8218256,6.16911616 23.6217579,6.1820952 C23.6217579,8.04642421 23.7350648,15.3890423 23.7350648,18.8159563 C25.7918228,18.8159563 28.1603582,18.8159563 30.8406711,18.8159563 C30.7411989,17.0701885 30.4612277,16.0177821 30.0007575,15.6587371 C29.6013222,15.2759549 28.4836775,14.7417472 26.6478232,14.0561141 Z"/>
    <path fill="#123E7A" d="M1.62758092,37.0027473 L1.62758092,29.0535285 L4.60316685,29.0535285 C6.21808378,29.0535285 7.02553013,29.7105857 7.02553013,31.0247199 C7.02553013,31.5152823 6.88856861,31.9619738 6.61464146,32.3648078 C6.34071431,32.7676418 5.96384634,33.0764766 5.48402623,33.2913215 L8.0836356,37.0027473 L6.06947545,37.0027473 L4.09828404,33.7532355 L3.1851981,33.7532355 L3.1851981,37.0027473 L1.62758092,37.0027473 Z M3.1851981,32.6629035 L3.56654576,32.6629035 C4.76609603,32.6629035 5.36586217,32.1777196 5.36586217,31.2073371 C5.36586217,30.4983492 4.83054851,30.1438605 3.75990513,30.1438605 L3.1851981,30.1438605 L3.1851981,32.6629035 Z M14.0186942,36.8040168 C13.2631566,37.0260231 12.5470179,37.1370246 11.8702567,37.1370246 C10.8855513,37.1370246 10.1085408,36.8577305 9.53920201,36.299134 C8.96986322,35.7405374 8.6851981,34.9778497 8.6851981,34.011048 C8.6851981,33.0979575 8.94569354,32.3630202 9.46669224,31.806214 C9.98769094,31.2494079 10.6760792,30.971009 11.5318778,30.971009 C12.3948378,30.971009 13.0250399,31.2431417 13.4225028,31.7874152 C13.8199657,32.3316888 14.0186942,33.1928455 14.0186942,34.3709113 L10.3609794,34.3709113 C10.4684018,35.4952659 11.0860714,36.0574348 12.2140067,36.0574348 C12.747538,36.0574348 13.3490945,35.9339008 14.0186942,35.6868293 L14.0186942,36.8040168 Z M10.339495,33.4739387 L12.4557059,33.4739387 C12.4557059,32.4677487 12.1316532,31.9646613 11.4835379,31.9646613 C10.8246805,31.9646613 10.4433366,32.4677487 10.339495,33.4739387 Z M15.7052176,38.8342902 L15.8341239,37.6795051 C16.4894006,37.9802878 17.1142316,38.1306769 17.7086356,38.1306769 C18.2958781,38.1306769 18.7201903,38.0053527 18.9815848,37.7547004 C19.2429794,37.5040481 19.3736747,37.0976394 19.3736747,36.5354621 L19.3736747,35.729798 C18.986954,36.5784351 18.3478002,37.0027473 17.4561942,37.0027473 C16.7543678,37.0027473 16.19757,36.7404615 15.785784,36.215882 C15.3739981,35.6913026 15.1681083,34.9814301 15.1681083,34.0862433 C15.1681083,33.1445069 15.399063,32.3898757 15.8609794,31.8223273 C16.3228957,31.2547789 16.9369846,30.971009 17.7032645,30.971009 C18.30483,30.971009 18.8616278,31.2144961 19.3736747,31.7014777 L19.5401786,31.1052863 L20.9688895,31.1052863 L20.9688895,35.6062629 C20.9688895,36.5050304 20.9142839,37.1531359 20.8050711,37.5505988 C20.6958584,37.9480617 20.4837023,38.2864373 20.1685965,38.5657355 C19.638646,39.0240712 18.8920714,39.2532355 17.9288504,39.2532355 C17.2449278,39.2532355 16.5037242,39.1135885 15.7052176,38.8342902 Z M19.3736747,34.8059699 L19.3736747,32.6306769 C18.9905347,32.1974065 18.5894971,31.9807746 18.1705497,31.9807746 C17.769506,31.9807746 17.4508243,32.16339 17.214495,32.5286262 C16.9781657,32.8938624 16.8600028,33.3844174 16.8600028,34.0003058 C16.8600028,35.1533064 17.2306046,35.729798 17.9718192,35.729798 C18.483866,35.729798 18.9511465,35.4218584 19.3736747,34.8059699 Z M22.9185965,37.0027473 L22.9185965,31.1052863 L24.5084403,31.1052863 L24.5084403,37.0027473 L22.9185965,37.0027473 Z M22.9185965,30.111634 L22.9185965,28.7849738 L24.5084403,28.7849738 L24.5084403,30.111634 L22.9185965,30.111634 Z M26.3399833,36.814759 L26.3399833,35.6492316 C27.1277476,35.9786604 27.800918,36.1433723 28.3595145,36.1433723 C29.0112105,36.1433723 29.3370536,35.9213693 29.3370536,35.4773566 C29.3370536,35.1908969 29.0685016,34.9402483 28.5313895,34.7254035 L27.9942801,34.5105598 C27.4106184,34.2742304 26.9934676,34.0200012 26.7428153,33.7478644 C26.492163,33.4757277 26.3668387,33.1391425 26.3668387,32.7380988 C26.3668387,32.1795023 26.57989,31.7453432 27.0059989,31.4356086 C27.4321078,31.125874 28.0282932,30.971009 28.7945731,30.971009 C29.2743932,30.971009 29.8455138,31.0408325 30.507952,31.1804816 L30.507952,32.2976691 C29.870579,32.0756628 29.3424268,31.9646613 28.9234794,31.9646613 C28.2646219,31.9646613 27.9351981,32.1687608 27.9351981,32.576966 C27.9351981,32.845522 28.1786853,33.0728961 28.6656669,33.2590949 L29.1275809,33.436341 C29.8186651,33.6977355 30.2993732,33.9627068 30.5697196,34.2312629 C30.840066,34.4998189 30.9752372,34.8453558 30.9752372,35.267884 C30.9752372,35.8228998 30.7451776,36.273172 30.2850516,36.618714 C29.8249256,36.9642561 29.2260547,37.1370246 28.4884208,37.1370246 C27.7794328,37.1370246 27.0632942,37.0296038 26.3399833,36.814759 Z M35.7555106,36.9705207 C35.3759514,37.0815238 35.0769635,37.1370246 34.8585379,37.1370246 C33.4799503,37.1370246 32.7906669,36.4924998 32.7906669,35.2034308 L32.7906669,32.0989387 L32.1300223,32.0989387 L32.1300223,31.1052863 L32.7906669,31.1052863 L32.7906669,30.111634 L34.3805106,29.9290168 L34.3805106,31.1052863 L35.6427176,31.1052863 L35.6427176,32.0989387 L34.3805106,32.0989387 L34.3805106,34.9939582 C34.3805106,35.7172691 34.6759178,36.0789191 35.2667411,36.0789191 C35.4028095,36.0789191 35.565731,36.0538543 35.7555106,36.0037238 L35.7555106,36.9705207 Z M41.9752372,36.8040168 C41.2196995,37.0260231 40.5035609,37.1370246 39.8267997,37.1370246 C38.8420942,37.1370246 38.0650838,36.8577305 37.495745,36.299134 C36.9264062,35.7405374 36.6417411,34.9778497 36.6417411,34.011048 C36.6417411,33.0979575 36.9022365,32.3630202 37.4232352,31.806214 C37.9442339,31.2494079 38.6326222,30.971009 39.4884208,30.971009 C40.3513808,30.971009 40.9815828,31.2431417 41.3790458,31.7874152 C41.7765087,32.3316888 41.9752372,33.1928455 41.9752372,34.3709113 L38.3175223,34.3709113 C38.4249447,35.4952659 39.0426143,36.0574348 40.1705497,36.0574348 C40.704081,36.0574348 41.3056375,35.9339008 41.9752372,35.6868293 L41.9752372,36.8040168 Z M38.2960379,33.4739387 L40.4122489,33.4739387 C40.4122489,32.4677487 40.0881961,31.9646613 39.4400809,31.9646613 C38.7812235,31.9646613 38.3998796,32.4677487 38.2960379,33.4739387 Z M43.6187919,37.0027473 L43.6187919,31.1052863 L45.2086356,31.1052863 L45.2086356,32.2171027 C45.6204215,31.3863694 46.2470429,30.971009 47.0885184,30.971009 C47.1887793,30.971009 47.2872484,30.9817511 47.3839286,31.0032355 L47.3839286,32.4212043 C47.1583415,32.3388471 46.9488709,32.2976691 46.7555106,32.2976691 C46.1217184,32.2976691 45.6060985,32.6181412 45.2086356,33.2590949 L45.2086356,37.0027473 L43.6187919,37.0027473 Z"/>
  </g>
</svg>
