<svg xmlns="http://www.w3.org/2000/svg" width="42" height="40" viewBox="0 0 42 40">
  <g fill="none" fill-rule="evenodd" transform="translate(-1)">
    <path fill="#123E7A" d="M6.421 30.642C6.13499857 30.642 5.90950083 30.7098327 5.7445 30.8455 5.57949918 30.9811673 5.497 31.1608322 5.497 31.3845 5.497 31.6081678 5.59783232 31.7859993 5.7995 31.918 6.00116767 32.0500007 6.46682968 32.2058324 7.1965 32.3855 7.92617031 32.5651676 8.49266465 32.8346649 8.896 33.194 9.29933535 33.5533351 9.501 34.0776632 9.501 34.767 9.501 35.4563368 9.24250259 36.0154979 8.7255 36.4445 8.20849742 36.8735021 7.52833755 37.088 6.685 37.088 5.46766058 37.088 4.37133821 36.6370045 3.396 35.735L4.419 34.481C5.24767081 35.2070036 6.01399648 35.57 6.718 35.57 7.03333491 35.57 7.28083243 35.5021673 7.4605 35.3665 7.64016756 35.2308327 7.73 35.0475012 7.73 34.8165 7.73 34.5854988 7.63466762 34.4021673 7.444 34.2665 7.25333238 34.1308327 6.87566949 33.993334 6.311 33.854 5.41632886 33.6413323 4.7618354 33.3645017 4.3475 33.0235 3.9331646 32.6824983 3.726 32.1471703 3.726 31.4175 3.726 30.6878297 3.98816404 30.125002 4.5125 29.729 5.03683595 29.332998 5.69132941 29.135 6.476 29.135 6.9893359 29.135 7.5026641 29.2229991 8.016 29.399 8.5293359 29.5750009 8.97666476 29.8243317 9.358 30.147L8.489 31.401C7.82166333 30.8949975 7.13233689 30.642 6.421 30.642zM12.449 37L10.799 37 10.799 31.082 12.449 31.082 12.449 37zM10.931 30.334C10.7476657 30.1433324 10.656 29.9123347 10.656 29.641 10.656 29.3696653 10.7494991 29.1405009 10.9365 28.9535 11.1235009 28.7664991 11.3526653 28.673 11.624 28.673 11.8953347 28.673 12.1244991 28.7664991 12.3115 28.9535 12.4985009 29.1405009 12.592 29.3696653 12.592 29.641 12.592 29.9123347 12.4985009 30.1414991 12.3115 30.3285 12.1244991 30.5155009 11.8953347 30.609 11.624 30.609 11.3526653 30.609 11.1216676 30.5173342 10.931 30.334zM18.158 33.92C18.158 33.443331 18.0260013 33.0693347 17.762 32.798 17.4979987 32.5266653 17.1716686 32.391 16.783 32.391 16.3943314 32.391 16.0588347 32.5266653 15.7765 32.798 15.4941653 33.0693347 15.353 33.4396643 15.353 33.909 15.353 34.3783357 15.4904986 34.7578319 15.7655 35.0475 16.0405014 35.3371681 16.375998 35.482 16.772 35.482 17.168002 35.482 17.4979987 35.3390014 17.762 35.053 18.0260013 34.7669986 18.158 34.3893357 18.158 33.92zM18.389 35.999C17.8683307 36.5783362 17.2211705 36.868 16.4475 36.868 15.6738295 36.868 15.0211693 36.605836 14.4895 36.0815 13.9578307 35.557164 13.692 34.8568377 13.692 33.9805 13.692 33.1041623 13.9651639 32.3855028 14.5115 31.8245 15.0578361 31.2634972 15.6829965 30.983 16.387 30.983 17.0910035 30.983 17.6739977 31.2726638 18.136 31.852L18.136 31.071 19.786 31.071 19.786 36.23C19.786 36.7580026 19.6943343 37.2273313 19.511 37.638 19.3276658 38.0486687 19.0820015 38.3713322 18.774 38.606 18.1653303 39.0900024 17.4466708 39.332 16.618 39.332 16.1779978 39.332 15.7288356 39.2605007 15.2705 39.1175 14.8121644 38.9744993 14.4106684 38.7710013 14.066 38.507L14.704 37.264C15.2466694 37.6746687 15.820497 37.88 16.4255 37.88 17.030503 37.88 17.5089982 37.7296682 17.861 37.429 18.2130018 37.1283318 18.389 36.6516699 18.389 35.999zM22.998 33.7L22.998 37 21.348 37 21.348 31.082 22.998 31.082 22.998 31.742C23.4966692 31.2359975 24.0576636 30.983 24.681 30.983 25.3043365 30.983 25.8268312 31.2029978 26.2485 31.643 26.6701688 32.0830022 26.881 32.669663 26.881 33.403L26.881 37 25.231 37 25.231 33.656C25.231 32.7466621 24.8973367 32.292 24.23 32.292 23.8999984 32.292 23.6121679 32.4111655 23.3665 32.6495 23.1208321 32.8878345 22.998 33.2379977 22.998 33.7zM32.931 37L31.281 37 31.281 31.082 32.931 31.082 32.931 37zM31.413 30.334C31.2296658 30.1433324 31.138 29.9123347 31.138 29.641 31.138 29.3696653 31.2314991 29.1405009 31.4185 28.9535 31.6055009 28.7664991 31.8346653 28.673 32.106 28.673 32.3773347 28.673 32.6064991 28.7664991 32.7935 28.9535 32.9805009 29.1405009 33.074 29.3696653 33.074 29.641 33.074 29.9123347 32.9805009 30.1414991 32.7935 30.3285 32.6064991 30.5155009 32.3773347 30.609 32.106 30.609 31.8346653 30.609 31.6036676 30.5173342 31.413 30.334zM36.143 33.7L36.143 37 34.493 37 34.493 31.082 36.143 31.082 36.143 31.742C36.6416692 31.2359975 37.2026635 30.983 37.826 30.983 38.4493364 30.983 38.9718312 31.2029978 39.3935 31.643 39.8151688 32.0830022 40.026 32.669663 40.026 33.403L40.026 37 38.376 37 38.376 33.656C38.376 32.7466621 38.0423367 32.292 37.375 32.292 37.0449984 32.292 36.7571679 32.4111655 36.5115 32.6495 36.2658321 32.8878345 36.143 33.2379977 36.143 33.7zM11 0L43 0 43 14C43 19.5228475 38.5228475 24 33 24L1 24 1 10C1 4.4771525 5.4771525.79088747e-15 11 .77635684e-15z"/>
    <path fill="#FFFFFF" d="M4.51693851,5.53397707 L5.77989156,10.45208 C6.05462741,11.521937 5.41005436,12.6119449 4.34019736,12.8866807 C4.17767278,12.9284165 4.01054194,12.9495332 3.84274411,12.9495332 L2.7242772,12.9495332 C1.6197077,12.9495332 0.724277196,12.0541027 0.724277196,10.9495332 C0.724277196,10.7817354 0.745393952,10.6146046 0.787129741,10.45208 L2.04276434,5.56247609 C1.05804805,5.10632602 0.375,4.10926172 0.375,2.952663 C0.375,1.36501947 1.66203937,0.0779801 3.2496829,0.0779801 L3.2503171,0.0779801 C4.83796063,0.0779801 6.125,1.36501947 6.125,2.952663 C6.125,4.08573925 5.46945258,5.06570419 4.51693851,5.53397707 Z" transform="translate(19 6)"/>
  </g>
</svg>
