<svg xmlns="http://www.w3.org/2000/svg" width="47" height="41" viewBox="0 0 47 41">
  <g fill="none" fill-rule="evenodd" transform="translate(0 1)">
    <path fill="#0892FF" stroke="#008EFF" stroke-width="2" d="M8.63482575,23 C4.41822792,23 1,19.8744505 1,16.0188898 C1,12.5307913 3.79771445,9.64018465 7.45323457,9.12087793 C8.02116949,5.77835385 11.1824544,3.22018768 14.9971805,3.22018768 C16.217894,3.22018768 17.371695,3.48214438 18.3950164,3.94793347 C20.0666556,1.57296081 22.9832228,0 26.3015768,0 C30.4923915,0 34.0423698,2.50881945 35.2531605,5.97352475 C40.0522673,6.32316582 43.8275862,9.99501706 43.8275862,14.4731414 C43.8275862,19.1823954 39.6524987,23 34.5022672,23 C34.4689245,23 34.4356227,22.99984 34.4023626,22.9995208 L8.63482575,23 Z"/>
    <path fill="#FFFFFF" d="M5.00629309,6.24309815 C5.00607515,6.23450838 5.00596552,6.22589168 5.00596552,6.21724939 L5.00596552,1.34373509 C5.00596552,0.791450337 5.45368077,0.343735087 6.00596552,0.343735087 L9.29730629,0.343735087 C9.84959104,0.343735087 10.2973063,0.791450337 10.2973063,1.34373509 L10.2973063,6.21724939 C10.2973063,6.22589168 10.2971967,6.23450838 10.2969787,6.24309815 L11.3561145,6.24309815 C11.6231933,6.24309815 11.8791745,6.34993561 12.0670104,6.53980088 C12.4554307,6.93241784 12.4520287,7.56557367 12.0594117,7.95399403 L8.39465013,11.5795838 C8.00501322,11.965056 7.37769249,11.965056 6.98805559,11.5795838 L3.32329398,7.95399403 C3.13342871,7.76615819 3.02659125,7.51017702 3.02659125,7.24309815 C3.02659125,6.6908134 3.4743065,6.24309815 4.02659125,6.24309815 L5.00629309,6.24309815 Z M1.32352941,12.8378188 L13.6764706,12.8378188 C14.1312933,12.8378188 14.5,13.2065254 14.5,13.6613482 C14.5,14.1161709 14.1312933,14.4848776 13.6764706,14.4848776 L1.32352941,14.4848776 C0.868706677,14.4848776 0.5,14.1161709 0.5,13.6613482 C0.5,13.2065254 0.868706677,12.8378188 1.32352941,12.8378188 Z" transform="translate(16 5)"/>
    <path fill="#123E7A" d="M4.202,30.796 L4.202,37 L2.486,37 L2.486,30.796 L0.308,30.796 L0.308,29.311 L6.38,29.311 L6.38,30.796 L4.202,30.796 Z M10.582,32.534 C10.0906642,32.534 9.72400121,32.7081649 9.482,33.0565 C9.23999879,33.4048351 9.119,33.8649971 9.119,34.437 L9.119,37 L7.469,37 L7.469,31.082 L9.119,31.082 L9.119,31.863 C9.33166773,31.6209988 9.5974984,31.4156675 9.9165,31.247 C10.2355016,31.0783325 10.5599984,30.9903334 10.89,30.983 L10.901,32.534 L10.582,32.534 Z M13.013,39.332 C12.4336638,39.332 11.8873359,39.0973357 11.374,38.628 L12.122,37.407 C12.4006681,37.6783347 12.6866652,37.814 12.98,37.814 C13.1340008,37.814 13.2659994,37.7388341 13.376,37.5885 C13.4860005,37.4381659 13.541,37.2786675 13.541,37.11 C13.541,36.9413325 12.778341,34.9320192 11.253,31.082 L13.013,31.082 L14.454,34.767 L15.895,31.082 L17.655,31.082 L14.905,38.056 C14.7436659,38.4593354 14.4925017,38.7728322 14.1515,38.9965 C13.8104983,39.2201678 13.4310021,39.332 13.013,39.332 Z M26.928,29.311 L28.644,29.311 L28.644,37 L26.928,37 L23.265,32.182 L23.265,37 L21.549,37 L21.549,29.311 L23.155,29.311 L26.928,34.261 L26.928,29.311 Z M31.691,34.041 C31.691,34.5250024 31.8284986,34.9191651 32.1035,35.2235 C32.3785014,35.5278349 32.7304979,35.68 33.1595,35.68 C33.5885021,35.68 33.9404986,35.5278349 34.2155,35.2235 C34.4905014,34.9191651 34.628,34.5250024 34.628,34.041 C34.628,33.5569976 34.4905014,33.1610015 34.2155,32.853 C33.9404986,32.5449985 33.5885021,32.391 33.1595,32.391 C32.7304979,32.391 32.3785014,32.5449985 32.1035,32.853 C31.8284986,33.1610015 31.691,33.5569976 31.691,34.041 Z M36.289,34.041 C36.289,34.8990043 35.992003,35.6213304 35.398,36.208 C34.803997,36.7946696 34.0578378,37.088 33.1595,37.088 C32.2611622,37.088 31.515003,36.7946696 30.921,36.208 C30.326997,35.6213304 30.03,34.8990043 30.03,34.041 C30.03,33.1829957 30.326997,32.4588363 30.921,31.8685 C31.515003,31.2781637 32.2611622,30.983 33.1595,30.983 C34.0578378,30.983 34.803997,31.2781637 35.398,31.8685 C35.992003,32.4588363 36.289,33.1829957 36.289,34.041 Z M40.48,37 L38.775,37 L36.762,31.082 L38.467,31.082 L39.622,34.657 L40.777,31.082 L42.372,31.082 L43.527,34.657 L44.682,31.082 L46.398,31.082 L44.385,37 L42.669,37 L41.58,33.777 L40.48,37 Z"/>
  </g>
</svg>
